G04*
G04 #@! TF.GenerationSoftware,Altium Limited,Altium Designer,19.0.4 (130)*
G04*
G04 Layer_Color=32896*
%FSLAX25Y25*%
%MOIN*%
G70*
G01*
G75*
%ADD105C,0.00394*%
%ADD106C,0.00197*%
D105*
X-106087Y-225076D02*
Y-221139D01*
X-108056Y-223107D02*
X-104119D01*
X-183932Y-211440D02*
X-179994D01*
X-181963Y-213409D02*
X-181963Y-209472D01*
X-182332Y-190940D02*
Y-187003D01*
X-184300Y-188972D02*
X-180363D01*
X-182750Y-163015D02*
X-178813D01*
X-180781Y-164984D02*
X-180781Y-161047D01*
X-47049Y-272000D02*
X-43112Y-272000D01*
X-45081Y-273969D02*
Y-270031D01*
X-167400Y-110869D02*
Y-106931D01*
X-169369Y-108900D02*
X-165431D01*
X-86806Y-108406D02*
X-82869D01*
X-84838Y-110375D02*
Y-106438D01*
X-32373Y-102357D02*
Y-98421D01*
X-34342Y-100389D02*
X-30405D01*
D106*
X-116225Y-212969D02*
X-95949D01*
X-116225Y-233245D02*
X-95949D01*
X-116225D02*
Y-212969D01*
X-95949Y-233245D02*
Y-212969D01*
X-194365Y-218330D02*
X-194365Y-204551D01*
X-169561Y-218330D02*
Y-204551D01*
X-194365Y-204551D02*
X-169561Y-204551D01*
X-194365Y-218330D02*
X-169561D01*
X-194733Y-195861D02*
X-169930D01*
X-194733Y-182082D02*
X-169930D01*
Y-195861D02*
Y-182082D01*
X-194733D02*
X-194733Y-195861D01*
X-193183Y-169905D02*
X-193183Y-156125D01*
X-168380Y-169905D02*
Y-156125D01*
X-193183Y-156125D02*
X-168380Y-156125D01*
X-193183Y-169905D02*
X-168380D01*
X-30514Y-283024D02*
Y-260976D01*
X-59648Y-283024D02*
Y-260976D01*
Y-283024D02*
X-30514D01*
X-59648Y-260976D02*
X-30514D01*
X-185904Y-87247D02*
X-148896D01*
X-185904Y-130554D02*
X-148896D01*
X-185904Y-87247D02*
X-185904Y-130554D01*
X-148896D02*
Y-87247D01*
X-111019Y-134587D02*
Y-82225D01*
X-58657Y-134587D02*
Y-82225D01*
X-111019D02*
X-58657D01*
X-111019Y-134587D02*
X-58657D01*
X-41232Y-93302D02*
X-23515D01*
X-41232Y-107476D02*
X-23515D01*
X-41232D02*
Y-93302D01*
X-23515Y-107476D02*
Y-93302D01*
M02*
