G04*
G04 #@! TF.GenerationSoftware,Altium Limited,Altium Designer,19.0.4 (130)*
G04*
G04 Layer_Color=32896*
%FSLAX25Y25*%
%MOIN*%
G70*
G01*
G75*
%ADD10C,0.00787*%
%ADD12C,0.01000*%
%ADD14C,0.00600*%
%ADD103C,0.01181*%
%ADD104C,0.00800*%
D10*
X-301464Y-113446D02*
X-300598Y-114312D01*
X-297802D02*
X-296936Y-113446D01*
X-300598Y-106635D02*
X-301464Y-107501D01*
X-296936D02*
X-297802Y-106635D01*
X-241632Y-72101D02*
X-242498Y-71235D01*
X-245294D02*
X-246160Y-72101D01*
X-242498Y-78912D02*
X-241632Y-78046D01*
X-246160D02*
X-245294Y-78912D01*
X-241636Y-143654D02*
X-242502Y-142788D01*
X-245298D02*
X-246164Y-143654D01*
X-242502Y-150465D02*
X-241636Y-149599D01*
X-246164D02*
X-245298Y-150465D01*
X-99340Y-119203D02*
X-98474Y-118337D01*
X-98474Y-112392D02*
X-99340Y-111526D01*
X-103001Y-118337D02*
X-102135Y-119203D01*
X-102135Y-111526D02*
X-103001Y-112392D01*
X-94813Y-119203D02*
X-93946Y-118337D01*
X-93946Y-112392D02*
X-94813Y-111526D01*
X-98474Y-118337D02*
X-97608Y-119203D01*
X-97608Y-111526D02*
X-98474Y-112392D01*
X-90261Y-119203D02*
X-89395Y-118337D01*
X-89395Y-112392D02*
X-90261Y-111526D01*
X-93923Y-118337D02*
X-93057Y-119203D01*
X-93057Y-111526D02*
X-93923Y-112392D01*
X-85740Y-119203D02*
X-84874Y-118337D01*
X-84874Y-112392D02*
X-85740Y-111526D01*
X-89402Y-118337D02*
X-88535Y-119203D01*
X-88535Y-111526D02*
X-89402Y-112392D01*
X-95199Y-100109D02*
X-96065Y-99243D01*
X-102010Y-99243D02*
X-102876Y-100109D01*
X-96065Y-103770D02*
X-95199Y-102904D01*
X-102876Y-102904D02*
X-102010Y-103770D01*
X-95172Y-95609D02*
X-96039Y-94743D01*
X-101983Y-94743D02*
X-102850Y-95609D01*
X-96039Y-99270D02*
X-95172Y-98404D01*
X-102850Y-98404D02*
X-101983Y-99270D01*
X-95199Y-91109D02*
X-96065Y-90242D01*
X-102010Y-90243D02*
X-102876Y-91109D01*
X-96065Y-94770D02*
X-95199Y-93904D01*
X-102876Y-93904D02*
X-102010Y-94770D01*
X-70846Y-126564D02*
X-69980Y-125698D01*
Y-122902D02*
X-70846Y-122036D01*
X-77657Y-125698D02*
X-76790Y-126564D01*
Y-122036D02*
X-77657Y-122902D01*
X-66706Y-118302D02*
X-67572Y-117436D01*
X-73517Y-117436D02*
X-74383Y-118302D01*
X-67572Y-121964D02*
X-66706Y-121098D01*
X-74383Y-121098D02*
X-73517Y-121964D01*
X-66706Y-113775D02*
X-67572Y-112909D01*
X-73517Y-112909D02*
X-74383Y-113775D01*
X-67572Y-117436D02*
X-66706Y-116570D01*
X-74383Y-116570D02*
X-73517Y-117436D01*
X-72190Y-98445D02*
X-71324Y-97579D01*
X-71324Y-91634D02*
X-72190Y-90768D01*
X-75851Y-97579D02*
X-74985Y-98445D01*
X-74985Y-90768D02*
X-75851Y-91634D01*
X-67640Y-98445D02*
X-66774Y-97579D01*
X-66774Y-91634D02*
X-67640Y-90768D01*
X-71302Y-97579D02*
X-70435Y-98445D01*
X-70435Y-90768D02*
X-71302Y-91634D01*
X-4025Y-210906D02*
X-4486Y-209793D01*
X-5600Y-209331D01*
X-10600Y-209331D02*
X-11714Y-209793D01*
X-12175Y-210906D01*
X-12175Y-221694D02*
X-11714Y-222807D01*
X-10600Y-223269D01*
X-5600Y-223269D02*
X-4486Y-222807D01*
X-4025Y-221694D01*
X-65780Y-25673D02*
X-64914Y-26539D01*
X-62119D02*
X-61252Y-25673D01*
X-64914Y-18862D02*
X-65780Y-19728D01*
X-61252D02*
X-62119Y-18862D01*
X-81380Y-25673D02*
X-80514Y-26539D01*
X-77719D02*
X-76853Y-25673D01*
X-80514Y-18862D02*
X-81380Y-19728D01*
X-76853D02*
X-77719Y-18862D01*
X-96964Y-25673D02*
X-96097Y-26539D01*
X-93302D02*
X-92436Y-25673D01*
X-96097Y-18862D02*
X-96964Y-19728D01*
X-92436D02*
X-93302Y-18862D01*
X-260964Y-74718D02*
X-260098Y-75584D01*
X-257302D02*
X-256436Y-74718D01*
X-260098Y-67907D02*
X-260964Y-68773D01*
X-256436D02*
X-257302Y-67907D01*
X-261160Y-146304D02*
X-260294Y-147170D01*
X-257498D02*
X-256632Y-146304D01*
X-260294Y-139493D02*
X-261160Y-140359D01*
X-256632D02*
X-257498Y-139493D01*
X-316364Y-109999D02*
X-315498Y-110865D01*
X-312702D02*
X-311836Y-109999D01*
X-315498Y-103188D02*
X-316364Y-104054D01*
X-311836D02*
X-312702Y-103188D01*
X-300598Y-114312D02*
X-297802D01*
X-301464Y-113426D02*
Y-111654D01*
X-296936Y-113426D02*
Y-111654D01*
X-301464Y-109292D02*
Y-107520D01*
X-296936Y-109292D02*
Y-107520D01*
X-300598Y-106635D02*
X-297802D01*
X-245294Y-71235D02*
X-242498D01*
X-241632Y-73892D02*
Y-72120D01*
X-246160Y-73892D02*
X-246160Y-72120D01*
X-241632Y-78026D02*
Y-76254D01*
X-246160Y-78026D02*
Y-76254D01*
X-245294Y-78912D02*
X-242498Y-78912D01*
X-245298Y-142788D02*
X-242502Y-142788D01*
X-241636Y-145446D02*
Y-143674D01*
X-246164Y-145446D02*
X-246164Y-143674D01*
X-241636Y-147808D02*
X-241636Y-149580D01*
X-246164D02*
Y-147808D01*
X-245298Y-150465D02*
X-242502Y-150465D01*
X-98474Y-118317D02*
Y-116546D01*
X-102135Y-119203D02*
X-99340D01*
X-98474Y-114183D02*
Y-112412D01*
X-102135Y-111526D02*
X-99340D01*
X-103001Y-118317D02*
Y-116546D01*
X-103001Y-114183D02*
Y-112412D01*
X-93946Y-118317D02*
Y-116546D01*
X-97608Y-119203D02*
X-94813D01*
X-93946Y-114183D02*
Y-112412D01*
X-97608Y-111526D02*
X-94813D01*
X-98474Y-118317D02*
Y-116546D01*
X-98474Y-114183D02*
Y-112412D01*
X-89395Y-118317D02*
Y-116546D01*
X-93057Y-119203D02*
X-90261D01*
X-89395Y-114183D02*
Y-112412D01*
X-93057Y-111526D02*
X-90261D01*
X-93923Y-118317D02*
Y-116546D01*
X-93923Y-114183D02*
Y-112412D01*
X-84874Y-118317D02*
Y-116546D01*
X-88535Y-119203D02*
X-85740D01*
X-84874Y-114183D02*
Y-112412D01*
X-88535Y-111526D02*
X-85740D01*
X-89402Y-118317D02*
Y-116546D01*
X-89402Y-114183D02*
Y-112412D01*
X-97857Y-99243D02*
X-96085Y-99243D01*
X-95199Y-100109D02*
X-95199Y-102904D01*
X-101990Y-99243D02*
X-100219D01*
X-102876Y-102904D02*
X-102876Y-100109D01*
X-97857Y-103770D02*
X-96085D01*
X-101990Y-103770D02*
X-100219Y-103770D01*
X-97830Y-94743D02*
X-96058Y-94743D01*
X-95173Y-98404D02*
Y-95609D01*
X-101964Y-94743D02*
X-100192D01*
X-102850Y-95609D02*
X-102850Y-98404D01*
X-97830Y-99270D02*
X-96058Y-99270D01*
X-101964Y-99270D02*
X-100192D01*
X-97857Y-90243D02*
X-96085Y-90242D01*
X-95199Y-93904D02*
Y-91109D01*
X-101990Y-90243D02*
X-100219D01*
X-102876Y-91109D02*
X-102876Y-93904D01*
X-97857Y-94770D02*
X-96085Y-94770D01*
X-101991Y-94770D02*
X-100219D01*
X-95081Y-94916D02*
Y-88696D01*
X-90613D01*
X-95081Y-94916D02*
X-90613D01*
X-82995D02*
X-82995Y-88696D01*
X-87463D02*
X-82995D01*
X-87463Y-94916D02*
X-82995D01*
X-69980Y-125698D02*
Y-122902D01*
X-72637Y-126564D02*
X-70865D01*
X-72637Y-122036D02*
X-70865Y-122036D01*
X-76771Y-126564D02*
X-74999D01*
X-76771Y-122036D02*
X-74999D01*
X-77657Y-125698D02*
X-77657Y-122902D01*
X-69364Y-117436D02*
X-67592Y-117436D01*
X-66706Y-121098D02*
Y-118302D01*
X-73498Y-117436D02*
X-71726D01*
X-74383Y-121098D02*
X-74383Y-118302D01*
X-69364Y-121964D02*
X-67592D01*
X-73498Y-121964D02*
X-71726D01*
X-69364Y-112909D02*
X-67592Y-112909D01*
X-66706Y-116570D02*
Y-113775D01*
X-73498Y-112909D02*
X-71726D01*
X-74383Y-116570D02*
X-74383Y-113775D01*
X-69364Y-117436D02*
X-67592D01*
X-73498Y-117436D02*
X-71726D01*
X-71324Y-97559D02*
Y-95787D01*
X-74985Y-98445D02*
X-72190D01*
X-71324Y-93425D02*
Y-91654D01*
X-74985Y-90768D02*
X-72190D01*
X-75851Y-97559D02*
Y-95787D01*
X-75851Y-93425D02*
Y-91654D01*
X-66774Y-97559D02*
Y-95787D01*
X-70435Y-98445D02*
X-67640D01*
X-66774Y-93425D02*
Y-91654D01*
X-70435Y-90768D02*
X-67640D01*
X-71302Y-97559D02*
Y-95787D01*
X-71302Y-93425D02*
Y-91654D01*
X-4025Y-221694D02*
Y-218072D01*
Y-214528D02*
Y-210906D01*
X-12175Y-210906D02*
X-12175Y-214528D01*
X-10600Y-209331D02*
X-5600D01*
X-12175Y-221694D02*
X-12175Y-218072D01*
X-10600Y-223269D02*
X-5600D01*
X-64914Y-26539D02*
X-62119Y-26539D01*
X-65780Y-23882D02*
X-65780Y-25653D01*
X-61252Y-25653D02*
X-61252Y-23882D01*
X-65780Y-21519D02*
Y-19748D01*
X-61252Y-21519D02*
Y-19748D01*
X-64914Y-18862D02*
X-62119D01*
X-80514Y-26539D02*
X-77719Y-26539D01*
X-81380Y-25653D02*
Y-23881D01*
X-76853Y-25653D02*
X-76853Y-23882D01*
X-81380Y-19748D02*
X-81380Y-21519D01*
X-76853Y-21519D02*
Y-19748D01*
X-80514Y-18862D02*
X-77719Y-18862D01*
X-96097Y-26539D02*
X-93302D01*
X-96964Y-23882D02*
X-96964Y-25653D01*
X-92436Y-25653D02*
X-92436Y-23882D01*
X-96964Y-21519D02*
X-96964Y-19748D01*
X-92436Y-21519D02*
Y-19748D01*
X-96097Y-18862D02*
X-93302Y-18862D01*
X-260098Y-75584D02*
X-257302Y-75584D01*
X-260964Y-74698D02*
Y-72926D01*
X-256436Y-74698D02*
X-256436Y-72926D01*
X-260964Y-68792D02*
X-260964Y-70564D01*
X-256436Y-70564D02*
Y-68792D01*
X-260098Y-67907D02*
X-257302Y-67907D01*
X-260294Y-147170D02*
X-257498D01*
X-261160Y-146285D02*
Y-144513D01*
X-256632Y-146285D02*
X-256632Y-144513D01*
X-261160Y-142151D02*
Y-140379D01*
X-256632Y-142151D02*
Y-140379D01*
X-260294Y-139493D02*
X-257498Y-139493D01*
X-315498Y-110865D02*
X-312702D01*
X-316364Y-109979D02*
Y-108208D01*
X-311836Y-109979D02*
X-311836Y-108208D01*
X-316364Y-105846D02*
Y-104074D01*
X-311836Y-105846D02*
Y-104074D01*
X-315498Y-103188D02*
X-312702Y-103188D01*
D12*
X-33834Y-158079D02*
X-4736D01*
X-33834Y-187679D02*
Y-158179D01*
X-4700Y-187643D02*
Y-182721D01*
X-33834Y-187679D02*
X-4736D01*
X-4700Y-187643D01*
Y-163036D02*
Y-158115D01*
D14*
X-297698Y-102867D02*
X-297114Y-103451D01*
Y-104617D01*
X-297698Y-105200D01*
X-300030D01*
X-300613Y-104617D01*
Y-103451D01*
X-300030Y-102867D01*
X-297114Y-101701D02*
Y-99369D01*
X-297698D01*
X-300030Y-101701D01*
X-300613D01*
Y-98202D02*
Y-97036D01*
Y-97619D01*
X-297114D01*
X-297698Y-98202D01*
X-242684Y-67367D02*
X-242101Y-67951D01*
Y-69117D01*
X-242684Y-69700D01*
X-245017D01*
X-245600Y-69117D01*
Y-67951D01*
X-245017Y-67367D01*
X-242101Y-66201D02*
Y-63869D01*
X-242684D01*
X-245017Y-66201D01*
X-245600D01*
X-242684Y-62702D02*
X-242101Y-62119D01*
Y-60953D01*
X-242684Y-60370D01*
X-245017D01*
X-245600Y-60953D01*
Y-62119D01*
X-245017Y-62702D01*
X-242684D01*
Y-139367D02*
X-242101Y-139951D01*
Y-141117D01*
X-242684Y-141700D01*
X-245017D01*
X-245600Y-141117D01*
Y-139951D01*
X-245017Y-139367D01*
X-242101Y-135869D02*
X-242684Y-137035D01*
X-243851Y-138201D01*
X-245017D01*
X-245600Y-137618D01*
Y-136452D01*
X-245017Y-135869D01*
X-244434D01*
X-243851Y-136452D01*
Y-138201D01*
X-245017Y-134702D02*
X-245600Y-134119D01*
Y-132953D01*
X-245017Y-132370D01*
X-242684D01*
X-242101Y-132953D01*
Y-134119D01*
X-242684Y-134702D01*
X-243267D01*
X-243851Y-134119D01*
Y-132370D01*
X-80599Y-100800D02*
X-80016D01*
X-78849Y-101966D01*
X-80016Y-103133D01*
X-80599D01*
X-78849Y-101966D02*
X-77100D01*
Y-104299D02*
Y-105465D01*
Y-104882D01*
X-80599D01*
X-80016Y-104299D01*
X-85400Y-85700D02*
Y-82201D01*
X-87149D01*
X-87733Y-82784D01*
Y-83951D01*
X-87149Y-84534D01*
X-85400D01*
X-86566D02*
X-87733Y-85700D01*
X-91231Y-82201D02*
X-90065Y-82784D01*
X-88899Y-83951D01*
Y-85117D01*
X-89482Y-85700D01*
X-90648D01*
X-91231Y-85117D01*
Y-84534D01*
X-90648Y-83951D01*
X-88899D01*
X-17780Y-174008D02*
Y-170509D01*
X-19530D01*
X-20113Y-171092D01*
Y-172258D01*
X-19530Y-172842D01*
X-17780D01*
X-23612Y-170509D02*
X-22445Y-171092D01*
X-21279Y-172258D01*
Y-173425D01*
X-21862Y-174008D01*
X-23029D01*
X-23612Y-173425D01*
Y-172842D01*
X-23029Y-172258D01*
X-21279D01*
X-258084Y-64240D02*
X-257501Y-64823D01*
Y-65989D01*
X-258084Y-66572D01*
X-260417D01*
X-261000Y-65989D01*
Y-64823D01*
X-260417Y-64240D01*
X-261000Y-61324D02*
X-257501D01*
X-259251Y-63073D01*
Y-60741D01*
X-261000Y-57242D02*
Y-59574D01*
X-258667Y-57242D01*
X-258084D01*
X-257501Y-57825D01*
Y-58991D01*
X-258084Y-59574D01*
X-312584Y-98467D02*
X-312001Y-99051D01*
Y-100217D01*
X-312584Y-100800D01*
X-314917D01*
X-315500Y-100217D01*
Y-99051D01*
X-314917Y-98467D01*
X-312584Y-97301D02*
X-312001Y-96718D01*
Y-95552D01*
X-312584Y-94969D01*
X-313167D01*
X-313751Y-95552D01*
Y-96135D01*
Y-95552D01*
X-314334Y-94969D01*
X-314917D01*
X-315500Y-95552D01*
Y-96718D01*
X-314917Y-97301D01*
X-312584Y-93802D02*
X-312001Y-93219D01*
Y-92053D01*
X-312584Y-91470D01*
X-313167D01*
X-313751Y-92053D01*
X-314334Y-91470D01*
X-314917D01*
X-315500Y-92053D01*
Y-93219D01*
X-314917Y-93802D01*
X-314334D01*
X-313751Y-93219D01*
X-313167Y-93802D01*
X-312584D01*
X-313751Y-93219D02*
Y-92053D01*
X-257694Y-134379D02*
X-257111Y-134962D01*
Y-136129D01*
X-257694Y-136712D01*
X-260027D01*
X-260610Y-136129D01*
Y-134962D01*
X-260027Y-134379D01*
X-257694Y-133213D02*
X-257111Y-132630D01*
Y-131464D01*
X-257694Y-130880D01*
X-258278D01*
X-258861Y-131464D01*
Y-132047D01*
Y-131464D01*
X-259444Y-130880D01*
X-260027D01*
X-260610Y-131464D01*
Y-132630D01*
X-260027Y-133213D01*
X-260610Y-127965D02*
X-257111D01*
X-258861Y-129714D01*
Y-127382D01*
X-58633Y-118984D02*
X-58049Y-118401D01*
X-56883D01*
X-56300Y-118984D01*
Y-121317D01*
X-56883Y-121900D01*
X-58049D01*
X-58633Y-121317D01*
X-59799Y-118984D02*
X-60382Y-118401D01*
X-61548D01*
X-62131Y-118984D01*
Y-119567D01*
X-61548Y-120151D01*
X-60965D01*
X-61548D01*
X-62131Y-120734D01*
Y-121317D01*
X-61548Y-121900D01*
X-60382D01*
X-59799Y-121317D01*
X-63298Y-121900D02*
X-64464D01*
X-63881D01*
Y-118401D01*
X-63298Y-118984D01*
X-57733Y-113984D02*
X-57149Y-113401D01*
X-55983D01*
X-55400Y-113984D01*
Y-116317D01*
X-55983Y-116900D01*
X-57149D01*
X-57733Y-116317D01*
X-58899Y-113984D02*
X-59482Y-113401D01*
X-60648D01*
X-61231Y-113984D01*
Y-114567D01*
X-60648Y-115151D01*
X-60065D01*
X-60648D01*
X-61231Y-115734D01*
Y-116317D01*
X-60648Y-116900D01*
X-59482D01*
X-58899Y-116317D01*
X-62398Y-113984D02*
X-62981Y-113401D01*
X-64147D01*
X-64730Y-113984D01*
Y-116317D01*
X-64147Y-116900D01*
X-62981D01*
X-62398Y-116317D01*
Y-113984D01*
X-61233Y-123884D02*
X-60649Y-123301D01*
X-59483D01*
X-58900Y-123884D01*
Y-126217D01*
X-59483Y-126800D01*
X-60649D01*
X-61233Y-126217D01*
X-64731Y-126800D02*
X-62399D01*
X-64731Y-124467D01*
Y-123884D01*
X-64148Y-123301D01*
X-62982D01*
X-62399Y-123884D01*
X-65898Y-126217D02*
X-66481Y-126800D01*
X-67647D01*
X-68230Y-126217D01*
Y-123884D01*
X-67647Y-123301D01*
X-66481D01*
X-65898Y-123884D01*
Y-124467D01*
X-66481Y-125051D01*
X-68230D01*
X-74716Y-82433D02*
X-75299Y-81849D01*
Y-80683D01*
X-74716Y-80100D01*
X-72383D01*
X-71800Y-80683D01*
Y-81849D01*
X-72383Y-82433D01*
X-71800Y-85931D02*
Y-83599D01*
X-74133Y-85931D01*
X-74716D01*
X-75299Y-85348D01*
Y-84182D01*
X-74716Y-83599D01*
Y-87098D02*
X-75299Y-87681D01*
Y-88847D01*
X-74716Y-89430D01*
X-74133D01*
X-73549Y-88847D01*
X-72966Y-89430D01*
X-72383D01*
X-71800Y-88847D01*
Y-87681D01*
X-72383Y-87098D01*
X-72966D01*
X-73549Y-87681D01*
X-74133Y-87098D01*
X-74716D01*
X-73549Y-87681D02*
Y-88847D01*
X-69316Y-81833D02*
X-69899Y-81249D01*
Y-80083D01*
X-69316Y-79500D01*
X-66983D01*
X-66400Y-80083D01*
Y-81249D01*
X-66983Y-81833D01*
X-66400Y-85331D02*
Y-82999D01*
X-68733Y-85331D01*
X-69316D01*
X-69899Y-84748D01*
Y-83582D01*
X-69316Y-82999D01*
X-69899Y-86498D02*
Y-88830D01*
X-69316D01*
X-66983Y-86498D01*
X-66400D01*
X-102216Y-123533D02*
X-102799Y-122949D01*
Y-121783D01*
X-102216Y-121200D01*
X-99883D01*
X-99300Y-121783D01*
Y-122949D01*
X-99883Y-123533D01*
X-99300Y-127031D02*
Y-124699D01*
X-101633Y-127031D01*
X-102216D01*
X-102799Y-126448D01*
Y-125282D01*
X-102216Y-124699D01*
X-102799Y-130530D02*
X-102216Y-129364D01*
X-101049Y-128198D01*
X-99883D01*
X-99300Y-128781D01*
Y-129947D01*
X-99883Y-130530D01*
X-100466D01*
X-101049Y-129947D01*
Y-128198D01*
X-97616Y-123333D02*
X-98199Y-122749D01*
Y-121583D01*
X-97616Y-121000D01*
X-95283D01*
X-94700Y-121583D01*
Y-122749D01*
X-95283Y-123333D01*
X-94700Y-126831D02*
Y-124499D01*
X-97033Y-126831D01*
X-97616D01*
X-98199Y-126248D01*
Y-125082D01*
X-97616Y-124499D01*
X-98199Y-130330D02*
Y-127998D01*
X-96449D01*
X-97033Y-129164D01*
Y-129747D01*
X-96449Y-130330D01*
X-95283D01*
X-94700Y-129747D01*
Y-128581D01*
X-95283Y-127998D01*
X-93016Y-123333D02*
X-93599Y-122749D01*
Y-121583D01*
X-93016Y-121000D01*
X-90683D01*
X-90100Y-121583D01*
Y-122749D01*
X-90683Y-123333D01*
X-90100Y-126831D02*
Y-124499D01*
X-92433Y-126831D01*
X-93016D01*
X-93599Y-126248D01*
Y-125082D01*
X-93016Y-124499D01*
X-90100Y-129747D02*
X-93599D01*
X-91849Y-127998D01*
Y-130330D01*
X-87916Y-123133D02*
X-88499Y-122549D01*
Y-121383D01*
X-87916Y-120800D01*
X-85583D01*
X-85000Y-121383D01*
Y-122549D01*
X-85583Y-123133D01*
X-85000Y-126631D02*
Y-124299D01*
X-87333Y-126631D01*
X-87916D01*
X-88499Y-126048D01*
Y-124882D01*
X-87916Y-124299D01*
Y-127798D02*
X-88499Y-128381D01*
Y-129547D01*
X-87916Y-130130D01*
X-87333D01*
X-86749Y-129547D01*
Y-128964D01*
Y-129547D01*
X-86166Y-130130D01*
X-85583D01*
X-85000Y-129547D01*
Y-128381D01*
X-85583Y-127798D01*
X-106733Y-100684D02*
X-106149Y-100101D01*
X-104983D01*
X-104400Y-100684D01*
Y-103017D01*
X-104983Y-103600D01*
X-106149D01*
X-106733Y-103017D01*
X-110231Y-103600D02*
X-107899D01*
X-110231Y-101267D01*
Y-100684D01*
X-109648Y-100101D01*
X-108482D01*
X-107899Y-100684D01*
X-111398Y-103600D02*
X-112564D01*
X-111981D01*
Y-100101D01*
X-111398Y-100684D01*
X-106733Y-95484D02*
X-106149Y-94901D01*
X-104983D01*
X-104400Y-95484D01*
Y-97817D01*
X-104983Y-98400D01*
X-106149D01*
X-106733Y-97817D01*
X-110231Y-98400D02*
X-107899D01*
X-110231Y-96067D01*
Y-95484D01*
X-109648Y-94901D01*
X-108482D01*
X-107899Y-95484D01*
X-111398D02*
X-111981Y-94901D01*
X-113147D01*
X-113730Y-95484D01*
Y-97817D01*
X-113147Y-98400D01*
X-111981D01*
X-111398Y-97817D01*
Y-95484D01*
X-106733Y-90284D02*
X-106149Y-89701D01*
X-104983D01*
X-104400Y-90284D01*
Y-92617D01*
X-104983Y-93200D01*
X-106149D01*
X-106733Y-92617D01*
X-107899Y-93200D02*
X-109065D01*
X-108482D01*
Y-89701D01*
X-107899Y-90284D01*
X-110815Y-92617D02*
X-111398Y-93200D01*
X-112564D01*
X-113147Y-92617D01*
Y-90284D01*
X-112564Y-89701D01*
X-111398D01*
X-110815Y-90284D01*
Y-90867D01*
X-111398Y-91451D01*
X-113147D01*
X-64716Y-13333D02*
X-65299Y-12749D01*
Y-11583D01*
X-64716Y-11000D01*
X-62383D01*
X-61800Y-11583D01*
Y-12749D01*
X-62383Y-13333D01*
X-65299Y-14499D02*
Y-16831D01*
X-64716D01*
X-62383Y-14499D01*
X-61800D01*
X-80016Y-13733D02*
X-80599Y-13149D01*
Y-11983D01*
X-80016Y-11400D01*
X-77683D01*
X-77100Y-11983D01*
Y-13149D01*
X-77683Y-13733D01*
X-80599Y-17232D02*
X-80016Y-16065D01*
X-78849Y-14899D01*
X-77683D01*
X-77100Y-15482D01*
Y-16648D01*
X-77683Y-17232D01*
X-78266D01*
X-78849Y-16648D01*
Y-14899D01*
X-95816Y-13833D02*
X-96399Y-13249D01*
Y-12083D01*
X-95816Y-11500D01*
X-93483D01*
X-92900Y-12083D01*
Y-13249D01*
X-93483Y-13833D01*
X-96399Y-17332D02*
Y-14999D01*
X-94649D01*
X-95233Y-16165D01*
Y-16748D01*
X-94649Y-17332D01*
X-93483D01*
X-92900Y-16748D01*
Y-15582D01*
X-93483Y-14999D01*
X-18116Y-216333D02*
X-18699Y-215749D01*
Y-214583D01*
X-18116Y-214000D01*
X-15783D01*
X-15200Y-214583D01*
Y-215749D01*
X-15783Y-216333D01*
X-15200Y-217499D02*
Y-218665D01*
Y-218082D01*
X-18699D01*
X-18116Y-217499D01*
D103*
X-79080Y-95726D02*
X-79670Y-95135D01*
X-80261Y-95726D01*
X-79670Y-96316D01*
X-79080Y-95726D01*
D104*
X-81639Y-111474D02*
Y-94939D01*
X-95024Y-94939D02*
X-81639Y-94939D01*
X-95024Y-111474D02*
Y-94939D01*
Y-111474D02*
X-81639D01*
M02*
