M48
;Layer_Color=9474304
;FILE_FORMAT=2:5
INCH,LZ
;TYPE=PLATED
T1F00S00C0.01181
T2F00S00C0.02047
T3F00S00C0.02362
T4F00S00C0.02953
T5F00S00C0.03543
T6F00S00C0.04016
T7F00S00C0.04724
T8F00S00C0.07874
%
T01
X-0074015Y-0279527
X-0066141
X-0062204Y-0271653
X-0066141Y-0263779
X-0074015
X-0070078Y-0255905
X-0062204
X-0042519Y-0248031
X-0038582Y-0240157
X-0030708
X-0022834
X-001496
X-0011023Y-0232283
X-0018897
X-0026771
Y-0216535
X-0014Y-02135
X-0007086Y-0208661
X-0003149Y-0200787
Y-0216535
Y-0248031
X-0011023
X-0007086Y-0255905
X-0003149Y-0263779
X-0011023
X-001496Y-0271653
X-0022834
X-0026771Y-0279527
X-0011023
X-0003149
X-0007086Y-0287402
X-001496
X-0038582Y-0271653
X-0042719Y-0272
X-0042719Y-0275248
X-0047443Y-0275248
X-0047443Y-0272
X-0047443Y-0268752
X-0042719
X-0042519Y-0263779
Y-0200787
X-0050393
X-0046456Y-0192913
X-0038582
X-0030708
X-0022834
X-005433
X-0062204
X-0070078
X-005433Y-0208661
X-0076755Y-0197227
X-0087566Y-01972
X-01071Y-02031
X-01032Y-02122
X-0106087Y-0219269
X-0106087Y-0223107
X-0102249
X-0109926
X-0106087Y-0226946
X-0113385Y-0232283
X-0117323Y-0255905
X-0125197
X-0133071
X-0140945
X-0137008Y-0248031
X-0144882
X-0152756
X-016063
X-0168504
X-0176378
X-0184252
X-0192126
X-02
X-0207874
X-0215748
X-0223622
X-0219685Y-0240157
X-0211811
X-0203937
X-0196063
X-0188189
X-0180315
X-0172441
X-0164567
X-0156693
X-0152756Y-0232283
X-0144882
X-0140945Y-0224409
X-0144882Y-0216535
X-0140945Y-0208661
X-0144882Y-0200787
X-0152756
X-0168504
X-0176378
X-0184252
X-0192126
X-02
X-0207874
X-0215748
X-0219685Y-0192913
X-02223Y-01894
X-0227559Y-0192913
X-0223622Y-0216535
X-0219685Y-0224409
X-0211811
X-0203937
X-0196063
X-0188189
X-0180315
X-0172441
X-0164567
X-0156693
X-016063Y-0232283
X-0168504
X-0176378
X-0184252
X-0192126
X-02
X-0207874
X-0215748
X-0223622
X-0227559Y-0224409
Y-0240157
Y-0255905
X-0219685
X-0211811
X-0203937
X-0196063
X-0188189
X-0180315
X-0172441
X-0164567
X-0156693
X-0152756Y-0263779
X-0144882
X-0137008
X-0129133
X-0121259
X-0113385
X-0109449Y-0271653
X-0101575
X-00937
X-0085826
X-0081889Y-0263779
X-0077952Y-0255905
X-0097637Y-0263779
X-00937Y-0287402
X-0101575
X-0109449
X-0117323
X-0125197
X-0133071
X-0140945
X-0148819
X-0156693
X-0164567
X-0172441
X-0180315
X-0188189
X-0196063
X-0203937
X-0211811
X-0219685
X-0227559
X-0223622Y-0279527
X-0215748
X-0207874
X-02
X-0192126
X-0184252
X-0176378
X-0168504
X-016063
X-0152756
X-0156693Y-0271653
X-0164567
X-0172441
X-0180315
X-0188189
X-0196063
X-0203937
X-0211811
X-0219685
X-0227559
X-0223622Y-0263779
X-0215748
X-0207874
X-02
X-0192126
X-0184252
X-0176378
X-0168504
X-016063
X-0133071Y-0271653
X-0125197
X-0117323
X-0140945Y-0240157
X-0127779Y-0211721
X-0117323Y-0192913
X-0140945
X-0169276Y-019281
Y-0187724
X-0180166Y-0188972
X-0184497
X-0182332Y-0191137
X-0181963Y-0209275
Y-0213606
X-0184128Y-021144
X-0179798
X-01692Y-02104
X-0169275Y-0215279
X-00944Y-0222148
X-0085826Y-0224409
X-0077952
X-0235433
X-0243307
X-0251181
X-0259055
X-0266929
X-0274803
X-0282677
X-0290551
X-0298425
X-0306299
X-0314173
X-0322047
X-0329921
X-0337795
X-0345669
X-0353543
X-0361417
X-0369291
X-0365354Y-0216535
X-035748
X-0349606
X-0341732
X-0333858
X-0325984
X-031811
X-0310236
X-0302362
X-0294488
X-0286614
X-027874
X-0270866
X-0262992
X-0255118
X-0247244
X-023937
X-0231496
Y-0200787
X-023937
X-0235433Y-0192913
X-0243307
X-0251181
Y-0208661
X-0259055
X-0266929
X-0274803
X-0282677
X-0290551
X-0298425
X-0306299
X-0314173
X-0322047
X-0329921
X-0337795
X-0345669
X-0353543
X-0361417
X-0369291
X-0365354Y-0200787
X-035748
X-0349606
X-0341732
X-0333858
X-0325984
X-031811
X-0310236
X-0302362
X-0294488
X-0286614
X-027874
X-0270866
X-0262992
X-0266929Y-0192913
X-0274803
X-0282677
X-0290551
X-0298425
X-0306299
X-0314173
X-0322047
X-0329921
X-0337795
X-0345669
X-0353543
X-0361417
X-0369291
X-0365354Y-0232283
X-035748
X-0349606
X-0341732
X-0333858
X-0325984
X-031811
X-0310236
X-0302362
X-0294488
X-0286614
X-027874
X-0270866
X-0262992
X-0255118
X-0247244
X-023937
X-0231496
X-0235433Y-0240157
X-0243307
X-0251181
X-0259055
X-0266929
X-0274803
X-0282677
X-0290551
X-0298425
X-0306299
X-0314173
X-0322047
X-0329921
X-0337795
X-0345669
X-0353543
X-0361417
X-0369291
X-0365354Y-0248031
X-035748
X-0349606
X-0341732
X-0333858
X-0325984
X-031811
X-0310236
X-0302362
X-0294488
X-0286614
X-027874
X-0270866
X-0262992
X-0255118
X-0247244
X-023937
X-0231496
X-0235433Y-0255905
X-0243307
X-0251181
X-0259055
X-0266929
X-0274803
X-0282677
X-0290551
X-0298425
X-0306299
X-0314173
X-0322047
X-0329921
X-0337795
X-0345669
X-0353543
X-0361417
X-0369291
X-0365354Y-0263779
X-035748
X-0349606
X-0341732
X-0333858
X-0325984
X-031811
X-0310236
X-0302362
X-0294488
X-0286614
X-027874
X-0270866
X-0262992
X-0255118
X-0247244
X-023937
X-0231496
X-0235433Y-0271653
X-0243307
X-0251181
X-0259055
X-0266929
X-0274803
X-0282677
X-0290551
X-0298425
X-0306299
X-0314173
X-0322047
X-0329921
X-0337795
X-0345669
X-0353543
X-0361417
X-0369291
X-0365354Y-0279527
X-0369291Y-0287402
X-0353543
X-0345669
X-0337795
X-0329921
X-0322047
X-0314173
X-0306299
X-0298425
X-0290551
X-0282677
X-0274803
X-0266929
X-0259055
X-0251181
X-0243307
X-0235433
X-0231496Y-0279527
X-023937
X-0247244
X-0255118
X-0262992
X-0270866
X-027874
X-0286614
X-0294488
X-0302362
X-0310236
X-031811
X-0325984
X-0333858
X-0341732
X-0349606
Y-0185039
X-0341732
X-0333858
X-0325984
X-031811
X-0310236
X-0302362
X-0294488
X-0286614
X-027874
X-0270866
X-02638Y-01874
X-0255118Y-0185039
X-0247244
X-023937
X-0231496
X-0235433Y-0177165
X-0243307
Y-0161417
X-0235433
X-0231496Y-0153543
X-0243896Y-0151496
X-0251181Y-0145669
X-0259866Y-01483
X-02663
X-0258896Y-0139204
X-0251181Y-0129921
X-0243307
X-0235433
X-0231496Y-0122047
X-0235433Y-0114173
X-0243307
X-023937Y-0106299
X-0231496
X-0235433Y-0098425
X-0231496Y-0090551
X-023937
X-0243896Y-0079696
X-023937Y-0074803
Y-0059055
X-0231496
Y-0043307
X-023937
X-0235433Y-0035433
X-0243307
X-0251181
X-0259055
X-0266929
X-0274803
X-0282677
X-0290551
X-0298425
X-0306299
X-0314173
X-0322047
X-0329921
X-0337795
X-0345669
X-0353543
X-0361417
X-0369291
X-0365354Y-0043307
X-035748
X-0349606
X-0341732
X-0333858
X-0325984
X-031811
X-0310236
X-0302362
X-0294488
X-0286614
X-027874
X-0270866
X-0262992
X-0259055Y-0051181
X-0266929
X-0274803
X-0282677
X-0290551
X-0298425
X-0306299
X-0314173
X-0322047
X-0329921
X-0337795
X-0345669
X-0353543
X-0361417
X-0369291
X-0365354Y-0059055
X-035748
X-0349606
X-0341732
X-0333858
X-0325984
X-031811
X-0310236
X-0302362
X-0306299Y-0066929
X-0314173
X-0322047
X-0329921
X-0337795
X-0345669
X-0353543
X-0361417
X-0369291
X-0365354Y-0074803
X-035748
X-0349606
X-0341732
X-0333858
X-0325984
X-031811
X-0310236
X-0306299Y-0082677
X-0304Y-00854
X-02991Y-00855
Y-00907
X-0304
X-0314173Y-0082677
X-0322047
X-0329921
X-0337795
X-0345669
X-0353543
X-0361417
X-0369291
X-0365354Y-0090551
X-035748
X-0361417Y-0098425
X-035748Y-0106299
X-0353543Y-0114173
X-0345669
X-0337795
X-0329921
X-0322047
X-0314173
X-0306299
X-0299Y-0115396
X-0294488Y-0122047
X-0286614
X-027874
X-0270866
X-0266354Y-0112146
X-0259055Y-0114173
X-02613Y-01051
X-0266929Y-0098425
X-0274803
X-0282677
X-0290551
X-0286614Y-0074803
X-027874
X-0294488
X-02587Y-006759
X-0251181Y-0066929
X-0262992Y-0059055
X-0325984Y-0090551
X-0333858
X-0341732
X-0337795Y-0098425
X-0345669
X-0341732Y-0106299
X-0333858
X-031811
X-03141Y-01029
X-0322047Y-0098425
X-031811Y-0122047
X-0325984
X-0333858
X-0341732
X-0349606
X-035748
X-0365354
X-0361417Y-0114173
X-0369291
Y-0129921
X-0353543
X-0345669
X-0341732Y-0137795
X-0349606
X-035748
X-0353543Y-0145669
X-0345669
X-0337795
X-0329921
X-0322047
X-031811Y-0137795
X-0325984
X-0322047Y-0129921
X-0329921
X-0306299
X-0298425
Y-0145669
X-0290551
X-0282677
X-0306299
X-0310236Y-0153543
X-031811
X-0325984
Y-0169291
X-031811
X-0310236
X-0302362
X-0294488
X-0286614
X-027874
X-0270866
X-0274803Y-0177165
X-0282677
X-0290551
X-0298425
X-0306299
X-0314173
X-0322047
X-0329921
X-0337795
X-0345669
X-0353543
X-0361417
X-0369291
X-0365354Y-0169291
X-035748
X-0349606
X-0341732
X-0333858
X-0337795Y-0161417
X-0345669
X-0353543
X-0361417
X-0369291
X-0365354Y-0153543
X-035748
X-0349606
X-0341732
X-0361417Y-0145669
X-0369291
X-0365354Y-0185039
X-035748
X-0259055Y-0177165
X-0231496Y-0169291
Y-0137795
X-0223622
X-0215748
X-02
X-0192126
X-0184252
X-0176378
X-0172441Y-0145669
X-0164567
X-0156693
X-0148819
X-0140945
X-0133071
X-01288Y-01453
X-0129133Y-0153543
X-0137008
X-0133071Y-0161417
X-0125197
X-0117323
X-0113385Y-0153543
X-0105511
X-0097637
X-0089763
X-0081889
X-0077952Y-0145669
X-0085826
X-00937
Y-0161417
X-0085826
X-0077952
X-0097637Y-0169291
X-0101856Y-017225
X-0101575Y-0177165
X-0109449
X-0117323
X-0125197
X-0133071
X-0140945
X-0148819
X-01498Y-01829
X-0156693Y-0177165
X-0164567
X-0172441
X-0180315
X-0188189
X-0196063
X-0203937
X-0211811
X-0219685
X-0227559
X-0223622Y-0169291
X-0219685Y-0161417
X-0227559
Y-0129921
X-0223622Y-0122047
X-0219685Y-0114173
X-0211811
X-0203937
X-0196063Y-0129921
X-0188189
X-0180315
X-0164567
X-0156693
X-0148819
X-0140264Y-0128336
X-01422Y-01197
X-01394Y-0118498
Y-0111774
X-01441Y-01127
X-0164567Y-0114173
X-016063Y-0106299
X-0164567Y-0098425
X-0172441
X-0176378Y-0090551
X-0172441Y-0082677
X-0164567
X-0156693
X-0148819
X-0140945
X-0140727Y-0088927
X-0129873
X-0133071Y-0098425
X-0117323
X-0121259Y-0106299
Y-0122047
X-0113385
X-0109449Y-0129921
X-0117323
X-0125197
X-0137008Y-0137795
X-0144882
X-0152756
X-016063
Y-0122047
Y-0090551
Y-0074803
X-0152756
X-0144882
X-0137008
X-0129133
X-0121259
X-01186Y-00776
X-0117Y-00809
X-01116
X-01105Y-00776
X-0105511Y-0074803
X-0101575Y-0066929
X-0109449
X-0117323
X-0125197
X-0133071
X-0140945
X-0148819
X-0156693
X-0164567
X-0172441
X-0180315
X-0188189
X-0196063
X-0203937
X-0211811
X-0219685
X-0227559
X-0223622Y-0059055
X-0215748
X-0207874
X-02
X-0192126
X-0184252
X-0176378
X-0172441Y-0051181
X-0164567
X-0156693
X-0148819
X-0140945
X-0133071
X-0129133Y-0043307
X-0121259
X-0113385
X-0105511
X-0097637
X-0089763
X-0085826Y-0035433
X-0079116Y-0033316
X-00947Y-00333
X-0101575Y-0035433
Y-0051181
X-0109449
X-0105511Y-0059055
X-0097637
X-0094794Y-00699
X-0091Y-00696
X-0085826Y-0066929
X-0081889Y-0059055
X-0085826Y-0051181
X-00836Y-0081094
X-00814Y-00792
X-0100684Y-00892
X-0105511Y-0090551
X-00964Y-0107537
X-01037Y-0117265
X-0117323Y-0145669
X-0113385Y-0169291
X-0121259
X-0129133
X-0137008
X-0140945Y-0161417
X-0148819
X-0152756Y-0169291
X-0168504
X-01679Y-01668
Y-01619
X-0178616Y-0163015
X-0180781Y-016085
Y-0165181
X-0182947Y-0163015
X-0184252Y-0169291
X-0176378
X-0192126
X-0182332Y-0186806
X-0180315Y-0145669
X-0188189
X-0196063
X-0203937
X-0227559Y-0114173
Y-0098425
X-0219685
X-0223622Y-0090551
X-0227559Y-0082677
X-0211811
X-0207874Y-0074803
X-02
X-0192126
X-0184252
X-0176378
X-0180315Y-0082677
X-0188189
X-0196063
X-0215748Y-0074803
X-0211811Y-0051181
X-0203937
X-0196063
X-0188189
X-0180315
X-0176378Y-0043307
X-0184252
X-0192126
X-02
X-0207874
X-0215748
X-0223622
X-0219685Y-0035433
X-0211811
X-0203937
X-0196063
X-0188189
X-0180315
X-0172441
X-0164567
X-0156693
X-0148819
X-0144882Y-0043307
X-0137008
X-0133071Y-0035433
X-0125197
X-0121259Y-0059055
X-0129133
X-0137008
X-0144882
X-0152756
X-016063
Y-0043307
X-0152756
X-0219685Y-0051181
X-0227559
Y-0035433
X-0102996Y-0186759
X-0097637Y-0185039
X-0089763
X-0066141
X-0058267
X-0050393
X-0042519
X-0034645
X-0026771
X-0018897
X-0012676Y-0182067
X-001496Y-0161417
X-0007086
X-0003149Y-0153543
X-0011023
X-0018897
X-0026771
X-0034645
X-0042519
X-0050393
X-0058267
X-0066141
X-0074015
X-0070078Y-0145669
X-0062204
X-005433
X-0046456
X-0038582
X-0030708
X-0026771Y-0137795
X-0018897
X-0011023
X-0003149
X-0007086Y-0129921
X-001496
X-0022834
X-0030708
X-0038582
X-0046456
X-005433
X-0062204
X-0070074Y-0127318
X-0074011Y-01275
X-0058267Y-0122047
X-0050393
X-0042519
X-0034645
X-0026771
X-0018897
X-0011023
X-0003149
Y-0106299
X-0011023
X-0007086Y-0098425
X-0003149Y-0090551
X-0011023
X-0018897
X-0026771
X-0034645
X-0042519
X-0050393
X-0058267
X-0066141
X-0065857Y-0093642
X-0066141Y-0106299
X-0058267
X-0050393
X-0042519
X-0038582Y-0114173
X-0030708
X-0022834
X-001496
Y-0082677
X-0022834
X-0030708
X-0038582
X-0034645Y-0074803
X-00343Y-00695
X-0030708Y-0066929
X-0022834
X-001496
X-0007086
X-0003149Y-0059055
X-0011023
X-0018897
X-001496Y-0051181
X-0007086
X-0003149Y-0043307
X-0011023
X-0018897
X-0026771
X-0030708Y-0035433
X-0038582
X-0046456
X-0050393Y-0043307
X-0058267
X-0066141
X-0063516Y-0033283
X-0066141Y-0059055
X-0074015
X-0070078Y-0066929
X-0062204
X-005433
X-00565Y-00737
Y-00788
X-00592Y-00761
X-0038582Y-0066929
Y-0051181
X-0030708
X-00419Y-00454
X-001496Y-0035433
X-0007086
X-0003149Y-0074803
X-0011023
X-0018897
X-0026771
X-0030708Y-0098425
X-0046456Y-0114173
X-005433
X-0050393Y-0137795
X-0042519
X-0034645
X-0058267
X-005433Y-0161417
X-0046456
X-0038582
X-0030708
X-0022834
X-0007086Y-0145669
X-0062204Y-0161417
X-0070078
X-0074015Y-0106299
Y-0027559
X-0066141
X-0058267
X-0050393
X-0042519
X-0038582Y-0019685
X-0030708
X-0026771Y-0011811
X-0018897
X-0011023
X-0003149
Y-0027559
X-0011023
X-0018897
X-0026771
X-0046456Y-0019685
X-005433
X-0050393Y-0011811
X-0042519
X-0058267
X-0066141
X-00714Y-00121
X-0074015Y-0011811
X-0081889
X-0089763
X-0097637
X-0105511
X-0113385
X-0121259
X-0129133
X-0137008
X-0144882
X-0152756
X-016063
X-0156693Y-0019685
X-0148819
X-0140945
X-0133071
X-0125197
X-0117323
X-0109449
X-0101575
X-0097637Y-0027559
X-0089763
X-0081889
X-0085826Y-0019685
X-0105511Y-0027559
X-0113385
X-0121259
X-0129133
X-0137008
X-0144882
X-0152756
X-016063
X-0164567Y-0019685
X-0172441
X-0180315
X-0188189
X-0196063
X-0203937
X-0211811
X-0219685
X-0227559
X-0223622Y-0011811
X-0215748
X-0207874
X-02
X-0192126
X-0184252
X-0176378
Y-0027559
X-0184252
X-0192126
X-02
X-0207874
X-0215748
X-0223622
X-0231496
X-023937
X-0247244
X-0255118
X-0262992
X-0270866
X-027874
X-0286614
X-0294488
X-0302362
X-0310236
X-031811
X-0325984
X-0333858
X-0341732
X-0349606
X-035748
X-0365354
X-0361417Y-0019685
X-0353543
X-0345669
X-0337795
X-0329921
X-0322047
X-0314173
X-0306299
X-0298425
X-0290551
X-0282677
X-0274803
X-0266929
X-0259055
X-0251181
X-0243307
X-0235433
X-0231496Y-0011811
X-023937
X-0247244
X-0255118
X-0262992
X-0270866
X-027874
X-0286614
X-0294488
X-0302362
X-0310236
X-031811
X-0325984
X-0333858
X-0341732
X-0349606
X-0365354
X-0369291Y-0019685
T02
X-02052Y-0134674
Y-01268
X-0202174Y-01089
X-01943
X-0216663
X-0224537
X-02048Y-00907
Y-0082826
X-01288Y-0098555
Y-0106429
T03
X-0014358Y-0260617
Y-0244869
X-0014263Y-0106983
Y-0091235
T04
X-00047Y-01778
Y-0167957
T05
X-00083Y-0226886
Y-0200114
T06
X-0078669Y-00503
X-0068669
X-0058669
X-0048669
X-00442Y-00049
X-00342
X-00242
X-00142
T07
X-0361411Y-01195
X-0337789
T08
X-0109535Y-0145969
X-0017803
M30
