G04*
G04 #@! TF.GenerationSoftware,Altium Limited,Altium Designer,19.0.4 (130)*
G04*
G04 Layer_Color=65535*
%FSLAX25Y25*%
%MOIN*%
G70*
G01*
G75*
%ADD10C,0.00787*%
%ADD11C,0.00984*%
%ADD12C,0.01000*%
%ADD13C,0.02362*%
%ADD14C,0.00600*%
D10*
X-77862Y-221397D02*
X-77401Y-222511D01*
X-76287Y-222972D01*
X-71287Y-222972D02*
X-70174Y-222510D01*
X-69712Y-221397D01*
X-69712Y-210610D02*
X-70174Y-209496D01*
X-71287Y-209035D01*
X-76287D02*
X-77401Y-209496D01*
X-77862Y-210610D01*
X-79593Y-223482D02*
X-78480Y-223021D01*
X-78019Y-221907D01*
X-78019Y-216907D02*
X-78480Y-215794D01*
X-79593Y-215332D01*
X-90381Y-215332D02*
X-91494Y-215794D01*
X-91956Y-216907D01*
X-91956Y-221907D02*
X-91494Y-223021D01*
X-90381Y-223482D01*
X-111894Y-188233D02*
X-113007Y-188694D01*
X-113469Y-189808D01*
X-113469Y-194808D02*
X-113007Y-195921D01*
X-111894Y-196383D01*
X-101106Y-196383D02*
X-99993Y-195921D01*
X-99532Y-194808D01*
X-99532Y-189808D02*
X-99993Y-188694D01*
X-101106Y-188233D01*
X-136706Y-231723D02*
X-137820Y-232185D01*
X-138281Y-233298D01*
X-138281Y-238298D02*
X-137820Y-239412D01*
X-136706Y-239873D01*
X-125919Y-239873D02*
X-124805Y-239412D01*
X-124344Y-238298D01*
Y-233298D02*
X-124805Y-232185D01*
X-125919Y-231723D01*
X-122262Y-242233D02*
X-122723Y-241119D01*
X-123837Y-240658D01*
X-128837Y-240658D02*
X-129950Y-241119D01*
X-130412Y-242233D01*
X-130412Y-253020D02*
X-129950Y-254134D01*
X-128837Y-254595D01*
X-123837D02*
X-122723Y-254134D01*
X-122262Y-253020D01*
X-114112Y-242233D02*
X-114574Y-241119D01*
X-115687Y-240658D01*
X-120687Y-240658D02*
X-121801Y-241119D01*
X-122262Y-242233D01*
X-122262Y-253020D02*
X-121801Y-254134D01*
X-120687Y-254595D01*
X-115687Y-254595D02*
X-114574Y-254134D01*
X-114112Y-253020D01*
X-106262Y-265801D02*
X-105801Y-266914D01*
X-104687Y-267376D01*
X-99687Y-267376D02*
X-98574Y-266914D01*
X-98112Y-265801D01*
X-98112Y-255013D02*
X-98574Y-253900D01*
X-99687Y-253439D01*
X-104687Y-253439D02*
X-105801Y-253900D01*
X-106262Y-255013D01*
X-112581Y-245232D02*
X-113694Y-245694D01*
X-114156Y-246807D01*
X-114156Y-251807D02*
X-113694Y-252921D01*
X-112581Y-253382D01*
X-101793Y-253382D02*
X-100680Y-252921D01*
X-100219Y-251807D01*
X-100219Y-246807D02*
X-100680Y-245694D01*
X-101793Y-245232D01*
X-167538Y-221738D02*
X-167077Y-222851D01*
X-165963Y-223313D01*
X-160963Y-223313D02*
X-159849Y-222851D01*
X-159388Y-221738D01*
X-159388Y-210951D02*
X-159849Y-209837D01*
X-160963Y-209376D01*
X-165963Y-209376D02*
X-167077Y-209837D01*
X-167538Y-210951D01*
X-151188Y-203943D02*
X-151649Y-202829D01*
X-152763Y-202368D01*
X-157763Y-202368D02*
X-158877Y-202829D01*
X-159338Y-203943D01*
X-159338Y-214730D02*
X-158877Y-215844D01*
X-157763Y-216305D01*
X-152763Y-216305D02*
X-151649Y-215844D01*
X-151188Y-214730D01*
X-209938Y-215938D02*
X-209477Y-217052D01*
X-208363Y-217513D01*
X-203363Y-217513D02*
X-202249Y-217052D01*
X-201788Y-215938D01*
X-201788Y-205151D02*
X-202249Y-204037D01*
X-203363Y-203576D01*
X-208363Y-203576D02*
X-209477Y-204037D01*
X-209938Y-205151D01*
X-209988Y-205143D02*
X-210449Y-204029D01*
X-211563Y-203568D01*
X-216563Y-203568D02*
X-217676Y-204029D01*
X-218138Y-205143D01*
X-218138Y-215930D02*
X-217676Y-217044D01*
X-216563Y-217505D01*
X-211563Y-217505D02*
X-210449Y-217044D01*
X-209988Y-215930D01*
X-209156Y-168197D02*
X-208695Y-169311D01*
X-207581Y-169772D01*
X-202581Y-169772D02*
X-201468Y-169311D01*
X-201006Y-168197D01*
X-201006Y-157410D02*
X-201468Y-156296D01*
X-202581Y-155835D01*
X-207581Y-155835D02*
X-208695Y-156296D01*
X-209156Y-157410D01*
X-125890Y-220882D02*
X-124776Y-220421D01*
X-124315Y-219307D01*
X-124315Y-214307D02*
X-124776Y-213194D01*
X-125890Y-212732D01*
X-136677Y-212732D02*
X-137790Y-213194D01*
X-138252Y-214307D01*
Y-219307D02*
X-137790Y-220421D01*
X-136677Y-220882D01*
X-207631Y-181303D02*
X-208745Y-181764D01*
X-209206Y-182878D01*
X-201057Y-182878D02*
X-201518Y-181764D01*
X-202631Y-181303D01*
X-202631Y-195240D02*
X-201518Y-194779D01*
X-201057Y-193666D01*
X-209206Y-193666D02*
X-208745Y-194779D01*
X-207631Y-195240D01*
X-210781D02*
X-209668Y-194779D01*
X-209206Y-193666D01*
X-217356Y-193666D02*
X-216895Y-194779D01*
X-215781Y-195240D01*
X-215781Y-181303D02*
X-216895Y-181764D01*
X-217356Y-182878D01*
X-209206Y-182878D02*
X-209667Y-181764D01*
X-210781Y-181303D01*
X-210781Y-169776D02*
X-209667Y-169315D01*
X-209206Y-168201D01*
X-217356Y-168201D02*
X-216895Y-169315D01*
X-215781Y-169776D01*
X-215781Y-155839D02*
X-216895Y-156300D01*
X-217356Y-157414D01*
X-209206Y-157413D02*
X-209667Y-156300D01*
X-210781Y-155839D01*
X-151157Y-181278D02*
X-151618Y-180165D01*
X-152732Y-179703D01*
X-152732Y-193640D02*
X-151618Y-193179D01*
X-151157Y-192066D01*
X-157731Y-179703D02*
X-158845Y-180165D01*
X-159306Y-181278D01*
X-159306Y-192066D02*
X-158845Y-193179D01*
X-157731Y-193640D01*
X-149906Y-155606D02*
X-150367Y-154492D01*
X-151481Y-154031D01*
X-151481Y-167968D02*
X-150368Y-167507D01*
X-149906Y-166393D01*
X-156481Y-154031D02*
X-157595Y-154492D01*
X-158056Y-155606D01*
X-158056Y-166393D02*
X-157595Y-167507D01*
X-156481Y-167968D01*
X-166256Y-173301D02*
X-165795Y-174415D01*
X-164681Y-174876D01*
X-159681Y-174876D02*
X-158568Y-174415D01*
X-158106Y-173301D01*
X-158106Y-162514D02*
X-158568Y-161400D01*
X-159681Y-160939D01*
X-164681Y-160939D02*
X-165795Y-161400D01*
X-166256Y-162514D01*
X-167606Y-199169D02*
X-167145Y-200283D01*
X-166032Y-200744D01*
X-161031Y-200744D02*
X-159918Y-200283D01*
X-159457Y-199169D01*
X-159457Y-188382D02*
X-159918Y-187268D01*
X-161031Y-186807D01*
X-166032Y-186807D02*
X-167145Y-187268D01*
X-167606Y-188382D01*
X-75581Y-223032D02*
X-76694Y-223494D01*
X-77156Y-224607D01*
Y-229607D02*
X-76694Y-230721D01*
X-75581Y-231182D01*
X-64793Y-231182D02*
X-63680Y-230721D01*
X-63219Y-229607D01*
X-63219Y-224607D02*
X-63680Y-223494D01*
X-64793Y-223032D01*
X-86194Y-167195D02*
X-86656Y-166082D01*
X-87769Y-165621D01*
X-92769Y-165621D02*
X-93883Y-166082D01*
X-94344Y-167195D01*
X-94344Y-177983D02*
X-93883Y-179096D01*
X-92769Y-179558D01*
X-87769Y-179558D02*
X-86656Y-179096D01*
X-86194Y-177983D01*
X-46848Y-181872D02*
X-45735Y-181410D01*
X-45273Y-180297D01*
X-54722D02*
X-54261Y-181410D01*
X-53147Y-181872D01*
Y-163328D02*
X-54261Y-163790D01*
X-54722Y-164903D01*
X-45273D02*
X-45735Y-163790D01*
X-46848Y-163328D01*
X-54698Y-167195D02*
X-55160Y-166082D01*
X-56273Y-165621D01*
X-61273Y-165621D02*
X-62387Y-166082D01*
X-62848Y-167195D01*
Y-177983D02*
X-62387Y-179096D01*
X-61273Y-179558D01*
X-56273Y-179558D02*
X-55160Y-179096D01*
X-54698Y-177983D01*
X-37399Y-181872D02*
X-36286Y-181410D01*
X-35824Y-180297D01*
X-45273D02*
X-44812Y-181410D01*
X-43698Y-181872D01*
X-43698Y-163328D02*
X-44812Y-163790D01*
X-45273Y-164903D01*
X-35824D02*
X-36286Y-163790D01*
X-37399Y-163328D01*
X-27950Y-181872D02*
X-26837Y-181410D01*
X-26376Y-180297D01*
X-35824D02*
X-35363Y-181410D01*
X-34250Y-181872D01*
X-34250Y-163328D02*
X-35363Y-163790D01*
X-35824Y-164903D01*
X-26376D02*
X-26837Y-163790D01*
X-27950Y-163328D01*
X-289224Y-128967D02*
X-289685Y-127853D01*
X-290798Y-127392D01*
X-295798Y-127392D02*
X-296912Y-127853D01*
X-297373Y-128967D01*
X-297373Y-139754D02*
X-296912Y-140868D01*
X-295798Y-141329D01*
X-290798Y-141329D02*
X-289685Y-140868D01*
X-289224Y-139754D01*
Y-151200D02*
X-289685Y-150086D01*
X-290798Y-149625D01*
X-295798Y-149625D02*
X-296912Y-150086D01*
X-297373Y-151200D01*
X-297373Y-161987D02*
X-296912Y-163101D01*
X-295798Y-163562D01*
X-290798Y-163562D02*
X-289685Y-163101D01*
X-289224Y-161987D01*
X-267006Y-140078D02*
X-267467Y-138964D01*
X-268581Y-138503D01*
X-273581D02*
X-274695Y-138964D01*
X-275156Y-140078D01*
X-275156Y-150865D02*
X-274695Y-151979D01*
X-273581Y-152440D01*
X-268581Y-152440D02*
X-267467Y-151979D01*
X-267006Y-150865D01*
X-289224Y-79476D02*
X-289685Y-78362D01*
X-290798Y-77901D01*
X-295798Y-77901D02*
X-296912Y-78362D01*
X-297373Y-79476D01*
X-297373Y-90263D02*
X-296912Y-91377D01*
X-295798Y-91838D01*
X-290798Y-91838D02*
X-289685Y-91377D01*
X-289224Y-90263D01*
Y-57391D02*
X-289685Y-56278D01*
X-290798Y-55817D01*
X-295798Y-55817D02*
X-296912Y-56278D01*
X-297373Y-57391D01*
X-297373Y-68179D02*
X-296912Y-69292D01*
X-295798Y-69753D01*
X-290798Y-69753D02*
X-289685Y-69292D01*
X-289224Y-68179D01*
X-267006Y-68435D02*
X-267467Y-67321D01*
X-268581Y-66860D01*
X-273581Y-66860D02*
X-274695Y-67321D01*
X-275156Y-68435D01*
X-275156Y-79222D02*
X-274695Y-80336D01*
X-273581Y-80797D01*
X-268581Y-80797D02*
X-267467Y-80336D01*
X-267006Y-79222D01*
X-246002Y-173169D02*
X-244889Y-172707D01*
X-244428Y-171594D01*
X-244428Y-166594D02*
X-244889Y-165480D01*
X-246002Y-165019D01*
X-256790Y-165019D02*
X-257903Y-165480D01*
X-258365Y-166594D01*
X-258365Y-171594D02*
X-257903Y-172707D01*
X-256790Y-173169D01*
X-246002Y-117775D02*
X-244889Y-117314D01*
X-244427Y-116200D01*
X-244428Y-111200D02*
X-244889Y-110086D01*
X-246002Y-109625D01*
X-256790Y-109625D02*
X-257903Y-110086D01*
X-258365Y-111200D01*
X-258365Y-116200D02*
X-257903Y-117314D01*
X-256790Y-117775D01*
X-246002Y-101525D02*
X-244889Y-101064D01*
X-244427Y-99950D01*
X-244427Y-94950D02*
X-244889Y-93837D01*
X-246002Y-93376D01*
X-256790Y-93376D02*
X-257903Y-93837D01*
X-258365Y-94950D01*
X-258365Y-99950D02*
X-257903Y-101064D01*
X-256790Y-101525D01*
X-246002Y-54281D02*
X-244889Y-53820D01*
X-244427Y-52706D01*
X-244427Y-47706D02*
X-244889Y-46593D01*
X-246002Y-46132D01*
X-256790Y-46132D02*
X-257903Y-46593D01*
X-258365Y-47706D01*
X-258365Y-52706D02*
X-257903Y-53820D01*
X-256790Y-54281D01*
X-192657Y-120835D02*
X-193524Y-121701D01*
X-188996D02*
X-189862Y-120835D01*
X-193524Y-127646D02*
X-192657Y-128512D01*
X-189862D02*
X-188996Y-127646D01*
X-189912Y-96908D02*
X-189046Y-96042D01*
X-193574D02*
X-192707Y-96908D01*
X-189046Y-90097D02*
X-189912Y-89231D01*
X-192707D02*
X-193574Y-90097D01*
X-142402Y-107227D02*
X-141536Y-106361D01*
X-146064Y-106361D02*
X-145198Y-107227D01*
X-141536Y-100416D02*
X-142402Y-99550D01*
X-145198Y-99550D02*
X-146064Y-100416D01*
X-121630Y-45602D02*
X-122496Y-44736D01*
Y-49264D02*
X-121630Y-48398D01*
X-128441Y-44736D02*
X-129307Y-45602D01*
Y-48398D02*
X-128441Y-49264D01*
X-59802Y-257700D02*
X-59341Y-258814D01*
X-58227Y-259275D01*
X-58227Y-251125D02*
X-59341Y-251587D01*
X-59802Y-252700D01*
X-45865D02*
X-46326Y-251587D01*
X-47440Y-251125D01*
X-47440Y-259275D02*
X-46326Y-258814D01*
X-45865Y-257700D01*
X-31312Y-260165D02*
X-30198Y-259703D01*
X-29737Y-258590D01*
X-37887Y-258590D02*
X-37425Y-259703D01*
X-36312Y-260165D01*
X-36312Y-246228D02*
X-37425Y-246689D01*
X-37887Y-247802D01*
X-29737Y-247802D02*
X-30198Y-246689D01*
X-31312Y-246228D01*
X-23131Y-260157D02*
X-22017Y-259695D01*
X-21556Y-258582D01*
X-29706Y-258582D02*
X-29244Y-259695D01*
X-28131Y-260157D01*
X-28131Y-246220D02*
X-29244Y-246681D01*
X-29706Y-247795D01*
X-21556Y-247795D02*
X-22017Y-246681D01*
X-23131Y-246220D01*
X-76287Y-222972D02*
X-71287Y-222972D01*
X-69712Y-221397D02*
X-69712Y-217775D01*
X-76287Y-209035D02*
X-71287D01*
X-69712Y-210610D02*
X-69712Y-214232D01*
X-77862Y-214232D02*
X-77862Y-210610D01*
X-77862Y-221397D02*
X-77862Y-217775D01*
X-78019Y-216907D02*
X-78019Y-221907D01*
X-83215Y-215332D02*
X-79593Y-215332D01*
X-91956Y-216907D02*
X-91956Y-221907D01*
X-90381Y-215332D02*
X-86759Y-215332D01*
X-90381Y-223482D02*
X-86759D01*
X-83215D02*
X-79593D01*
X-77812Y-206632D02*
Y-201435D01*
Y-210175D02*
X-77812Y-215372D01*
X-85962Y-215372D02*
X-85962Y-210175D01*
X-85962Y-206632D02*
Y-201435D01*
X-77812Y-201435D01*
X-85962Y-215372D02*
X-77812Y-215372D01*
X-66107Y-203723D02*
X-66107Y-206873D01*
X-70044Y-206873D02*
X-66107Y-206873D01*
X-66107Y-198211D02*
X-66107Y-195062D01*
X-70044D02*
X-66107D01*
X-113469Y-194808D02*
Y-189808D01*
X-111894Y-196383D02*
X-108272D01*
X-99532Y-194808D02*
Y-189808D01*
X-104728Y-196383D02*
X-101106D01*
X-104728Y-188233D02*
X-101106Y-188233D01*
X-111894Y-188233D02*
X-108272D01*
X-131995Y-220875D02*
X-129338Y-220875D01*
X-126975Y-220875D02*
X-124318Y-220875D01*
X-131995Y-225402D02*
X-129338Y-225402D01*
X-126975Y-225402D02*
X-124318Y-225402D01*
X-131995Y-220875D02*
X-131995Y-225402D01*
X-124318Y-220875D02*
X-124318Y-225402D01*
X-127003Y-231621D02*
X-124345Y-231621D01*
X-132022Y-231621D02*
X-129365Y-231621D01*
X-127003Y-227094D02*
X-124345Y-227094D01*
X-132022Y-227094D02*
X-129365Y-227094D01*
X-124345Y-231621D02*
Y-227094D01*
X-132022Y-231621D02*
Y-227094D01*
X-138281Y-233298D02*
X-138281Y-238298D01*
X-136706Y-239873D02*
X-133084Y-239873D01*
X-124344Y-233298D02*
X-124344Y-238298D01*
X-129541Y-239873D02*
X-125919Y-239873D01*
X-129541Y-231723D02*
X-125919D01*
X-136706D02*
X-133084D01*
X-128837Y-240658D02*
X-123837Y-240658D01*
X-130412Y-245855D02*
Y-242233D01*
X-128837Y-254595D02*
X-123837D01*
X-130412Y-253020D02*
Y-249398D01*
X-122262Y-253020D02*
Y-249398D01*
Y-245855D02*
Y-242233D01*
X-120687Y-240658D02*
X-115687D01*
X-122262Y-242233D02*
X-122262Y-245855D01*
X-120687Y-254595D02*
X-115687Y-254595D01*
X-122262Y-253020D02*
Y-249398D01*
X-114112Y-253020D02*
Y-249398D01*
X-114112Y-242233D02*
X-114112Y-245855D01*
X-104687Y-267376D02*
X-99687Y-267376D01*
X-98112Y-265801D02*
Y-262179D01*
X-104687Y-253439D02*
X-99687Y-253439D01*
X-98112Y-258635D02*
Y-255013D01*
X-106262Y-258635D02*
X-106262Y-255013D01*
X-106262Y-262179D02*
X-106262Y-265801D01*
X-113853Y-253443D02*
X-111195D01*
X-108833D02*
X-106175D01*
X-113853Y-257971D02*
X-111195Y-257971D01*
X-108833Y-257971D02*
X-106175Y-257971D01*
X-113853Y-257971D02*
X-113853Y-253443D01*
X-106175Y-257971D02*
Y-253443D01*
X-114156Y-251807D02*
Y-246807D01*
X-112581Y-253382D02*
X-108959D01*
X-100219Y-246807D02*
X-100219Y-251807D01*
X-105415Y-253382D02*
X-101793Y-253382D01*
X-105415Y-245232D02*
X-101793Y-245232D01*
X-112581Y-245232D02*
X-108959D01*
X-108933Y-245171D02*
X-106275D01*
X-113953D02*
X-111295Y-245171D01*
X-108933Y-240643D02*
X-106275D01*
X-113953D02*
X-111295D01*
X-106275Y-245171D02*
X-106275Y-240643D01*
X-113953D02*
X-113953Y-245171D01*
X-96199Y-255665D02*
X-95569Y-255665D01*
X-96199Y-237949D02*
X-95569Y-237949D01*
X-85805Y-255665D02*
X-85175D01*
X-85805Y-237949D02*
X-85175Y-237949D01*
X-96199Y-255665D02*
Y-237949D01*
X-85175Y-255665D02*
Y-237949D01*
X-99099Y-214643D02*
X-97623D01*
Y-216119D02*
Y-214643D01*
X-114552D02*
X-113075Y-214643D01*
X-114552Y-214643D02*
X-114552Y-216119D01*
X-114552Y-231572D02*
X-114552Y-230095D01*
X-114552Y-231572D02*
X-113075D01*
X-99099Y-231572D02*
X-97623Y-231572D01*
Y-230095D01*
X-165963Y-223313D02*
X-160963D01*
X-159388Y-221738D02*
Y-218116D01*
X-165963Y-209376D02*
X-160963D01*
X-159388Y-214573D02*
Y-210951D01*
X-167538Y-214573D02*
Y-210951D01*
Y-221738D02*
Y-218116D01*
X-157763Y-202368D02*
X-152763D01*
X-159338Y-203943D02*
X-159338Y-207565D01*
X-157763Y-216305D02*
X-152763D01*
X-159338Y-214730D02*
X-159338Y-211108D01*
X-151188Y-214730D02*
Y-211108D01*
Y-207565D02*
Y-203943D01*
X-186294Y-205535D02*
X-177632Y-205535D01*
X-186294Y-217346D02*
X-177632Y-217346D01*
X-208363Y-217513D02*
X-203363D01*
X-201788Y-212316D02*
X-201788Y-215938D01*
X-208363Y-203576D02*
X-203363D01*
X-201788Y-208773D02*
X-201788Y-205151D01*
X-209938Y-208773D02*
Y-205151D01*
Y-215938D02*
Y-212316D01*
X-216563Y-203568D02*
X-211563D01*
X-218138Y-205143D02*
X-218138Y-208765D01*
X-216563Y-217505D02*
X-211563D01*
X-218138Y-215930D02*
X-218138Y-212308D01*
X-209988Y-215930D02*
Y-212308D01*
Y-208765D02*
Y-205143D01*
X-196468Y-191664D02*
Y-189006D01*
Y-196684D02*
Y-194026D01*
X-200995Y-191664D02*
Y-189006D01*
Y-196684D02*
Y-194026D01*
Y-189006D02*
X-196468D01*
X-200995Y-196684D02*
X-196468D01*
X-186662Y-194877D02*
X-178001D01*
X-186662Y-183066D02*
X-178001D01*
X-195429Y-165673D02*
Y-163015D01*
Y-170692D02*
Y-168035D01*
X-199957Y-165673D02*
Y-163015D01*
Y-170692D02*
Y-168035D01*
Y-163015D02*
X-195429D01*
X-199957Y-170692D02*
X-195429D01*
X-207581Y-169772D02*
X-202581D01*
X-201006Y-164575D02*
X-201006Y-168197D01*
X-207581Y-155835D02*
X-202581Y-155835D01*
X-201006Y-161032D02*
Y-157410D01*
X-209156Y-157410D02*
X-209156Y-161032D01*
Y-168197D02*
Y-164575D01*
X-185112Y-157110D02*
X-176450Y-157110D01*
X-185112Y-168921D02*
X-176450Y-168921D01*
X-116045Y-198987D02*
X-116045Y-198357D01*
X-98329Y-198987D02*
Y-198357D01*
X-116045Y-209381D02*
Y-208751D01*
X-98329Y-209381D02*
Y-208751D01*
X-116045Y-198357D02*
X-98329D01*
X-116045Y-209381D02*
X-98329Y-209381D01*
X-124315Y-214307D02*
X-124315Y-219307D01*
X-129511Y-212732D02*
X-125890Y-212732D01*
X-138252Y-219307D02*
Y-214307D01*
X-136677Y-212732D02*
X-133055Y-212732D01*
X-136677Y-220882D02*
X-133055Y-220882D01*
X-129511D02*
X-125890D01*
X-209206Y-193666D02*
Y-190043D01*
Y-186500D02*
Y-182878D01*
X-201057Y-186500D02*
Y-182878D01*
X-207631Y-181303D02*
X-202631D01*
X-201057Y-193666D02*
Y-190043D01*
X-207631Y-195240D02*
X-202631D01*
X-209206Y-186500D02*
Y-182878D01*
Y-193666D02*
Y-190043D01*
X-217356Y-193666D02*
X-217356Y-190043D01*
X-215781Y-195240D02*
X-210781D01*
X-217356Y-182878D02*
X-217356Y-186500D01*
X-215781Y-181303D02*
X-210781D01*
X-209206Y-161036D02*
Y-157413D01*
Y-168201D02*
Y-164579D01*
X-217356Y-168201D02*
X-217356Y-164579D01*
X-215781Y-169776D02*
X-210781D01*
X-217356Y-157414D02*
X-217356Y-161036D01*
X-215781Y-155839D02*
X-210781D01*
X-151157Y-184900D02*
Y-181278D01*
X-157731Y-179703D02*
X-152732D01*
X-151157Y-192066D02*
Y-188443D01*
X-157731Y-193640D02*
X-152732D01*
X-159306Y-184900D02*
Y-181278D01*
X-159306Y-192066D02*
X-159306Y-188443D01*
X-201627Y-216299D02*
X-201627Y-218956D01*
X-201627Y-211279D02*
X-201627Y-213936D01*
Y-218956D02*
X-197099Y-218956D01*
X-197099Y-216299D02*
X-197099Y-218956D01*
X-201627Y-211279D02*
X-197099D01*
X-197099Y-213936D01*
X-149906Y-159228D02*
Y-155606D01*
X-156481Y-154031D02*
X-151481D01*
X-149906Y-166393D02*
Y-162771D01*
X-156481Y-167968D02*
X-151481D01*
X-158056Y-155606D02*
X-158056Y-159228D01*
Y-166393D02*
Y-162771D01*
X-201627Y-211279D02*
X-201627Y-208621D01*
X-201627Y-206259D02*
X-201627Y-203602D01*
X-201627Y-211279D02*
X-197099Y-211279D01*
Y-208621D01*
X-201627Y-203602D02*
X-197099D01*
Y-206259D02*
Y-203602D01*
X-70621Y-272236D02*
X-67963D01*
X-65601D02*
X-62944D01*
X-70621Y-276764D02*
X-67963Y-276764D01*
X-65601Y-276764D02*
X-62944Y-276764D01*
X-70621Y-276764D02*
X-70621Y-272236D01*
X-62944Y-276764D02*
Y-272236D01*
X-70621Y-267236D02*
X-67963D01*
X-65601D02*
X-62944D01*
X-70621Y-271764D02*
X-67963D01*
X-65601D02*
X-62944D01*
X-70621D02*
Y-267236D01*
X-62944Y-271764D02*
Y-267236D01*
X-83324Y-272090D02*
X-78856Y-272090D01*
X-75706D02*
X-72163D01*
X-83324Y-278310D02*
X-78856D01*
X-71376Y-277550D02*
Y-272850D01*
X-83324Y-278310D02*
Y-272090D01*
X-75706Y-278310D02*
X-72163D01*
X-71376Y-277550D01*
X-72163Y-272090D02*
X-71376Y-272850D01*
X-83324Y-265790D02*
X-78856Y-265790D01*
X-75706D02*
X-72163D01*
X-83324Y-272010D02*
X-78856D01*
X-71376Y-271250D02*
X-71376Y-266550D01*
X-83324Y-272010D02*
X-83324Y-265790D01*
X-75706Y-272010D02*
X-72163D01*
X-71376Y-271250D01*
X-72163Y-265790D02*
X-71376Y-266550D01*
X-51380Y-282039D02*
X-38782Y-282039D01*
X-51380Y-261961D02*
X-38782D01*
X-27599Y-272236D02*
X-24942D01*
X-22580D02*
X-19922D01*
X-27599Y-276764D02*
X-24942Y-276764D01*
X-22580Y-276764D02*
X-19922Y-276764D01*
X-27599Y-276764D02*
Y-272236D01*
X-19922D02*
X-19922Y-276764D01*
X-164681Y-174876D02*
X-159681D01*
X-158106Y-169679D02*
X-158106Y-173301D01*
X-164681Y-160939D02*
X-159681D01*
X-158106Y-166136D02*
X-158106Y-162514D01*
X-166256Y-166136D02*
Y-162514D01*
Y-173301D02*
Y-169679D01*
X-196468Y-183987D02*
Y-181329D01*
Y-189006D02*
Y-186349D01*
X-200995Y-183987D02*
Y-181329D01*
Y-189006D02*
Y-186349D01*
Y-181329D02*
X-196468D01*
X-200995Y-189006D02*
X-196468D01*
X-195429Y-157995D02*
Y-155338D01*
Y-163015D02*
Y-160358D01*
X-199957Y-157995D02*
Y-155338D01*
Y-163015D02*
Y-160358D01*
Y-155338D02*
X-195429D01*
X-199957Y-163015D02*
X-195429D01*
X-166032Y-200744D02*
X-161031D01*
X-159457Y-195547D02*
X-159457Y-199169D01*
X-166032Y-186807D02*
X-161031D01*
X-159457Y-192004D02*
X-159457Y-188382D01*
X-167606Y-192004D02*
Y-188382D01*
Y-199169D02*
Y-195547D01*
X-77156Y-224607D02*
X-77156Y-229607D01*
X-75581Y-231182D02*
X-71959Y-231182D01*
X-63219Y-224607D02*
X-63219Y-229607D01*
X-68415Y-231182D02*
X-64793Y-231182D01*
X-68415Y-223032D02*
X-64793Y-223032D01*
X-75581Y-223032D02*
X-71959Y-223032D01*
X-92769Y-165621D02*
X-87769D01*
X-94344Y-167195D02*
X-94344Y-170817D01*
X-92769Y-179558D02*
X-87769D01*
X-94344Y-177983D02*
X-94344Y-174361D01*
X-86194Y-177983D02*
Y-174361D01*
Y-170817D02*
Y-167195D01*
X-76490Y-178691D02*
Y-166487D01*
X-72553Y-178691D02*
Y-166487D01*
X-76490Y-166487D02*
X-72553Y-166487D01*
X-76490Y-178691D02*
X-72553Y-178691D01*
X-54722Y-168663D02*
Y-164903D01*
Y-180297D02*
Y-176537D01*
X-45273Y-180297D02*
Y-176537D01*
Y-164903D02*
X-45273Y-168663D01*
X-53147Y-181872D02*
X-46848D01*
X-53147Y-163328D02*
X-46848D01*
X-61273Y-165621D02*
X-56273D01*
X-62848Y-170817D02*
Y-167195D01*
X-61273Y-179558D02*
X-56273D01*
X-62848Y-177983D02*
Y-174361D01*
X-54698Y-177983D02*
Y-174361D01*
Y-170817D02*
Y-167195D01*
X-45273Y-168663D02*
Y-164903D01*
Y-180297D02*
Y-176537D01*
X-35824Y-180297D02*
Y-176537D01*
Y-168663D02*
Y-164903D01*
X-43698Y-181872D02*
X-37399D01*
X-43698Y-163328D02*
X-37399D01*
X-35824Y-168663D02*
Y-164903D01*
Y-180297D02*
Y-176537D01*
X-26376Y-180297D02*
Y-176537D01*
Y-168663D02*
Y-164903D01*
X-34250Y-181872D02*
X-27950D01*
X-34250Y-163328D02*
X-27950D01*
X-20156Y-169844D02*
Y-166694D01*
X-16219D01*
X-20156Y-178506D02*
Y-175356D01*
Y-178506D02*
X-16219D01*
X-316032Y-164275D02*
X-310835Y-164275D01*
X-324772D02*
X-319576Y-164275D01*
X-324772Y-156125D02*
X-319576D01*
X-316032D02*
X-310835D01*
X-310835Y-164275D02*
X-310835Y-156125D01*
X-324772D02*
X-324772Y-164275D01*
X-316342Y-115499D02*
X-296657D01*
X-316342Y-102901D02*
X-296657D01*
X-316342Y-115499D02*
Y-102901D01*
X-296657Y-115499D02*
Y-102901D01*
X-295798Y-127392D02*
X-290798D01*
X-297373Y-132589D02*
Y-128967D01*
X-295798Y-141329D02*
X-290798D01*
X-297373Y-139754D02*
Y-136132D01*
X-289224Y-139754D02*
Y-136132D01*
Y-132589D02*
Y-128967D01*
X-295798Y-149625D02*
X-290798D01*
X-297373Y-154822D02*
Y-151200D01*
X-295798Y-163562D02*
X-290798D01*
X-297373Y-161987D02*
Y-158365D01*
X-289224Y-161987D02*
Y-158365D01*
Y-154822D02*
Y-151200D01*
X-280431Y-164760D02*
X-275234Y-164760D01*
X-289171D02*
X-283974Y-164760D01*
X-289171Y-156610D02*
X-283974D01*
X-280431D02*
X-275234D01*
X-275234Y-164760D02*
X-275234Y-156610D01*
X-289171D02*
X-289171Y-164760D01*
Y-148461D02*
X-283974Y-148461D01*
X-280431D02*
X-275234Y-148461D01*
X-280431Y-156610D02*
X-275234D01*
X-289171D02*
X-283974D01*
X-289171D02*
X-289171Y-148461D01*
X-275234D02*
X-275234Y-156610D01*
X-289171Y-134361D02*
X-283974Y-134361D01*
X-280431D02*
X-275234Y-134361D01*
X-280431Y-142510D02*
X-275234D01*
X-289171D02*
X-283974D01*
X-289171D02*
X-289171Y-134361D01*
X-275234D02*
X-275234Y-142510D01*
X-289171Y-126211D02*
X-283974Y-126211D01*
X-280431D02*
X-275234Y-126211D01*
X-280431Y-134361D02*
X-275234D01*
X-289171D02*
X-283974D01*
X-289171D02*
X-289171Y-126211D01*
X-275234D02*
X-275234Y-134361D01*
X-275156Y-166508D02*
X-275156Y-161311D01*
X-275156Y-152571D02*
X-275156Y-157768D01*
X-267006D02*
Y-152571D01*
Y-166508D02*
Y-161311D01*
X-275156Y-166508D02*
X-267006Y-166508D01*
X-275156Y-152571D02*
X-267006Y-152571D01*
X-273581Y-138503D02*
X-268581Y-138503D01*
X-275156Y-143700D02*
Y-140078D01*
X-273581Y-152440D02*
X-268581D01*
X-275156Y-150865D02*
Y-147243D01*
X-267006Y-150865D02*
Y-147243D01*
Y-143700D02*
Y-140078D01*
X-267006Y-129660D02*
X-267006Y-124463D01*
X-267006Y-133203D02*
X-267006Y-138400D01*
X-275156Y-138400D02*
Y-133203D01*
Y-129660D02*
Y-124463D01*
X-267006Y-124463D01*
X-275156Y-138400D02*
X-267006Y-138400D01*
X-280431Y-93021D02*
X-275234Y-93021D01*
X-289171D02*
X-283974Y-93021D01*
X-289171Y-84872D02*
X-283974D01*
X-280431D02*
X-275234D01*
X-275234Y-93021D02*
X-275234Y-84872D01*
X-289171D02*
X-289171Y-93021D01*
Y-76722D02*
X-283974Y-76722D01*
X-280431D02*
X-275234Y-76722D01*
X-280431Y-84872D02*
X-275234D01*
X-289171D02*
X-283974D01*
X-289171D02*
X-289171Y-76722D01*
X-275234D02*
X-275234Y-84872D01*
X-311232Y-92375D02*
X-306035Y-92375D01*
X-319972D02*
X-314776Y-92375D01*
X-319972Y-84225D02*
X-314776D01*
X-311232D02*
X-306035D01*
X-306035Y-92375D02*
X-306035Y-84225D01*
X-319972D02*
X-319972Y-92375D01*
X-295798Y-77901D02*
X-290798D01*
X-297373Y-79476D02*
X-297373Y-83098D01*
X-295798Y-91838D02*
X-290798D01*
X-297373Y-90263D02*
X-297373Y-86641D01*
X-289224Y-90263D02*
Y-86641D01*
Y-83098D02*
Y-79476D01*
X-295798Y-55817D02*
X-290798D01*
X-297373Y-61013D02*
Y-57391D01*
X-295798Y-69753D02*
X-290798D01*
X-297373Y-68179D02*
Y-64557D01*
X-289224Y-68179D02*
Y-64557D01*
Y-61013D02*
Y-57391D01*
X-289171Y-62785D02*
X-283974Y-62785D01*
X-280431D02*
X-275234Y-62785D01*
X-280431Y-70935D02*
X-275234D01*
X-289171D02*
X-283974D01*
X-289171D02*
X-289171Y-62785D01*
X-275234D02*
X-275234Y-70935D01*
X-289171Y-54635D02*
X-283974Y-54635D01*
X-280431D02*
X-275234Y-54635D01*
X-280431Y-62785D02*
X-275234D01*
X-289171D02*
X-283974D01*
X-289171D02*
X-289171Y-54635D01*
X-275234D02*
X-275234Y-62785D01*
X-275156Y-94775D02*
X-275156Y-89578D01*
X-275156Y-80838D02*
X-275156Y-86035D01*
X-267006D02*
Y-80838D01*
Y-94775D02*
Y-89578D01*
X-275156Y-94775D02*
X-267006Y-94775D01*
X-275156Y-80838D02*
X-267006Y-80838D01*
X-273581Y-66860D02*
X-268581D01*
X-275156Y-72057D02*
Y-68435D01*
X-273581Y-80797D02*
X-268581D01*
X-275156Y-79222D02*
Y-75600D01*
X-267006Y-79222D02*
Y-75600D01*
Y-72057D02*
Y-68435D01*
X-267006Y-58027D02*
X-267006Y-52830D01*
X-267006Y-61570D02*
X-267006Y-66767D01*
X-275156Y-66767D02*
Y-61570D01*
Y-58027D02*
Y-52830D01*
X-267006Y-52830D01*
X-275156Y-66767D02*
X-267006Y-66767D01*
X-249624Y-181310D02*
X-244428Y-181310D01*
X-258365D02*
X-253168Y-181310D01*
X-258365Y-173161D02*
X-253168D01*
X-249624D02*
X-244428D01*
X-244428Y-181310D02*
X-244428Y-173161D01*
X-258365D02*
X-258365Y-181310D01*
X-244428Y-171594D02*
Y-166594D01*
X-249624Y-165019D02*
X-246002Y-165019D01*
X-258365Y-171594D02*
Y-166594D01*
X-256790Y-165019D02*
X-253168Y-165019D01*
X-256790Y-173169D02*
X-253168D01*
X-249624D02*
X-246002D01*
X-261239Y-151771D02*
X-241553D01*
X-261239Y-139172D02*
X-241553Y-139172D01*
X-261239Y-151771D02*
Y-139172D01*
X-241553Y-151771D02*
Y-139172D01*
X-249624Y-125924D02*
X-244428Y-125924D01*
X-258365D02*
X-253168Y-125924D01*
X-258365Y-117775D02*
X-253168D01*
X-249624D02*
X-244428D01*
X-244428Y-125924D02*
X-244428Y-117775D01*
X-258365D02*
X-258365Y-125924D01*
X-244428Y-116200D02*
Y-111200D01*
X-249624Y-109625D02*
X-246002Y-109625D01*
X-258365Y-116200D02*
Y-111200D01*
X-256790Y-109625D02*
X-253168Y-109625D01*
X-256790Y-117775D02*
X-253168D01*
X-249624D02*
X-246002D01*
X-249624Y-109675D02*
X-244428Y-109675D01*
X-258365D02*
X-253168Y-109675D01*
X-258365Y-101525D02*
X-253168D01*
X-249624D02*
X-244428D01*
X-244428Y-109675D02*
X-244428Y-101525D01*
X-258365D02*
X-258365Y-109675D01*
X-244427Y-99950D02*
Y-94950D01*
X-249624Y-93376D02*
X-246002Y-93376D01*
X-258365Y-99950D02*
Y-94950D01*
X-256790Y-93376D02*
X-253168Y-93376D01*
X-256790Y-101525D02*
X-253168D01*
X-249624D02*
X-246002D01*
X-261239Y-80128D02*
X-241553D01*
X-261239Y-67529D02*
X-241553D01*
X-261239Y-80128D02*
Y-67529D01*
X-241553Y-80128D02*
Y-67529D01*
X-244427Y-47706D02*
X-244427Y-52706D01*
X-249624Y-46132D02*
X-246002Y-46132D01*
X-258365Y-52706D02*
X-258365Y-47706D01*
X-256790Y-46132D02*
X-253168Y-46132D01*
X-256790Y-54281D02*
X-253168Y-54281D01*
X-249624Y-54281D02*
X-246002Y-54281D01*
X-249624Y-46132D02*
X-244428Y-46132D01*
X-258365Y-46132D02*
X-253168D01*
X-258365Y-37982D02*
X-253168D01*
X-249624D02*
X-244428D01*
Y-46132D02*
Y-37982D01*
X-258365Y-46132D02*
Y-37982D01*
X-172335Y-137199D02*
Y-132672D01*
X-180012Y-137199D02*
Y-132672D01*
X-174992Y-137199D02*
X-172335D01*
X-180012D02*
X-177354D01*
X-174992Y-132672D02*
X-172335D01*
X-180012D02*
X-177354D01*
X-192657Y-120835D02*
X-189862D01*
X-193524Y-123492D02*
Y-121721D01*
X-188996Y-123492D02*
X-188996Y-121721D01*
X-193524Y-127626D02*
Y-125854D01*
X-188996Y-127626D02*
Y-125854D01*
X-192657Y-128512D02*
X-189862Y-128512D01*
X-192707Y-96908D02*
X-189912D01*
X-189046Y-96022D02*
Y-94250D01*
X-193574Y-94250D02*
X-193574Y-96022D01*
X-189046Y-91888D02*
Y-90117D01*
X-193574Y-91888D02*
Y-90117D01*
X-192707Y-89231D02*
X-189912Y-89231D01*
X-177833Y-88821D02*
X-156967D01*
X-177833Y-128979D02*
X-156967Y-128979D01*
X-177833Y-88821D02*
X-177833Y-128979D01*
X-156967Y-88821D02*
X-156967Y-128979D01*
X-145198Y-107227D02*
X-142402Y-107227D01*
X-141536Y-106341D02*
X-141536Y-104569D01*
X-146064Y-106341D02*
X-146064Y-104569D01*
X-141536Y-102207D02*
Y-100435D01*
X-146064Y-102207D02*
Y-100435D01*
X-145198Y-99550D02*
X-142402Y-99550D01*
X-146064Y-94439D02*
Y-91781D01*
Y-89419D02*
Y-86761D01*
X-141536Y-94439D02*
X-141536Y-91781D01*
X-141536Y-89419D02*
X-141536Y-86761D01*
X-146064Y-94439D02*
X-141536Y-94439D01*
X-146064Y-86761D02*
X-141536D01*
X-129307Y-49236D02*
X-126650D01*
X-124287D02*
X-121630D01*
X-129307Y-53764D02*
X-126650D01*
X-124287D02*
X-121630D01*
X-129307D02*
Y-49236D01*
X-121630Y-53764D02*
Y-49236D01*
Y-45602D02*
X-121630Y-48398D01*
X-124287Y-44736D02*
X-122516D01*
X-124287Y-49264D02*
X-122516D01*
X-128421Y-44736D02*
X-126650Y-44736D01*
X-128421Y-49264D02*
X-126650D01*
X-129307Y-48398D02*
Y-45602D01*
X-102948Y-126516D02*
Y-90296D01*
X-66728Y-126516D02*
Y-90296D01*
X-102948D02*
X-66728D01*
X-102948Y-126516D02*
X-66728D01*
X-97535Y-72836D02*
X-94877D01*
X-92515D02*
X-89858D01*
X-97535Y-77364D02*
X-94877D01*
X-92515D02*
X-89858D01*
X-97535D02*
Y-72836D01*
X-89858Y-77364D02*
Y-72836D01*
X-53828Y-95885D02*
X-51171D01*
X-48809D02*
X-46151D01*
X-53828Y-100413D02*
X-51171D01*
X-48809D02*
X-46151D01*
X-53828D02*
Y-95885D01*
X-46151Y-100413D02*
Y-95885D01*
X-53828Y-100436D02*
X-51171D01*
X-48809D02*
X-46151D01*
X-53828Y-104964D02*
X-51171D01*
X-48809D02*
X-46151D01*
X-53828D02*
Y-100436D01*
X-46151Y-104964D02*
Y-100436D01*
X-34243Y-106196D02*
Y-94582D01*
X-30503Y-106196D02*
Y-94582D01*
X-34243D02*
X-30503D01*
X-34243Y-106196D02*
X-30503D01*
X-51062Y-259275D02*
X-47440D01*
X-58227D02*
X-54605D01*
X-58227Y-251125D02*
X-54605D01*
X-59802Y-257700D02*
Y-252700D01*
X-51062Y-251125D02*
X-47440Y-251125D01*
X-45865Y-257700D02*
Y-252700D01*
X-29737Y-251424D02*
Y-247802D01*
Y-258590D02*
Y-254968D01*
X-37887Y-258590D02*
Y-254968D01*
X-36312Y-260165D02*
X-31312D01*
X-37887Y-247802D02*
X-37887Y-251424D01*
X-36312Y-246228D02*
X-31312D01*
X-21556Y-251416D02*
Y-247795D01*
Y-258582D02*
Y-254960D01*
X-29706Y-258582D02*
X-29706Y-254960D01*
X-28131Y-260157D02*
X-23131D01*
X-29706Y-247795D02*
X-29706Y-251416D01*
X-28131Y-246220D02*
X-23131D01*
D11*
X-73095Y-193880D02*
X-73833Y-193454D01*
Y-194307D01*
X-73095Y-193880D01*
X-94571Y-230981D02*
X-95310Y-230555D01*
Y-231407D01*
X-94571Y-230981D01*
X-190329Y-204551D02*
X-191067Y-204124D01*
Y-204977D01*
X-190329Y-204551D01*
X-190698Y-182082D02*
X-191436Y-181656D01*
Y-182508D01*
X-190698Y-182082D01*
X-189147Y-156125D02*
X-189885Y-155699D01*
Y-156552D01*
X-189147Y-156125D01*
X-33664Y-283240D02*
X-34402Y-282814D01*
Y-283666D01*
X-33664Y-283240D01*
X-68911Y-179676D02*
X-69649Y-179249D01*
Y-180102D01*
X-68911Y-179676D01*
X-12184Y-179687D02*
X-12922Y-179260D01*
Y-180113D01*
X-12184Y-179687D01*
X-316854Y-119830D02*
X-317593Y-119404D01*
Y-120256D01*
X-316854Y-119830D01*
X-261750Y-156102D02*
X-262489Y-155675D01*
Y-156528D01*
X-261750Y-156102D01*
X-261750Y-84458D02*
X-262489Y-84032D01*
Y-84884D01*
X-261750Y-84458D01*
X-152341Y-128585D02*
X-153079Y-128159D01*
Y-129011D01*
X-152341Y-128585D01*
X-106983Y-90887D02*
X-107722Y-90460D01*
Y-91313D01*
X-106983Y-90887D01*
X-26369Y-107476D02*
X-27108Y-107049D01*
Y-107902D01*
X-26369Y-107476D01*
D12*
X-105598Y-145969D02*
X-105722Y-144990D01*
X-106085Y-144073D01*
X-106665Y-143274D01*
X-107426Y-142645D01*
X-108319Y-142225D01*
X-109288Y-142040D01*
X-110273Y-142102D01*
X-111212Y-142407D01*
X-112045Y-142936D01*
X-112721Y-143655D01*
X-113196Y-144520D01*
X-113441Y-145476D01*
Y-146463D01*
X-113196Y-147419D01*
X-112721Y-148283D01*
X-112045Y-149003D01*
X-111212Y-149532D01*
X-110273Y-149837D01*
X-109288Y-149899D01*
X-108319Y-149714D01*
X-107426Y-149293D01*
X-106666Y-148664D01*
X-106085Y-147866D01*
X-105722Y-146948D01*
X-105598Y-145969D01*
X-13866Y-145969D02*
X-13990Y-144990D01*
X-14353Y-144073D01*
X-14933Y-143274D01*
X-15694Y-142645D01*
X-16587Y-142225D01*
X-17556Y-142040D01*
X-18541Y-142102D01*
X-19479Y-142407D01*
X-20313Y-142936D01*
X-20988Y-143655D01*
X-21464Y-144520D01*
X-21709Y-145476D01*
Y-146463D01*
X-21464Y-147419D01*
X-20988Y-148283D01*
X-20313Y-149003D01*
X-19479Y-149532D01*
X-18541Y-149837D01*
X-17556Y-149899D01*
X-16587Y-149714D01*
X-15694Y-149293D01*
X-14933Y-148664D01*
X-14353Y-147866D01*
X-13990Y-146948D01*
X-13866Y-145969D01*
X-195358Y-130737D02*
X-195408Y-129741D01*
X-195559Y-128756D01*
X-195809Y-127791D01*
X-196155Y-126856D01*
X-196594Y-125961D01*
X-197122Y-125114D01*
X-197732Y-124326D01*
X-198419Y-123603D01*
X-199175Y-122954D01*
X-199994Y-122384D01*
X-200865Y-121900D01*
X-201782Y-121507D01*
X-202733Y-121209D01*
X-203710Y-121008D01*
X-204701Y-120907D01*
X-205698D01*
X-206690Y-121008D01*
X-207667Y-121209D01*
X-208618Y-121507D01*
X-209535Y-121900D01*
X-210406Y-122384D01*
X-211225Y-122954D01*
X-211981Y-123603D01*
X-212668Y-124326D01*
X-213278Y-125114D01*
X-213806Y-125961D01*
X-214245Y-126856D01*
X-214591Y-127791D01*
X-214841Y-128756D01*
X-214992Y-129741D01*
X-215042Y-130737D01*
X-214992Y-131733D01*
X-214841Y-132718D01*
X-214591Y-133684D01*
X-214245Y-134618D01*
X-213806Y-135514D01*
X-213278Y-136360D01*
X-212668Y-137148D01*
X-211981Y-137871D01*
X-211225Y-138520D01*
X-210406Y-139090D01*
X-209535Y-139574D01*
X-208618Y-139967D01*
X-207667Y-140265D01*
X-206690Y-140466D01*
X-205698Y-140567D01*
X-204701D01*
X-203710Y-140466D01*
X-202733Y-140265D01*
X-201782Y-139967D01*
X-200865Y-139574D01*
X-199994Y-139090D01*
X-199175Y-138520D01*
X-198419Y-137871D01*
X-197732Y-137148D01*
X-197122Y-136360D01*
X-196594Y-135514D01*
X-196155Y-134618D01*
X-195809Y-133684D01*
X-195559Y-132718D01*
X-195408Y-131733D01*
X-195358Y-130737D01*
X-210757Y-108900D02*
X-210808Y-107904D01*
X-210959Y-106919D01*
X-211209Y-105954D01*
X-211555Y-105019D01*
X-211994Y-104123D01*
X-212522Y-103277D01*
X-213132Y-102489D01*
X-213819Y-101766D01*
X-214575Y-101117D01*
X-215394Y-100547D01*
X-216265Y-100063D01*
X-217182Y-99670D01*
X-218133Y-99372D01*
X-219110Y-99171D01*
X-220101Y-99070D01*
X-221098D01*
X-222090Y-99171D01*
X-223067Y-99372D01*
X-224018Y-99670D01*
X-224935Y-100063D01*
X-225806Y-100547D01*
X-226625Y-101117D01*
X-227381Y-101766D01*
X-228068Y-102489D01*
X-228678Y-103277D01*
X-229206Y-104123D01*
X-229645Y-105019D01*
X-229991Y-105954D01*
X-230241Y-106919D01*
X-230392Y-107904D01*
X-230443Y-108900D01*
X-230392Y-109896D01*
X-230241Y-110881D01*
X-229991Y-111846D01*
X-229645Y-112782D01*
X-229206Y-113677D01*
X-228678Y-114523D01*
X-228068Y-115311D01*
X-227381Y-116034D01*
X-226625Y-116683D01*
X-225806Y-117253D01*
X-224935Y-117737D01*
X-224018Y-118130D01*
X-223067Y-118428D01*
X-222090Y-118629D01*
X-221098Y-118730D01*
X-220101D01*
X-219110Y-118629D01*
X-218133Y-118428D01*
X-217182Y-118130D01*
X-216265Y-117737D01*
X-215394Y-117253D01*
X-214575Y-116683D01*
X-213819Y-116034D01*
X-213132Y-115311D01*
X-212522Y-114523D01*
X-211994Y-113677D01*
X-211555Y-112782D01*
X-211209Y-111846D01*
X-210959Y-110881D01*
X-210808Y-109896D01*
X-210757Y-108900D01*
X-188394D02*
X-188445Y-107904D01*
X-188596Y-106919D01*
X-188846Y-105954D01*
X-189192Y-105019D01*
X-189631Y-104123D01*
X-190159Y-103277D01*
X-190769Y-102489D01*
X-191456Y-101766D01*
X-192212Y-101117D01*
X-193031Y-100547D01*
X-193902Y-100063D01*
X-194819Y-99670D01*
X-195770Y-99372D01*
X-196747Y-99171D01*
X-197739Y-99070D01*
X-198735D01*
X-199727Y-99171D01*
X-200704Y-99372D01*
X-201655Y-99670D01*
X-202572Y-100063D01*
X-203443Y-100547D01*
X-204262Y-101117D01*
X-205018Y-101766D01*
X-205705Y-102489D01*
X-206315Y-103277D01*
X-206843Y-104123D01*
X-207282Y-105019D01*
X-207628Y-105954D01*
X-207878Y-106919D01*
X-208029Y-107904D01*
X-208080Y-108900D01*
X-208029Y-109896D01*
X-207878Y-110881D01*
X-207628Y-111846D01*
X-207282Y-112782D01*
X-206843Y-113677D01*
X-206315Y-114523D01*
X-205705Y-115311D01*
X-205018Y-116034D01*
X-204262Y-116683D01*
X-203443Y-117253D01*
X-202572Y-117737D01*
X-201655Y-118130D01*
X-200704Y-118428D01*
X-199727Y-118629D01*
X-198735Y-118730D01*
X-197738D01*
X-196747Y-118629D01*
X-195770Y-118428D01*
X-194819Y-118130D01*
X-193902Y-117737D01*
X-193031Y-117253D01*
X-192212Y-116683D01*
X-191456Y-116034D01*
X-190769Y-115311D01*
X-190159Y-114523D01*
X-189631Y-113677D01*
X-189192Y-112782D01*
X-188846Y-111846D01*
X-188596Y-110881D01*
X-188445Y-109896D01*
X-188394Y-108900D01*
X-194957Y-86763D02*
X-195008Y-85767D01*
X-195159Y-84782D01*
X-195409Y-83816D01*
X-195755Y-82882D01*
X-196194Y-81986D01*
X-196722Y-81140D01*
X-197332Y-80352D01*
X-198019Y-79629D01*
X-198775Y-78980D01*
X-199594Y-78410D01*
X-200465Y-77926D01*
X-201382Y-77533D01*
X-202333Y-77235D01*
X-203309Y-77034D01*
X-204302Y-76933D01*
X-205298D01*
X-206290Y-77034D01*
X-207267Y-77235D01*
X-208218Y-77533D01*
X-209135Y-77926D01*
X-210006Y-78410D01*
X-210825Y-78980D01*
X-211581Y-79629D01*
X-212268Y-80352D01*
X-212878Y-81140D01*
X-213406Y-81986D01*
X-213845Y-82882D01*
X-214191Y-83816D01*
X-214441Y-84782D01*
X-214592Y-85767D01*
X-214643Y-86763D01*
X-214592Y-87759D01*
X-214441Y-88744D01*
X-214191Y-89710D01*
X-213845Y-90645D01*
X-213406Y-91540D01*
X-212878Y-92386D01*
X-212268Y-93174D01*
X-211581Y-93897D01*
X-210825Y-94546D01*
X-210006Y-95116D01*
X-209135Y-95600D01*
X-208218Y-95993D01*
X-207267Y-96291D01*
X-206290Y-96492D01*
X-205298Y-96593D01*
X-204301D01*
X-203309Y-96492D01*
X-202333Y-96291D01*
X-201382Y-95993D01*
X-200465Y-95600D01*
X-199594Y-95116D01*
X-198775Y-94546D01*
X-198019Y-93897D01*
X-197332Y-93174D01*
X-196722Y-92386D01*
X-196194Y-91540D01*
X-195755Y-90645D01*
X-195409Y-89710D01*
X-195159Y-88744D01*
X-195008Y-87759D01*
X-194957Y-86763D01*
X-118957Y-102492D02*
X-119008Y-101497D01*
X-119159Y-100511D01*
X-119409Y-99546D01*
X-119755Y-98611D01*
X-120194Y-97716D01*
X-120722Y-96869D01*
X-121332Y-96081D01*
X-122019Y-95358D01*
X-122775Y-94709D01*
X-123594Y-94139D01*
X-124465Y-93656D01*
X-125382Y-93262D01*
X-126333Y-92964D01*
X-127310Y-92763D01*
X-128302Y-92662D01*
X-129298D01*
X-130290Y-92763D01*
X-131267Y-92964D01*
X-132218Y-93262D01*
X-133135Y-93656D01*
X-134006Y-94139D01*
X-134825Y-94709D01*
X-135581Y-95358D01*
X-136268Y-96081D01*
X-136878Y-96869D01*
X-137406Y-97716D01*
X-137845Y-98611D01*
X-138191Y-99546D01*
X-138441Y-100511D01*
X-138592Y-101497D01*
X-138643Y-102492D01*
X-138592Y-103488D01*
X-138441Y-104473D01*
X-138191Y-105439D01*
X-137845Y-106374D01*
X-137406Y-107269D01*
X-136878Y-108115D01*
X-136268Y-108903D01*
X-135581Y-109626D01*
X-134825Y-110275D01*
X-134006Y-110845D01*
X-133134Y-111329D01*
X-132218Y-111722D01*
X-131267Y-112021D01*
X-130290Y-112221D01*
X-129298Y-112322D01*
X-128301D01*
X-127310Y-112221D01*
X-126333Y-112021D01*
X-125382Y-111722D01*
X-124465Y-111329D01*
X-123594Y-110845D01*
X-122775Y-110275D01*
X-122019Y-109626D01*
X-121332Y-108903D01*
X-120722Y-108115D01*
X-120194Y-107269D01*
X-119755Y-106374D01*
X-119409Y-105439D01*
X-119159Y-104473D01*
X-119008Y-103488D01*
X-118957Y-102492D01*
X-72983Y-233695D02*
X-70621D01*
X-72983Y-249443D02*
X-70621D01*
X-121956Y-199735D02*
Y-197373D01*
X-137704Y-199735D02*
Y-197373D01*
X-95687Y-249807D02*
X-85687Y-249807D01*
X-110187Y-208869D02*
Y-198869D01*
X-43669Y-55221D02*
Y-45379D01*
X-83669Y-55221D02*
X-43669D01*
X-83669D02*
Y-45379D01*
X-43669D01*
X-1689Y-271444D02*
X12D01*
X-1589Y-234043D02*
X12D01*
Y-271444D02*
Y-234043D01*
X-1410Y-231413D02*
Y-195587D01*
X-15190Y-231413D02*
X-1410D01*
X-15190Y-195587D02*
X-1410D01*
X-381096Y-110051D02*
X-373273D01*
X-373222Y-110000D01*
Y-110051D02*
Y-110000D01*
X-381096Y-128949D02*
X-373222D01*
X-381096D02*
Y-110051D01*
X-358700Y-131311D02*
X-339757D01*
X-373222D02*
Y-107689D01*
X-325978Y-131311D02*
Y-112900D01*
X-348500Y-107700D02*
X-332700D01*
X-331300Y-131311D02*
X-325978D01*
X-362600Y-107700D02*
X-357200Y-107689D01*
X-373222D02*
X-371253D01*
X-373222Y-131311D02*
X-367317D01*
X-101983Y-10791D02*
X-87416D01*
X-101983Y-34609D02*
Y-10791D01*
Y-34609D02*
X-87416D01*
Y-10791D01*
X-86400D02*
X-71833D01*
X-86400Y-34609D02*
Y-10791D01*
Y-34609D02*
X-71833D01*
Y-10791D01*
X-70800D02*
X-56233D01*
X-70800Y-34609D02*
Y-10791D01*
Y-34609D02*
X-56233D01*
Y-10791D01*
X-113591Y-42584D02*
Y-28016D01*
X-137409D02*
X-113591D01*
X-137409Y-42584D02*
Y-28016D01*
Y-42584D02*
X-113591D01*
X-1594Y-117810D02*
X107D01*
X-1494Y-80409D02*
X107D01*
Y-117810D02*
Y-80409D01*
X-9200Y-9821D02*
Y21D01*
X-49200Y-9821D02*
X-9200D01*
X-49200D02*
Y21D01*
X-9200D01*
D13*
X-311224Y-111562D02*
X-311669Y-110639D01*
X-312668Y-110411D01*
X-313470Y-111050D01*
Y-112075D01*
X-312668Y-112714D01*
X-311669Y-112486D01*
X-311224Y-111562D01*
X-256120Y-147834D02*
X-256565Y-146911D01*
X-257564Y-146682D01*
X-258366Y-147321D01*
Y-148346D01*
X-257564Y-148985D01*
X-256565Y-148757D01*
X-256120Y-147834D01*
X-256120Y-76191D02*
X-256565Y-75267D01*
X-257564Y-75039D01*
X-258366Y-75678D01*
Y-76703D01*
X-257564Y-77342D01*
X-256565Y-77114D01*
X-256120Y-76191D01*
X-159723Y-125042D02*
X-160168Y-124118D01*
X-161167Y-123890D01*
X-161968Y-124529D01*
Y-125554D01*
X-161167Y-126193D01*
X-160168Y-125965D01*
X-159723Y-125042D01*
X-97830Y-94233D02*
X-98275Y-93310D01*
X-99274Y-93082D01*
X-100075Y-93721D01*
Y-94745D01*
X-99274Y-95385D01*
X-98275Y-95157D01*
X-97830Y-94233D01*
D14*
X-34300Y-13801D02*
Y-16134D01*
X-33134Y-17300D01*
X-31967Y-16134D01*
Y-13801D01*
X-30801D02*
Y-17300D01*
X-29052D01*
X-28468Y-16717D01*
Y-14384D01*
X-29052Y-13801D01*
X-30801D01*
X-24970Y-14384D02*
X-25553Y-13801D01*
X-26719D01*
X-27302Y-14384D01*
Y-16717D01*
X-26719Y-17300D01*
X-25553D01*
X-24970Y-16717D01*
X-21471Y-14384D02*
X-22054Y-13801D01*
X-23220D01*
X-23803Y-14384D01*
Y-16717D01*
X-23220Y-17300D01*
X-22054D01*
X-21471Y-16717D01*
Y-15551D01*
X-22637D01*
X-187400Y-177501D02*
Y-180417D01*
X-186817Y-181000D01*
X-185651D01*
X-185067Y-180417D01*
Y-177501D01*
X-183901Y-181000D02*
X-182735D01*
X-183318D01*
Y-177501D01*
X-183901Y-178084D01*
X-180985D02*
X-180402Y-177501D01*
X-179236D01*
X-178653Y-178084D01*
Y-180417D01*
X-179236Y-181000D01*
X-180402D01*
X-180985Y-180417D01*
Y-178084D01*
X-185300Y-151501D02*
Y-154417D01*
X-184717Y-155000D01*
X-183551D01*
X-182967Y-154417D01*
Y-151501D01*
X-181801Y-154417D02*
X-181218Y-155000D01*
X-180052D01*
X-179469Y-154417D01*
Y-152084D01*
X-180052Y-151501D01*
X-181218D01*
X-181801Y-152084D01*
Y-152667D01*
X-181218Y-153251D01*
X-179469D01*
X-179400Y-200001D02*
Y-202917D01*
X-178817Y-203500D01*
X-177651D01*
X-177067Y-202917D01*
Y-200001D01*
X-175901D02*
X-173569D01*
Y-200584D01*
X-175901Y-202917D01*
Y-203500D01*
X-92200Y-225967D02*
Y-228882D01*
X-91617Y-229466D01*
X-90451D01*
X-89867Y-228882D01*
Y-225967D01*
X-88701Y-229466D02*
X-87535D01*
X-88118D01*
Y-225967D01*
X-88701Y-226550D01*
X-83453Y-229466D02*
X-85785D01*
X-83453Y-227133D01*
Y-226550D01*
X-84036Y-225967D01*
X-85202D01*
X-85785Y-226550D01*
X-142500Y-225200D02*
Y-221701D01*
X-140751D01*
X-140167Y-222284D01*
Y-223451D01*
X-140751Y-224034D01*
X-142500D01*
X-141334D02*
X-140167Y-225200D01*
X-139001Y-222284D02*
X-138418Y-221701D01*
X-137252D01*
X-136669Y-222284D01*
Y-222867D01*
X-137252Y-223451D01*
X-137835D01*
X-137252D01*
X-136669Y-224034D01*
Y-224617D01*
X-137252Y-225200D01*
X-138418D01*
X-139001Y-224617D01*
X-135502D02*
X-134919Y-225200D01*
X-133753D01*
X-133170Y-224617D01*
Y-222284D01*
X-133753Y-221701D01*
X-134919D01*
X-135502Y-222284D01*
Y-222867D01*
X-134919Y-223451D01*
X-133170D01*
X-142900Y-230600D02*
Y-227101D01*
X-141151D01*
X-140567Y-227684D01*
Y-228851D01*
X-141151Y-229434D01*
X-142900D01*
X-141734D02*
X-140567Y-230600D01*
X-139401Y-227684D02*
X-138818Y-227101D01*
X-137652D01*
X-137069Y-227684D01*
Y-228267D01*
X-137652Y-228851D01*
X-138235D01*
X-137652D01*
X-137069Y-229434D01*
Y-230017D01*
X-137652Y-230600D01*
X-138818D01*
X-139401Y-230017D01*
X-135902Y-227684D02*
X-135319Y-227101D01*
X-134153D01*
X-133570Y-227684D01*
Y-228267D01*
X-134153Y-228851D01*
X-133570Y-229434D01*
Y-230017D01*
X-134153Y-230600D01*
X-135319D01*
X-135902Y-230017D01*
Y-229434D01*
X-135319Y-228851D01*
X-135902Y-228267D01*
Y-227684D01*
X-135319Y-228851D02*
X-134153D01*
X-116225Y-263800D02*
Y-260301D01*
X-114476D01*
X-113892Y-260884D01*
Y-262051D01*
X-114476Y-262634D01*
X-116225D01*
X-115059D02*
X-113892Y-263800D01*
X-112726Y-260884D02*
X-112143Y-260301D01*
X-110977D01*
X-110394Y-260884D01*
Y-261467D01*
X-110977Y-262051D01*
X-111560D01*
X-110977D01*
X-110394Y-262634D01*
Y-263217D01*
X-110977Y-263800D01*
X-112143D01*
X-112726Y-263217D01*
X-109227Y-260301D02*
X-106895D01*
Y-260884D01*
X-109227Y-263217D01*
Y-263800D01*
X-80100Y-198246D02*
X-83599D01*
Y-196497D01*
X-83016Y-195914D01*
X-81849D01*
X-81266Y-196497D01*
Y-198246D01*
Y-197080D02*
X-80100Y-195914D01*
X-83016Y-194748D02*
X-83599Y-194164D01*
Y-192998D01*
X-83016Y-192415D01*
X-82433D01*
X-81849Y-192998D01*
Y-193581D01*
Y-192998D01*
X-81266Y-192415D01*
X-80683D01*
X-80100Y-192998D01*
Y-194164D01*
X-80683Y-194748D01*
X-83599Y-188916D02*
X-83016Y-190082D01*
X-81849Y-191249D01*
X-80683D01*
X-80100Y-190666D01*
Y-189499D01*
X-80683Y-188916D01*
X-81266D01*
X-81849Y-189499D01*
Y-191249D01*
X-107079Y-238933D02*
Y-235434D01*
X-105330D01*
X-104747Y-236017D01*
Y-237184D01*
X-105330Y-237767D01*
X-107079D01*
X-105913D02*
X-104747Y-238933D01*
X-103580Y-236017D02*
X-102997Y-235434D01*
X-101831D01*
X-101248Y-236017D01*
Y-236601D01*
X-101831Y-237184D01*
X-102414D01*
X-101831D01*
X-101248Y-237767D01*
Y-238350D01*
X-101831Y-238933D01*
X-102997D01*
X-103580Y-238350D01*
X-97749Y-235434D02*
X-100082D01*
Y-237184D01*
X-98915Y-236601D01*
X-98332D01*
X-97749Y-237184D01*
Y-238350D01*
X-98332Y-238933D01*
X-99498D01*
X-100082Y-238350D01*
X-194300Y-198800D02*
Y-195301D01*
X-192551D01*
X-191967Y-195884D01*
Y-197051D01*
X-192551Y-197634D01*
X-194300D01*
X-193134D02*
X-191967Y-198800D01*
X-190801Y-195884D02*
X-190218Y-195301D01*
X-189052D01*
X-188469Y-195884D01*
Y-196467D01*
X-189052Y-197051D01*
X-189635D01*
X-189052D01*
X-188469Y-197634D01*
Y-198217D01*
X-189052Y-198800D01*
X-190218D01*
X-190801Y-198217D01*
X-185553Y-198800D02*
Y-195301D01*
X-187302Y-197051D01*
X-184970D01*
X-199600Y-175200D02*
Y-171701D01*
X-197851D01*
X-197267Y-172284D01*
Y-173451D01*
X-197851Y-174034D01*
X-199600D01*
X-198434D02*
X-197267Y-175200D01*
X-196101Y-172284D02*
X-195518Y-171701D01*
X-194352D01*
X-193769Y-172284D01*
Y-172867D01*
X-194352Y-173451D01*
X-194935D01*
X-194352D01*
X-193769Y-174034D01*
Y-174617D01*
X-194352Y-175200D01*
X-195518D01*
X-196101Y-174617D01*
X-192602Y-172284D02*
X-192019Y-171701D01*
X-190853D01*
X-190270Y-172284D01*
Y-172867D01*
X-190853Y-173451D01*
X-191436D01*
X-190853D01*
X-190270Y-174034D01*
Y-174617D01*
X-190853Y-175200D01*
X-192019D01*
X-192602Y-174617D01*
X-67000Y-203300D02*
X-70499D01*
X-69333Y-202134D01*
X-70499Y-200967D01*
X-67000D01*
Y-197469D02*
Y-199801D01*
X-69333Y-197469D01*
X-69916D01*
X-70499Y-198052D01*
Y-199218D01*
X-69916Y-199801D01*
X-132473Y-185508D02*
Y-189006D01*
X-130140D01*
X-126641D02*
X-128974D01*
X-126641Y-186674D01*
Y-186091D01*
X-127224Y-185508D01*
X-128391D01*
X-128974Y-186091D01*
X-108799Y-206300D02*
X-105300D01*
Y-204551D01*
X-105883Y-203967D01*
X-108216D01*
X-108799Y-204551D01*
Y-206300D01*
X-105300Y-201052D02*
X-108799D01*
X-107049Y-202801D01*
Y-200469D01*
X-93279Y-244801D02*
Y-248300D01*
X-91530D01*
X-90947Y-247717D01*
Y-245384D01*
X-91530Y-244801D01*
X-93279D01*
X-89780Y-245384D02*
X-89197Y-244801D01*
X-88031D01*
X-87448Y-245384D01*
Y-245967D01*
X-88031Y-246551D01*
X-88614D01*
X-88031D01*
X-87448Y-247134D01*
Y-247717D01*
X-88031Y-248300D01*
X-89197D01*
X-89780Y-247717D01*
X-146167Y-215684D02*
X-146751Y-215101D01*
X-147917D01*
X-148500Y-215684D01*
Y-218017D01*
X-147917Y-218600D01*
X-146751D01*
X-146167Y-218017D01*
X-142669Y-215101D02*
X-143835Y-215684D01*
X-145001Y-216851D01*
Y-218017D01*
X-144418Y-218600D01*
X-143252D01*
X-142669Y-218017D01*
Y-217434D01*
X-143252Y-216851D01*
X-145001D01*
X-141502Y-215684D02*
X-140919Y-215101D01*
X-139753D01*
X-139170Y-215684D01*
Y-216267D01*
X-139753Y-216851D01*
X-139170Y-217434D01*
Y-218017D01*
X-139753Y-218600D01*
X-140919D01*
X-141502Y-218017D01*
Y-217434D01*
X-140919Y-216851D01*
X-141502Y-216267D01*
Y-215684D01*
X-140919Y-216851D02*
X-139753D01*
X-127816Y-262967D02*
X-128399Y-263551D01*
Y-264717D01*
X-127816Y-265300D01*
X-125483D01*
X-124900Y-264717D01*
Y-263551D01*
X-125483Y-262967D01*
X-128399Y-259469D02*
X-127816Y-260635D01*
X-126649Y-261801D01*
X-125483D01*
X-124900Y-261218D01*
Y-260052D01*
X-125483Y-259469D01*
X-126066D01*
X-126649Y-260052D01*
Y-261801D01*
X-128399Y-258302D02*
Y-255970D01*
X-127816D01*
X-125483Y-258302D01*
X-124900D01*
X-95290Y-211727D02*
X-95873Y-211144D01*
X-97039D01*
X-97623Y-211727D01*
Y-214059D01*
X-97039Y-214643D01*
X-95873D01*
X-95290Y-214059D01*
X-91791Y-211144D02*
X-92957Y-211727D01*
X-94124Y-212893D01*
Y-214059D01*
X-93541Y-214643D01*
X-92374D01*
X-91791Y-214059D01*
Y-213476D01*
X-92374Y-212893D01*
X-94124D01*
X-88292Y-211144D02*
X-89459Y-211727D01*
X-90625Y-212893D01*
Y-214059D01*
X-90042Y-214643D01*
X-88875D01*
X-88292Y-214059D01*
Y-213476D01*
X-88875Y-212893D01*
X-90625D01*
X-66816Y-216967D02*
X-67399Y-217551D01*
Y-218717D01*
X-66816Y-219300D01*
X-64483D01*
X-63900Y-218717D01*
Y-217551D01*
X-64483Y-216967D01*
X-67399Y-213469D02*
X-66816Y-214635D01*
X-65649Y-215801D01*
X-64483D01*
X-63900Y-215218D01*
Y-214052D01*
X-64483Y-213469D01*
X-65066D01*
X-65649Y-214052D01*
Y-215801D01*
X-67399Y-209970D02*
Y-212302D01*
X-65649D01*
X-66233Y-211136D01*
Y-210553D01*
X-65649Y-209970D01*
X-64483D01*
X-63900Y-210553D01*
Y-211719D01*
X-64483Y-212302D01*
X-146167Y-235084D02*
X-146751Y-234501D01*
X-147917D01*
X-148500Y-235084D01*
Y-237417D01*
X-147917Y-238000D01*
X-146751D01*
X-146167Y-237417D01*
X-142669Y-234501D02*
X-143835Y-235084D01*
X-145001Y-236251D01*
Y-237417D01*
X-144418Y-238000D01*
X-143252D01*
X-142669Y-237417D01*
Y-236834D01*
X-143252Y-236251D01*
X-145001D01*
X-139753Y-238000D02*
Y-234501D01*
X-141502Y-236251D01*
X-139170D01*
X-120107Y-262667D02*
X-120690Y-263251D01*
Y-264417D01*
X-120107Y-265000D01*
X-117774D01*
X-117191Y-264417D01*
Y-263251D01*
X-117774Y-262667D01*
X-120690Y-259169D02*
X-120107Y-260335D01*
X-118941Y-261501D01*
X-117774D01*
X-117191Y-260918D01*
Y-259752D01*
X-117774Y-259169D01*
X-118358D01*
X-118941Y-259752D01*
Y-261501D01*
X-120107Y-258002D02*
X-120690Y-257419D01*
Y-256253D01*
X-120107Y-255670D01*
X-119524D01*
X-118941Y-256253D01*
Y-256836D01*
Y-256253D01*
X-118358Y-255670D01*
X-117774D01*
X-117191Y-256253D01*
Y-257419D01*
X-117774Y-258002D01*
X-96116Y-266867D02*
X-96699Y-267451D01*
Y-268617D01*
X-96116Y-269200D01*
X-93783D01*
X-93200Y-268617D01*
Y-267451D01*
X-93783Y-266867D01*
X-96699Y-263369D02*
X-96116Y-264535D01*
X-94949Y-265701D01*
X-93783D01*
X-93200Y-265118D01*
Y-263952D01*
X-93783Y-263369D01*
X-94366D01*
X-94949Y-263952D01*
Y-265701D01*
X-93200Y-259870D02*
Y-262202D01*
X-95533Y-259870D01*
X-96116D01*
X-96699Y-260453D01*
Y-261619D01*
X-96116Y-262202D01*
X-103041Y-240884D02*
X-103624Y-240301D01*
X-104790D01*
X-105373Y-240884D01*
Y-243217D01*
X-104790Y-243800D01*
X-103624D01*
X-103041Y-243217D01*
X-99542Y-240301D02*
X-100708Y-240884D01*
X-101874Y-242051D01*
Y-243217D01*
X-101291Y-243800D01*
X-100125D01*
X-99542Y-243217D01*
Y-242634D01*
X-100125Y-242051D01*
X-101874D01*
X-98376Y-243800D02*
X-97209D01*
X-97793D01*
Y-240301D01*
X-98376Y-240884D01*
X-95909Y-190184D02*
X-96492Y-189601D01*
X-97659D01*
X-98242Y-190184D01*
Y-192517D01*
X-97659Y-193100D01*
X-96492D01*
X-95909Y-192517D01*
X-92410Y-189601D02*
X-93577Y-190184D01*
X-94743Y-191351D01*
Y-192517D01*
X-94160Y-193100D01*
X-92993D01*
X-92410Y-192517D01*
Y-191934D01*
X-92993Y-191351D01*
X-94743D01*
X-91244Y-190184D02*
X-90661Y-189601D01*
X-89495D01*
X-88911Y-190184D01*
Y-192517D01*
X-89495Y-193100D01*
X-90661D01*
X-91244Y-192517D01*
Y-190184D01*
X-208267Y-198384D02*
X-208851Y-197801D01*
X-210017D01*
X-210600Y-198384D01*
Y-200717D01*
X-210017Y-201300D01*
X-208851D01*
X-208267Y-200717D01*
X-205352Y-201300D02*
Y-197801D01*
X-207101Y-199551D01*
X-204769D01*
X-203602Y-197801D02*
X-201270D01*
Y-198384D01*
X-203602Y-200717D01*
Y-201300D01*
X-219967Y-197884D02*
X-220551Y-197301D01*
X-221717D01*
X-222300Y-197884D01*
Y-200217D01*
X-221717Y-200800D01*
X-220551D01*
X-219967Y-200217D01*
X-217052Y-200800D02*
Y-197301D01*
X-218801Y-199051D01*
X-216469D01*
X-212970Y-197301D02*
X-214136Y-197884D01*
X-215302Y-199051D01*
Y-200217D01*
X-214719Y-200800D01*
X-213553D01*
X-212970Y-200217D01*
Y-199634D01*
X-213553Y-199051D01*
X-215302D01*
X-165035Y-183267D02*
X-165619Y-183851D01*
Y-185017D01*
X-165035Y-185600D01*
X-162703D01*
X-162120Y-185017D01*
Y-183851D01*
X-162703Y-183267D01*
X-162120Y-180352D02*
X-165619D01*
X-163869Y-182101D01*
Y-179769D01*
X-165035Y-178602D02*
X-165619Y-178019D01*
Y-176853D01*
X-165035Y-176270D01*
X-162703D01*
X-162120Y-176853D01*
Y-178019D01*
X-162703Y-178602D01*
X-165035D01*
X-36200Y-86601D02*
Y-89517D01*
X-35617Y-90100D01*
X-34451D01*
X-33867Y-89517D01*
Y-86601D01*
X-32701Y-90100D02*
X-31535D01*
X-32118D01*
Y-86601D01*
X-32701Y-87184D01*
X-29785Y-90100D02*
X-28619D01*
X-29202D01*
Y-86601D01*
X-29785Y-87184D01*
X-54400Y-93900D02*
Y-90401D01*
X-52651D01*
X-52067Y-90984D01*
Y-92151D01*
X-52651Y-92734D01*
X-54400D01*
X-53234D02*
X-52067Y-93900D01*
X-50901Y-90984D02*
X-50318Y-90401D01*
X-49152D01*
X-48568Y-90984D01*
Y-91567D01*
X-49152Y-92151D01*
X-49735D01*
X-49152D01*
X-48568Y-92734D01*
Y-93317D01*
X-49152Y-93900D01*
X-50318D01*
X-50901Y-93317D01*
X-45070Y-93900D02*
X-47402D01*
X-45070Y-91567D01*
Y-90984D01*
X-45653Y-90401D01*
X-46819D01*
X-47402Y-90984D01*
X-54000Y-110100D02*
Y-106601D01*
X-52251D01*
X-51667Y-107184D01*
Y-108351D01*
X-52251Y-108934D01*
X-54000D01*
X-52834D02*
X-51667Y-110100D01*
X-50501Y-107184D02*
X-49918Y-106601D01*
X-48752D01*
X-48169Y-107184D01*
Y-107767D01*
X-48752Y-108351D01*
X-49335D01*
X-48752D01*
X-48169Y-108934D01*
Y-109517D01*
X-48752Y-110100D01*
X-49918D01*
X-50501Y-109517D01*
X-47002Y-110100D02*
X-45836D01*
X-46419D01*
Y-106601D01*
X-47002Y-107184D01*
X-169900Y-91301D02*
Y-94217D01*
X-169317Y-94800D01*
X-168151D01*
X-167567Y-94217D01*
Y-91301D01*
X-164069Y-94800D02*
X-166401D01*
X-164069Y-92467D01*
Y-91884D01*
X-164652Y-91301D01*
X-165818D01*
X-166401Y-91884D01*
X-76900Y-160501D02*
Y-163417D01*
X-76317Y-164000D01*
X-75151D01*
X-74567Y-163417D01*
Y-160501D01*
X-73401Y-161084D02*
X-72818Y-160501D01*
X-71652D01*
X-71069Y-161084D01*
Y-161667D01*
X-71652Y-162251D01*
X-71069Y-162834D01*
Y-163417D01*
X-71652Y-164000D01*
X-72818D01*
X-73401Y-163417D01*
Y-162834D01*
X-72818Y-162251D01*
X-73401Y-161667D01*
Y-161084D01*
X-72818Y-162251D02*
X-71652D01*
X-306900Y-108201D02*
Y-111117D01*
X-306317Y-111700D01*
X-305151D01*
X-304567Y-111117D01*
Y-108201D01*
X-301069D02*
X-303401D01*
Y-109951D01*
X-302235Y-109367D01*
X-301652D01*
X-301069Y-109951D01*
Y-111117D01*
X-301652Y-111700D01*
X-302818D01*
X-303401Y-111117D01*
X-254100Y-71301D02*
Y-74217D01*
X-253517Y-74800D01*
X-252351D01*
X-251767Y-74217D01*
Y-71301D01*
X-248269D02*
X-249435Y-71884D01*
X-250601Y-73051D01*
Y-74217D01*
X-250018Y-74800D01*
X-248852D01*
X-248269Y-74217D01*
Y-73634D01*
X-248852Y-73051D01*
X-250601D01*
X-253300Y-142701D02*
Y-145617D01*
X-252717Y-146200D01*
X-251551D01*
X-250967Y-145617D01*
Y-142701D01*
X-248052Y-146200D02*
Y-142701D01*
X-249801Y-144451D01*
X-247469D01*
X-94600Y-92701D02*
Y-95617D01*
X-94017Y-96200D01*
X-92851D01*
X-92267Y-95617D01*
Y-92701D01*
X-91101Y-93284D02*
X-90518Y-92701D01*
X-89352D01*
X-88769Y-93284D01*
Y-93867D01*
X-89352Y-94451D01*
X-89935D01*
X-89352D01*
X-88769Y-95034D01*
Y-95617D01*
X-89352Y-96200D01*
X-90518D01*
X-91101Y-95617D01*
X-43700Y-256301D02*
Y-259217D01*
X-43117Y-259800D01*
X-41951D01*
X-41367Y-259217D01*
Y-256301D01*
X-40201Y-259800D02*
X-39035D01*
X-39618D01*
Y-256301D01*
X-40201Y-256884D01*
X-130900Y-25200D02*
Y-21701D01*
X-129151D01*
X-128567Y-22284D01*
Y-23451D01*
X-129151Y-24034D01*
X-130900D01*
X-129734D02*
X-128567Y-25200D01*
X-125069Y-22284D02*
X-125652Y-21701D01*
X-126818D01*
X-127401Y-22284D01*
Y-22867D01*
X-126818Y-23451D01*
X-125652D01*
X-125069Y-24034D01*
Y-24617D01*
X-125652Y-25200D01*
X-126818D01*
X-127401Y-24617D01*
X-123902Y-21701D02*
X-121570D01*
X-122736D01*
Y-25200D01*
X-66100Y-1401D02*
Y-4317D01*
X-65517Y-4900D01*
X-64351D01*
X-63767Y-4317D01*
Y-1401D01*
X-62601Y-4900D02*
Y-1401D01*
X-60852D01*
X-60269Y-1984D01*
Y-3151D01*
X-60852Y-3734D01*
X-62601D01*
X-85300Y-1401D02*
Y-4900D01*
X-83551D01*
X-82967Y-4317D01*
Y-1984D01*
X-83551Y-1401D01*
X-85300D01*
X-80052D02*
X-81218D01*
X-81801Y-1984D01*
Y-4317D01*
X-81218Y-4900D01*
X-80052D01*
X-79469Y-4317D01*
Y-1984D01*
X-80052Y-1401D01*
X-78302D02*
Y-4900D01*
X-77136Y-3734D01*
X-75970Y-4900D01*
Y-1401D01*
X-74803Y-4900D02*
Y-1401D01*
X-72471Y-4900D01*
Y-1401D01*
X-96967Y-1784D02*
X-97551Y-1201D01*
X-98717D01*
X-99300Y-1784D01*
Y-2367D01*
X-98717Y-2951D01*
X-97551D01*
X-96967Y-3534D01*
Y-4117D01*
X-97551Y-4700D01*
X-98717D01*
X-99300Y-4117D01*
X-93469Y-1201D02*
X-95801D01*
Y-4700D01*
X-93469D01*
X-95801Y-2951D02*
X-94635D01*
X-92302Y-1201D02*
Y-4700D01*
X-89970D01*
X-31599Y-220951D02*
Y-222117D01*
X-31016Y-222700D01*
X-28683D01*
X-28100Y-222117D01*
Y-220951D01*
X-28683Y-220367D01*
X-31016D01*
X-31599Y-220951D01*
X-28100Y-219201D02*
X-31599D01*
X-28100Y-216869D01*
X-31599D01*
X-28100Y-215702D02*
X-30433Y-213370D01*
X-31599Y-210454D02*
Y-211620D01*
X-31016Y-212203D01*
X-28683D01*
X-28100Y-211620D01*
Y-210454D01*
X-28683Y-209871D01*
X-31016D01*
X-31599Y-210454D01*
Y-206372D02*
Y-208704D01*
X-29849D01*
Y-207538D01*
Y-208704D01*
X-28100D01*
X-31599Y-202873D02*
Y-205206D01*
X-29849D01*
Y-204039D01*
Y-205206D01*
X-28100D01*
X-199720Y-180000D02*
Y-176501D01*
X-197971D01*
X-197388Y-177084D01*
Y-178251D01*
X-197971Y-178834D01*
X-199720D01*
X-198554D02*
X-197388Y-180000D01*
X-196221Y-177084D02*
X-195638Y-176501D01*
X-194472D01*
X-193889Y-177084D01*
Y-177667D01*
X-194472Y-178251D01*
X-195055D01*
X-194472D01*
X-193889Y-178834D01*
Y-179417D01*
X-194472Y-180000D01*
X-195638D01*
X-196221Y-179417D01*
X-192723Y-177084D02*
X-192139Y-176501D01*
X-190973D01*
X-190390Y-177084D01*
Y-179417D01*
X-190973Y-180000D01*
X-192139D01*
X-192723Y-179417D01*
Y-177084D01*
X-200600Y-153700D02*
Y-150201D01*
X-198851D01*
X-198267Y-150784D01*
Y-151951D01*
X-198851Y-152534D01*
X-200600D01*
X-199434D02*
X-198267Y-153700D01*
X-194769D02*
X-197101D01*
X-194769Y-151367D01*
Y-150784D01*
X-195352Y-150201D01*
X-196518D01*
X-197101Y-150784D01*
X-193602Y-153117D02*
X-193019Y-153700D01*
X-191853D01*
X-191270Y-153117D01*
Y-150784D01*
X-191853Y-150201D01*
X-193019D01*
X-193602Y-150784D01*
Y-151367D01*
X-193019Y-151951D01*
X-191270D01*
X-201300Y-224158D02*
Y-220659D01*
X-199551D01*
X-198967Y-221242D01*
Y-222409D01*
X-199551Y-222992D01*
X-201300D01*
X-200134D02*
X-198967Y-224158D01*
X-195469D02*
X-197801D01*
X-195469Y-221826D01*
Y-221242D01*
X-196052Y-220659D01*
X-197218D01*
X-197801Y-221242D01*
X-194302D02*
X-193719Y-220659D01*
X-192553D01*
X-191970Y-221242D01*
Y-221826D01*
X-192553Y-222409D01*
X-191970Y-222992D01*
Y-223575D01*
X-192553Y-224158D01*
X-193719D01*
X-194302Y-223575D01*
Y-222992D01*
X-193719Y-222409D01*
X-194302Y-221826D01*
Y-221242D01*
X-193719Y-222409D02*
X-192553D01*
X-194545Y-203300D02*
Y-199801D01*
X-192796D01*
X-192213Y-200384D01*
Y-201551D01*
X-192796Y-202134D01*
X-194545D01*
X-193379D02*
X-192213Y-203300D01*
X-188714D02*
X-191047D01*
X-188714Y-200967D01*
Y-200384D01*
X-189297Y-199801D01*
X-190463D01*
X-191047Y-200384D01*
X-187548Y-199801D02*
X-185215D01*
Y-200384D01*
X-187548Y-202717D01*
Y-203300D01*
X-242200Y-43100D02*
Y-39601D01*
X-240451D01*
X-239867Y-40184D01*
Y-41351D01*
X-240451Y-41934D01*
X-242200D01*
X-241034D02*
X-239867Y-43100D01*
X-236369D02*
X-238701D01*
X-236369Y-40767D01*
Y-40184D01*
X-236952Y-39601D01*
X-238118D01*
X-238701Y-40184D01*
X-232870Y-39601D02*
X-234036Y-40184D01*
X-235202Y-41351D01*
Y-42517D01*
X-234619Y-43100D01*
X-233453D01*
X-232870Y-42517D01*
Y-41934D01*
X-233453Y-41351D01*
X-235202D01*
X-286900Y-48100D02*
Y-44601D01*
X-285151D01*
X-284567Y-45184D01*
Y-46351D01*
X-285151Y-46934D01*
X-286900D01*
X-285734D02*
X-284567Y-48100D01*
X-281069D02*
X-283401D01*
X-281069Y-45767D01*
Y-45184D01*
X-281652Y-44601D01*
X-282818D01*
X-283401Y-45184D01*
X-277570Y-44601D02*
X-279902D01*
Y-46351D01*
X-278736Y-45767D01*
X-278153D01*
X-277570Y-46351D01*
Y-47517D01*
X-278153Y-48100D01*
X-279319D01*
X-279902Y-47517D01*
X-286900Y-53200D02*
Y-49701D01*
X-285151D01*
X-284567Y-50284D01*
Y-51451D01*
X-285151Y-52034D01*
X-286900D01*
X-285734D02*
X-284567Y-53200D01*
X-281069D02*
X-283401D01*
X-281069Y-50867D01*
Y-50284D01*
X-281652Y-49701D01*
X-282818D01*
X-283401Y-50284D01*
X-278153Y-53200D02*
Y-49701D01*
X-279902Y-51451D01*
X-277570D01*
X-261900Y-64200D02*
X-265399D01*
Y-62451D01*
X-264816Y-61867D01*
X-263649D01*
X-263066Y-62451D01*
Y-64200D01*
Y-63034D02*
X-261900Y-61867D01*
Y-58369D02*
Y-60701D01*
X-264233Y-58369D01*
X-264816D01*
X-265399Y-58952D01*
Y-60118D01*
X-264816Y-60701D01*
Y-57202D02*
X-265399Y-56619D01*
Y-55453D01*
X-264816Y-54870D01*
X-264233D01*
X-263649Y-55453D01*
Y-56036D01*
Y-55453D01*
X-263066Y-54870D01*
X-262483D01*
X-261900Y-55453D01*
Y-56619D01*
X-262483Y-57202D01*
X-317500Y-81300D02*
Y-77801D01*
X-315751D01*
X-315167Y-78384D01*
Y-79551D01*
X-315751Y-80134D01*
X-317500D01*
X-316334D02*
X-315167Y-81300D01*
X-311669D02*
X-314001D01*
X-311669Y-78967D01*
Y-78384D01*
X-312252Y-77801D01*
X-313418D01*
X-314001Y-78384D01*
X-308170Y-81300D02*
X-310502D01*
X-308170Y-78967D01*
Y-78384D01*
X-308753Y-77801D01*
X-309919D01*
X-310502Y-78384D01*
X-286900Y-98000D02*
Y-94501D01*
X-285151D01*
X-284567Y-95084D01*
Y-96251D01*
X-285151Y-96834D01*
X-286900D01*
X-285734D02*
X-284567Y-98000D01*
X-281069D02*
X-283401D01*
X-281069Y-95667D01*
Y-95084D01*
X-281652Y-94501D01*
X-282818D01*
X-283401Y-95084D01*
X-279902Y-98000D02*
X-278736D01*
X-279319D01*
Y-94501D01*
X-279902Y-95084D01*
X-261600Y-91700D02*
X-265099D01*
Y-89951D01*
X-264516Y-89367D01*
X-263349D01*
X-262766Y-89951D01*
Y-91700D01*
Y-90534D02*
X-261600Y-89367D01*
Y-85869D02*
Y-88201D01*
X-263933Y-85869D01*
X-264516D01*
X-265099Y-86452D01*
Y-87618D01*
X-264516Y-88201D01*
Y-84702D02*
X-265099Y-84119D01*
Y-82953D01*
X-264516Y-82370D01*
X-262183D01*
X-261600Y-82953D01*
Y-84119D01*
X-262183Y-84702D01*
X-264516D01*
X-286700Y-103500D02*
Y-100001D01*
X-284951D01*
X-284367Y-100584D01*
Y-101751D01*
X-284951Y-102334D01*
X-286700D01*
X-285534D02*
X-284367Y-103500D01*
X-283201D02*
X-282035D01*
X-282618D01*
Y-100001D01*
X-283201Y-100584D01*
X-280285Y-102917D02*
X-279702Y-103500D01*
X-278536D01*
X-277953Y-102917D01*
Y-100584D01*
X-278536Y-100001D01*
X-279702D01*
X-280285Y-100584D01*
Y-101167D01*
X-279702Y-101751D01*
X-277953D01*
X-242600Y-107500D02*
Y-104001D01*
X-240851D01*
X-240267Y-104584D01*
Y-105751D01*
X-240851Y-106334D01*
X-242600D01*
X-241434D02*
X-240267Y-107500D01*
X-239101D02*
X-237935D01*
X-238518D01*
Y-104001D01*
X-239101Y-104584D01*
X-236185D02*
X-235602Y-104001D01*
X-234436D01*
X-233853Y-104584D01*
Y-105167D01*
X-234436Y-105751D01*
X-233853Y-106334D01*
Y-106917D01*
X-234436Y-107500D01*
X-235602D01*
X-236185Y-106917D01*
Y-106334D01*
X-235602Y-105751D01*
X-236185Y-105167D01*
Y-104584D01*
X-235602Y-105751D02*
X-234436D01*
X-243300Y-123700D02*
Y-120201D01*
X-241551D01*
X-240967Y-120784D01*
Y-121951D01*
X-241551Y-122534D01*
X-243300D01*
X-242134D02*
X-240967Y-123700D01*
X-239801D02*
X-238635D01*
X-239218D01*
Y-120201D01*
X-239801Y-120784D01*
X-236885Y-120201D02*
X-234553D01*
Y-120784D01*
X-236885Y-123117D01*
Y-123700D01*
X-286800Y-119600D02*
Y-116101D01*
X-285051D01*
X-284467Y-116684D01*
Y-117851D01*
X-285051Y-118434D01*
X-286800D01*
X-285634D02*
X-284467Y-119600D01*
X-283301D02*
X-282135D01*
X-282718D01*
Y-116101D01*
X-283301Y-116684D01*
X-278053Y-116101D02*
X-279219Y-116684D01*
X-280385Y-117851D01*
Y-119017D01*
X-279802Y-119600D01*
X-278636D01*
X-278053Y-119017D01*
Y-118434D01*
X-278636Y-117851D01*
X-280385D01*
X-286700Y-124900D02*
Y-121401D01*
X-284951D01*
X-284367Y-121984D01*
Y-123151D01*
X-284951Y-123734D01*
X-286700D01*
X-285534D02*
X-284367Y-124900D01*
X-283201D02*
X-282035D01*
X-282618D01*
Y-121401D01*
X-283201Y-121984D01*
X-277953Y-121401D02*
X-280285D01*
Y-123151D01*
X-279119Y-122567D01*
X-278536D01*
X-277953Y-123151D01*
Y-124317D01*
X-278536Y-124900D01*
X-279702D01*
X-280285Y-124317D01*
X-262300Y-136100D02*
X-265799D01*
Y-134351D01*
X-265216Y-133767D01*
X-264049D01*
X-263466Y-134351D01*
Y-136100D01*
Y-134934D02*
X-262300Y-133767D01*
Y-132601D02*
Y-131435D01*
Y-132018D01*
X-265799D01*
X-265216Y-132601D01*
X-262300Y-127936D02*
X-265799D01*
X-264049Y-129685D01*
Y-127353D01*
X-322900Y-153400D02*
Y-149901D01*
X-321151D01*
X-320567Y-150484D01*
Y-151651D01*
X-321151Y-152234D01*
X-322900D01*
X-321734D02*
X-320567Y-153400D01*
X-319401D02*
X-318235D01*
X-318818D01*
Y-149901D01*
X-319401Y-150484D01*
X-316485D02*
X-315902Y-149901D01*
X-314736D01*
X-314153Y-150484D01*
Y-151067D01*
X-314736Y-151651D01*
X-315319D01*
X-314736D01*
X-314153Y-152234D01*
Y-152817D01*
X-314736Y-153400D01*
X-315902D01*
X-316485Y-152817D01*
X-286400Y-170000D02*
Y-166501D01*
X-284651D01*
X-284067Y-167084D01*
Y-168251D01*
X-284651Y-168834D01*
X-286400D01*
X-285234D02*
X-284067Y-170000D01*
X-282901D02*
X-281735D01*
X-282318D01*
Y-166501D01*
X-282901Y-167084D01*
X-277653Y-170000D02*
X-279985D01*
X-277653Y-167667D01*
Y-167084D01*
X-278236Y-166501D01*
X-279402D01*
X-279985Y-167084D01*
X-262100Y-162400D02*
X-265599D01*
Y-160651D01*
X-265016Y-160067D01*
X-263849D01*
X-263266Y-160651D01*
Y-162400D01*
Y-161234D02*
X-262100Y-160067D01*
Y-158901D02*
Y-157735D01*
Y-158318D01*
X-265599D01*
X-265016Y-158901D01*
X-262100Y-155985D02*
Y-154819D01*
Y-155402D01*
X-265599D01*
X-265016Y-155985D01*
X-286500Y-175200D02*
Y-171701D01*
X-284751D01*
X-284167Y-172284D01*
Y-173451D01*
X-284751Y-174034D01*
X-286500D01*
X-285334D02*
X-284167Y-175200D01*
X-283001D02*
X-281835D01*
X-282418D01*
Y-171701D01*
X-283001Y-172284D01*
X-280085D02*
X-279502Y-171701D01*
X-278336D01*
X-277753Y-172284D01*
Y-174617D01*
X-278336Y-175200D01*
X-279502D01*
X-280085Y-174617D01*
Y-172284D01*
X-242200Y-178300D02*
Y-174801D01*
X-240451D01*
X-239867Y-175384D01*
Y-176551D01*
X-240451Y-177134D01*
X-242200D01*
X-241034D02*
X-239867Y-178300D01*
X-238701Y-177717D02*
X-238118Y-178300D01*
X-236952D01*
X-236369Y-177717D01*
Y-175384D01*
X-236952Y-174801D01*
X-238118D01*
X-238701Y-175384D01*
Y-175967D01*
X-238118Y-176551D01*
X-236369D01*
X-119800Y-53700D02*
Y-50201D01*
X-118051D01*
X-117467Y-50784D01*
Y-51951D01*
X-118051Y-52534D01*
X-119800D01*
X-118634D02*
X-117467Y-53700D01*
X-116301Y-50784D02*
X-115718Y-50201D01*
X-114552D01*
X-113969Y-50784D01*
Y-51367D01*
X-114552Y-51951D01*
X-113969Y-52534D01*
Y-53117D01*
X-114552Y-53700D01*
X-115718D01*
X-116301Y-53117D01*
Y-52534D01*
X-115718Y-51951D01*
X-116301Y-51367D01*
Y-50784D01*
X-115718Y-51951D02*
X-114552D01*
X-88300Y-76900D02*
Y-73401D01*
X-86551D01*
X-85967Y-73984D01*
Y-75151D01*
X-86551Y-75734D01*
X-88300D01*
X-87134D02*
X-85967Y-76900D01*
X-84801Y-73401D02*
X-82469D01*
Y-73984D01*
X-84801Y-76317D01*
Y-76900D01*
X-142200Y-85400D02*
X-145699D01*
Y-83651D01*
X-145116Y-83067D01*
X-143949D01*
X-143366Y-83651D01*
Y-85400D01*
Y-84234D02*
X-142200Y-83067D01*
X-145699Y-79569D02*
Y-81901D01*
X-143949D01*
X-144533Y-80735D01*
Y-80152D01*
X-143949Y-79569D01*
X-142783D01*
X-142200Y-80152D01*
Y-81318D01*
X-142783Y-81901D01*
X-170300Y-136600D02*
Y-133101D01*
X-168551D01*
X-167967Y-133684D01*
Y-134851D01*
X-168551Y-135434D01*
X-170300D01*
X-169134D02*
X-167967Y-136600D01*
X-165052D02*
Y-133101D01*
X-166801Y-134851D01*
X-164469D01*
X-69600Y-265200D02*
Y-261701D01*
X-67851D01*
X-67267Y-262284D01*
Y-263451D01*
X-67851Y-264034D01*
X-69600D01*
X-68434D02*
X-67267Y-265200D01*
X-66101Y-262284D02*
X-65518Y-261701D01*
X-64352D01*
X-63769Y-262284D01*
Y-262867D01*
X-64352Y-263451D01*
X-64935D01*
X-64352D01*
X-63769Y-264034D01*
Y-264617D01*
X-64352Y-265200D01*
X-65518D01*
X-66101Y-264617D01*
X-69600Y-281800D02*
Y-278301D01*
X-67851D01*
X-67267Y-278884D01*
Y-280051D01*
X-67851Y-280634D01*
X-69600D01*
X-68434D02*
X-67267Y-281800D01*
X-63769D02*
X-66101D01*
X-63769Y-279467D01*
Y-278884D01*
X-64352Y-278301D01*
X-65518D01*
X-66101Y-278884D01*
X-26400Y-281100D02*
Y-277601D01*
X-24651D01*
X-24067Y-278184D01*
Y-279351D01*
X-24651Y-279934D01*
X-26400D01*
X-25234D02*
X-24067Y-281100D01*
X-22901D02*
X-21735D01*
X-22318D01*
Y-277601D01*
X-22901Y-278184D01*
X-13991Y-292900D02*
X-11075D01*
X-10492Y-292317D01*
Y-291151D01*
X-11075Y-290567D01*
X-13991D01*
X-13408Y-287069D02*
X-13991Y-287652D01*
Y-288818D01*
X-13408Y-289401D01*
X-12824D01*
X-12241Y-288818D01*
Y-287652D01*
X-11658Y-287069D01*
X-11075D01*
X-10492Y-287652D01*
Y-288818D01*
X-11075Y-289401D01*
X-13991Y-285902D02*
X-10492D01*
Y-284153D01*
X-11075Y-283570D01*
X-11658D01*
X-12241Y-284153D01*
Y-285902D01*
Y-284153D01*
X-12824Y-283570D01*
X-13408D01*
X-13991Y-284153D01*
Y-285902D01*
X-9909Y-282403D02*
Y-280071D01*
X-13408Y-276572D02*
X-13991Y-277155D01*
Y-278321D01*
X-13408Y-278905D01*
X-11075D01*
X-10492Y-278321D01*
Y-277155D01*
X-11075Y-276572D01*
X-13991Y-275406D02*
X-10492D01*
X-12241D01*
Y-273073D01*
X-13991D01*
X-10492D01*
X-13408Y-269574D02*
X-13991Y-270157D01*
Y-271324D01*
X-13408Y-271907D01*
X-11075D01*
X-10492Y-271324D01*
Y-270157D01*
X-11075Y-269574D01*
X-12241D01*
Y-270741D01*
X-352400Y-121400D02*
Y-117901D01*
X-350651D01*
X-350067Y-118484D01*
Y-119651D01*
X-350651Y-120234D01*
X-352400D01*
X-347152Y-121400D02*
Y-117901D01*
X-348901Y-119651D01*
X-346569D01*
X-91200Y-52100D02*
Y-48601D01*
X-89451D01*
X-88867Y-49184D01*
Y-50351D01*
X-89451Y-50934D01*
X-91200D01*
X-87701Y-49184D02*
X-87118Y-48601D01*
X-85952D01*
X-85369Y-49184D01*
Y-49767D01*
X-85952Y-50351D01*
X-86535D01*
X-85952D01*
X-85369Y-50934D01*
Y-51517D01*
X-85952Y-52100D01*
X-87118D01*
X-87701Y-51517D01*
X-7499Y-76400D02*
X-4583D01*
X-4000Y-75817D01*
Y-74651D01*
X-4583Y-74067D01*
X-7499D01*
X-6916Y-70569D02*
X-7499Y-71152D01*
Y-72318D01*
X-6916Y-72901D01*
X-6333D01*
X-5749Y-72318D01*
Y-71152D01*
X-5166Y-70569D01*
X-4583D01*
X-4000Y-71152D01*
Y-72318D01*
X-4583Y-72901D01*
X-7499Y-69402D02*
X-4000D01*
Y-67653D01*
X-4583Y-67070D01*
X-5166D01*
X-5749Y-67653D01*
Y-69402D01*
Y-67653D01*
X-6333Y-67070D01*
X-6916D01*
X-7499Y-67653D01*
Y-69402D01*
X-3417Y-65903D02*
Y-63571D01*
X-7499Y-62405D02*
Y-61238D01*
Y-61821D01*
X-4000D01*
Y-62405D01*
Y-61238D01*
Y-59489D02*
X-7499D01*
X-4000Y-57156D01*
X-7499D01*
X-7300Y-8900D02*
Y-5401D01*
X-5551D01*
X-4967Y-5984D01*
Y-7151D01*
X-5551Y-7734D01*
X-7300D01*
X-3801Y-8900D02*
X-2635D01*
X-3218D01*
Y-5401D01*
X-3801Y-5984D01*
X-15800Y-174300D02*
X-19299D01*
X-18133Y-173134D01*
X-19299Y-171967D01*
X-15800D01*
Y-170801D02*
Y-169635D01*
Y-170218D01*
X-19299D01*
X-18716Y-170801D01*
X-62674Y-240500D02*
X-59175D01*
Y-238167D01*
Y-237001D02*
Y-235835D01*
Y-236418D01*
X-62674D01*
X-62091Y-237001D01*
X-81967Y-261184D02*
X-82551Y-260601D01*
X-83717D01*
X-84300Y-261184D01*
Y-261767D01*
X-83717Y-262351D01*
X-82551D01*
X-81967Y-262934D01*
Y-263517D01*
X-82551Y-264100D01*
X-83717D01*
X-84300Y-263517D01*
X-80801Y-260601D02*
X-78469D01*
X-79635D01*
Y-264100D01*
X-77302Y-260601D02*
Y-264100D01*
X-75553D01*
X-74970Y-263517D01*
Y-262934D01*
X-75553Y-262351D01*
X-77302D01*
X-75553D01*
X-74970Y-261767D01*
Y-261184D01*
X-75553Y-260601D01*
X-77302D01*
X-73803D02*
Y-261184D01*
X-72637Y-262351D01*
X-71471Y-261184D01*
Y-260601D01*
X-72637Y-262351D02*
Y-264100D01*
X-79667Y-281184D02*
X-80251Y-280601D01*
X-81417D01*
X-82000Y-281184D01*
Y-283517D01*
X-81417Y-284100D01*
X-80251D01*
X-79667Y-283517D01*
X-78501Y-280601D02*
Y-284100D01*
Y-282351D01*
X-76169D01*
Y-280601D01*
Y-284100D01*
X-72670Y-281184D02*
X-73253Y-280601D01*
X-74419D01*
X-75002Y-281184D01*
Y-283517D01*
X-74419Y-284100D01*
X-73253D01*
X-72670Y-283517D01*
Y-282351D01*
X-73836D01*
X-58467Y-224807D02*
X-59051Y-224223D01*
X-60217D01*
X-60800Y-224807D01*
Y-227139D01*
X-60217Y-227722D01*
X-59051D01*
X-58467Y-227139D01*
X-54969Y-224223D02*
X-57301D01*
Y-225973D01*
X-56135Y-225390D01*
X-55552D01*
X-54969Y-225973D01*
Y-227139D01*
X-55552Y-227722D01*
X-56718D01*
X-57301Y-227139D01*
X-53802D02*
X-53219Y-227722D01*
X-52053D01*
X-51470Y-227139D01*
Y-224807D01*
X-52053Y-224223D01*
X-53219D01*
X-53802Y-224807D01*
Y-225390D01*
X-53219Y-225973D01*
X-51470D01*
X-156516Y-224775D02*
X-157099Y-225358D01*
Y-226524D01*
X-156516Y-227107D01*
X-154183D01*
X-153600Y-226524D01*
Y-225358D01*
X-154183Y-224775D01*
X-157099Y-221276D02*
Y-223608D01*
X-155349D01*
X-155933Y-222442D01*
Y-221859D01*
X-155349Y-221276D01*
X-154183D01*
X-153600Y-221859D01*
Y-223025D01*
X-154183Y-223608D01*
X-156516Y-220109D02*
X-157099Y-219526D01*
Y-218360D01*
X-156516Y-217777D01*
X-155933D01*
X-155349Y-218360D01*
X-154766Y-217777D01*
X-154183D01*
X-153600Y-218360D01*
Y-219526D01*
X-154183Y-220109D01*
X-154766D01*
X-155349Y-219526D01*
X-155933Y-220109D01*
X-156516D01*
X-155349Y-219526D02*
Y-218360D01*
X-163820Y-157067D02*
X-164403Y-157651D01*
Y-158817D01*
X-163820Y-159400D01*
X-161487D01*
X-160904Y-158817D01*
Y-157651D01*
X-161487Y-157067D01*
X-164403Y-153569D02*
Y-155901D01*
X-162653D01*
X-163236Y-154735D01*
Y-154152D01*
X-162653Y-153569D01*
X-161487D01*
X-160904Y-154152D01*
Y-155318D01*
X-161487Y-155901D01*
X-164403Y-152402D02*
Y-150070D01*
X-163820D01*
X-161487Y-152402D01*
X-160904D01*
X-206544Y-178067D02*
X-207128Y-178651D01*
Y-179817D01*
X-206544Y-180400D01*
X-204212D01*
X-203629Y-179817D01*
Y-178651D01*
X-204212Y-178067D01*
X-207128Y-174569D02*
Y-176901D01*
X-205378D01*
X-205961Y-175735D01*
Y-175152D01*
X-205378Y-174569D01*
X-204212D01*
X-203629Y-175152D01*
Y-176318D01*
X-204212Y-176901D01*
X-207128Y-171070D02*
X-206544Y-172236D01*
X-205378Y-173402D01*
X-204212D01*
X-203629Y-172819D01*
Y-171653D01*
X-204212Y-171070D01*
X-204795D01*
X-205378Y-171653D01*
Y-173402D01*
X-214716Y-177567D02*
X-215299Y-178151D01*
Y-179317D01*
X-214716Y-179900D01*
X-212383D01*
X-211800Y-179317D01*
Y-178151D01*
X-212383Y-177567D01*
X-215299Y-174069D02*
Y-176401D01*
X-213549D01*
X-214133Y-175235D01*
Y-174652D01*
X-213549Y-174069D01*
X-212383D01*
X-211800Y-174652D01*
Y-175818D01*
X-212383Y-176401D01*
X-215299Y-170570D02*
Y-172902D01*
X-213549D01*
X-214133Y-171736D01*
Y-171153D01*
X-213549Y-170570D01*
X-212383D01*
X-211800Y-171153D01*
Y-172319D01*
X-212383Y-172902D01*
X-155416Y-175867D02*
X-155999Y-176451D01*
Y-177617D01*
X-155416Y-178200D01*
X-153083D01*
X-152500Y-177617D01*
Y-176451D01*
X-153083Y-175867D01*
X-155999Y-172369D02*
Y-174701D01*
X-154249D01*
X-154833Y-173535D01*
Y-172952D01*
X-154249Y-172369D01*
X-153083D01*
X-152500Y-172952D01*
Y-174118D01*
X-153083Y-174701D01*
X-152500Y-169453D02*
X-155999D01*
X-154249Y-171202D01*
Y-168870D01*
X-206116Y-152067D02*
X-206699Y-152651D01*
Y-153817D01*
X-206116Y-154400D01*
X-203783D01*
X-203200Y-153817D01*
Y-152651D01*
X-203783Y-152067D01*
X-206699Y-148569D02*
Y-150901D01*
X-204949D01*
X-205533Y-149735D01*
Y-149152D01*
X-204949Y-148569D01*
X-203783D01*
X-203200Y-149152D01*
Y-150318D01*
X-203783Y-150901D01*
X-206116Y-147402D02*
X-206699Y-146819D01*
Y-145653D01*
X-206116Y-145070D01*
X-205533D01*
X-204949Y-145653D01*
Y-146236D01*
Y-145653D01*
X-204366Y-145070D01*
X-203783D01*
X-203200Y-145653D01*
Y-146819D01*
X-203783Y-147402D01*
X-214957Y-152067D02*
X-215540Y-152651D01*
Y-153817D01*
X-214957Y-154400D01*
X-212624D01*
X-212041Y-153817D01*
Y-152651D01*
X-212624Y-152067D01*
X-215540Y-148569D02*
Y-150901D01*
X-213791D01*
X-214374Y-149735D01*
Y-149152D01*
X-213791Y-148569D01*
X-212624D01*
X-212041Y-149152D01*
Y-150318D01*
X-212624Y-150901D01*
X-212041Y-145070D02*
Y-147402D01*
X-214374Y-145070D01*
X-214957D01*
X-215540Y-145653D01*
Y-146819D01*
X-214957Y-147402D01*
X-91316Y-161267D02*
X-91899Y-161851D01*
Y-163017D01*
X-91316Y-163600D01*
X-88983D01*
X-88400Y-163017D01*
Y-161851D01*
X-88983Y-161267D01*
X-91899Y-157769D02*
Y-160101D01*
X-90149D01*
X-90733Y-158935D01*
Y-158352D01*
X-90149Y-157769D01*
X-88983D01*
X-88400Y-158352D01*
Y-159518D01*
X-88983Y-160101D01*
X-88400Y-156602D02*
Y-155436D01*
Y-156019D01*
X-91899D01*
X-91316Y-156602D01*
X-60916Y-161467D02*
X-61499Y-162051D01*
Y-163217D01*
X-60916Y-163800D01*
X-58583D01*
X-58000Y-163217D01*
Y-162051D01*
X-58583Y-161467D01*
X-61499Y-157969D02*
Y-160301D01*
X-59749D01*
X-60333Y-159135D01*
Y-158552D01*
X-59749Y-157969D01*
X-58583D01*
X-58000Y-158552D01*
Y-159718D01*
X-58583Y-160301D01*
X-60916Y-156802D02*
X-61499Y-156219D01*
Y-155053D01*
X-60916Y-154470D01*
X-58583D01*
X-58000Y-155053D01*
Y-156219D01*
X-58583Y-156802D01*
X-60916D01*
X-155416Y-150267D02*
X-155999Y-150851D01*
Y-152017D01*
X-155416Y-152600D01*
X-153083D01*
X-152500Y-152017D01*
Y-150851D01*
X-153083Y-150267D01*
X-152500Y-147352D02*
X-155999D01*
X-154249Y-149101D01*
Y-146769D01*
X-153083Y-145602D02*
X-152500Y-145019D01*
Y-143853D01*
X-153083Y-143270D01*
X-155416D01*
X-155999Y-143853D01*
Y-145019D01*
X-155416Y-145602D01*
X-154833D01*
X-154249Y-145019D01*
Y-143270D01*
X-163716Y-232567D02*
X-164299Y-233151D01*
Y-234317D01*
X-163716Y-234900D01*
X-161383D01*
X-160800Y-234317D01*
Y-233151D01*
X-161383Y-232567D01*
X-160800Y-229652D02*
X-164299D01*
X-162549Y-231401D01*
Y-229069D01*
X-163716Y-227902D02*
X-164299Y-227319D01*
Y-226153D01*
X-163716Y-225570D01*
X-163133D01*
X-162549Y-226153D01*
X-161966Y-225570D01*
X-161383D01*
X-160800Y-226153D01*
Y-227319D01*
X-161383Y-227902D01*
X-161966D01*
X-162549Y-227319D01*
X-163133Y-227902D01*
X-163716D01*
X-162549Y-227319D02*
Y-226153D01*
X-302116Y-64567D02*
X-302699Y-65151D01*
Y-66317D01*
X-302116Y-66900D01*
X-299783D01*
X-299200Y-66317D01*
Y-65151D01*
X-299783Y-64567D01*
X-299200Y-61652D02*
X-302699D01*
X-300949Y-63401D01*
Y-61069D01*
X-302699Y-57570D02*
Y-59902D01*
X-300949D01*
X-301533Y-58736D01*
Y-58153D01*
X-300949Y-57570D01*
X-299783D01*
X-299200Y-58153D01*
Y-59319D01*
X-299783Y-59902D01*
X-240467Y-48984D02*
X-241051Y-48401D01*
X-242217D01*
X-242800Y-48984D01*
Y-51317D01*
X-242217Y-51900D01*
X-241051D01*
X-240467Y-51317D01*
X-237552Y-51900D02*
Y-48401D01*
X-239301Y-50151D01*
X-236969D01*
X-234053Y-51900D02*
Y-48401D01*
X-235802Y-50151D01*
X-233470D01*
X-265216Y-75567D02*
X-265799Y-76151D01*
Y-77317D01*
X-265216Y-77900D01*
X-262883D01*
X-262300Y-77317D01*
Y-76151D01*
X-262883Y-75567D01*
X-262300Y-72652D02*
X-265799D01*
X-264049Y-74401D01*
Y-72069D01*
X-265216Y-70902D02*
X-265799Y-70319D01*
Y-69153D01*
X-265216Y-68570D01*
X-264633D01*
X-264049Y-69153D01*
Y-69736D01*
Y-69153D01*
X-263466Y-68570D01*
X-262883D01*
X-262300Y-69153D01*
Y-70319D01*
X-262883Y-70902D01*
X-302416Y-86567D02*
X-302999Y-87151D01*
Y-88317D01*
X-302416Y-88900D01*
X-300083D01*
X-299500Y-88317D01*
Y-87151D01*
X-300083Y-86567D01*
X-299500Y-83652D02*
X-302999D01*
X-301249Y-85401D01*
Y-83069D01*
X-299500Y-81902D02*
Y-80736D01*
Y-81319D01*
X-302999D01*
X-302416Y-81902D01*
X-240267Y-95484D02*
X-240851Y-94901D01*
X-242017D01*
X-242600Y-95484D01*
Y-97817D01*
X-242017Y-98400D01*
X-240851D01*
X-240267Y-97817D01*
X-239101Y-95484D02*
X-238518Y-94901D01*
X-237352D01*
X-236769Y-95484D01*
Y-96067D01*
X-237352Y-96651D01*
X-237935D01*
X-237352D01*
X-236769Y-97234D01*
Y-97817D01*
X-237352Y-98400D01*
X-238518D01*
X-239101Y-97817D01*
X-235602D02*
X-235019Y-98400D01*
X-233853D01*
X-233270Y-97817D01*
Y-95484D01*
X-233853Y-94901D01*
X-235019D01*
X-235602Y-95484D01*
Y-96067D01*
X-235019Y-96651D01*
X-233270D01*
X-294916Y-122067D02*
X-295499Y-122651D01*
Y-123817D01*
X-294916Y-124400D01*
X-292583D01*
X-292000Y-123817D01*
Y-122651D01*
X-292583Y-122067D01*
X-294916Y-120901D02*
X-295499Y-120318D01*
Y-119152D01*
X-294916Y-118569D01*
X-294333D01*
X-293749Y-119152D01*
Y-119735D01*
Y-119152D01*
X-293166Y-118569D01*
X-292583D01*
X-292000Y-119152D01*
Y-120318D01*
X-292583Y-120901D01*
X-295499Y-117402D02*
Y-115070D01*
X-294916D01*
X-292583Y-117402D01*
X-292000D01*
X-240467Y-112484D02*
X-241051Y-111901D01*
X-242217D01*
X-242800Y-112484D01*
Y-114817D01*
X-242217Y-115400D01*
X-241051D01*
X-240467Y-114817D01*
X-239301Y-112484D02*
X-238718Y-111901D01*
X-237552D01*
X-236969Y-112484D01*
Y-113067D01*
X-237552Y-113651D01*
X-238135D01*
X-237552D01*
X-236969Y-114234D01*
Y-114817D01*
X-237552Y-115400D01*
X-238718D01*
X-239301Y-114817D01*
X-233470Y-111901D02*
X-234636Y-112484D01*
X-235802Y-113651D01*
Y-114817D01*
X-235219Y-115400D01*
X-234053D01*
X-233470Y-114817D01*
Y-114234D01*
X-234053Y-113651D01*
X-235802D01*
X-265216Y-147367D02*
X-265799Y-147951D01*
Y-149117D01*
X-265216Y-149700D01*
X-262883D01*
X-262300Y-149117D01*
Y-147951D01*
X-262883Y-147367D01*
X-265216Y-146201D02*
X-265799Y-145618D01*
Y-144452D01*
X-265216Y-143869D01*
X-264633D01*
X-264049Y-144452D01*
Y-145035D01*
Y-144452D01*
X-263466Y-143869D01*
X-262883D01*
X-262300Y-144452D01*
Y-145618D01*
X-262883Y-146201D01*
X-265799Y-140370D02*
Y-142702D01*
X-264049D01*
X-264633Y-141536D01*
Y-140953D01*
X-264049Y-140370D01*
X-262883D01*
X-262300Y-140953D01*
Y-142119D01*
X-262883Y-142702D01*
X-302116Y-159567D02*
X-302699Y-160151D01*
Y-161317D01*
X-302116Y-161900D01*
X-299783D01*
X-299200Y-161317D01*
Y-160151D01*
X-299783Y-159567D01*
X-302116Y-158401D02*
X-302699Y-157818D01*
Y-156652D01*
X-302116Y-156069D01*
X-301533D01*
X-300949Y-156652D01*
Y-157235D01*
Y-156652D01*
X-300366Y-156069D01*
X-299783D01*
X-299200Y-156652D01*
Y-157818D01*
X-299783Y-158401D01*
X-302116Y-154902D02*
X-302699Y-154319D01*
Y-153153D01*
X-302116Y-152570D01*
X-301533D01*
X-300949Y-153153D01*
Y-153736D01*
Y-153153D01*
X-300366Y-152570D01*
X-299783D01*
X-299200Y-153153D01*
Y-154319D01*
X-299783Y-154902D01*
X-239967Y-167184D02*
X-240551Y-166601D01*
X-241717D01*
X-242300Y-167184D01*
Y-169517D01*
X-241717Y-170100D01*
X-240551D01*
X-239967Y-169517D01*
X-238801Y-167184D02*
X-238218Y-166601D01*
X-237052D01*
X-236469Y-167184D01*
Y-167767D01*
X-237052Y-168351D01*
X-237635D01*
X-237052D01*
X-236469Y-168934D01*
Y-169517D01*
X-237052Y-170100D01*
X-238218D01*
X-238801Y-169517D01*
X-232970Y-170100D02*
X-235302D01*
X-232970Y-167767D01*
Y-167184D01*
X-233553Y-166601D01*
X-234719D01*
X-235302Y-167184D01*
X-117667Y-45084D02*
X-118251Y-44501D01*
X-119417D01*
X-120000Y-45084D01*
Y-47417D01*
X-119417Y-48000D01*
X-118251D01*
X-117667Y-47417D01*
X-114169Y-48000D02*
X-116501D01*
X-114169Y-45667D01*
Y-45084D01*
X-114752Y-44501D01*
X-115918D01*
X-116501Y-45084D01*
X-110670Y-48000D02*
X-113002D01*
X-110670Y-45667D01*
Y-45084D01*
X-111253Y-44501D01*
X-112419D01*
X-113002Y-45084D01*
X-200416Y-88067D02*
X-200999Y-88651D01*
Y-89817D01*
X-200416Y-90400D01*
X-198083D01*
X-197500Y-89817D01*
Y-88651D01*
X-198083Y-88067D01*
X-197500Y-86901D02*
Y-85735D01*
Y-86318D01*
X-200999D01*
X-200416Y-86901D01*
Y-83985D02*
X-200999Y-83402D01*
Y-82236D01*
X-200416Y-81653D01*
X-199833D01*
X-199249Y-82236D01*
X-198666Y-81653D01*
X-198083D01*
X-197500Y-82236D01*
Y-83402D01*
X-198083Y-83985D01*
X-198666D01*
X-199249Y-83402D01*
X-199833Y-83985D01*
X-200416D01*
X-199249Y-83402D02*
Y-82236D01*
X-192016Y-84367D02*
X-192599Y-84951D01*
Y-86117D01*
X-192016Y-86700D01*
X-189683D01*
X-189100Y-86117D01*
Y-84951D01*
X-189683Y-84367D01*
X-189100Y-83201D02*
Y-82035D01*
Y-82618D01*
X-192599D01*
X-192016Y-83201D01*
X-192599Y-80285D02*
Y-77953D01*
X-192016D01*
X-189683Y-80285D01*
X-189100D01*
X-222867Y-102084D02*
X-223451Y-101501D01*
X-224617D01*
X-225200Y-102084D01*
Y-104417D01*
X-224617Y-105000D01*
X-223451D01*
X-222867Y-104417D01*
X-221701Y-105000D02*
X-220535D01*
X-221118D01*
Y-101501D01*
X-221701Y-102084D01*
X-216453Y-101501D02*
X-217619Y-102084D01*
X-218785Y-103251D01*
Y-104417D01*
X-218202Y-105000D01*
X-217036D01*
X-216453Y-104417D01*
Y-103834D01*
X-217036Y-103251D01*
X-218785D01*
X-124216Y-103867D02*
X-124799Y-104451D01*
Y-105617D01*
X-124216Y-106200D01*
X-121883D01*
X-121300Y-105617D01*
Y-104451D01*
X-121883Y-103867D01*
X-121300Y-102701D02*
Y-101535D01*
Y-102118D01*
X-124799D01*
X-124216Y-102701D01*
X-124799Y-97453D02*
Y-99785D01*
X-123049D01*
X-123633Y-98619D01*
Y-98036D01*
X-123049Y-97453D01*
X-121883D01*
X-121300Y-98036D01*
Y-99202D01*
X-121883Y-99785D01*
X-144716Y-115367D02*
X-145299Y-115951D01*
Y-117117D01*
X-144716Y-117700D01*
X-142383D01*
X-141800Y-117117D01*
Y-115951D01*
X-142383Y-115367D01*
X-141800Y-114201D02*
Y-113035D01*
Y-113618D01*
X-145299D01*
X-144716Y-114201D01*
X-141800Y-109536D02*
X-145299D01*
X-143549Y-111285D01*
Y-108953D01*
X-200167Y-101884D02*
X-200751Y-101301D01*
X-201917D01*
X-202500Y-101884D01*
Y-104217D01*
X-201917Y-104800D01*
X-200751D01*
X-200167Y-104217D01*
X-199001Y-104800D02*
X-197835D01*
X-198418D01*
Y-101301D01*
X-199001Y-101884D01*
X-196085D02*
X-195502Y-101301D01*
X-194336D01*
X-193753Y-101884D01*
Y-102467D01*
X-194336Y-103051D01*
X-194919D01*
X-194336D01*
X-193753Y-103634D01*
Y-104217D01*
X-194336Y-104800D01*
X-195502D01*
X-196085Y-104217D01*
X-192416Y-136467D02*
X-192999Y-137051D01*
Y-138217D01*
X-192416Y-138800D01*
X-190083D01*
X-189500Y-138217D01*
Y-137051D01*
X-190083Y-136467D01*
X-189500Y-135301D02*
Y-134135D01*
Y-134718D01*
X-192999D01*
X-192416Y-135301D01*
X-189500Y-130053D02*
Y-132385D01*
X-191833Y-130053D01*
X-192416D01*
X-192999Y-130636D01*
Y-131802D01*
X-192416Y-132385D01*
X-201416Y-131467D02*
X-201999Y-132051D01*
Y-133217D01*
X-201416Y-133800D01*
X-199083D01*
X-198500Y-133217D01*
Y-132051D01*
X-199083Y-131467D01*
X-198500Y-130301D02*
Y-129135D01*
Y-129718D01*
X-201999D01*
X-201416Y-130301D01*
X-198500Y-127385D02*
Y-126219D01*
Y-126802D01*
X-201999D01*
X-201416Y-127385D01*
X-57267Y-245184D02*
X-57851Y-244601D01*
X-59017D01*
X-59600Y-245184D01*
Y-247517D01*
X-59017Y-248100D01*
X-57851D01*
X-57267Y-247517D01*
X-56101Y-248100D02*
X-54935D01*
X-55518D01*
Y-244601D01*
X-56101Y-245184D01*
X-53185D02*
X-52602Y-244601D01*
X-51436D01*
X-50853Y-245184D01*
Y-247517D01*
X-51436Y-248100D01*
X-52602D01*
X-53185Y-247517D01*
Y-245184D01*
X-35367Y-240284D02*
X-35951Y-239701D01*
X-37117D01*
X-37700Y-240284D01*
Y-242617D01*
X-37117Y-243200D01*
X-35951D01*
X-35367Y-242617D01*
X-34201D02*
X-33618Y-243200D01*
X-32452D01*
X-31868Y-242617D01*
Y-240284D01*
X-32452Y-239701D01*
X-33618D01*
X-34201Y-240284D01*
Y-240867D01*
X-33618Y-241451D01*
X-31868D01*
X-27167Y-240284D02*
X-27751Y-239701D01*
X-28917D01*
X-29500Y-240284D01*
Y-242617D01*
X-28917Y-243200D01*
X-27751D01*
X-27167Y-242617D01*
X-26001Y-240284D02*
X-25418Y-239701D01*
X-24252D01*
X-23668Y-240284D01*
Y-240867D01*
X-24252Y-241451D01*
X-23668Y-242034D01*
Y-242617D01*
X-24252Y-243200D01*
X-25418D01*
X-26001Y-242617D01*
Y-242034D01*
X-25418Y-241451D01*
X-26001Y-240867D01*
Y-240284D01*
X-25418Y-241451D02*
X-24252D01*
X-51616Y-158867D02*
X-52199Y-159451D01*
Y-160617D01*
X-51616Y-161200D01*
X-49283D01*
X-48700Y-160617D01*
Y-159451D01*
X-49283Y-158867D01*
X-48700Y-155952D02*
X-52199D01*
X-50449Y-157701D01*
Y-155369D01*
X-42316Y-159067D02*
X-42899Y-159651D01*
Y-160817D01*
X-42316Y-161400D01*
X-39983D01*
X-39400Y-160817D01*
Y-159651D01*
X-39983Y-159067D01*
X-42316Y-157901D02*
X-42899Y-157318D01*
Y-156152D01*
X-42316Y-155569D01*
X-41733D01*
X-41149Y-156152D01*
Y-156735D01*
Y-156152D01*
X-40566Y-155569D01*
X-39983D01*
X-39400Y-156152D01*
Y-157318D01*
X-39983Y-157901D01*
X-32816Y-159067D02*
X-33399Y-159651D01*
Y-160817D01*
X-32816Y-161400D01*
X-30483D01*
X-29900Y-160817D01*
Y-159651D01*
X-30483Y-159067D01*
X-29900Y-155569D02*
Y-157901D01*
X-32233Y-155569D01*
X-32816D01*
X-33399Y-156152D01*
Y-157318D01*
X-32816Y-157901D01*
M02*
