G04*
G04 #@! TF.GenerationSoftware,Altium Limited,Altium Designer,19.0.4 (130)*
G04*
G04 Layer_Physical_Order=2*
G04 Layer_Color=16711680*
%FSLAX25Y25*%
%MOIN*%
G70*
G01*
G75*
%ADD12C,0.01000*%
%ADD16R,0.05787X0.04567*%
%ADD20R,0.02362X0.02559*%
%ADD27R,0.02559X0.02362*%
%ADD29R,0.03661X0.03858*%
%ADD81C,0.02362*%
%ADD86C,0.01200*%
%ADD87C,0.02000*%
%ADD88C,0.02500*%
%ADD90C,0.07874*%
%ADD91C,0.01181*%
%ADD92C,0.05906*%
%ADD93R,0.05906X0.05906*%
%ADD94C,0.07087*%
%ADD95R,0.07087X0.07087*%
%ADD96C,0.03543*%
%ADD97C,0.04921*%
%ADD98R,0.04921X0.04921*%
%ADD99R,0.04921X0.04921*%
%ADD100C,0.01968*%
%ADD101R,0.04528X0.05512*%
G36*
X-8246Y-1180D02*
X-6558Y-1691D01*
X-5004Y-2522D01*
X-3641Y-3641D01*
X-2522Y-5004D01*
X-1691Y-6558D01*
X-1180Y-8246D01*
X-1011Y-9957D01*
X-1020Y-10000D01*
Y-173942D01*
X-1247Y-174347D01*
X-1520Y-174347D01*
X-8153D01*
Y-181253D01*
X-1520D01*
X-1247Y-181253D01*
X-1020Y-181658D01*
Y-284778D01*
X-1020Y-284784D01*
X-1020Y-285276D01*
X-1055Y-285761D01*
X-1180Y-287030D01*
X-1691Y-288717D01*
X-2522Y-290272D01*
X-3641Y-291635D01*
X-5004Y-292753D01*
X-6558Y-293584D01*
X-8246Y-294096D01*
X-9510Y-294221D01*
X-10000Y-294256D01*
X-10000Y-294256D01*
X-10492Y-294256D01*
X-142000D01*
Y-184429D01*
X-107888D01*
X-107736Y-184581D01*
X-107240Y-184913D01*
X-106946Y-184971D01*
X-104077Y-187840D01*
X-103581Y-188172D01*
X-102996Y-188288D01*
X-102411Y-188172D01*
X-101915Y-187840D01*
X-101583Y-187344D01*
X-101467Y-186759D01*
X-101583Y-186173D01*
X-101915Y-185677D01*
X-105373Y-182219D01*
X-105870Y-181887D01*
X-106163Y-181829D01*
X-106173Y-181819D01*
X-106670Y-181487D01*
X-107255Y-181371D01*
X-142000D01*
Y-150300D01*
X-166900Y-150300D01*
X-166900Y-1020D01*
X-48243D01*
Y-8943D01*
X-40157D01*
Y-1020D01*
X-36606D01*
X-36436Y-1520D01*
X-37084Y-2016D01*
X-37732Y-2861D01*
X-38139Y-3844D01*
X-38278Y-4900D01*
X-38139Y-5956D01*
X-37732Y-6939D01*
X-37119Y-7738D01*
X-37106Y-7770D01*
X-36763Y-8128D01*
X-36189Y-8801D01*
X-35968Y-9103D01*
X-35781Y-9392D01*
X-35633Y-9661D01*
X-35523Y-9908D01*
X-35448Y-10132D01*
X-35406Y-10332D01*
X-35390Y-10549D01*
X-35372Y-10585D01*
Y-68021D01*
X-35390Y-68059D01*
X-35385Y-68074D01*
X-35391Y-68088D01*
X-35392Y-68190D01*
X-35399Y-68357D01*
X-35412Y-68473D01*
X-35416Y-68497D01*
X-35417Y-68499D01*
X-35698Y-68921D01*
X-35813Y-69500D01*
X-35698Y-70079D01*
X-35370Y-70570D01*
X-34879Y-70898D01*
X-34300Y-71013D01*
X-33721Y-70898D01*
X-33230Y-70570D01*
X-32902Y-70079D01*
X-32787Y-69500D01*
X-32902Y-68921D01*
X-33082Y-68652D01*
X-33080Y-68640D01*
X-33086Y-68621D01*
X-33108Y-68263D01*
X-33109Y-68167D01*
X-33128Y-68120D01*
Y-10602D01*
X-33110Y-10566D01*
X-33094Y-10346D01*
X-33051Y-10146D01*
X-32976Y-9924D01*
X-32864Y-9680D01*
X-32715Y-9417D01*
X-32528Y-9136D01*
X-32304Y-8844D01*
X-31723Y-8194D01*
X-31375Y-7850D01*
X-31362Y-7819D01*
X-31316Y-7784D01*
X-30668Y-6939D01*
X-30261Y-5956D01*
X-30122Y-4900D01*
X-30261Y-3844D01*
X-30668Y-2861D01*
X-31316Y-2016D01*
X-31964Y-1520D01*
X-31794Y-1020D01*
X-26606D01*
X-26436Y-1520D01*
X-27084Y-2016D01*
X-27732Y-2861D01*
X-28139Y-3844D01*
X-28278Y-4900D01*
X-28139Y-5956D01*
X-27732Y-6939D01*
X-27084Y-7784D01*
X-26239Y-8432D01*
X-25256Y-8839D01*
X-24200Y-8978D01*
X-23144Y-8839D01*
X-22161Y-8432D01*
X-21316Y-7784D01*
X-20668Y-6939D01*
X-20261Y-5956D01*
X-20122Y-4900D01*
X-20261Y-3844D01*
X-20668Y-2861D01*
X-21316Y-2016D01*
X-21964Y-1520D01*
X-21794Y-1020D01*
X-10000D01*
X-9957Y-1011D01*
X-8246Y-1180D01*
D02*
G37*
G36*
X-31756Y-7465D02*
X-32116Y-7821D01*
X-32722Y-8499D01*
X-32968Y-8821D01*
X-33176Y-9133D01*
X-33347Y-9434D01*
X-33479Y-9723D01*
X-33574Y-10002D01*
X-33631Y-10270D01*
X-33650Y-10526D01*
X-34850Y-10509D01*
X-34869Y-10256D01*
X-34925Y-9990D01*
X-35018Y-9711D01*
X-35149Y-9419D01*
X-35316Y-9114D01*
X-35522Y-8796D01*
X-35764Y-8466D01*
X-36361Y-7765D01*
X-36716Y-7395D01*
X-31756Y-7465D01*
D02*
G37*
G36*
X-363300Y-1020D02*
X-167920D01*
X-167920Y-149379D01*
Y-149806D01*
X-168417Y-150306D01*
X-229982Y-150306D01*
Y-205471D01*
X-247838D01*
X-263891Y-189418D01*
X-263853Y-189214D01*
X-263694Y-188908D01*
X-263215Y-188813D01*
X-262719Y-188481D01*
X-262387Y-187985D01*
X-262271Y-187400D01*
Y-142622D01*
X-260676D01*
Y-143340D01*
X-257117D01*
Y-139978D01*
X-257117D01*
X-257437Y-139478D01*
X-257383Y-139204D01*
X-257498Y-138625D01*
X-257826Y-138134D01*
X-258317Y-137806D01*
X-258896Y-137691D01*
X-259475Y-137806D01*
X-259966Y-138134D01*
X-260294Y-138625D01*
X-260409Y-139204D01*
X-260355Y-139478D01*
X-260676Y-139978D01*
X-260676D01*
X-260915Y-140378D01*
X-262271D01*
Y-106811D01*
X-261771Y-106536D01*
X-261300Y-106629D01*
X-260715Y-106513D01*
X-260219Y-106181D01*
X-259887Y-105685D01*
X-259771Y-105100D01*
Y-83912D01*
X-254135Y-78276D01*
X-245676D01*
Y-78428D01*
X-245435D01*
X-245168Y-78928D01*
X-245294Y-79117D01*
X-245409Y-79696D01*
X-245294Y-80275D01*
X-244966Y-80766D01*
X-244475Y-81094D01*
X-243896Y-81209D01*
X-243317Y-81094D01*
X-242826Y-80766D01*
X-242498Y-80275D01*
X-242383Y-79696D01*
X-242498Y-79117D01*
X-242624Y-78928D01*
X-242357Y-78428D01*
X-242116D01*
Y-75065D01*
X-245676D01*
Y-75217D01*
X-254768D01*
X-255354Y-75333D01*
X-255850Y-75665D01*
X-261809Y-81624D01*
X-262271Y-81432D01*
Y-72487D01*
X-261566Y-71783D01*
X-258881D01*
X-258733Y-71753D01*
X-256921D01*
Y-68391D01*
X-256921D01*
X-257247Y-67891D01*
X-257187Y-67590D01*
X-257302Y-67011D01*
X-257630Y-66520D01*
X-258121Y-66192D01*
X-258700Y-66076D01*
X-259279Y-66192D01*
X-259770Y-66520D01*
X-260098Y-67011D01*
X-260213Y-67590D01*
X-260153Y-67891D01*
X-260479Y-68391D01*
X-260479D01*
X-260842Y-68724D01*
X-262200D01*
X-262785Y-68840D01*
X-263281Y-69172D01*
X-264881Y-70772D01*
X-265213Y-71268D01*
X-265329Y-71854D01*
Y-103651D01*
X-312261D01*
X-312637Y-103151D01*
X-312587Y-102900D01*
X-312702Y-102321D01*
X-313030Y-101830D01*
X-313521Y-101502D01*
X-314100Y-101387D01*
X-314679Y-101502D01*
X-315170Y-101830D01*
X-315498Y-102321D01*
X-315613Y-102900D01*
X-315559Y-103172D01*
X-315880Y-103672D01*
X-315880D01*
Y-107035D01*
X-312320D01*
Y-106710D01*
X-265329D01*
Y-110499D01*
X-265639Y-110665D01*
X-265829Y-110721D01*
X-266354Y-110617D01*
X-297421D01*
Y-110465D01*
X-300979D01*
Y-113828D01*
X-300221D01*
Y-114553D01*
X-300398Y-114817D01*
X-300513Y-115396D01*
X-300398Y-115975D01*
X-300070Y-116466D01*
X-299579Y-116794D01*
X-299000Y-116909D01*
X-298421Y-116794D01*
X-297930Y-116466D01*
X-297602Y-115975D01*
X-297487Y-115396D01*
X-297602Y-114817D01*
X-297930Y-114326D01*
X-297936Y-114189D01*
X-297591Y-113828D01*
X-297421D01*
Y-113676D01*
X-267829D01*
Y-148300D01*
Y-189172D01*
X-267713Y-189757D01*
X-267381Y-190253D01*
X-249553Y-208081D01*
X-249057Y-208413D01*
X-248472Y-208529D01*
X-229982D01*
Y-294256D01*
X-362902D01*
X-362908Y-294256D01*
X-363400Y-294256D01*
X-363885Y-294221D01*
X-365155Y-294096D01*
X-366842Y-293584D01*
X-368396Y-292753D01*
X-369759Y-291635D01*
X-370878Y-290272D01*
X-371709Y-288717D01*
X-372220Y-287030D01*
X-372345Y-285761D01*
X-372380Y-285276D01*
X-372380D01*
X-372180Y-216003D01*
X-372181Y-216002D01*
X-372180Y-216000D01*
Y-31900D01*
X-372181Y-31898D01*
X-372180Y-31895D01*
X-372280Y-9995D01*
X-372289Y-9954D01*
X-372120Y-8246D01*
X-371609Y-6558D01*
X-370778Y-5004D01*
X-369659Y-3641D01*
X-368296Y-2522D01*
X-366742Y-1691D01*
X-365054Y-1180D01*
X-363343Y-1011D01*
X-363300Y-1020D01*
D02*
G37*
G36*
X-33650Y-68170D02*
X-33649Y-68282D01*
X-33623Y-68689D01*
X-33614Y-68740D01*
X-33603Y-68781D01*
X-33590Y-68812D01*
X-33576Y-68833D01*
X-34952Y-68763D01*
X-34933Y-68740D01*
X-34916Y-68707D01*
X-34900Y-68665D01*
X-34887Y-68612D01*
X-34876Y-68550D01*
X-34859Y-68397D01*
X-34851Y-68204D01*
X-34850Y-68093D01*
X-33650Y-68170D01*
D02*
G37*
G36*
X-167290Y-151242D02*
X-166900Y-151320D01*
X-143020Y-151320D01*
Y-181371D01*
X-149800D01*
X-150385Y-181487D01*
X-150881Y-181819D01*
X-151213Y-182315D01*
X-151329Y-182900D01*
X-151213Y-183485D01*
X-150881Y-183981D01*
X-150385Y-184313D01*
X-149800Y-184429D01*
X-143020D01*
Y-294256D01*
X-228963D01*
Y-208529D01*
X-227100D01*
X-226515Y-208413D01*
X-226019Y-208081D01*
X-221219Y-203281D01*
X-220887Y-202785D01*
X-220771Y-202200D01*
Y-189400D01*
X-220887Y-188815D01*
X-221219Y-188319D01*
X-221715Y-187987D01*
X-222300Y-187871D01*
X-222885Y-187987D01*
X-223381Y-188319D01*
X-223713Y-188815D01*
X-223829Y-189400D01*
Y-201567D01*
X-227733Y-205471D01*
X-228963D01*
Y-151326D01*
X-168417Y-151326D01*
X-168416Y-151326D01*
X-168414Y-151326D01*
X-168221Y-151287D01*
X-168027Y-151248D01*
X-168026Y-151248D01*
X-168024Y-151247D01*
X-167663Y-151045D01*
X-167290Y-151242D01*
D02*
G37*
%LPC*%
G36*
X-11811Y-15210D02*
X-12969Y-15362D01*
X-14049Y-15809D01*
X-14976Y-16521D01*
X-15687Y-17447D01*
X-16134Y-18527D01*
X-16286Y-19685D01*
X-16134Y-20843D01*
X-15687Y-21923D01*
X-14976Y-22850D01*
X-14049Y-23561D01*
X-12969Y-24008D01*
X-11811Y-24160D01*
X-10653Y-24008D01*
X-9573Y-23561D01*
X-8647Y-22850D01*
X-7935Y-21923D01*
X-7488Y-20843D01*
X-7336Y-19685D01*
X-7488Y-18527D01*
X-7935Y-17447D01*
X-8647Y-16521D01*
X-9573Y-15809D01*
X-10653Y-15362D01*
X-11811Y-15210D01*
D02*
G37*
G36*
X-61737Y-22693D02*
X-65296D01*
Y-26055D01*
X-64638D01*
Y-31862D01*
X-64658Y-31908D01*
X-64658Y-32012D01*
X-64665Y-32182D01*
X-64676Y-32302D01*
X-64680Y-32331D01*
X-64683Y-32343D01*
X-64689Y-32362D01*
X-64689Y-32366D01*
X-64915Y-32704D01*
X-65030Y-33283D01*
X-64915Y-33863D01*
X-64587Y-34354D01*
X-64096Y-34682D01*
X-63516Y-34797D01*
X-62937Y-34682D01*
X-62446Y-34354D01*
X-62118Y-33863D01*
X-62003Y-33283D01*
X-62118Y-32704D01*
X-62344Y-32367D01*
X-62344Y-32363D01*
X-62350Y-32343D01*
X-62352Y-32331D01*
X-62356Y-32311D01*
X-62375Y-32005D01*
X-62375Y-31909D01*
X-62395Y-31862D01*
Y-26055D01*
X-61737D01*
Y-22693D01*
D02*
G37*
G36*
X-92920D02*
X-96479D01*
Y-26055D01*
X-95821D01*
Y-31878D01*
X-95841Y-31925D01*
X-95842Y-32028D01*
X-95848Y-32198D01*
X-95859Y-32319D01*
X-95864Y-32347D01*
X-95867Y-32359D01*
X-95873Y-32379D01*
X-95872Y-32383D01*
X-96098Y-32721D01*
X-96213Y-33300D01*
X-96098Y-33879D01*
X-95770Y-34370D01*
X-95279Y-34698D01*
X-94700Y-34813D01*
X-94121Y-34698D01*
X-93630Y-34370D01*
X-93302Y-33879D01*
X-93187Y-33300D01*
X-93302Y-32721D01*
X-93527Y-32383D01*
X-93527Y-32379D01*
X-93533Y-32360D01*
X-93536Y-32348D01*
X-93539Y-32327D01*
X-93558Y-32022D01*
X-93559Y-31925D01*
X-93578Y-31879D01*
Y-26055D01*
X-92920D01*
Y-22693D01*
D02*
G37*
G36*
X-77337Y-22693D02*
X-80896D01*
Y-26055D01*
X-80238D01*
Y-31895D01*
X-80258Y-31941D01*
X-80258Y-32045D01*
X-80265Y-32215D01*
X-80276Y-32336D01*
X-80280Y-32364D01*
X-80283Y-32376D01*
X-80289Y-32395D01*
X-80289Y-32399D01*
X-80515Y-32737D01*
X-80630Y-33316D01*
X-80515Y-33896D01*
X-80187Y-34387D01*
X-79696Y-34715D01*
X-79116Y-34830D01*
X-78537Y-34715D01*
X-78047Y-34387D01*
X-77718Y-33896D01*
X-77603Y-33316D01*
X-77718Y-32737D01*
X-77944Y-32400D01*
X-77944Y-32396D01*
X-77950Y-32376D01*
X-77952Y-32364D01*
X-77956Y-32344D01*
X-77974Y-32038D01*
X-77975Y-31942D01*
X-77995Y-31895D01*
Y-26055D01*
X-77337D01*
Y-22693D01*
D02*
G37*
G36*
X-71400Y-10571D02*
X-71985Y-10687D01*
X-72481Y-11019D01*
X-72813Y-11515D01*
X-72929Y-12100D01*
Y-42397D01*
X-75481Y-44949D01*
X-75506Y-44958D01*
X-76286Y-45682D01*
X-76611Y-45943D01*
X-76902Y-46147D01*
X-77094Y-46257D01*
X-77925D01*
X-77966Y-46240D01*
X-78008Y-46257D01*
X-78008D01*
X-78052Y-46246D01*
X-78069Y-46257D01*
X-82713D01*
Y-54343D01*
X-80705D01*
X-80657Y-54369D01*
X-80530Y-54383D01*
X-80484Y-54399D01*
X-80443Y-54426D01*
X-80393Y-54480D01*
X-80335Y-54576D01*
X-80274Y-54725D01*
X-80220Y-54926D01*
X-80177Y-55180D01*
X-80151Y-55482D01*
X-80141Y-55845D01*
X-80129Y-55872D01*
Y-77662D01*
X-80629Y-77930D01*
X-80821Y-77802D01*
X-81219Y-77723D01*
X-81222Y-77719D01*
X-81240Y-77710D01*
X-81251Y-77703D01*
X-81267Y-77691D01*
X-81497Y-77489D01*
X-81565Y-77421D01*
X-81612Y-77402D01*
X-89202Y-69812D01*
X-89221Y-69765D01*
X-89293Y-69692D01*
X-89409Y-69567D01*
X-89486Y-69474D01*
X-89503Y-69451D01*
X-89510Y-69440D01*
X-89519Y-69422D01*
X-89523Y-69419D01*
X-89602Y-69021D01*
X-89930Y-68530D01*
X-90421Y-68202D01*
X-91000Y-68087D01*
X-91579Y-68202D01*
X-92070Y-68530D01*
X-92398Y-69021D01*
X-92513Y-69600D01*
X-92932Y-70056D01*
X-93015Y-70065D01*
X-93088Y-69992D01*
X-93203Y-69867D01*
X-93281Y-69774D01*
X-93298Y-69751D01*
X-93305Y-69740D01*
X-93314Y-69722D01*
X-93317Y-69719D01*
X-93396Y-69321D01*
X-93724Y-68830D01*
X-94215Y-68502D01*
X-94794Y-68387D01*
X-95374Y-68502D01*
X-95865Y-68830D01*
X-96193Y-69321D01*
X-96308Y-69900D01*
X-96193Y-70479D01*
X-95865Y-70970D01*
X-95374Y-71298D01*
X-94975Y-71377D01*
X-94973Y-71381D01*
X-94955Y-71390D01*
X-94944Y-71397D01*
X-94928Y-71409D01*
X-94698Y-71611D01*
X-94629Y-71679D01*
X-94582Y-71698D01*
X-85398Y-80882D01*
X-85379Y-80929D01*
X-85307Y-81003D01*
X-85191Y-81127D01*
X-85114Y-81221D01*
X-85097Y-81244D01*
X-85090Y-81254D01*
X-85081Y-81273D01*
X-85077Y-81275D01*
X-84998Y-81674D01*
X-84670Y-82165D01*
X-84179Y-82493D01*
X-83600Y-82608D01*
X-83021Y-82493D01*
X-82530Y-82165D01*
X-82202Y-81674D01*
X-82087Y-81094D01*
X-82090Y-81080D01*
X-81663Y-80661D01*
X-81400Y-80713D01*
X-80821Y-80598D01*
X-80629Y-80470D01*
X-80129Y-80738D01*
Y-85771D01*
X-98784D01*
X-99370Y-85887D01*
X-99866Y-86219D01*
X-101766Y-88119D01*
X-102097Y-88615D01*
X-102214Y-89200D01*
Y-90727D01*
X-102392D01*
Y-94286D01*
X-102214D01*
Y-95227D01*
X-102365D01*
Y-98786D01*
X-99003D01*
Y-95227D01*
X-99155D01*
Y-94286D01*
X-99030D01*
Y-90727D01*
X-99155D01*
Y-89833D01*
X-98151Y-88829D01*
X-80129D01*
Y-90271D01*
X-83676D01*
Y-89377D01*
X-88337D01*
Y-94235D01*
X-83676D01*
Y-93329D01*
X-80129D01*
Y-109300D01*
Y-116679D01*
X-85316Y-121866D01*
X-85778Y-121674D01*
Y-118719D01*
X-85358D01*
Y-115357D01*
X-88917D01*
Y-118719D01*
X-88022D01*
Y-123371D01*
X-90378D01*
Y-118719D01*
X-89880D01*
Y-115357D01*
X-93439D01*
Y-118719D01*
X-92622D01*
Y-123371D01*
X-94978D01*
Y-118719D01*
X-94431D01*
Y-115357D01*
X-97990D01*
Y-118719D01*
X-97222D01*
Y-123371D01*
X-99563D01*
Y-118719D01*
X-98958D01*
Y-115357D01*
X-102517D01*
Y-115622D01*
X-102750Y-115856D01*
X-103017Y-115936D01*
X-103121Y-115866D01*
X-103700Y-115751D01*
X-104279Y-115866D01*
X-104770Y-116194D01*
X-105098Y-116685D01*
X-105213Y-117265D01*
X-105098Y-117844D01*
X-104770Y-118335D01*
X-104279Y-118663D01*
X-103700Y-118778D01*
X-103121Y-118663D01*
X-103017Y-118594D01*
X-102517Y-118719D01*
Y-118719D01*
X-101806D01*
Y-123859D01*
X-102937Y-124990D01*
X-103269Y-125486D01*
X-103385Y-126072D01*
Y-172250D01*
X-103269Y-172835D01*
X-102937Y-173331D01*
X-102441Y-173663D01*
X-101856Y-173779D01*
X-101271Y-173663D01*
X-100774Y-173331D01*
X-100443Y-172835D01*
X-100326Y-172250D01*
Y-126705D01*
X-100051Y-126429D01*
X-86188D01*
X-85603Y-126313D01*
X-85106Y-125981D01*
X-77519Y-118394D01*
X-77187Y-117897D01*
X-77071Y-117312D01*
Y-110422D01*
X-71736D01*
X-69993Y-112165D01*
Y-113393D01*
X-70553D01*
Y-116952D01*
X-69993D01*
Y-117920D01*
X-70553D01*
Y-121479D01*
X-69993D01*
Y-125443D01*
X-70065Y-125515D01*
X-70111Y-125534D01*
X-70258Y-125678D01*
X-70418Y-125827D01*
X-70472Y-125873D01*
X-70473Y-125873D01*
X-70473Y-125873D01*
X-70474Y-125874D01*
X-70490Y-125886D01*
X-70491Y-125888D01*
X-70653Y-125920D01*
X-71144Y-126248D01*
X-71472Y-126739D01*
X-71587Y-127318D01*
X-71472Y-127897D01*
X-71144Y-128388D01*
X-70653Y-128716D01*
X-70074Y-128831D01*
X-69495Y-128716D01*
X-69004Y-128388D01*
X-68676Y-127897D01*
X-68561Y-127318D01*
X-68573Y-127255D01*
X-68572Y-127252D01*
X-68553Y-127226D01*
X-68398Y-127049D01*
X-68331Y-126981D01*
X-68313Y-126935D01*
X-68310Y-126932D01*
X-68270Y-126906D01*
X-68266Y-126888D01*
X-68079Y-126701D01*
X-68079Y-126701D01*
X-67835Y-126337D01*
X-67750Y-125908D01*
X-67750Y-125908D01*
Y-121479D01*
X-67190D01*
Y-117920D01*
X-67750D01*
Y-116952D01*
X-67190D01*
Y-113393D01*
X-67750D01*
Y-111700D01*
X-67835Y-111271D01*
X-68079Y-110907D01*
X-68079Y-110907D01*
X-70479Y-108507D01*
X-70842Y-108264D01*
X-71272Y-108178D01*
X-71272Y-108178D01*
X-77071D01*
Y-94055D01*
X-75367D01*
Y-94614D01*
X-71808D01*
Y-94055D01*
X-70817D01*
Y-94614D01*
X-68490D01*
X-68475Y-94617D01*
X-67440D01*
X-67425Y-94627D01*
X-67378Y-94617D01*
X-67335Y-94636D01*
X-67140Y-94641D01*
X-67003Y-94653D01*
X-66966Y-94658D01*
X-66963Y-94659D01*
X-66928Y-94713D01*
X-66437Y-95041D01*
X-65857Y-95156D01*
X-65278Y-95041D01*
X-64787Y-94713D01*
X-64459Y-94222D01*
X-64344Y-93642D01*
X-64459Y-93063D01*
X-64787Y-92572D01*
X-65278Y-92244D01*
X-65857Y-92129D01*
X-66437Y-92244D01*
X-66561Y-92327D01*
X-66758Y-92339D01*
X-67207Y-92006D01*
X-67231Y-91968D01*
X-67258Y-91893D01*
Y-91252D01*
X-70817D01*
Y-91812D01*
X-71808D01*
Y-91252D01*
X-75367D01*
Y-91812D01*
X-77071D01*
Y-87200D01*
Y-55872D01*
X-77059Y-55845D01*
X-77049Y-55482D01*
X-77023Y-55180D01*
X-76981Y-54926D01*
X-76926Y-54725D01*
X-76866Y-54576D01*
X-76806Y-54480D01*
X-76757Y-54426D01*
X-76716Y-54399D01*
X-76670Y-54383D01*
X-76543Y-54369D01*
X-76495Y-54343D01*
X-74626D01*
Y-49700D01*
X-74616Y-49683D01*
X-74626Y-49639D01*
Y-49639D01*
X-74609Y-49597D01*
X-74626Y-49556D01*
Y-48724D01*
X-74516Y-48533D01*
X-74316Y-48247D01*
X-73719Y-47543D01*
X-73334Y-47145D01*
X-73324Y-47117D01*
X-70319Y-44112D01*
X-69987Y-43616D01*
X-69871Y-43031D01*
Y-12100D01*
X-69987Y-11515D01*
X-70319Y-11019D01*
X-70815Y-10687D01*
X-71400Y-10571D01*
D02*
G37*
G36*
X-48669Y-46222D02*
X-49725Y-46361D01*
X-50708Y-46768D01*
X-51553Y-47416D01*
X-52201Y-48261D01*
X-52609Y-49244D01*
X-52747Y-50300D01*
X-52609Y-51355D01*
X-52201Y-52339D01*
X-51553Y-53184D01*
X-51543Y-53192D01*
X-51535Y-53210D01*
X-51189Y-53561D01*
X-50612Y-54223D01*
X-50389Y-54520D01*
X-50202Y-54805D01*
X-50054Y-55071D01*
X-49943Y-55316D01*
X-49867Y-55539D01*
X-49825Y-55739D01*
X-49809Y-55958D01*
X-49791Y-55994D01*
Y-65405D01*
X-56288Y-71902D01*
X-56335Y-71921D01*
X-56408Y-71993D01*
X-56533Y-72109D01*
X-56626Y-72186D01*
X-56649Y-72203D01*
X-56660Y-72210D01*
X-56678Y-72219D01*
X-56681Y-72223D01*
X-57079Y-72302D01*
X-57431Y-72537D01*
X-57882Y-72359D01*
X-57931Y-72316D01*
Y-56052D01*
X-57915Y-56022D01*
X-57918Y-56012D01*
X-57913Y-56003D01*
X-57896Y-55774D01*
X-57853Y-55573D01*
X-57776Y-55359D01*
X-57663Y-55130D01*
X-57512Y-54887D01*
X-57321Y-54632D01*
X-57093Y-54371D01*
X-56494Y-53798D01*
X-56134Y-53502D01*
X-56088Y-53416D01*
X-55786Y-53184D01*
X-55137Y-52339D01*
X-54730Y-51355D01*
X-54591Y-50300D01*
X-54730Y-49244D01*
X-55137Y-48261D01*
X-55786Y-47416D01*
X-56630Y-46768D01*
X-57614Y-46361D01*
X-58669Y-46222D01*
X-59725Y-46361D01*
X-60708Y-46768D01*
X-61553Y-47416D01*
X-62201Y-48261D01*
X-62608Y-49244D01*
X-62748Y-50300D01*
X-62608Y-51355D01*
X-62201Y-52339D01*
X-61862Y-52781D01*
X-61832Y-52885D01*
X-61831Y-52886D01*
Y-52886D01*
X-61831Y-52886D01*
X-61504Y-53296D01*
X-61219Y-53676D01*
X-60746Y-54385D01*
X-60570Y-54693D01*
X-60427Y-54980D01*
X-60320Y-55240D01*
X-60248Y-55469D01*
X-60208Y-55666D01*
X-60193Y-55870D01*
X-60175Y-55906D01*
Y-74518D01*
X-60184Y-74533D01*
X-60175Y-74579D01*
X-60194Y-74623D01*
X-60199Y-74818D01*
X-60210Y-74955D01*
X-60216Y-74991D01*
X-60217Y-74994D01*
X-60270Y-75030D01*
X-60598Y-75521D01*
X-60713Y-76100D01*
X-60598Y-76679D01*
X-60270Y-77170D01*
X-59779Y-77498D01*
X-59200Y-77613D01*
X-58621Y-77498D01*
X-58130Y-77170D01*
X-57802Y-76679D01*
X-57687Y-76100D01*
X-57802Y-75521D01*
X-57736Y-75223D01*
X-57206Y-75014D01*
X-57079Y-75098D01*
X-56500Y-75213D01*
X-55921Y-75098D01*
X-55430Y-74770D01*
X-55102Y-74279D01*
X-55023Y-73881D01*
X-55019Y-73878D01*
X-55010Y-73860D01*
X-55003Y-73849D01*
X-54991Y-73833D01*
X-54789Y-73603D01*
X-54721Y-73535D01*
X-54702Y-73488D01*
X-47876Y-66662D01*
X-47876Y-66662D01*
X-47633Y-66299D01*
X-47548Y-65869D01*
X-47548Y-65869D01*
Y-55994D01*
X-47530Y-55958D01*
X-47513Y-55739D01*
X-47471Y-55539D01*
X-47396Y-55316D01*
X-47285Y-55071D01*
X-47136Y-54805D01*
X-46949Y-54520D01*
X-46727Y-54223D01*
X-46149Y-53561D01*
X-45803Y-53210D01*
X-45796Y-53192D01*
X-45785Y-53184D01*
X-45137Y-52339D01*
X-44730Y-51355D01*
X-44591Y-50300D01*
X-44730Y-49244D01*
X-45137Y-48261D01*
X-45785Y-47416D01*
X-46630Y-46768D01*
X-47614Y-46361D01*
X-48669Y-46222D01*
D02*
G37*
G36*
X-110500Y-76087D02*
X-111079Y-76202D01*
X-111417Y-76428D01*
X-111421Y-76427D01*
X-111440Y-76433D01*
X-111453Y-76436D01*
X-111473Y-76439D01*
X-111778Y-76458D01*
X-111875Y-76459D01*
X-111921Y-76478D01*
X-117179D01*
X-117225Y-76459D01*
X-117328Y-76458D01*
X-117498Y-76452D01*
X-117619Y-76441D01*
X-117647Y-76436D01*
X-117660Y-76433D01*
X-117679Y-76427D01*
X-117683Y-76428D01*
X-118021Y-76202D01*
X-118600Y-76087D01*
X-119179Y-76202D01*
X-119670Y-76530D01*
X-119998Y-77021D01*
X-120113Y-77600D01*
X-119998Y-78179D01*
X-119670Y-78670D01*
X-119179Y-78998D01*
X-118600Y-79113D01*
X-118021Y-78998D01*
X-117683Y-78772D01*
X-117679Y-78773D01*
X-117660Y-78767D01*
X-117647Y-78764D01*
X-117627Y-78761D01*
X-117322Y-78742D01*
X-117225Y-78741D01*
X-117179Y-78722D01*
X-111921D01*
X-111875Y-78741D01*
X-111772Y-78742D01*
X-111602Y-78748D01*
X-111481Y-78759D01*
X-111480Y-78760D01*
X-111328Y-78886D01*
X-111284Y-78940D01*
X-111557Y-79395D01*
X-111600Y-79387D01*
X-112179Y-79502D01*
X-112604Y-79786D01*
X-112628Y-79794D01*
X-112645Y-79797D01*
X-112652Y-79802D01*
X-112661Y-79805D01*
X-112671Y-79814D01*
X-112686Y-79820D01*
X-112715Y-79828D01*
X-112757Y-79838D01*
X-112804Y-79845D01*
X-112958Y-79857D01*
X-113048Y-79859D01*
X-113097Y-79880D01*
X-115495D01*
X-115542Y-79859D01*
X-115729Y-79852D01*
X-115789Y-79846D01*
X-115843Y-79838D01*
X-115885Y-79828D01*
X-115914Y-79820D01*
X-115929Y-79814D01*
X-115939Y-79805D01*
X-115948Y-79802D01*
X-115955Y-79797D01*
X-115972Y-79794D01*
X-115996Y-79786D01*
X-116421Y-79502D01*
X-117000Y-79387D01*
X-117579Y-79502D01*
X-118070Y-79830D01*
X-118398Y-80321D01*
X-118513Y-80900D01*
X-118398Y-81479D01*
X-118070Y-81970D01*
X-117579Y-82298D01*
X-117000Y-82413D01*
X-116421Y-82298D01*
X-115996Y-82014D01*
X-115972Y-82006D01*
X-115955Y-82003D01*
X-115948Y-81998D01*
X-115939Y-81995D01*
X-115929Y-81986D01*
X-115914Y-81980D01*
X-115885Y-81972D01*
X-115843Y-81962D01*
X-115796Y-81955D01*
X-115642Y-81943D01*
X-115552Y-81941D01*
X-115503Y-81920D01*
X-113105D01*
X-113058Y-81941D01*
X-112871Y-81948D01*
X-112811Y-81954D01*
X-112757Y-81962D01*
X-112715Y-81972D01*
X-112686Y-81980D01*
X-112671Y-81986D01*
X-112661Y-81995D01*
X-112652Y-81998D01*
X-112645Y-82003D01*
X-112628Y-82006D01*
X-112604Y-82014D01*
X-112179Y-82298D01*
X-111600Y-82413D01*
X-111021Y-82298D01*
X-110530Y-81970D01*
X-110202Y-81479D01*
X-110087Y-80900D01*
X-110202Y-80321D01*
X-110530Y-79830D01*
X-110928Y-79563D01*
X-110996Y-79415D01*
X-110908Y-79112D01*
X-110662Y-79081D01*
X-110886Y-79037D01*
D01*
X-110500Y-79113D01*
X-109921Y-78998D01*
X-109430Y-78670D01*
X-109102Y-78179D01*
X-108987Y-77600D01*
X-109102Y-77021D01*
X-109430Y-76530D01*
X-109921Y-76202D01*
X-110500Y-76087D01*
D02*
G37*
G36*
X-41900Y-43887D02*
X-42479Y-44002D01*
X-42970Y-44330D01*
X-43298Y-44821D01*
X-43413Y-45400D01*
X-43298Y-45979D01*
X-43073Y-46317D01*
X-43073Y-46321D01*
X-43067Y-46340D01*
X-43064Y-46353D01*
X-43061Y-46373D01*
X-43042Y-46678D01*
X-43041Y-46775D01*
X-43022Y-46821D01*
Y-63735D01*
X-56288Y-77002D01*
X-56335Y-77021D01*
X-56408Y-77093D01*
X-56533Y-77209D01*
X-56626Y-77286D01*
X-56649Y-77303D01*
X-56660Y-77310D01*
X-56678Y-77319D01*
X-56681Y-77323D01*
X-57079Y-77402D01*
X-57570Y-77730D01*
X-57898Y-78221D01*
X-58013Y-78800D01*
X-57898Y-79379D01*
X-57570Y-79870D01*
X-57079Y-80198D01*
X-56500Y-80313D01*
X-55921Y-80198D01*
X-55430Y-79870D01*
X-55102Y-79379D01*
X-55023Y-78981D01*
X-55019Y-78978D01*
X-55010Y-78960D01*
X-55003Y-78949D01*
X-54991Y-78933D01*
X-54789Y-78703D01*
X-54721Y-78635D01*
X-54702Y-78588D01*
X-41107Y-64993D01*
X-41107Y-64993D01*
X-40864Y-64629D01*
X-40778Y-64200D01*
X-40778Y-64200D01*
Y-46821D01*
X-40759Y-46775D01*
X-40758Y-46672D01*
X-40752Y-46502D01*
X-40740Y-46381D01*
X-40736Y-46353D01*
X-40733Y-46340D01*
X-40727Y-46321D01*
X-40727Y-46317D01*
X-40502Y-45979D01*
X-40387Y-45400D01*
X-40502Y-44821D01*
X-40830Y-44330D01*
X-41321Y-44002D01*
X-41900Y-43887D01*
D02*
G37*
G36*
X-129873Y-87414D02*
X-130452Y-87529D01*
X-130877Y-87812D01*
X-130901Y-87821D01*
X-130918Y-87824D01*
X-130925Y-87829D01*
X-130934Y-87832D01*
X-130944Y-87841D01*
X-130959Y-87847D01*
X-130988Y-87855D01*
X-131030Y-87865D01*
X-131078Y-87872D01*
X-131231Y-87884D01*
X-131321Y-87886D01*
X-131371Y-87907D01*
X-139222D01*
X-139269Y-87886D01*
X-139456Y-87879D01*
X-139516Y-87873D01*
X-139570Y-87865D01*
X-139612Y-87855D01*
X-139641Y-87847D01*
X-139656Y-87841D01*
X-139666Y-87832D01*
X-139675Y-87829D01*
X-139682Y-87824D01*
X-139699Y-87821D01*
X-139723Y-87812D01*
X-140148Y-87529D01*
X-140727Y-87414D01*
X-141306Y-87529D01*
X-141797Y-87857D01*
X-142125Y-88348D01*
X-142240Y-88927D01*
X-142125Y-89506D01*
X-141797Y-89997D01*
X-141306Y-90325D01*
X-140727Y-90440D01*
X-140148Y-90325D01*
X-139723Y-90041D01*
X-139699Y-90033D01*
X-139682Y-90030D01*
X-139675Y-90025D01*
X-139666Y-90022D01*
X-139656Y-90013D01*
X-139641Y-90007D01*
X-139612Y-89998D01*
X-139570Y-89989D01*
X-139523Y-89982D01*
X-139369Y-89969D01*
X-139279Y-89968D01*
X-139229Y-89946D01*
X-131378D01*
X-131331Y-89968D01*
X-131144Y-89974D01*
X-131084Y-89981D01*
X-131030Y-89989D01*
X-130988Y-89998D01*
X-130959Y-90007D01*
X-130944Y-90013D01*
X-130934Y-90022D01*
X-130925Y-90025D01*
X-130918Y-90030D01*
X-130901Y-90033D01*
X-130877Y-90041D01*
X-130452Y-90325D01*
X-129873Y-90440D01*
X-129294Y-90325D01*
X-128803Y-89997D01*
X-128475Y-89506D01*
X-128360Y-88927D01*
X-128475Y-88348D01*
X-128803Y-87857D01*
X-129294Y-87529D01*
X-129873Y-87414D01*
D02*
G37*
G36*
X-14263Y-89521D02*
X-14919Y-89652D01*
X-15475Y-90023D01*
X-15846Y-90579D01*
X-15977Y-91235D01*
X-15846Y-91891D01*
X-15475Y-92447D01*
X-14919Y-92819D01*
X-14263Y-92949D01*
X-13607Y-92819D01*
X-13051Y-92447D01*
X-12679Y-91891D01*
X-12549Y-91235D01*
X-12679Y-90579D01*
X-13051Y-90023D01*
X-13607Y-89652D01*
X-14263Y-89521D01*
D02*
G37*
G36*
X-89739Y-89377D02*
X-94400D01*
Y-94235D01*
X-93191D01*
Y-95620D01*
X-94245D01*
Y-99910D01*
X-95683D01*
Y-99727D01*
X-99046D01*
Y-103286D01*
X-95683D01*
Y-102153D01*
X-93145D01*
X-93145Y-102153D01*
X-93037Y-102131D01*
X-88717D01*
Y-95620D01*
X-90948D01*
Y-94235D01*
X-89739D01*
Y-89377D01*
D02*
G37*
G36*
X-82418Y-95620D02*
X-87946D01*
Y-102131D01*
X-82418D01*
Y-95620D01*
D02*
G37*
G36*
X-88717Y-104281D02*
X-94245D01*
Y-106415D01*
X-94979D01*
X-95025Y-106396D01*
X-95128Y-106395D01*
X-95298Y-106389D01*
X-95419Y-106377D01*
X-95447Y-106373D01*
X-95460Y-106370D01*
X-95479Y-106364D01*
X-95483Y-106365D01*
X-95821Y-106139D01*
X-96400Y-106024D01*
X-96979Y-106139D01*
X-97470Y-106467D01*
X-97798Y-106958D01*
X-97913Y-107537D01*
X-97798Y-108116D01*
X-97470Y-108607D01*
X-96979Y-108935D01*
X-96400Y-109050D01*
X-95821Y-108935D01*
X-95483Y-108710D01*
X-95479Y-108710D01*
X-95460Y-108704D01*
X-95447Y-108701D01*
X-95427Y-108698D01*
X-95122Y-108679D01*
X-95025Y-108678D01*
X-94979Y-108659D01*
X-94245D01*
Y-110793D01*
X-88717D01*
Y-104281D01*
D02*
G37*
G36*
X-14263Y-105269D02*
X-14919Y-105400D01*
X-15475Y-105772D01*
X-15846Y-106327D01*
X-15977Y-106983D01*
X-15846Y-107639D01*
X-15475Y-108195D01*
X-14919Y-108567D01*
X-14263Y-108697D01*
X-13607Y-108567D01*
X-13051Y-108195D01*
X-12679Y-107639D01*
X-12549Y-106983D01*
X-12679Y-106327D01*
X-13051Y-105772D01*
X-13607Y-105400D01*
X-14263Y-105269D01*
D02*
G37*
G36*
X-139400Y-110261D02*
X-139979Y-110376D01*
X-140470Y-110704D01*
X-140798Y-111195D01*
X-140913Y-111774D01*
X-140798Y-112353D01*
X-140573Y-112691D01*
X-140573Y-112695D01*
X-140567Y-112714D01*
X-140564Y-112727D01*
X-140561Y-112747D01*
X-140542Y-113052D01*
X-140541Y-113149D01*
X-140522Y-113196D01*
Y-117076D01*
X-140541Y-117123D01*
X-140578Y-117156D01*
X-141074Y-116937D01*
X-141078Y-116930D01*
Y-114600D01*
X-141078Y-114600D01*
X-141164Y-114171D01*
X-141407Y-113807D01*
X-141407Y-113807D01*
X-142302Y-112912D01*
X-142321Y-112865D01*
X-142393Y-112792D01*
X-142509Y-112667D01*
X-142587Y-112574D01*
X-142603Y-112551D01*
X-142610Y-112540D01*
X-142619Y-112522D01*
X-142623Y-112519D01*
X-142702Y-112121D01*
X-143030Y-111630D01*
X-143521Y-111302D01*
X-144100Y-111187D01*
X-144679Y-111302D01*
X-145170Y-111630D01*
X-145498Y-112121D01*
X-145613Y-112700D01*
X-145498Y-113279D01*
X-145170Y-113770D01*
X-144679Y-114098D01*
X-144281Y-114177D01*
X-144278Y-114181D01*
X-144260Y-114190D01*
X-144249Y-114197D01*
X-144233Y-114209D01*
X-144003Y-114411D01*
X-143935Y-114479D01*
X-143888Y-114498D01*
X-143322Y-115065D01*
Y-118279D01*
X-143341Y-118325D01*
X-143342Y-118428D01*
X-143348Y-118598D01*
X-143359Y-118719D01*
X-143364Y-118747D01*
X-143367Y-118760D01*
X-143373Y-118779D01*
X-143372Y-118783D01*
X-143598Y-119121D01*
X-143713Y-119700D01*
X-143598Y-120279D01*
X-143270Y-120770D01*
X-142779Y-121098D01*
X-142200Y-121213D01*
X-141621Y-121098D01*
X-141130Y-120770D01*
X-140802Y-120279D01*
X-140744Y-119986D01*
X-140207Y-119744D01*
X-139979Y-119896D01*
X-139400Y-120011D01*
X-138821Y-119896D01*
X-138330Y-119568D01*
X-138002Y-119077D01*
X-137887Y-118498D01*
X-138002Y-117919D01*
X-138227Y-117581D01*
X-138227Y-117577D01*
X-138233Y-117557D01*
X-138236Y-117545D01*
X-138239Y-117525D01*
X-138258Y-117219D01*
X-138259Y-117123D01*
X-138278Y-117076D01*
Y-113196D01*
X-138259Y-113149D01*
X-138258Y-113046D01*
X-138252Y-112876D01*
X-138241Y-112755D01*
X-138236Y-112727D01*
X-138233Y-112714D01*
X-138227Y-112695D01*
X-138227Y-112691D01*
X-138002Y-112353D01*
X-137887Y-111774D01*
X-138002Y-111195D01*
X-138330Y-110704D01*
X-138821Y-110376D01*
X-139400Y-110261D01*
D02*
G37*
G36*
X-125839Y-103469D02*
X-131761D01*
Y-109390D01*
X-130905D01*
X-130857Y-109416D01*
X-130730Y-109429D01*
X-130684Y-109446D01*
X-130643Y-109473D01*
X-130594Y-109526D01*
X-130534Y-109623D01*
X-130474Y-109771D01*
X-130420Y-109973D01*
X-130377Y-110226D01*
X-130351Y-110529D01*
X-130341Y-110892D01*
X-130329Y-110918D01*
Y-127317D01*
X-138759D01*
X-138805Y-127295D01*
X-138993Y-127288D01*
X-139053Y-127282D01*
X-139107Y-127274D01*
X-139149Y-127265D01*
X-139178Y-127256D01*
X-139193Y-127250D01*
X-139203Y-127242D01*
X-139212Y-127238D01*
X-139219Y-127233D01*
X-139236Y-127230D01*
X-139260Y-127222D01*
X-139685Y-126938D01*
X-140264Y-126823D01*
X-140843Y-126938D01*
X-141334Y-127266D01*
X-141662Y-127757D01*
X-141777Y-128336D01*
X-141662Y-128915D01*
X-141334Y-129406D01*
X-140843Y-129734D01*
X-140264Y-129850D01*
X-139685Y-129734D01*
X-139260Y-129451D01*
X-139236Y-129442D01*
X-139219Y-129439D01*
X-139212Y-129434D01*
X-139203Y-129431D01*
X-139193Y-129422D01*
X-139178Y-129416D01*
X-139149Y-129408D01*
X-139107Y-129399D01*
X-139059Y-129391D01*
X-138906Y-129379D01*
X-138816Y-129377D01*
X-138766Y-129356D01*
X-130329D01*
Y-145300D01*
X-130213Y-145885D01*
X-129881Y-146381D01*
X-129385Y-146713D01*
X-128800Y-146829D01*
X-128215Y-146713D01*
X-127719Y-146381D01*
X-127387Y-145885D01*
X-127271Y-145300D01*
Y-128091D01*
Y-110918D01*
X-127259Y-110892D01*
X-127249Y-110529D01*
X-127223Y-110226D01*
X-127181Y-109973D01*
X-127126Y-109771D01*
X-127066Y-109623D01*
X-127006Y-109526D01*
X-126957Y-109473D01*
X-126916Y-109446D01*
X-126870Y-109429D01*
X-126743Y-109416D01*
X-126695Y-109390D01*
X-125839D01*
Y-103469D01*
D02*
G37*
G36*
X-73810Y-122520D02*
X-77172D01*
Y-126079D01*
X-76378D01*
X-76032Y-126393D01*
X-75946Y-126822D01*
X-75703Y-127186D01*
X-75502Y-127387D01*
X-75524Y-127500D01*
X-75409Y-128079D01*
X-75081Y-128570D01*
X-74590Y-128898D01*
X-74011Y-129013D01*
X-73432Y-128898D01*
X-72941Y-128570D01*
X-72613Y-128079D01*
X-72498Y-127500D01*
X-72613Y-126921D01*
X-72941Y-126430D01*
X-73432Y-126102D01*
X-73661Y-126056D01*
X-73789Y-125928D01*
Y-124881D01*
X-73789Y-124881D01*
X-73810Y-124773D01*
Y-122520D01*
D02*
G37*
G36*
X-17803Y-141494D02*
X-18961Y-141647D01*
X-20041Y-142094D01*
X-20968Y-142805D01*
X-21679Y-143732D01*
X-22126Y-144811D01*
X-22278Y-145969D01*
X-22126Y-147128D01*
X-21679Y-148207D01*
X-20968Y-149134D01*
X-20041Y-149845D01*
X-18961Y-150292D01*
X-17803Y-150445D01*
X-16645Y-150292D01*
X-15565Y-149845D01*
X-14639Y-149134D01*
X-13927Y-148207D01*
X-13480Y-147128D01*
X-13328Y-145969D01*
X-13480Y-144811D01*
X-13927Y-143732D01*
X-14639Y-142805D01*
X-15565Y-142094D01*
X-16645Y-141647D01*
X-17803Y-141494D01*
D02*
G37*
G36*
X-109535D02*
X-110694Y-141647D01*
X-111773Y-142094D01*
X-112700Y-142805D01*
X-113411Y-143732D01*
X-113858Y-144811D01*
X-114011Y-145969D01*
X-113858Y-147128D01*
X-113411Y-148207D01*
X-112700Y-149134D01*
X-111773Y-149845D01*
X-110694Y-150292D01*
X-109535Y-150445D01*
X-108377Y-150292D01*
X-107298Y-149845D01*
X-106371Y-149134D01*
X-105660Y-148207D01*
X-105213Y-147128D01*
X-105060Y-145969D01*
X-105213Y-144811D01*
X-105660Y-143732D01*
X-106371Y-142805D01*
X-107298Y-142094D01*
X-108377Y-141647D01*
X-109535Y-141494D01*
D02*
G37*
G36*
X-87566Y-195687D02*
X-88145Y-195802D01*
X-88636Y-196130D01*
X-88964Y-196621D01*
X-89079Y-197200D01*
X-88964Y-197779D01*
X-88636Y-198270D01*
X-88145Y-198598D01*
X-87566Y-198713D01*
X-86987Y-198598D01*
X-86496Y-198270D01*
X-86480Y-198246D01*
X-77859D01*
X-77825Y-198297D01*
X-77334Y-198625D01*
X-76755Y-198740D01*
X-76176Y-198625D01*
X-75685Y-198297D01*
X-75357Y-197806D01*
X-75242Y-197227D01*
X-75357Y-196648D01*
X-75685Y-196157D01*
X-76176Y-195829D01*
X-76755Y-195713D01*
X-77334Y-195829D01*
X-77825Y-196157D01*
X-77859Y-196207D01*
X-86444D01*
X-86496Y-196130D01*
X-86987Y-195802D01*
X-87566Y-195687D01*
D02*
G37*
G36*
X-12676Y-180553D02*
X-13255Y-180668D01*
X-13746Y-180997D01*
X-14074Y-181488D01*
X-14189Y-182067D01*
X-14074Y-182646D01*
X-13848Y-182983D01*
X-13848Y-182988D01*
X-13842Y-183007D01*
X-13839Y-183019D01*
X-13836Y-183039D01*
X-13817Y-183345D01*
X-13817Y-183442D01*
X-13797Y-183488D01*
Y-193924D01*
X-13797Y-193924D01*
X-13712Y-194354D01*
X-13469Y-194718D01*
X-12522Y-195665D01*
Y-209496D01*
X-12522Y-209496D01*
X-12436Y-209925D01*
X-12193Y-210289D01*
X-11515Y-210967D01*
Y-211113D01*
X-11515Y-211113D01*
X-11494Y-211221D01*
Y-212379D01*
X-12579D01*
X-12625Y-212359D01*
X-12728Y-212358D01*
X-12898Y-212352D01*
X-13019Y-212340D01*
X-13047Y-212336D01*
X-13060Y-212333D01*
X-13079Y-212327D01*
X-13083Y-212328D01*
X-13421Y-212102D01*
X-14000Y-211987D01*
X-14579Y-212102D01*
X-15070Y-212430D01*
X-15398Y-212921D01*
X-15513Y-213500D01*
X-15398Y-214079D01*
X-15070Y-214570D01*
X-14579Y-214898D01*
X-14000Y-215013D01*
X-13421Y-214898D01*
X-13083Y-214672D01*
X-13079Y-214673D01*
X-13060Y-214667D01*
X-13047Y-214664D01*
X-13027Y-214661D01*
X-12722Y-214642D01*
X-12625Y-214641D01*
X-12579Y-214621D01*
X-11494D01*
Y-215580D01*
X-4706D01*
Y-210013D01*
X-9398D01*
X-9601Y-209709D01*
X-9601Y-209709D01*
X-10278Y-209032D01*
Y-202074D01*
X-9778Y-201858D01*
X-9186Y-202254D01*
X-8300Y-202430D01*
X-7414Y-202254D01*
X-6662Y-201752D01*
X-6160Y-201000D01*
X-5984Y-200114D01*
X-6160Y-199228D01*
X-6662Y-198476D01*
X-7414Y-197974D01*
X-8300Y-197798D01*
X-9186Y-197974D01*
X-9778Y-198370D01*
X-10278Y-198155D01*
Y-195200D01*
X-10278Y-195200D01*
X-10364Y-194771D01*
X-10607Y-194407D01*
X-10607Y-194407D01*
X-11554Y-193460D01*
Y-183488D01*
X-11534Y-183442D01*
X-11534Y-183338D01*
X-11527Y-183168D01*
X-11516Y-183048D01*
X-11512Y-183019D01*
X-11509Y-183007D01*
X-11503Y-182988D01*
X-11503Y-182983D01*
X-11277Y-182646D01*
X-11162Y-182067D01*
X-11277Y-181488D01*
X-11605Y-180997D01*
X-12096Y-180668D01*
X-12676Y-180553D01*
D02*
G37*
G36*
X-107100Y-201587D02*
X-107679Y-201702D01*
X-108170Y-202030D01*
X-108204Y-202080D01*
X-119158D01*
X-119549Y-202158D01*
X-119879Y-202379D01*
X-127720Y-210219D01*
X-127779Y-210207D01*
X-128358Y-210323D01*
X-128849Y-210651D01*
X-129177Y-211142D01*
X-129293Y-211721D01*
X-129177Y-212300D01*
X-128849Y-212791D01*
X-128358Y-213119D01*
X-127779Y-213234D01*
X-127200Y-213119D01*
X-126709Y-212791D01*
X-126381Y-212300D01*
X-126266Y-211721D01*
X-126278Y-211661D01*
X-118736Y-204120D01*
X-108204D01*
X-108170Y-204170D01*
X-107679Y-204498D01*
X-107100Y-204613D01*
X-106521Y-204498D01*
X-106030Y-204170D01*
X-105702Y-203679D01*
X-105587Y-203100D01*
X-105702Y-202521D01*
X-106030Y-202030D01*
X-106521Y-201702D01*
X-107100Y-201587D01*
D02*
G37*
G36*
X-103200Y-210687D02*
X-103779Y-210802D01*
X-104270Y-211130D01*
X-104598Y-211621D01*
X-104713Y-212200D01*
X-104598Y-212779D01*
X-104270Y-213270D01*
X-103779Y-213598D01*
X-103200Y-213713D01*
X-102621Y-213598D01*
X-102130Y-213270D01*
X-102096Y-213220D01*
X-98242D01*
X-95420Y-216042D01*
Y-221044D01*
X-95470Y-221078D01*
X-95798Y-221569D01*
X-95913Y-222148D01*
X-95798Y-222727D01*
X-95470Y-223218D01*
X-94979Y-223546D01*
X-94400Y-223661D01*
X-93821Y-223546D01*
X-93330Y-223218D01*
X-93002Y-222727D01*
X-92887Y-222148D01*
X-93002Y-221569D01*
X-93330Y-221078D01*
X-93380Y-221044D01*
Y-215619D01*
X-93458Y-215229D01*
X-93679Y-214898D01*
X-97098Y-211479D01*
X-97429Y-211258D01*
X-97819Y-211180D01*
X-102096D01*
X-102130Y-211130D01*
X-102621Y-210802D01*
X-103200Y-210687D01*
D02*
G37*
G36*
X-8300Y-224570D02*
X-9186Y-224746D01*
X-9938Y-225248D01*
X-10440Y-225999D01*
X-10616Y-226886D01*
X-10440Y-227772D01*
X-9938Y-228524D01*
X-9186Y-229026D01*
X-8300Y-229202D01*
X-7414Y-229026D01*
X-6662Y-228524D01*
X-6160Y-227772D01*
X-5984Y-226886D01*
X-6160Y-225999D01*
X-6662Y-225248D01*
X-7414Y-224746D01*
X-8300Y-224570D01*
D02*
G37*
G36*
X-14358Y-243155D02*
X-15014Y-243286D01*
X-15570Y-243657D01*
X-15942Y-244213D01*
X-16072Y-244869D01*
X-15942Y-245525D01*
X-15570Y-246081D01*
X-15014Y-246453D01*
X-14358Y-246583D01*
X-13702Y-246453D01*
X-13146Y-246081D01*
X-12775Y-245525D01*
X-12644Y-244869D01*
X-12775Y-244213D01*
X-13146Y-243657D01*
X-13702Y-243286D01*
X-14358Y-243155D01*
D02*
G37*
G36*
Y-258903D02*
X-15014Y-259034D01*
X-15570Y-259405D01*
X-15942Y-259961D01*
X-16072Y-260617D01*
X-15942Y-261273D01*
X-15570Y-261829D01*
X-15014Y-262201D01*
X-14358Y-262331D01*
X-13702Y-262201D01*
X-13146Y-261829D01*
X-12775Y-261273D01*
X-12644Y-260617D01*
X-12775Y-259961D01*
X-13146Y-259405D01*
X-13702Y-259034D01*
X-14358Y-258903D01*
D02*
G37*
G36*
X-88583Y-278989D02*
X-89741Y-279142D01*
X-90820Y-279589D01*
X-91747Y-280300D01*
X-92458Y-281227D01*
X-92905Y-282306D01*
X-93058Y-283465D01*
X-92905Y-284623D01*
X-92458Y-285702D01*
X-91747Y-286629D01*
X-90820Y-287340D01*
X-89741Y-287787D01*
X-88583Y-287940D01*
X-87424Y-287787D01*
X-86345Y-287340D01*
X-85418Y-286629D01*
X-84707Y-285702D01*
X-84260Y-284623D01*
X-84107Y-283465D01*
X-84260Y-282306D01*
X-84707Y-281227D01*
X-85418Y-280300D01*
X-86345Y-279589D01*
X-87424Y-279142D01*
X-88583Y-278989D01*
D02*
G37*
%LPD*%
G36*
X-62916Y-31913D02*
X-62915Y-32024D01*
X-62894Y-32370D01*
X-62884Y-32432D01*
X-62873Y-32484D01*
X-62859Y-32526D01*
X-62844Y-32558D01*
X-62827Y-32581D01*
X-64205Y-32581D01*
X-64188Y-32558D01*
X-64173Y-32526D01*
X-64160Y-32484D01*
X-64148Y-32432D01*
X-64139Y-32370D01*
X-64124Y-32217D01*
X-64117Y-32024D01*
X-64116Y-31913D01*
X-62916Y-31913D01*
D02*
G37*
G36*
X-94100Y-31929D02*
X-94099Y-32041D01*
X-94078Y-32387D01*
X-94068Y-32449D01*
X-94056Y-32500D01*
X-94043Y-32543D01*
X-94028Y-32575D01*
X-94011Y-32597D01*
X-95389Y-32597D01*
X-95372Y-32575D01*
X-95357Y-32542D01*
X-95344Y-32500D01*
X-95332Y-32448D01*
X-95322Y-32386D01*
X-95308Y-32233D01*
X-95301Y-32040D01*
X-95300Y-31929D01*
X-94100Y-31929D01*
D02*
G37*
G36*
X-78516Y-31946D02*
X-78515Y-32057D01*
X-78494Y-32403D01*
X-78484Y-32465D01*
X-78473Y-32517D01*
X-78460Y-32559D01*
X-78444Y-32591D01*
X-78427Y-32614D01*
X-79805Y-32614D01*
X-79789Y-32591D01*
X-79773Y-32559D01*
X-79760Y-32517D01*
X-79748Y-32465D01*
X-79739Y-32403D01*
X-79724Y-32250D01*
X-79717Y-32057D01*
X-79716Y-31946D01*
X-78516Y-31946D01*
D02*
G37*
G36*
X-73724Y-46769D02*
X-74121Y-47180D01*
X-74746Y-47917D01*
X-74973Y-48242D01*
X-75144Y-48540D01*
X-75258Y-48808D01*
X-75316Y-49048D01*
X-75317Y-49260D01*
X-75262Y-49443D01*
X-75150Y-49597D01*
X-77966Y-46781D01*
X-77812Y-46893D01*
X-77629Y-46948D01*
X-77417Y-46947D01*
X-77177Y-46889D01*
X-76909Y-46775D01*
X-76612Y-46604D01*
X-76286Y-46376D01*
X-75932Y-46092D01*
X-75138Y-45355D01*
X-73724Y-46769D01*
D02*
G37*
G36*
X-76790Y-53851D02*
X-76960Y-53911D01*
X-77110Y-54011D01*
X-77240Y-54151D01*
X-77350Y-54331D01*
X-77440Y-54551D01*
X-77510Y-54811D01*
X-77560Y-55111D01*
X-77590Y-55451D01*
X-77600Y-55831D01*
X-79600D01*
X-79610Y-55451D01*
X-79640Y-55111D01*
X-79690Y-54811D01*
X-79760Y-54551D01*
X-79850Y-54331D01*
X-79960Y-54151D01*
X-80090Y-54011D01*
X-80240Y-53911D01*
X-80410Y-53851D01*
X-80600Y-53831D01*
X-76600D01*
X-76790Y-53851D01*
D02*
G37*
G36*
X-90012Y-69638D02*
X-90000Y-69671D01*
X-89979Y-69710D01*
X-89951Y-69755D01*
X-89914Y-69806D01*
X-89816Y-69924D01*
X-89684Y-70066D01*
X-89606Y-70145D01*
X-90455Y-70994D01*
X-90534Y-70916D01*
X-90794Y-70686D01*
X-90845Y-70649D01*
X-90890Y-70621D01*
X-90929Y-70600D01*
X-90962Y-70588D01*
X-90990Y-70584D01*
X-90016Y-69610D01*
X-90012Y-69638D01*
D02*
G37*
G36*
X-93806Y-69938D02*
X-93794Y-69971D01*
X-93774Y-70010D01*
X-93745Y-70055D01*
X-93709Y-70106D01*
X-93610Y-70224D01*
X-93479Y-70366D01*
X-93401Y-70445D01*
X-94249Y-71294D01*
X-94329Y-71215D01*
X-94589Y-70986D01*
X-94639Y-70949D01*
X-94684Y-70920D01*
X-94723Y-70900D01*
X-94757Y-70888D01*
X-94785Y-70884D01*
X-93810Y-69910D01*
X-93806Y-69938D01*
D02*
G37*
G36*
X-81866Y-77885D02*
X-81606Y-78114D01*
X-81555Y-78151D01*
X-81510Y-78180D01*
X-81471Y-78200D01*
X-81438Y-78212D01*
X-81410Y-78216D01*
X-82384Y-79190D01*
X-82388Y-79162D01*
X-82400Y-79129D01*
X-82420Y-79090D01*
X-82449Y-79045D01*
X-82486Y-78994D01*
X-82584Y-78876D01*
X-82715Y-78734D01*
X-82794Y-78655D01*
X-81945Y-77806D01*
X-81866Y-77885D01*
D02*
G37*
G36*
X-84066Y-79779D02*
X-83806Y-80009D01*
X-83755Y-80045D01*
X-83710Y-80074D01*
X-83671Y-80094D01*
X-83638Y-80106D01*
X-83610Y-80110D01*
X-84584Y-81085D01*
X-84588Y-81057D01*
X-84600Y-81023D01*
X-84620Y-80984D01*
X-84649Y-80939D01*
X-84686Y-80888D01*
X-84784Y-80770D01*
X-84916Y-80629D01*
X-84994Y-80550D01*
X-84145Y-79701D01*
X-84066Y-79779D01*
D02*
G37*
G36*
X-66655Y-94219D02*
X-66678Y-94195D01*
X-66711Y-94174D01*
X-66753Y-94156D01*
X-66805Y-94140D01*
X-66866Y-94126D01*
X-66938Y-94115D01*
X-67110Y-94100D01*
X-67322Y-94095D01*
X-67089Y-92896D01*
X-66977Y-92895D01*
X-66465Y-92864D01*
X-66449Y-92856D01*
X-66655Y-94219D01*
D02*
G37*
G36*
X-103063Y-116509D02*
X-103035Y-116518D01*
X-102996Y-116526D01*
X-102946Y-116533D01*
X-102816Y-116543D01*
X-102431Y-116551D01*
X-102254Y-117751D01*
X-102365Y-117752D01*
X-102638Y-117770D01*
X-102710Y-117780D01*
X-102772Y-117793D01*
X-102824Y-117808D01*
X-102867Y-117826D01*
X-102899Y-117846D01*
X-102922Y-117868D01*
X-103081Y-116499D01*
X-103063Y-116509D01*
D02*
G37*
G36*
X-68718Y-126603D02*
X-68796Y-126682D01*
X-68976Y-126888D01*
X-69018Y-126947D01*
X-69052Y-127000D01*
X-69078Y-127048D01*
X-69095Y-127091D01*
X-69103Y-127129D01*
X-69102Y-127161D01*
X-70211Y-126343D01*
X-70195Y-126338D01*
X-70171Y-126323D01*
X-70141Y-126301D01*
X-70059Y-126233D01*
X-69884Y-126069D01*
X-69732Y-125919D01*
X-68718Y-126603D01*
D02*
G37*
G36*
X-46546Y-53193D02*
X-47148Y-53882D01*
X-47392Y-54209D01*
X-47599Y-54524D01*
X-47768Y-54827D01*
X-47900Y-55117D01*
X-47994Y-55396D01*
X-48050Y-55663D01*
X-48069Y-55918D01*
X-49269D01*
X-49288Y-55663D01*
X-49345Y-55396D01*
X-49439Y-55117D01*
X-49570Y-54827D01*
X-49739Y-54524D01*
X-49946Y-54209D01*
X-50191Y-53882D01*
X-50792Y-53193D01*
X-51150Y-52830D01*
X-46189D01*
X-46546Y-53193D01*
D02*
G37*
G36*
X-56477Y-53084D02*
X-56853Y-53393D01*
X-57485Y-53996D01*
X-57742Y-54291D01*
X-57959Y-54581D01*
X-58137Y-54867D01*
X-58275Y-55148D01*
X-58374Y-55424D01*
X-58433Y-55696D01*
X-58453Y-55963D01*
X-59653Y-55830D01*
X-59671Y-55592D01*
X-59723Y-55333D01*
X-59811Y-55055D01*
X-59934Y-54757D01*
X-60092Y-54438D01*
X-60285Y-54100D01*
X-60777Y-53364D01*
X-61075Y-52965D01*
X-61409Y-52547D01*
X-56477Y-53084D01*
D02*
G37*
G36*
X-55106Y-73155D02*
X-55185Y-73234D01*
X-55414Y-73494D01*
X-55451Y-73545D01*
X-55480Y-73590D01*
X-55500Y-73629D01*
X-55512Y-73662D01*
X-55516Y-73690D01*
X-56490Y-72716D01*
X-56462Y-72712D01*
X-56429Y-72700D01*
X-56390Y-72680D01*
X-56345Y-72651D01*
X-56294Y-72614D01*
X-56176Y-72516D01*
X-56034Y-72385D01*
X-55955Y-72306D01*
X-55106Y-73155D01*
D02*
G37*
G36*
X-58453Y-74869D02*
X-58453Y-74981D01*
X-58421Y-75492D01*
X-58414Y-75508D01*
X-59776Y-75302D01*
X-59753Y-75279D01*
X-59732Y-75247D01*
X-59713Y-75205D01*
X-59697Y-75153D01*
X-59684Y-75091D01*
X-59673Y-75019D01*
X-59658Y-74847D01*
X-59653Y-74636D01*
X-58453Y-74869D01*
D02*
G37*
G36*
X-111203Y-78289D02*
X-111225Y-78272D01*
X-111258Y-78257D01*
X-111300Y-78244D01*
X-111352Y-78232D01*
X-111414Y-78222D01*
X-111567Y-78208D01*
X-111760Y-78201D01*
X-111871Y-78200D01*
Y-77000D01*
X-111760Y-76999D01*
X-111414Y-76978D01*
X-111352Y-76968D01*
X-111300Y-76956D01*
X-111258Y-76943D01*
X-111225Y-76928D01*
X-111203Y-76911D01*
Y-78289D01*
D02*
G37*
G36*
X-117875Y-76928D02*
X-117842Y-76943D01*
X-117800Y-76956D01*
X-117748Y-76968D01*
X-117686Y-76978D01*
X-117533Y-76992D01*
X-117340Y-76999D01*
X-117229Y-77000D01*
Y-78200D01*
X-117340Y-78201D01*
X-117686Y-78222D01*
X-117748Y-78232D01*
X-117800Y-78244D01*
X-117842Y-78257D01*
X-117875Y-78272D01*
X-117897Y-78289D01*
Y-76911D01*
X-117875Y-76928D01*
D02*
G37*
G36*
X-112303Y-81589D02*
X-112344Y-81553D01*
X-112392Y-81521D01*
X-112447Y-81493D01*
X-112510Y-81468D01*
X-112579Y-81447D01*
X-112657Y-81430D01*
X-112741Y-81417D01*
X-112833Y-81408D01*
X-113038Y-81400D01*
Y-80400D01*
X-112932Y-80398D01*
X-112741Y-80383D01*
X-112657Y-80370D01*
X-112579Y-80353D01*
X-112510Y-80332D01*
X-112447Y-80307D01*
X-112392Y-80279D01*
X-112344Y-80247D01*
X-112303Y-80211D01*
Y-81589D01*
D02*
G37*
G36*
X-116256Y-80247D02*
X-116208Y-80279D01*
X-116153Y-80307D01*
X-116091Y-80332D01*
X-116021Y-80353D01*
X-115943Y-80370D01*
X-115859Y-80383D01*
X-115767Y-80392D01*
X-115562Y-80400D01*
Y-81400D01*
X-115668Y-81402D01*
X-115859Y-81417D01*
X-115943Y-81430D01*
X-116021Y-81447D01*
X-116091Y-81468D01*
X-116153Y-81493D01*
X-116208Y-81521D01*
X-116256Y-81553D01*
X-116297Y-81589D01*
Y-80211D01*
X-116256Y-80247D01*
D02*
G37*
G36*
X-41228Y-46125D02*
X-41243Y-46158D01*
X-41256Y-46200D01*
X-41268Y-46252D01*
X-41278Y-46314D01*
X-41292Y-46467D01*
X-41299Y-46660D01*
X-41300Y-46771D01*
X-42500D01*
X-42501Y-46660D01*
X-42522Y-46314D01*
X-42532Y-46252D01*
X-42544Y-46200D01*
X-42557Y-46158D01*
X-42572Y-46125D01*
X-42589Y-46103D01*
X-41211D01*
X-41228Y-46125D01*
D02*
G37*
G36*
X-55106Y-78255D02*
X-55185Y-78334D01*
X-55414Y-78594D01*
X-55451Y-78645D01*
X-55480Y-78690D01*
X-55500Y-78729D01*
X-55512Y-78762D01*
X-55516Y-78790D01*
X-56490Y-77816D01*
X-56462Y-77812D01*
X-56429Y-77800D01*
X-56390Y-77780D01*
X-56345Y-77751D01*
X-56294Y-77714D01*
X-56176Y-77616D01*
X-56034Y-77485D01*
X-55955Y-77406D01*
X-55106Y-78255D01*
D02*
G37*
G36*
X-130576Y-89616D02*
X-130617Y-89580D01*
X-130665Y-89548D01*
X-130720Y-89519D01*
X-130783Y-89495D01*
X-130853Y-89474D01*
X-130930Y-89457D01*
X-131014Y-89444D01*
X-131106Y-89434D01*
X-131312Y-89427D01*
Y-88427D01*
X-131205Y-88425D01*
X-131014Y-88410D01*
X-130930Y-88397D01*
X-130853Y-88380D01*
X-130783Y-88359D01*
X-130720Y-88334D01*
X-130665Y-88306D01*
X-130617Y-88274D01*
X-130576Y-88238D01*
Y-89616D01*
D02*
G37*
G36*
X-139983Y-88274D02*
X-139935Y-88306D01*
X-139880Y-88334D01*
X-139817Y-88359D01*
X-139747Y-88380D01*
X-139670Y-88397D01*
X-139586Y-88410D01*
X-139494Y-88419D01*
X-139288Y-88427D01*
Y-89427D01*
X-139395Y-89429D01*
X-139586Y-89444D01*
X-139670Y-89457D01*
X-139747Y-89474D01*
X-139817Y-89495D01*
X-139880Y-89519D01*
X-139935Y-89548D01*
X-139983Y-89580D01*
X-140024Y-89616D01*
Y-88238D01*
X-139983Y-88274D01*
D02*
G37*
G36*
X-95675Y-106865D02*
X-95643Y-106880D01*
X-95600Y-106893D01*
X-95548Y-106905D01*
X-95486Y-106915D01*
X-95333Y-106929D01*
X-95140Y-106936D01*
X-95029Y-106937D01*
Y-108137D01*
X-95140Y-108138D01*
X-95486Y-108159D01*
X-95548Y-108169D01*
X-95600Y-108181D01*
X-95643Y-108194D01*
X-95675Y-108209D01*
X-95697Y-108226D01*
Y-106848D01*
X-95675Y-106865D01*
D02*
G37*
G36*
X-138728Y-112499D02*
X-138743Y-112531D01*
X-138756Y-112574D01*
X-138768Y-112626D01*
X-138778Y-112688D01*
X-138792Y-112841D01*
X-138799Y-113034D01*
X-138800Y-113145D01*
X-140000D01*
X-140001Y-113034D01*
X-140022Y-112688D01*
X-140032Y-112626D01*
X-140044Y-112574D01*
X-140057Y-112531D01*
X-140072Y-112499D01*
X-140089Y-112477D01*
X-138711D01*
X-138728Y-112499D01*
D02*
G37*
G36*
X-143112Y-112738D02*
X-143100Y-112771D01*
X-143079Y-112810D01*
X-143051Y-112855D01*
X-143014Y-112906D01*
X-142916Y-113024D01*
X-142784Y-113166D01*
X-142706Y-113245D01*
X-143555Y-114094D01*
X-143634Y-114016D01*
X-143894Y-113786D01*
X-143945Y-113749D01*
X-143990Y-113721D01*
X-144029Y-113700D01*
X-144062Y-113688D01*
X-144090Y-113684D01*
X-143116Y-112710D01*
X-143112Y-112738D01*
D02*
G37*
G36*
X-138799Y-117238D02*
X-138778Y-117584D01*
X-138768Y-117646D01*
X-138756Y-117698D01*
X-138743Y-117740D01*
X-138728Y-117772D01*
X-138711Y-117795D01*
X-140089D01*
X-140072Y-117772D01*
X-140057Y-117740D01*
X-140044Y-117698D01*
X-140032Y-117646D01*
X-140022Y-117584D01*
X-140008Y-117431D01*
X-140001Y-117238D01*
X-140000Y-117127D01*
X-138800D01*
X-138799Y-117238D01*
D02*
G37*
G36*
X-141599Y-118440D02*
X-141578Y-118787D01*
X-141568Y-118848D01*
X-141556Y-118900D01*
X-141543Y-118942D01*
X-141528Y-118975D01*
X-141511Y-118997D01*
X-142889D01*
X-142872Y-118975D01*
X-142857Y-118942D01*
X-142844Y-118900D01*
X-142832Y-118848D01*
X-142822Y-118787D01*
X-142808Y-118633D01*
X-142801Y-118440D01*
X-142800Y-118329D01*
X-141600D01*
X-141599Y-118440D01*
D02*
G37*
G36*
X-126990Y-108898D02*
X-127160Y-108958D01*
X-127310Y-109058D01*
X-127440Y-109198D01*
X-127550Y-109378D01*
X-127640Y-109598D01*
X-127710Y-109858D01*
X-127760Y-110158D01*
X-127790Y-110498D01*
X-127800Y-110878D01*
X-129800D01*
X-129810Y-110498D01*
X-129840Y-110158D01*
X-129890Y-109858D01*
X-129960Y-109598D01*
X-130050Y-109378D01*
X-130160Y-109198D01*
X-130290Y-109058D01*
X-130440Y-108958D01*
X-130610Y-108898D01*
X-130800Y-108878D01*
X-126800D01*
X-126990Y-108898D01*
D02*
G37*
G36*
X-139520Y-127683D02*
X-139472Y-127715D01*
X-139417Y-127744D01*
X-139354Y-127768D01*
X-139284Y-127789D01*
X-139207Y-127806D01*
X-139123Y-127819D01*
X-139031Y-127829D01*
X-138825Y-127836D01*
Y-128836D01*
X-138932Y-128838D01*
X-139123Y-128853D01*
X-139207Y-128867D01*
X-139284Y-128884D01*
X-139354Y-128904D01*
X-139417Y-128929D01*
X-139472Y-128957D01*
X-139520Y-128989D01*
X-139561Y-129025D01*
Y-127647D01*
X-139520Y-127683D01*
D02*
G37*
G36*
X-12004Y-182792D02*
X-12019Y-182824D01*
X-12032Y-182866D01*
X-12044Y-182918D01*
X-12053Y-182980D01*
X-12068Y-183133D01*
X-12075Y-183326D01*
X-12076Y-183437D01*
X-13276D01*
X-13276Y-183326D01*
X-13298Y-182980D01*
X-13308Y-182918D01*
X-13319Y-182866D01*
X-13332Y-182824D01*
X-13348Y-182792D01*
X-13365Y-182770D01*
X-11987D01*
X-12004Y-182792D01*
D02*
G37*
G36*
X-13275Y-212828D02*
X-13242Y-212843D01*
X-13200Y-212856D01*
X-13148Y-212868D01*
X-13086Y-212878D01*
X-12933Y-212892D01*
X-12740Y-212899D01*
X-12629Y-212900D01*
Y-214100D01*
X-12740Y-214101D01*
X-13086Y-214122D01*
X-13148Y-214132D01*
X-13200Y-214144D01*
X-13242Y-214157D01*
X-13275Y-214172D01*
X-13297Y-214189D01*
Y-212811D01*
X-13275Y-212828D01*
D02*
G37*
%LPC*%
G36*
X-358268Y-7336D02*
X-359426Y-7488D01*
X-360505Y-7935D01*
X-361432Y-8647D01*
X-362143Y-9573D01*
X-362591Y-10653D01*
X-362743Y-11811D01*
X-362591Y-12969D01*
X-362143Y-14049D01*
X-361432Y-14976D01*
X-360505Y-15687D01*
X-359426Y-16134D01*
X-358268Y-16286D01*
X-357109Y-16134D01*
X-356030Y-15687D01*
X-355103Y-14976D01*
X-354392Y-14049D01*
X-353945Y-12969D01*
X-353792Y-11811D01*
X-353945Y-10653D01*
X-354392Y-9573D01*
X-355103Y-8647D01*
X-356030Y-7935D01*
X-357109Y-7488D01*
X-358268Y-7336D01*
D02*
G37*
G36*
X-201839Y-79865D02*
X-207761D01*
Y-81618D01*
X-207783Y-81655D01*
X-207773Y-81698D01*
X-207790Y-81739D01*
X-207761Y-81810D01*
Y-82870D01*
X-207919Y-83147D01*
X-208173Y-83513D01*
X-208923Y-84399D01*
X-209406Y-84899D01*
X-209412Y-84915D01*
X-217925Y-93427D01*
X-218311Y-94006D01*
X-218447Y-94689D01*
Y-103923D01*
X-218454Y-103938D01*
X-218466Y-104397D01*
X-218498Y-104786D01*
X-218551Y-105116D01*
X-218621Y-105384D01*
X-218701Y-105589D01*
X-218784Y-105731D01*
X-218862Y-105819D01*
X-218932Y-105868D01*
X-219009Y-105896D01*
X-219171Y-105913D01*
X-219218Y-105939D01*
X-219624D01*
Y-106381D01*
X-219653Y-106451D01*
X-219641Y-106480D01*
X-219650Y-106510D01*
X-219624Y-106558D01*
Y-111242D01*
X-219650Y-111290D01*
X-219641Y-111320D01*
X-219653Y-111349D01*
X-219624Y-111419D01*
Y-111861D01*
X-219218D01*
X-219171Y-111887D01*
X-219009Y-111904D01*
X-218932Y-111933D01*
X-218862Y-111981D01*
X-218784Y-112068D01*
X-218701Y-112211D01*
X-218621Y-112416D01*
X-218551Y-112684D01*
X-218498Y-113014D01*
X-218466Y-113403D01*
X-218454Y-113862D01*
X-218447Y-113877D01*
Y-123211D01*
X-218311Y-123894D01*
X-217925Y-124473D01*
X-209818Y-132579D01*
X-209813Y-132594D01*
X-208905Y-133571D01*
X-208574Y-133984D01*
X-208313Y-134357D01*
X-208161Y-134623D01*
Y-135719D01*
X-208178Y-135761D01*
X-208161Y-135802D01*
X-208171Y-135846D01*
X-208161Y-135863D01*
Y-137635D01*
X-202239D01*
Y-131713D01*
X-204011D01*
X-204028Y-131703D01*
X-204072Y-131713D01*
X-204113Y-131696D01*
X-204155Y-131713D01*
X-205251D01*
X-205517Y-131561D01*
X-205884Y-131305D01*
X-206771Y-130552D01*
X-207273Y-130068D01*
X-207289Y-130062D01*
X-214879Y-122472D01*
Y-113877D01*
X-214872Y-113862D01*
X-214860Y-113403D01*
X-214827Y-113014D01*
X-214775Y-112684D01*
X-214705Y-112416D01*
X-214625Y-112211D01*
X-214542Y-112069D01*
X-214464Y-111981D01*
X-214394Y-111933D01*
X-214317Y-111904D01*
X-214155Y-111887D01*
X-214108Y-111861D01*
X-213702D01*
Y-111419D01*
X-213673Y-111349D01*
X-213685Y-111320D01*
X-213676Y-111290D01*
X-213702Y-111242D01*
Y-106558D01*
X-213676Y-106510D01*
X-213685Y-106480D01*
X-213673Y-106451D01*
X-213702Y-106381D01*
Y-105939D01*
X-214108D01*
X-214155Y-105913D01*
X-214317Y-105896D01*
X-214394Y-105868D01*
X-214464Y-105819D01*
X-214542Y-105732D01*
X-214625Y-105589D01*
X-214705Y-105384D01*
X-214775Y-105116D01*
X-214827Y-104786D01*
X-214860Y-104397D01*
X-214872Y-103938D01*
X-214879Y-103923D01*
Y-95428D01*
X-206895Y-87445D01*
X-206880Y-87439D01*
X-205905Y-86533D01*
X-205493Y-86204D01*
X-205121Y-85945D01*
X-204844Y-85787D01*
X-203784D01*
X-203713Y-85816D01*
X-203672Y-85799D01*
X-203629Y-85809D01*
X-203592Y-85787D01*
X-201839D01*
Y-79865D01*
D02*
G37*
G36*
X-299100Y-83987D02*
X-299679Y-84102D01*
X-300170Y-84430D01*
X-300498Y-84921D01*
X-300613Y-85500D01*
X-300498Y-86079D01*
X-300214Y-86504D01*
X-300206Y-86528D01*
X-300203Y-86545D01*
X-300198Y-86552D01*
X-300195Y-86561D01*
X-300186Y-86571D01*
X-300180Y-86586D01*
X-300172Y-86615D01*
X-300162Y-86657D01*
X-300155Y-86704D01*
X-300143Y-86858D01*
X-300141Y-86948D01*
X-300120Y-86997D01*
Y-89195D01*
X-300141Y-89242D01*
X-300148Y-89429D01*
X-300154Y-89489D01*
X-300162Y-89543D01*
X-300172Y-89585D01*
X-300180Y-89614D01*
X-300186Y-89629D01*
X-300195Y-89639D01*
X-300198Y-89648D01*
X-300203Y-89655D01*
X-300206Y-89672D01*
X-300214Y-89696D01*
X-300498Y-90121D01*
X-300613Y-90700D01*
X-300498Y-91279D01*
X-300170Y-91770D01*
X-299679Y-92098D01*
X-299100Y-92213D01*
X-298521Y-92098D01*
X-298030Y-91770D01*
X-297702Y-91279D01*
X-297587Y-90700D01*
X-297702Y-90121D01*
X-297986Y-89696D01*
X-297994Y-89672D01*
X-297997Y-89655D01*
X-298002Y-89648D01*
X-298005Y-89639D01*
X-298014Y-89629D01*
X-298020Y-89614D01*
X-298028Y-89585D01*
X-298038Y-89543D01*
X-298045Y-89496D01*
X-298057Y-89342D01*
X-298059Y-89252D01*
X-298080Y-89203D01*
Y-87005D01*
X-298059Y-86958D01*
X-298052Y-86771D01*
X-298046Y-86711D01*
X-298038Y-86657D01*
X-298028Y-86615D01*
X-298020Y-86586D01*
X-298014Y-86571D01*
X-298005Y-86561D01*
X-298002Y-86552D01*
X-297997Y-86545D01*
X-297994Y-86528D01*
X-297986Y-86504D01*
X-297702Y-86079D01*
X-297587Y-85500D01*
X-297702Y-84921D01*
X-298030Y-84430D01*
X-298521Y-84102D01*
X-299100Y-83987D01*
D02*
G37*
G36*
X-304000Y-83887D02*
X-304579Y-84002D01*
X-305070Y-84330D01*
X-305398Y-84821D01*
X-305513Y-85400D01*
X-305398Y-85979D01*
X-305114Y-86404D01*
X-305106Y-86428D01*
X-305103Y-86445D01*
X-305098Y-86452D01*
X-305095Y-86461D01*
X-305086Y-86471D01*
X-305080Y-86486D01*
X-305072Y-86515D01*
X-305062Y-86557D01*
X-305055Y-86604D01*
X-305043Y-86758D01*
X-305041Y-86848D01*
X-305020Y-86897D01*
Y-89195D01*
X-305041Y-89242D01*
X-305048Y-89429D01*
X-305054Y-89489D01*
X-305062Y-89543D01*
X-305072Y-89585D01*
X-305080Y-89614D01*
X-305086Y-89629D01*
X-305095Y-89639D01*
X-305098Y-89648D01*
X-305103Y-89655D01*
X-305106Y-89672D01*
X-305114Y-89696D01*
X-305398Y-90121D01*
X-305513Y-90700D01*
X-305398Y-91279D01*
X-305070Y-91770D01*
X-304579Y-92098D01*
X-304000Y-92213D01*
X-303421Y-92098D01*
X-302930Y-91770D01*
X-302602Y-91279D01*
X-302487Y-90700D01*
X-302602Y-90121D01*
X-302886Y-89696D01*
X-302894Y-89672D01*
X-302897Y-89655D01*
X-302902Y-89648D01*
X-302905Y-89639D01*
X-302914Y-89629D01*
X-302920Y-89614D01*
X-302928Y-89585D01*
X-302938Y-89543D01*
X-302945Y-89496D01*
X-302957Y-89342D01*
X-302959Y-89252D01*
X-302980Y-89203D01*
Y-86905D01*
X-302959Y-86858D01*
X-302952Y-86671D01*
X-302946Y-86611D01*
X-302938Y-86557D01*
X-302928Y-86515D01*
X-302920Y-86486D01*
X-302914Y-86471D01*
X-302905Y-86461D01*
X-302902Y-86452D01*
X-302897Y-86445D01*
X-302894Y-86428D01*
X-302886Y-86404D01*
X-302602Y-85979D01*
X-302487Y-85400D01*
X-302602Y-84821D01*
X-302930Y-84330D01*
X-303421Y-84002D01*
X-304000Y-83887D01*
D02*
G37*
G36*
X-199213Y-105939D02*
X-205135D01*
Y-111861D01*
X-199213D01*
Y-105939D01*
D02*
G37*
G36*
X-194300Y-105914D02*
X-195073Y-106016D01*
X-195793Y-106314D01*
X-196412Y-106789D01*
X-196886Y-107407D01*
X-197184Y-108127D01*
X-197286Y-108900D01*
X-197184Y-109673D01*
X-196886Y-110393D01*
X-196412Y-111012D01*
X-195793Y-111486D01*
X-195073Y-111785D01*
X-194300Y-111886D01*
X-193527Y-111785D01*
X-192807Y-111486D01*
X-192188Y-111012D01*
X-191714Y-110393D01*
X-191416Y-109673D01*
X-191314Y-108900D01*
X-191416Y-108127D01*
X-191714Y-107407D01*
X-192188Y-106789D01*
X-192807Y-106314D01*
X-193527Y-106016D01*
X-194300Y-105914D01*
D02*
G37*
G36*
X-337789Y-116017D02*
X-338690Y-116136D01*
X-339530Y-116484D01*
X-340251Y-117037D01*
X-340805Y-117759D01*
X-341153Y-118599D01*
X-341271Y-119500D01*
X-341153Y-120401D01*
X-340805Y-121241D01*
X-340251Y-121962D01*
X-339530Y-122516D01*
X-338690Y-122864D01*
X-337789Y-122983D01*
X-336888Y-122864D01*
X-336048Y-122516D01*
X-335327Y-121962D01*
X-334773Y-121241D01*
X-334425Y-120401D01*
X-334306Y-119500D01*
X-334425Y-118599D01*
X-334773Y-117759D01*
X-335327Y-117037D01*
X-336048Y-116484D01*
X-336888Y-116136D01*
X-337789Y-116017D01*
D02*
G37*
G36*
X-361411D02*
X-362312Y-116136D01*
X-363152Y-116484D01*
X-363874Y-117037D01*
X-364427Y-117759D01*
X-364775Y-118599D01*
X-364894Y-119500D01*
X-364775Y-120401D01*
X-364427Y-121241D01*
X-363874Y-121962D01*
X-363152Y-122516D01*
X-362312Y-122864D01*
X-361411Y-122983D01*
X-360510Y-122864D01*
X-359670Y-122516D01*
X-358948Y-121962D01*
X-358395Y-121241D01*
X-358047Y-120401D01*
X-357928Y-119500D01*
X-358047Y-118599D01*
X-358395Y-117759D01*
X-358948Y-117037D01*
X-359670Y-116484D01*
X-360510Y-116136D01*
X-361411Y-116017D01*
D02*
G37*
G36*
X-242121Y-146619D02*
X-245679D01*
Y-146771D01*
X-259866D01*
X-260451Y-146887D01*
X-260948Y-147219D01*
X-261279Y-147715D01*
X-261396Y-148300D01*
X-261279Y-148885D01*
X-260948Y-149381D01*
X-260451Y-149713D01*
X-259866Y-149829D01*
X-245679D01*
Y-149981D01*
X-245020D01*
Y-150506D01*
X-245294Y-150917D01*
X-245409Y-151496D01*
X-245294Y-152075D01*
X-244966Y-152566D01*
X-244475Y-152894D01*
X-243896Y-153009D01*
X-243317Y-152894D01*
X-242826Y-152566D01*
X-242498Y-152075D01*
X-242383Y-151496D01*
X-242498Y-150917D01*
X-242776Y-150500D01*
Y-149981D01*
X-242121D01*
Y-146619D01*
D02*
G37*
G36*
X-358268Y-278989D02*
X-359426Y-279142D01*
X-360505Y-279589D01*
X-361432Y-280300D01*
X-362143Y-281227D01*
X-362591Y-282306D01*
X-362743Y-283465D01*
X-362591Y-284623D01*
X-362143Y-285702D01*
X-361432Y-286629D01*
X-360505Y-287340D01*
X-359426Y-287787D01*
X-358268Y-287940D01*
X-357109Y-287787D01*
X-356030Y-287340D01*
X-355103Y-286629D01*
X-354392Y-285702D01*
X-353945Y-284623D01*
X-353792Y-283465D01*
X-353945Y-282306D01*
X-354392Y-281227D01*
X-355103Y-280300D01*
X-356030Y-279589D01*
X-357109Y-279142D01*
X-358268Y-278989D01*
D02*
G37*
%LPD*%
G36*
X-203713Y-85275D02*
X-203907Y-85133D01*
X-204137Y-85062D01*
X-204402D01*
X-204703Y-85133D01*
X-205039Y-85275D01*
X-205410Y-85487D01*
X-205817Y-85770D01*
X-206259Y-86123D01*
X-207249Y-87042D01*
X-209016Y-85275D01*
X-208521Y-84762D01*
X-207744Y-83843D01*
X-207461Y-83436D01*
X-207249Y-83065D01*
X-207107Y-82729D01*
X-207036Y-82428D01*
Y-82163D01*
X-207107Y-81934D01*
X-207249Y-81739D01*
X-203713Y-85275D01*
D02*
G37*
G36*
X-215401Y-104426D02*
X-215365Y-104851D01*
X-215305Y-105226D01*
X-215221Y-105551D01*
X-215113Y-105826D01*
X-214982Y-106051D01*
X-214826Y-106226D01*
X-214646Y-106351D01*
X-214442Y-106426D01*
X-214214Y-106451D01*
X-219112D01*
X-218884Y-106426D01*
X-218680Y-106351D01*
X-218500Y-106226D01*
X-218344Y-106051D01*
X-218213Y-105826D01*
X-218105Y-105551D01*
X-218021Y-105226D01*
X-217961Y-104851D01*
X-217925Y-104426D01*
X-217913Y-103951D01*
X-215413D01*
X-215401Y-104426D01*
D02*
G37*
G36*
X-214442Y-111374D02*
X-214646Y-111449D01*
X-214826Y-111574D01*
X-214982Y-111749D01*
X-215113Y-111974D01*
X-215221Y-112249D01*
X-215305Y-112574D01*
X-215365Y-112949D01*
X-215401Y-113374D01*
X-215413Y-113849D01*
X-217913D01*
X-217925Y-113374D01*
X-217961Y-112949D01*
X-218021Y-112574D01*
X-218105Y-112249D01*
X-218213Y-111974D01*
X-218344Y-111749D01*
X-218500Y-111574D01*
X-218680Y-111449D01*
X-218884Y-111374D01*
X-219112Y-111349D01*
X-214214D01*
X-214442Y-111374D01*
D02*
G37*
G36*
X-207135Y-130954D02*
X-206214Y-131734D01*
X-205807Y-132018D01*
X-205436Y-132231D01*
X-205100Y-132374D01*
X-204800Y-132446D01*
X-204535Y-132447D01*
X-204306Y-132378D01*
X-204113Y-132237D01*
X-207637Y-135761D01*
X-207496Y-135568D01*
X-207427Y-135339D01*
X-207428Y-135074D01*
X-207500Y-134774D01*
X-207643Y-134438D01*
X-207856Y-134067D01*
X-208140Y-133660D01*
X-208495Y-133217D01*
X-209416Y-132225D01*
X-207649Y-130458D01*
X-207135Y-130954D01*
D02*
G37*
G36*
X-298447Y-86244D02*
X-298479Y-86292D01*
X-298507Y-86347D01*
X-298532Y-86409D01*
X-298553Y-86479D01*
X-298570Y-86557D01*
X-298583Y-86641D01*
X-298592Y-86733D01*
X-298600Y-86938D01*
X-299600D01*
X-299602Y-86832D01*
X-299617Y-86641D01*
X-299630Y-86557D01*
X-299647Y-86479D01*
X-299668Y-86409D01*
X-299693Y-86347D01*
X-299721Y-86292D01*
X-299753Y-86244D01*
X-299789Y-86203D01*
X-298411D01*
X-298447Y-86244D01*
D02*
G37*
G36*
X-298598Y-89368D02*
X-298583Y-89559D01*
X-298570Y-89643D01*
X-298553Y-89721D01*
X-298532Y-89790D01*
X-298507Y-89853D01*
X-298479Y-89908D01*
X-298447Y-89956D01*
X-298411Y-89997D01*
X-299789D01*
X-299753Y-89956D01*
X-299721Y-89908D01*
X-299693Y-89853D01*
X-299668Y-89790D01*
X-299647Y-89721D01*
X-299630Y-89643D01*
X-299617Y-89559D01*
X-299608Y-89467D01*
X-299600Y-89262D01*
X-298600D01*
X-298598Y-89368D01*
D02*
G37*
G36*
X-303347Y-86144D02*
X-303379Y-86192D01*
X-303407Y-86247D01*
X-303432Y-86309D01*
X-303453Y-86379D01*
X-303470Y-86457D01*
X-303483Y-86541D01*
X-303492Y-86633D01*
X-303500Y-86838D01*
X-304500D01*
X-304502Y-86732D01*
X-304517Y-86541D01*
X-304530Y-86457D01*
X-304547Y-86379D01*
X-304568Y-86309D01*
X-304593Y-86247D01*
X-304621Y-86192D01*
X-304653Y-86144D01*
X-304689Y-86103D01*
X-303311D01*
X-303347Y-86144D01*
D02*
G37*
G36*
X-303498Y-89368D02*
X-303483Y-89559D01*
X-303470Y-89643D01*
X-303453Y-89721D01*
X-303432Y-89790D01*
X-303407Y-89853D01*
X-303379Y-89908D01*
X-303347Y-89956D01*
X-303311Y-89997D01*
X-304689D01*
X-304653Y-89956D01*
X-304621Y-89908D01*
X-304593Y-89853D01*
X-304568Y-89790D01*
X-304547Y-89721D01*
X-304530Y-89643D01*
X-304517Y-89559D01*
X-304508Y-89467D01*
X-304500Y-89262D01*
X-303500D01*
X-303498Y-89368D01*
D02*
G37*
%LPC*%
G36*
X-167900Y-160387D02*
X-168479Y-160502D01*
X-168970Y-160830D01*
X-169298Y-161321D01*
X-169413Y-161900D01*
X-169298Y-162479D01*
X-168970Y-162970D01*
X-168920Y-163004D01*
Y-165696D01*
X-168970Y-165730D01*
X-169298Y-166221D01*
X-169413Y-166800D01*
X-169298Y-167379D01*
X-168970Y-167870D01*
X-168479Y-168198D01*
X-167900Y-168313D01*
X-167321Y-168198D01*
X-166830Y-167870D01*
X-166502Y-167379D01*
X-166387Y-166800D01*
X-166502Y-166221D01*
X-166830Y-165730D01*
X-166880Y-165696D01*
Y-163004D01*
X-166830Y-162970D01*
X-166502Y-162479D01*
X-166387Y-161900D01*
X-166502Y-161321D01*
X-166830Y-160830D01*
X-167321Y-160502D01*
X-167900Y-160387D01*
D02*
G37*
G36*
X-169276Y-186211D02*
X-169855Y-186326D01*
X-170346Y-186654D01*
X-170674Y-187145D01*
X-170789Y-187724D01*
X-170674Y-188303D01*
X-170346Y-188794D01*
X-170296Y-188828D01*
Y-191707D01*
X-170346Y-191740D01*
X-170674Y-192231D01*
X-170789Y-192810D01*
X-170674Y-193389D01*
X-170346Y-193880D01*
X-169855Y-194209D01*
X-169276Y-194324D01*
X-168697Y-194209D01*
X-168206Y-193880D01*
X-167878Y-193389D01*
X-167763Y-192810D01*
X-167878Y-192231D01*
X-168206Y-191740D01*
X-168256Y-191707D01*
Y-188828D01*
X-168206Y-188794D01*
X-167878Y-188303D01*
X-167763Y-187724D01*
X-167878Y-187145D01*
X-168206Y-186654D01*
X-168697Y-186326D01*
X-169276Y-186211D01*
D02*
G37*
G36*
X-169200Y-208887D02*
X-169779Y-209002D01*
X-170270Y-209330D01*
X-170598Y-209821D01*
X-170713Y-210400D01*
X-170598Y-210979D01*
X-170270Y-211470D01*
X-170257Y-211479D01*
Y-214150D01*
X-170345Y-214209D01*
X-170674Y-214700D01*
X-170789Y-215279D01*
X-170674Y-215858D01*
X-170345Y-216349D01*
X-169854Y-216677D01*
X-169275Y-216792D01*
X-168696Y-216677D01*
X-168205Y-216349D01*
X-167877Y-215858D01*
X-167762Y-215279D01*
X-167877Y-214700D01*
X-168205Y-214209D01*
X-168218Y-214200D01*
Y-211529D01*
X-168130Y-211470D01*
X-167802Y-210979D01*
X-167687Y-210400D01*
X-167802Y-209821D01*
X-168130Y-209330D01*
X-168621Y-209002D01*
X-169200Y-208887D01*
D02*
G37*
%LPD*%
D12*
X-167900Y-166800D02*
Y-161900D01*
X-169238Y-210438D02*
X-169200Y-210400D01*
X-169238Y-215241D02*
Y-210438D01*
X-169275Y-215279D02*
X-169238Y-215241D01*
X-169276Y-192810D02*
Y-187724D01*
X-119158Y-203100D02*
X-107100D01*
X-127779Y-211721D02*
X-119158Y-203100D01*
X-94400Y-222148D02*
Y-215619D01*
X-97819Y-212200D02*
X-94400Y-215619D01*
X-103200Y-212200D02*
X-97819D01*
X-87566Y-197200D02*
X-87539Y-197227D01*
X-76755D01*
X-140727Y-88927D02*
X-129873D01*
X-129045Y-128336D02*
X-128800Y-128091D01*
X-140264Y-128336D02*
X-129045D01*
X-117000Y-80900D02*
X-111600D01*
X-304000Y-90700D02*
Y-85400D01*
X-299100Y-90700D02*
Y-85500D01*
D16*
X-8100Y-219804D02*
D03*
Y-212796D02*
D03*
D20*
X-97365Y-101506D02*
D03*
X-100711D02*
D03*
X-97338Y-97006D02*
D03*
X-100684Y-97006D02*
D03*
X-97365Y-92506D02*
D03*
X-100711D02*
D03*
X-72145Y-124300D02*
D03*
X-75491D02*
D03*
X-68872Y-119700D02*
D03*
X-72218D02*
D03*
X-68872Y-115173D02*
D03*
X-72218D02*
D03*
D27*
X-299200Y-112146D02*
D03*
Y-108800D02*
D03*
X-243896Y-73400D02*
D03*
Y-76746D02*
D03*
X-243900Y-144954D02*
D03*
Y-148300D02*
D03*
X-100738Y-117038D02*
D03*
Y-113691D02*
D03*
X-96210Y-117038D02*
D03*
Y-113691D02*
D03*
X-91659Y-117038D02*
D03*
Y-113691D02*
D03*
X-87138Y-117038D02*
D03*
Y-113691D02*
D03*
X-73587Y-96280D02*
D03*
Y-92933D02*
D03*
X-69038Y-96280D02*
D03*
Y-92933D02*
D03*
X-63516Y-24374D02*
D03*
Y-21027D02*
D03*
X-79116Y-24374D02*
D03*
Y-21027D02*
D03*
X-94700Y-24374D02*
D03*
Y-21027D02*
D03*
X-258700Y-73418D02*
D03*
Y-70072D02*
D03*
X-258896Y-145005D02*
D03*
Y-141659D02*
D03*
X-314100Y-108700D02*
D03*
Y-105353D02*
D03*
D29*
X-92069Y-91806D02*
D03*
X-86006D02*
D03*
D81*
X-14358Y-244869D02*
D03*
Y-260617D02*
D03*
X-14263Y-91235D02*
D03*
Y-106983D02*
D03*
D86*
X-299200Y-112146D02*
X-299100Y-112247D01*
Y-115296D02*
Y-112247D01*
Y-115296D02*
X-299000Y-115396D01*
X-314100Y-105353D02*
Y-102900D01*
X-243896Y-79696D02*
Y-76746D01*
X-258700Y-70072D02*
Y-67590D01*
X-243900Y-148300D02*
X-243898Y-148302D01*
Y-151494D02*
Y-148302D01*
Y-151494D02*
X-243896Y-151496D01*
X-258896Y-141659D02*
Y-139204D01*
X-263800Y-141500D02*
X-259055D01*
X-258896Y-141659D01*
X-96100Y-124900D02*
Y-117148D01*
X-100684Y-124900D02*
Y-117091D01*
X-63516Y-24374D02*
X-63516Y-24374D01*
X-63516Y-33283D02*
Y-24374D01*
X-63516Y-33283D02*
X-63516Y-33283D01*
X-79116Y-24374D02*
X-79116Y-24374D01*
X-79116Y-33316D02*
Y-24374D01*
X-79116Y-33316D02*
X-79116Y-33316D01*
X-94700Y-24374D02*
X-94700Y-24374D01*
X-94700Y-33300D02*
Y-24374D01*
X-94700Y-33300D02*
X-94700Y-33300D01*
X-118600Y-77600D02*
X-110500D01*
X-94794Y-69900D02*
X-83600Y-81094D01*
X-91000Y-69600D02*
X-81400Y-79200D01*
X-34250Y-4950D02*
X-34200Y-4900D01*
X-34250Y-69450D02*
Y-4950D01*
X-34300Y-69500D02*
X-34250Y-69450D01*
X-56500Y-73700D02*
X-48669Y-65869D01*
X-59053Y-75953D02*
Y-50684D01*
X-56500Y-78800D02*
X-41900Y-64200D01*
X-59200Y-76100D02*
X-59053Y-75953D01*
X-8804Y-213500D02*
X-8100Y-212796D01*
X-14000Y-213500D02*
X-8804D01*
X-11400Y-209496D02*
X-10394Y-210502D01*
X-11400Y-209496D02*
Y-195200D01*
X-8710Y-212796D02*
X-8100D01*
X-10394Y-211113D02*
X-8710Y-212796D01*
X-10394Y-211113D02*
Y-210502D01*
X-12676Y-193924D02*
X-11400Y-195200D01*
X-12676Y-193924D02*
Y-182067D01*
X-41900Y-64200D02*
Y-45400D01*
X-48669Y-65869D02*
Y-50300D01*
X-59053Y-50684D02*
X-58669Y-50300D01*
X-69038Y-92933D02*
X-68475Y-93496D01*
X-66005D01*
X-65857Y-93642D01*
X-68872Y-125908D02*
Y-119700D01*
X-70074Y-127110D02*
X-68872Y-125908D01*
X-70074Y-127318D02*
Y-127110D01*
X-100851Y-117151D02*
X-100738Y-117038D01*
X-103587Y-117151D02*
X-100851D01*
X-103700Y-117265D02*
X-103587Y-117151D01*
X-75491Y-124300D02*
X-74910Y-124881D01*
Y-126393D02*
Y-124881D01*
Y-126393D02*
X-74011Y-127292D01*
Y-127500D02*
Y-127292D01*
X-78600Y-109300D02*
X-71272D01*
X-68872Y-111700D01*
Y-115173D02*
Y-111700D01*
X-68872Y-115173D02*
X-68872Y-115173D01*
X-68872Y-119700D02*
Y-115173D01*
X-144100Y-112700D02*
X-142200Y-114600D01*
X-139400Y-118498D02*
Y-111774D01*
X-96400Y-107537D02*
X-91481D01*
Y-99368D02*
Y-98876D01*
X-93145Y-101031D02*
X-91481Y-99368D01*
X-96890Y-101031D02*
X-93145D01*
X-97365Y-101506D02*
X-96890Y-101031D01*
X-92069Y-98287D02*
X-91481Y-98876D01*
X-92069Y-98287D02*
Y-91806D01*
X-78600Y-92933D02*
X-73587D01*
X-86006Y-91806D02*
X-86000Y-91800D01*
X-73587Y-92933D02*
X-69038D01*
X-86900Y-124900D02*
Y-117276D01*
X-87138Y-117038D02*
X-86900Y-117276D01*
X-91500Y-124900D02*
Y-117197D01*
X-91659Y-117038D02*
X-91500Y-117197D01*
X-96210Y-117038D02*
X-96100Y-117148D01*
X-100738Y-117038D02*
X-100684Y-117091D01*
X-142200Y-119700D02*
Y-114600D01*
D87*
X-213281Y-151900D02*
Y-149261D01*
X-100684Y-92506D02*
Y-89200D01*
Y-97006D02*
Y-92506D01*
X-222300Y-202200D02*
Y-189400D01*
X-227100Y-207000D02*
X-222300Y-202200D01*
X-248472Y-207000D02*
X-227100D01*
X-266300Y-189172D02*
X-248472Y-207000D01*
X-266300Y-189172D02*
Y-148300D01*
Y-112200D01*
X-259866Y-148300D02*
X-243900D01*
X-299200Y-112146D02*
X-266354D01*
X-261300Y-105100D02*
Y-83278D01*
X-254768Y-76746D01*
X-243896D01*
X-263800Y-105180D02*
Y-71854D01*
Y-141500D02*
Y-105180D01*
X-313927D02*
X-263800D01*
X-314100Y-105353D02*
X-313927Y-105180D01*
X-258881Y-70253D02*
X-258700Y-70072D01*
X-262200Y-70253D02*
X-258881D01*
X-263800Y-71854D02*
X-262200Y-70253D01*
X-263800Y-187400D02*
Y-141500D01*
X-149800Y-182900D02*
X-107255D01*
X-106655Y-183500D01*
X-106455Y-183300D01*
X-102996Y-186759D01*
X-101856Y-172250D02*
Y-126072D01*
X-100684Y-124900D01*
X-100711Y-92506D02*
X-100684D01*
Y-124900D02*
X-96100D01*
X-128800Y-128091D02*
Y-106429D01*
Y-145300D02*
Y-128091D01*
X-78600Y-87200D02*
Y-50369D01*
X-71400Y-43031D02*
Y-12100D01*
X-78669Y-50300D02*
X-71400Y-43031D01*
X-78669Y-50300D02*
X-78600Y-50369D01*
Y-109300D02*
Y-92933D01*
Y-117312D02*
Y-109300D01*
Y-91800D02*
Y-87200D01*
X-78700Y-87300D02*
X-78600Y-87200D01*
X-98784Y-87300D02*
X-78700D01*
X-86000Y-91800D02*
X-78600D01*
X-128800Y-106429D02*
X-128800Y-106429D01*
X-78600Y-92933D02*
Y-91800D01*
X-86900Y-124900D02*
X-86188D01*
X-91500D02*
X-86900D01*
X-96100D02*
X-91500D01*
X-100684Y-89200D02*
X-98784Y-87300D01*
X-86188Y-124900D02*
X-78600Y-117312D01*
D88*
X-143800Y-280200D02*
X-141100D01*
X-216663Y-108900D02*
Y-94689D01*
X-204800Y-82826D01*
X-216663Y-123211D02*
Y-108900D01*
Y-123211D02*
X-205200Y-134674D01*
D90*
X-88583Y-283465D02*
D03*
X-11811Y-19685D02*
D03*
X-358268Y-283465D02*
D03*
Y-11811D02*
D03*
X-17803Y-145969D02*
D03*
X-109535D02*
D03*
D91*
X-106087Y-223107D02*
D03*
X-102249D02*
D03*
X-106087Y-219269D02*
D03*
X-106087Y-226946D02*
D03*
X-109926Y-223107D02*
D03*
X-181963Y-209275D02*
D03*
Y-213606D02*
D03*
X-184128Y-211440D02*
D03*
X-179798D02*
D03*
X-180166Y-188972D02*
D03*
X-184497D02*
D03*
X-182332Y-191137D02*
D03*
Y-186806D02*
D03*
X-180781Y-160850D02*
D03*
Y-165181D02*
D03*
X-182947Y-163015D02*
D03*
X-178616D02*
D03*
X-42719Y-275248D02*
D03*
X-47443Y-275248D02*
D03*
X-47443Y-272000D02*
D03*
X-42719D02*
D03*
X-42719Y-268752D02*
D03*
X-47443D02*
D03*
D92*
X-4700Y-167957D02*
D03*
X-337789Y-119500D02*
D03*
X-361411D02*
D03*
D93*
X-4700Y-177800D02*
D03*
D94*
X-48669Y-50300D02*
D03*
X-58669D02*
D03*
X-68669D02*
D03*
X-14200Y-4900D02*
D03*
X-24200D02*
D03*
X-34200D02*
D03*
D95*
X-78669Y-50300D02*
D03*
X-44200Y-4900D02*
D03*
D96*
X-8300Y-226886D02*
D03*
Y-200114D02*
D03*
D97*
X-205200Y-126800D02*
D03*
X-224537Y-108900D02*
D03*
X-194300D02*
D03*
X-204800Y-90700D02*
D03*
X-128800Y-98555D02*
D03*
D98*
X-205200Y-134674D02*
D03*
X-204800Y-82826D02*
D03*
X-128800Y-106429D02*
D03*
D99*
X-216663Y-108900D02*
D03*
X-202174D02*
D03*
D100*
X-101856Y-172250D02*
D03*
X-167900Y-161900D02*
D03*
Y-166800D02*
D03*
X-169200Y-210400D02*
D03*
X-169275Y-215279D02*
D03*
X-169276Y-187724D02*
D03*
Y-192810D02*
D03*
X-3149Y-11811D02*
D03*
Y-27559D02*
D03*
X-7086Y-35433D02*
D03*
X-3149Y-43307D02*
D03*
X-7086Y-51181D02*
D03*
X-3149Y-59055D02*
D03*
X-7086Y-66929D02*
D03*
X-3149Y-74803D02*
D03*
Y-90551D02*
D03*
X-7086Y-98425D02*
D03*
X-3149Y-106299D02*
D03*
Y-122047D02*
D03*
X-7086Y-129921D02*
D03*
X-3149Y-137795D02*
D03*
X-7086Y-145669D02*
D03*
X-3149Y-153543D02*
D03*
X-7086Y-161417D02*
D03*
X-3149Y-200787D02*
D03*
X-7086Y-208661D02*
D03*
X-3149Y-216535D02*
D03*
Y-248031D02*
D03*
X-7086Y-255905D02*
D03*
X-3149Y-263779D02*
D03*
Y-279527D02*
D03*
X-7086Y-287402D02*
D03*
X-11023Y-11811D02*
D03*
Y-27559D02*
D03*
X-14960Y-35433D02*
D03*
X-11023Y-43307D02*
D03*
X-14960Y-51181D02*
D03*
X-11023Y-59055D02*
D03*
X-14960Y-66929D02*
D03*
X-11023Y-74803D02*
D03*
X-14960Y-82677D02*
D03*
X-11023Y-90551D02*
D03*
Y-106299D02*
D03*
X-14960Y-114173D02*
D03*
X-11023Y-122047D02*
D03*
X-14960Y-129921D02*
D03*
X-11023Y-137795D02*
D03*
Y-153543D02*
D03*
X-14960Y-161417D02*
D03*
X-11023Y-232283D02*
D03*
X-14960Y-240157D02*
D03*
X-11023Y-248031D02*
D03*
Y-263779D02*
D03*
X-14960Y-271653D02*
D03*
X-11023Y-279527D02*
D03*
X-14960Y-287402D02*
D03*
X-18897Y-11811D02*
D03*
Y-27559D02*
D03*
Y-43307D02*
D03*
Y-59055D02*
D03*
X-22834Y-66929D02*
D03*
X-18897Y-74803D02*
D03*
X-22834Y-82677D02*
D03*
X-18897Y-90551D02*
D03*
X-22834Y-114173D02*
D03*
X-18897Y-122047D02*
D03*
X-22834Y-129921D02*
D03*
X-18897Y-137795D02*
D03*
Y-153543D02*
D03*
X-22834Y-161417D02*
D03*
X-18897Y-185039D02*
D03*
X-22834Y-192913D02*
D03*
X-18897Y-232283D02*
D03*
X-22834Y-240157D02*
D03*
Y-271653D02*
D03*
X-26771Y-11811D02*
D03*
X-30708Y-19685D02*
D03*
X-26771Y-27559D02*
D03*
X-30708Y-35433D02*
D03*
X-26771Y-43307D02*
D03*
X-30708Y-51181D02*
D03*
Y-66929D02*
D03*
X-26771Y-74803D02*
D03*
X-30708Y-82677D02*
D03*
X-26771Y-90551D02*
D03*
X-30708Y-98425D02*
D03*
Y-114173D02*
D03*
X-26771Y-122047D02*
D03*
X-30708Y-129921D02*
D03*
X-26771Y-137795D02*
D03*
X-30708Y-145669D02*
D03*
X-26771Y-153543D02*
D03*
X-30708Y-161417D02*
D03*
X-26771Y-185039D02*
D03*
X-30708Y-192913D02*
D03*
X-26771Y-216535D02*
D03*
Y-232283D02*
D03*
X-30708Y-240157D02*
D03*
X-26771Y-279527D02*
D03*
X-38582Y-19685D02*
D03*
Y-35433D02*
D03*
Y-51181D02*
D03*
Y-66929D02*
D03*
X-34645Y-74803D02*
D03*
X-38582Y-82677D02*
D03*
X-34645Y-90551D02*
D03*
X-38582Y-114173D02*
D03*
X-34645Y-122047D02*
D03*
X-38582Y-129921D02*
D03*
X-34645Y-137795D02*
D03*
X-38582Y-145669D02*
D03*
X-34645Y-153543D02*
D03*
X-38582Y-161417D02*
D03*
X-34645Y-185039D02*
D03*
X-38582Y-192913D02*
D03*
Y-240157D02*
D03*
Y-271653D02*
D03*
X-42519Y-11811D02*
D03*
X-46456Y-19685D02*
D03*
X-42519Y-27559D02*
D03*
X-46456Y-35433D02*
D03*
X-42519Y-90551D02*
D03*
Y-106299D02*
D03*
X-46456Y-114173D02*
D03*
X-42519Y-122047D02*
D03*
X-46456Y-129921D02*
D03*
X-42519Y-137795D02*
D03*
X-46456Y-145669D02*
D03*
X-42519Y-153543D02*
D03*
X-46456Y-161417D02*
D03*
X-42519Y-185039D02*
D03*
X-46456Y-192913D02*
D03*
X-42519Y-200787D02*
D03*
Y-248031D02*
D03*
Y-263779D02*
D03*
X-50393Y-11811D02*
D03*
X-54330Y-19685D02*
D03*
X-50393Y-27559D02*
D03*
Y-43307D02*
D03*
X-54330Y-66929D02*
D03*
X-50393Y-90551D02*
D03*
Y-106299D02*
D03*
X-54330Y-114173D02*
D03*
X-50393Y-122047D02*
D03*
X-54330Y-129921D02*
D03*
X-50393Y-137795D02*
D03*
X-54330Y-145669D02*
D03*
X-50393Y-153543D02*
D03*
X-54330Y-161417D02*
D03*
X-50393Y-185039D02*
D03*
X-54330Y-192913D02*
D03*
X-50393Y-200787D02*
D03*
X-54330Y-208661D02*
D03*
X-58267Y-11811D02*
D03*
Y-27559D02*
D03*
Y-43307D02*
D03*
X-62204Y-66929D02*
D03*
X-58267Y-90551D02*
D03*
Y-106299D02*
D03*
Y-122047D02*
D03*
X-62204Y-129921D02*
D03*
X-58267Y-137795D02*
D03*
X-62204Y-145669D02*
D03*
X-58267Y-153543D02*
D03*
X-62204Y-161417D02*
D03*
X-58267Y-185039D02*
D03*
X-62204Y-192913D02*
D03*
Y-255905D02*
D03*
Y-271653D02*
D03*
X-66141Y-11811D02*
D03*
Y-27559D02*
D03*
Y-43307D02*
D03*
Y-59055D02*
D03*
X-70078Y-66929D02*
D03*
X-66141Y-90551D02*
D03*
Y-106299D02*
D03*
X-70078Y-145669D02*
D03*
X-66141Y-153543D02*
D03*
X-70078Y-161417D02*
D03*
X-66141Y-185039D02*
D03*
X-70078Y-192913D02*
D03*
Y-255905D02*
D03*
X-66141Y-263779D02*
D03*
Y-279527D02*
D03*
X-74015Y-11811D02*
D03*
Y-27559D02*
D03*
Y-59055D02*
D03*
Y-106299D02*
D03*
X-77952Y-145669D02*
D03*
X-74015Y-153543D02*
D03*
X-77952Y-161417D02*
D03*
Y-224409D02*
D03*
Y-255905D02*
D03*
X-74015Y-263779D02*
D03*
Y-279527D02*
D03*
X-81889Y-11811D02*
D03*
X-85826Y-19685D02*
D03*
X-81889Y-27559D02*
D03*
X-85826Y-35433D02*
D03*
Y-51181D02*
D03*
X-81889Y-59055D02*
D03*
X-85826Y-66929D02*
D03*
Y-145669D02*
D03*
X-81889Y-153543D02*
D03*
X-85826Y-161417D02*
D03*
Y-224409D02*
D03*
X-81889Y-263779D02*
D03*
X-85826Y-271653D02*
D03*
X-89763Y-11811D02*
D03*
Y-27559D02*
D03*
Y-43307D02*
D03*
X-93700Y-145669D02*
D03*
X-89763Y-153543D02*
D03*
X-93700Y-161417D02*
D03*
X-89763Y-185039D02*
D03*
X-93700Y-271653D02*
D03*
Y-287402D02*
D03*
X-97637Y-11811D02*
D03*
X-101575Y-19685D02*
D03*
X-97637Y-27559D02*
D03*
X-101575Y-35433D02*
D03*
X-97637Y-43307D02*
D03*
X-101575Y-51181D02*
D03*
X-97637Y-59055D02*
D03*
X-101575Y-66929D02*
D03*
X-97637Y-153543D02*
D03*
Y-169291D02*
D03*
X-101575Y-177165D02*
D03*
X-97637Y-185039D02*
D03*
Y-263779D02*
D03*
X-101575Y-271653D02*
D03*
Y-287402D02*
D03*
X-105511Y-11811D02*
D03*
X-109449Y-19685D02*
D03*
X-105511Y-27559D02*
D03*
Y-43307D02*
D03*
X-109449Y-51181D02*
D03*
X-105511Y-59055D02*
D03*
X-109449Y-66929D02*
D03*
X-105511Y-74803D02*
D03*
Y-90551D02*
D03*
X-109449Y-129921D02*
D03*
X-105511Y-153543D02*
D03*
X-109449Y-177165D02*
D03*
Y-271653D02*
D03*
Y-287402D02*
D03*
X-113385Y-11811D02*
D03*
X-117323Y-19685D02*
D03*
X-113385Y-27559D02*
D03*
Y-43307D02*
D03*
X-117323Y-66929D02*
D03*
Y-98425D02*
D03*
X-113385Y-122047D02*
D03*
X-117323Y-129921D02*
D03*
Y-145669D02*
D03*
X-113385Y-153543D02*
D03*
X-117323Y-161417D02*
D03*
X-113385Y-169291D02*
D03*
X-117323Y-177165D02*
D03*
Y-192913D02*
D03*
X-113385Y-232283D02*
D03*
X-117323Y-255905D02*
D03*
X-113385Y-263779D02*
D03*
X-117323Y-271653D02*
D03*
Y-287402D02*
D03*
X-121259Y-11811D02*
D03*
X-125197Y-19685D02*
D03*
X-121259Y-27559D02*
D03*
X-125197Y-35433D02*
D03*
X-121259Y-43307D02*
D03*
Y-59055D02*
D03*
X-125197Y-66929D02*
D03*
X-121259Y-74803D02*
D03*
Y-106299D02*
D03*
Y-122047D02*
D03*
X-125197Y-129921D02*
D03*
Y-161417D02*
D03*
X-121259Y-169291D02*
D03*
X-125197Y-177165D02*
D03*
Y-255905D02*
D03*
X-121259Y-263779D02*
D03*
X-125197Y-271653D02*
D03*
Y-287402D02*
D03*
X-129133Y-11811D02*
D03*
X-133071Y-19685D02*
D03*
X-129133Y-27559D02*
D03*
X-133071Y-35433D02*
D03*
X-129133Y-43307D02*
D03*
X-133071Y-51181D02*
D03*
X-129133Y-59055D02*
D03*
X-133071Y-66929D02*
D03*
X-129133Y-74803D02*
D03*
X-133071Y-98425D02*
D03*
Y-145669D02*
D03*
X-129133Y-153543D02*
D03*
X-133071Y-161417D02*
D03*
X-129133Y-169291D02*
D03*
X-133071Y-177165D02*
D03*
Y-255905D02*
D03*
X-129133Y-263779D02*
D03*
X-133071Y-271653D02*
D03*
Y-287402D02*
D03*
X-137008Y-11811D02*
D03*
X-140945Y-19685D02*
D03*
X-137008Y-27559D02*
D03*
Y-43307D02*
D03*
X-140945Y-51181D02*
D03*
X-137008Y-59055D02*
D03*
X-140945Y-66929D02*
D03*
X-137008Y-74803D02*
D03*
X-140945Y-82677D02*
D03*
X-137008Y-137795D02*
D03*
X-140945Y-145669D02*
D03*
X-137008Y-153543D02*
D03*
X-140945Y-161417D02*
D03*
X-137008Y-169291D02*
D03*
X-140945Y-177165D02*
D03*
Y-192913D02*
D03*
Y-208661D02*
D03*
Y-224409D02*
D03*
Y-240157D02*
D03*
X-137008Y-248031D02*
D03*
X-140945Y-255905D02*
D03*
X-137008Y-263779D02*
D03*
X-140945Y-287402D02*
D03*
X-144882Y-11811D02*
D03*
X-148819Y-19685D02*
D03*
X-144882Y-27559D02*
D03*
X-148819Y-35433D02*
D03*
X-144882Y-43307D02*
D03*
X-148819Y-51181D02*
D03*
X-144882Y-59055D02*
D03*
X-148819Y-66929D02*
D03*
X-144882Y-74803D02*
D03*
X-148819Y-82677D02*
D03*
Y-129921D02*
D03*
X-144882Y-137795D02*
D03*
X-148819Y-145669D02*
D03*
X-152756Y-11811D02*
D03*
X-156693Y-19685D02*
D03*
X-152756Y-27559D02*
D03*
X-156693Y-35433D02*
D03*
X-152756Y-43307D02*
D03*
X-156693Y-51181D02*
D03*
X-152756Y-59055D02*
D03*
X-156693Y-66929D02*
D03*
X-152756Y-74803D02*
D03*
X-156693Y-82677D02*
D03*
Y-129921D02*
D03*
X-152756Y-137795D02*
D03*
X-156693Y-145669D02*
D03*
X-160630Y-11811D02*
D03*
X-164567Y-19685D02*
D03*
X-160630Y-27559D02*
D03*
X-164567Y-35433D02*
D03*
X-160630Y-43307D02*
D03*
X-164567Y-51181D02*
D03*
X-160630Y-59055D02*
D03*
X-164567Y-66929D02*
D03*
X-160630Y-74803D02*
D03*
X-164567Y-82677D02*
D03*
X-160630Y-90551D02*
D03*
X-164567Y-98425D02*
D03*
X-160630Y-106299D02*
D03*
X-164567Y-114173D02*
D03*
X-160630Y-122047D02*
D03*
X-164567Y-129921D02*
D03*
X-160630Y-137795D02*
D03*
X-164567Y-145669D02*
D03*
X-172441Y-19685D02*
D03*
Y-35433D02*
D03*
Y-51181D02*
D03*
Y-66929D02*
D03*
Y-82677D02*
D03*
Y-98425D02*
D03*
Y-145669D02*
D03*
X-176378Y-11811D02*
D03*
X-180315Y-19685D02*
D03*
X-176378Y-27559D02*
D03*
X-180315Y-35433D02*
D03*
X-176378Y-43307D02*
D03*
X-180315Y-51181D02*
D03*
X-176378Y-59055D02*
D03*
X-180315Y-66929D02*
D03*
X-176378Y-74803D02*
D03*
X-180315Y-82677D02*
D03*
X-176378Y-90551D02*
D03*
X-180315Y-129921D02*
D03*
X-176378Y-137795D02*
D03*
X-180315Y-145669D02*
D03*
X-184252Y-11811D02*
D03*
X-188189Y-19685D02*
D03*
X-184252Y-27559D02*
D03*
X-188189Y-35433D02*
D03*
X-184252Y-43307D02*
D03*
X-188189Y-51181D02*
D03*
X-184252Y-59055D02*
D03*
X-188189Y-66929D02*
D03*
X-184252Y-74803D02*
D03*
X-188189Y-82677D02*
D03*
Y-129921D02*
D03*
X-184252Y-137795D02*
D03*
X-188189Y-145669D02*
D03*
X-192126Y-11811D02*
D03*
X-196063Y-19685D02*
D03*
X-192126Y-27559D02*
D03*
X-196063Y-35433D02*
D03*
X-192126Y-43307D02*
D03*
X-196063Y-51181D02*
D03*
X-192126Y-59055D02*
D03*
X-196063Y-66929D02*
D03*
X-192126Y-74803D02*
D03*
X-196063Y-82677D02*
D03*
Y-129921D02*
D03*
X-192126Y-137795D02*
D03*
X-196063Y-145669D02*
D03*
X-200000Y-11811D02*
D03*
X-203937Y-19685D02*
D03*
X-200000Y-27559D02*
D03*
X-203937Y-35433D02*
D03*
X-200000Y-43307D02*
D03*
X-203937Y-51181D02*
D03*
X-200000Y-59055D02*
D03*
X-203937Y-66929D02*
D03*
X-200000Y-74803D02*
D03*
X-203937Y-114173D02*
D03*
X-200000Y-137795D02*
D03*
X-203937Y-145669D02*
D03*
X-207874Y-11811D02*
D03*
X-211811Y-19685D02*
D03*
X-207874Y-27559D02*
D03*
X-211811Y-35433D02*
D03*
X-207874Y-43307D02*
D03*
X-211811Y-51181D02*
D03*
X-207874Y-59055D02*
D03*
X-211811Y-66929D02*
D03*
X-207874Y-74803D02*
D03*
X-211811Y-82677D02*
D03*
Y-114173D02*
D03*
X-215748Y-11811D02*
D03*
X-219685Y-19685D02*
D03*
X-215748Y-27559D02*
D03*
X-219685Y-35433D02*
D03*
X-215748Y-43307D02*
D03*
X-219685Y-51181D02*
D03*
X-215748Y-59055D02*
D03*
X-219685Y-66929D02*
D03*
X-215748Y-74803D02*
D03*
X-219685Y-98425D02*
D03*
Y-114173D02*
D03*
X-215748Y-137795D02*
D03*
X-223622Y-11811D02*
D03*
X-227559Y-19685D02*
D03*
X-223622Y-27559D02*
D03*
X-227559Y-35433D02*
D03*
X-223622Y-43307D02*
D03*
X-227559Y-51181D02*
D03*
X-223622Y-59055D02*
D03*
X-227559Y-66929D02*
D03*
Y-82677D02*
D03*
X-223622Y-90551D02*
D03*
X-227559Y-98425D02*
D03*
Y-114173D02*
D03*
X-223622Y-122047D02*
D03*
X-227559Y-129921D02*
D03*
X-223622Y-137795D02*
D03*
X-231496Y-11811D02*
D03*
X-235433Y-19685D02*
D03*
X-231496Y-27559D02*
D03*
X-235433Y-35433D02*
D03*
X-231496Y-43307D02*
D03*
Y-59055D02*
D03*
Y-90551D02*
D03*
X-235433Y-98425D02*
D03*
X-231496Y-106299D02*
D03*
X-235433Y-114173D02*
D03*
X-231496Y-122047D02*
D03*
X-235433Y-129921D02*
D03*
X-231496Y-137795D02*
D03*
Y-153543D02*
D03*
X-235433Y-161417D02*
D03*
X-231496Y-169291D02*
D03*
X-235433Y-177165D02*
D03*
X-231496Y-185039D02*
D03*
X-235433Y-192913D02*
D03*
X-231496Y-200787D02*
D03*
Y-216535D02*
D03*
X-235433Y-224409D02*
D03*
X-231496Y-232283D02*
D03*
X-235433Y-240157D02*
D03*
X-231496Y-248031D02*
D03*
X-235433Y-255905D02*
D03*
X-231496Y-263779D02*
D03*
X-235433Y-271653D02*
D03*
X-231496Y-279527D02*
D03*
X-235433Y-287402D02*
D03*
X-239370Y-11811D02*
D03*
X-243307Y-19685D02*
D03*
X-239370Y-27559D02*
D03*
X-243307Y-35433D02*
D03*
X-239370Y-43307D02*
D03*
Y-59055D02*
D03*
Y-74803D02*
D03*
Y-90551D02*
D03*
Y-106299D02*
D03*
X-243307Y-114173D02*
D03*
Y-129921D02*
D03*
Y-161417D02*
D03*
Y-177165D02*
D03*
X-239370Y-185039D02*
D03*
X-243307Y-192913D02*
D03*
X-239370Y-200787D02*
D03*
Y-216535D02*
D03*
X-243307Y-224409D02*
D03*
X-239370Y-232283D02*
D03*
X-243307Y-240157D02*
D03*
X-239370Y-248031D02*
D03*
X-243307Y-255905D02*
D03*
X-239370Y-263779D02*
D03*
X-243307Y-271653D02*
D03*
X-239370Y-279527D02*
D03*
X-243307Y-287402D02*
D03*
X-247244Y-11811D02*
D03*
X-251181Y-19685D02*
D03*
X-247244Y-27559D02*
D03*
X-251181Y-35433D02*
D03*
Y-66929D02*
D03*
Y-129921D02*
D03*
Y-145669D02*
D03*
X-247244Y-185039D02*
D03*
X-251181Y-192913D02*
D03*
Y-208661D02*
D03*
X-247244Y-216535D02*
D03*
X-251181Y-224409D02*
D03*
X-247244Y-232283D02*
D03*
X-251181Y-240157D02*
D03*
X-247244Y-248031D02*
D03*
X-251181Y-255905D02*
D03*
X-247244Y-263779D02*
D03*
X-251181Y-271653D02*
D03*
X-247244Y-279527D02*
D03*
X-251181Y-287402D02*
D03*
X-255118Y-11811D02*
D03*
X-259055Y-19685D02*
D03*
X-255118Y-27559D02*
D03*
X-259055Y-35433D02*
D03*
Y-51181D02*
D03*
Y-114173D02*
D03*
Y-177165D02*
D03*
X-255118Y-185039D02*
D03*
X-259055Y-208661D02*
D03*
X-255118Y-216535D02*
D03*
X-259055Y-224409D02*
D03*
X-255118Y-232283D02*
D03*
X-259055Y-240157D02*
D03*
X-255118Y-248031D02*
D03*
X-259055Y-255905D02*
D03*
X-255118Y-263779D02*
D03*
X-259055Y-271653D02*
D03*
X-255118Y-279527D02*
D03*
X-259055Y-287402D02*
D03*
X-262992Y-11811D02*
D03*
X-266929Y-19685D02*
D03*
X-262992Y-27559D02*
D03*
X-266929Y-35433D02*
D03*
X-262992Y-43307D02*
D03*
X-266929Y-51181D02*
D03*
X-262992Y-59055D02*
D03*
X-266929Y-98425D02*
D03*
Y-192913D02*
D03*
X-262992Y-200787D02*
D03*
X-266929Y-208661D02*
D03*
X-262992Y-216535D02*
D03*
X-266929Y-224409D02*
D03*
X-262992Y-232283D02*
D03*
X-266929Y-240157D02*
D03*
X-262992Y-248031D02*
D03*
X-266929Y-255905D02*
D03*
X-262992Y-263779D02*
D03*
X-266929Y-271653D02*
D03*
X-262992Y-279527D02*
D03*
X-266929Y-287402D02*
D03*
X-270866Y-11811D02*
D03*
X-274803Y-19685D02*
D03*
X-270866Y-27559D02*
D03*
X-274803Y-35433D02*
D03*
X-270866Y-43307D02*
D03*
X-274803Y-51181D02*
D03*
Y-98425D02*
D03*
X-270866Y-122047D02*
D03*
Y-169291D02*
D03*
X-274803Y-177165D02*
D03*
X-270866Y-185039D02*
D03*
X-274803Y-192913D02*
D03*
X-270866Y-200787D02*
D03*
X-274803Y-208661D02*
D03*
X-270866Y-216535D02*
D03*
X-274803Y-224409D02*
D03*
X-270866Y-232283D02*
D03*
X-274803Y-240157D02*
D03*
X-270866Y-248031D02*
D03*
X-274803Y-255905D02*
D03*
X-270866Y-263779D02*
D03*
X-274803Y-271653D02*
D03*
X-270866Y-279527D02*
D03*
X-274803Y-287402D02*
D03*
X-278740Y-11811D02*
D03*
X-282677Y-19685D02*
D03*
X-278740Y-27559D02*
D03*
X-282677Y-35433D02*
D03*
X-278740Y-43307D02*
D03*
X-282677Y-51181D02*
D03*
X-278740Y-74803D02*
D03*
X-282677Y-98425D02*
D03*
X-278740Y-122047D02*
D03*
X-282677Y-145669D02*
D03*
X-278740Y-169291D02*
D03*
X-282677Y-177165D02*
D03*
X-278740Y-185039D02*
D03*
X-282677Y-192913D02*
D03*
X-278740Y-200787D02*
D03*
X-282677Y-208661D02*
D03*
X-278740Y-216535D02*
D03*
X-282677Y-224409D02*
D03*
X-278740Y-232283D02*
D03*
X-282677Y-240157D02*
D03*
X-278740Y-248031D02*
D03*
X-282677Y-255905D02*
D03*
X-278740Y-263779D02*
D03*
X-282677Y-271653D02*
D03*
X-278740Y-279527D02*
D03*
X-282677Y-287402D02*
D03*
X-286614Y-11811D02*
D03*
X-290551Y-19685D02*
D03*
X-286614Y-27559D02*
D03*
X-290551Y-35433D02*
D03*
X-286614Y-43307D02*
D03*
X-290551Y-51181D02*
D03*
X-286614Y-74803D02*
D03*
X-290551Y-98425D02*
D03*
X-286614Y-122047D02*
D03*
X-290551Y-145669D02*
D03*
X-286614Y-169291D02*
D03*
X-290551Y-177165D02*
D03*
X-286614Y-185039D02*
D03*
X-290551Y-192913D02*
D03*
X-286614Y-200787D02*
D03*
X-290551Y-208661D02*
D03*
X-286614Y-216535D02*
D03*
X-290551Y-224409D02*
D03*
X-286614Y-232283D02*
D03*
X-290551Y-240157D02*
D03*
X-286614Y-248031D02*
D03*
X-290551Y-255905D02*
D03*
X-286614Y-263779D02*
D03*
X-290551Y-271653D02*
D03*
X-286614Y-279527D02*
D03*
X-290551Y-287402D02*
D03*
X-294488Y-11811D02*
D03*
X-298425Y-19685D02*
D03*
X-294488Y-27559D02*
D03*
X-298425Y-35433D02*
D03*
X-294488Y-43307D02*
D03*
X-298425Y-51181D02*
D03*
X-294488Y-74803D02*
D03*
Y-122047D02*
D03*
X-298425Y-129921D02*
D03*
Y-145669D02*
D03*
X-294488Y-169291D02*
D03*
X-298425Y-177165D02*
D03*
X-294488Y-185039D02*
D03*
X-298425Y-192913D02*
D03*
X-294488Y-200787D02*
D03*
X-298425Y-208661D02*
D03*
X-294488Y-216535D02*
D03*
X-298425Y-224409D02*
D03*
X-294488Y-232283D02*
D03*
X-298425Y-240157D02*
D03*
X-294488Y-248031D02*
D03*
X-298425Y-255905D02*
D03*
X-294488Y-263779D02*
D03*
X-298425Y-271653D02*
D03*
X-294488Y-279527D02*
D03*
X-298425Y-287402D02*
D03*
X-302362Y-11811D02*
D03*
X-306299Y-19685D02*
D03*
X-302362Y-27559D02*
D03*
X-306299Y-35433D02*
D03*
X-302362Y-43307D02*
D03*
X-306299Y-51181D02*
D03*
X-302362Y-59055D02*
D03*
X-306299Y-66929D02*
D03*
Y-82677D02*
D03*
Y-114173D02*
D03*
Y-129921D02*
D03*
Y-145669D02*
D03*
X-302362Y-169291D02*
D03*
X-306299Y-177165D02*
D03*
X-302362Y-185039D02*
D03*
X-306299Y-192913D02*
D03*
X-302362Y-200787D02*
D03*
X-306299Y-208661D02*
D03*
X-302362Y-216535D02*
D03*
X-306299Y-224409D02*
D03*
X-302362Y-232283D02*
D03*
X-306299Y-240157D02*
D03*
X-302362Y-248031D02*
D03*
X-306299Y-255905D02*
D03*
X-302362Y-263779D02*
D03*
X-306299Y-271653D02*
D03*
X-302362Y-279527D02*
D03*
X-306299Y-287402D02*
D03*
X-310236Y-11811D02*
D03*
X-314173Y-19685D02*
D03*
X-310236Y-27559D02*
D03*
X-314173Y-35433D02*
D03*
X-310236Y-43307D02*
D03*
X-314173Y-51181D02*
D03*
X-310236Y-59055D02*
D03*
X-314173Y-66929D02*
D03*
X-310236Y-74803D02*
D03*
X-314173Y-82677D02*
D03*
Y-114173D02*
D03*
X-310236Y-153543D02*
D03*
Y-169291D02*
D03*
X-314173Y-177165D02*
D03*
X-310236Y-185039D02*
D03*
X-314173Y-192913D02*
D03*
X-310236Y-200787D02*
D03*
X-314173Y-208661D02*
D03*
X-310236Y-216535D02*
D03*
X-314173Y-224409D02*
D03*
X-310236Y-232283D02*
D03*
X-314173Y-240157D02*
D03*
X-310236Y-248031D02*
D03*
X-314173Y-255905D02*
D03*
X-310236Y-263779D02*
D03*
X-314173Y-271653D02*
D03*
X-310236Y-279527D02*
D03*
X-314173Y-287402D02*
D03*
X-318110Y-11811D02*
D03*
X-322047Y-19685D02*
D03*
X-318110Y-27559D02*
D03*
X-322047Y-35433D02*
D03*
X-318110Y-43307D02*
D03*
X-322047Y-51181D02*
D03*
X-318110Y-59055D02*
D03*
X-322047Y-66929D02*
D03*
X-318110Y-74803D02*
D03*
X-322047Y-82677D02*
D03*
Y-98425D02*
D03*
X-318110Y-106299D02*
D03*
X-322047Y-114173D02*
D03*
X-318110Y-122047D02*
D03*
X-322047Y-129921D02*
D03*
X-318110Y-137795D02*
D03*
X-322047Y-145669D02*
D03*
X-318110Y-153543D02*
D03*
Y-169291D02*
D03*
X-322047Y-177165D02*
D03*
X-318110Y-185039D02*
D03*
X-322047Y-192913D02*
D03*
X-318110Y-200787D02*
D03*
X-322047Y-208661D02*
D03*
X-318110Y-216535D02*
D03*
X-322047Y-224409D02*
D03*
X-318110Y-232283D02*
D03*
X-322047Y-240157D02*
D03*
X-318110Y-248031D02*
D03*
X-322047Y-255905D02*
D03*
X-318110Y-263779D02*
D03*
X-322047Y-271653D02*
D03*
X-318110Y-279527D02*
D03*
X-322047Y-287402D02*
D03*
X-325984Y-11811D02*
D03*
X-329921Y-19685D02*
D03*
X-325984Y-27559D02*
D03*
X-329921Y-35433D02*
D03*
X-325984Y-43307D02*
D03*
X-329921Y-51181D02*
D03*
X-325984Y-59055D02*
D03*
X-329921Y-66929D02*
D03*
X-325984Y-74803D02*
D03*
X-329921Y-82677D02*
D03*
X-325984Y-90551D02*
D03*
X-329921Y-114173D02*
D03*
X-325984Y-122047D02*
D03*
X-329921Y-129921D02*
D03*
X-325984Y-137795D02*
D03*
X-329921Y-145669D02*
D03*
X-325984Y-153543D02*
D03*
Y-169291D02*
D03*
X-329921Y-177165D02*
D03*
X-325984Y-185039D02*
D03*
X-329921Y-192913D02*
D03*
X-325984Y-200787D02*
D03*
X-329921Y-208661D02*
D03*
X-325984Y-216535D02*
D03*
X-329921Y-224409D02*
D03*
X-325984Y-232283D02*
D03*
X-329921Y-240157D02*
D03*
X-325984Y-248031D02*
D03*
X-329921Y-255905D02*
D03*
X-325984Y-263779D02*
D03*
X-329921Y-271653D02*
D03*
X-325984Y-279527D02*
D03*
X-329921Y-287402D02*
D03*
X-333858Y-11811D02*
D03*
X-337795Y-19685D02*
D03*
X-333858Y-27559D02*
D03*
X-337795Y-35433D02*
D03*
X-333858Y-43307D02*
D03*
X-337795Y-51181D02*
D03*
X-333858Y-59055D02*
D03*
X-337795Y-66929D02*
D03*
X-333858Y-74803D02*
D03*
X-337795Y-82677D02*
D03*
X-333858Y-90551D02*
D03*
X-337795Y-98425D02*
D03*
X-333858Y-106299D02*
D03*
X-337795Y-114173D02*
D03*
X-333858Y-122047D02*
D03*
X-337795Y-145669D02*
D03*
Y-161417D02*
D03*
X-333858Y-169291D02*
D03*
X-337795Y-177165D02*
D03*
X-333858Y-185039D02*
D03*
X-337795Y-192913D02*
D03*
X-333858Y-200787D02*
D03*
X-337795Y-208661D02*
D03*
X-333858Y-216535D02*
D03*
X-337795Y-224409D02*
D03*
X-333858Y-232283D02*
D03*
X-337795Y-240157D02*
D03*
X-333858Y-248031D02*
D03*
X-337795Y-255905D02*
D03*
X-333858Y-263779D02*
D03*
X-337795Y-271653D02*
D03*
X-333858Y-279527D02*
D03*
X-337795Y-287402D02*
D03*
X-341732Y-11811D02*
D03*
X-345669Y-19685D02*
D03*
X-341732Y-27559D02*
D03*
X-345669Y-35433D02*
D03*
X-341732Y-43307D02*
D03*
X-345669Y-51181D02*
D03*
X-341732Y-59055D02*
D03*
X-345669Y-66929D02*
D03*
X-341732Y-74803D02*
D03*
X-345669Y-82677D02*
D03*
X-341732Y-90551D02*
D03*
X-345669Y-98425D02*
D03*
X-341732Y-106299D02*
D03*
X-345669Y-114173D02*
D03*
X-341732Y-122047D02*
D03*
X-345669Y-129921D02*
D03*
X-341732Y-137795D02*
D03*
X-345669Y-145669D02*
D03*
X-341732Y-153543D02*
D03*
X-345669Y-161417D02*
D03*
X-341732Y-169291D02*
D03*
X-345669Y-177165D02*
D03*
X-341732Y-185039D02*
D03*
X-345669Y-192913D02*
D03*
X-341732Y-200787D02*
D03*
X-345669Y-208661D02*
D03*
X-341732Y-216535D02*
D03*
X-345669Y-224409D02*
D03*
X-341732Y-232283D02*
D03*
X-345669Y-240157D02*
D03*
X-341732Y-248031D02*
D03*
X-345669Y-255905D02*
D03*
X-341732Y-263779D02*
D03*
X-345669Y-271653D02*
D03*
X-341732Y-279527D02*
D03*
X-345669Y-287402D02*
D03*
X-349606Y-11811D02*
D03*
X-353543Y-19685D02*
D03*
X-349606Y-27559D02*
D03*
X-353543Y-35433D02*
D03*
X-349606Y-43307D02*
D03*
X-353543Y-51181D02*
D03*
X-349606Y-59055D02*
D03*
X-353543Y-66929D02*
D03*
X-349606Y-74803D02*
D03*
X-353543Y-82677D02*
D03*
Y-114173D02*
D03*
X-349606Y-122047D02*
D03*
X-353543Y-129921D02*
D03*
X-349606Y-137795D02*
D03*
X-353543Y-145669D02*
D03*
X-349606Y-153543D02*
D03*
X-353543Y-161417D02*
D03*
X-349606Y-169291D02*
D03*
X-353543Y-177165D02*
D03*
X-349606Y-185039D02*
D03*
X-353543Y-192913D02*
D03*
X-349606Y-200787D02*
D03*
X-353543Y-208661D02*
D03*
X-349606Y-216535D02*
D03*
X-353543Y-224409D02*
D03*
X-349606Y-232283D02*
D03*
X-353543Y-240157D02*
D03*
X-349606Y-248031D02*
D03*
X-353543Y-255905D02*
D03*
X-349606Y-263779D02*
D03*
X-353543Y-271653D02*
D03*
X-349606Y-279527D02*
D03*
X-353543Y-287402D02*
D03*
X-361417Y-19685D02*
D03*
X-357480Y-27559D02*
D03*
X-361417Y-35433D02*
D03*
X-357480Y-43307D02*
D03*
X-361417Y-51181D02*
D03*
X-357480Y-59055D02*
D03*
X-361417Y-66929D02*
D03*
X-357480Y-74803D02*
D03*
X-361417Y-82677D02*
D03*
X-357480Y-90551D02*
D03*
X-361417Y-98425D02*
D03*
X-357480Y-106299D02*
D03*
X-361417Y-114173D02*
D03*
X-357480Y-122047D02*
D03*
Y-137795D02*
D03*
X-361417Y-145669D02*
D03*
X-357480Y-153543D02*
D03*
X-361417Y-161417D02*
D03*
X-357480Y-169291D02*
D03*
X-361417Y-177165D02*
D03*
X-357480Y-185039D02*
D03*
X-361417Y-192913D02*
D03*
X-357480Y-200787D02*
D03*
X-361417Y-208661D02*
D03*
X-357480Y-216535D02*
D03*
X-361417Y-224409D02*
D03*
X-357480Y-232283D02*
D03*
X-361417Y-240157D02*
D03*
X-357480Y-248031D02*
D03*
X-361417Y-255905D02*
D03*
X-357480Y-263779D02*
D03*
X-361417Y-271653D02*
D03*
X-365354Y-11811D02*
D03*
X-369291Y-19685D02*
D03*
X-365354Y-27559D02*
D03*
X-369291Y-35433D02*
D03*
X-365354Y-43307D02*
D03*
X-369291Y-51181D02*
D03*
X-365354Y-59055D02*
D03*
X-369291Y-66929D02*
D03*
X-365354Y-74803D02*
D03*
X-369291Y-82677D02*
D03*
X-365354Y-90551D02*
D03*
X-369291Y-114173D02*
D03*
X-365354Y-122047D02*
D03*
X-369291Y-129921D02*
D03*
Y-145669D02*
D03*
X-365354Y-153543D02*
D03*
X-369291Y-161417D02*
D03*
X-365354Y-169291D02*
D03*
X-369291Y-177165D02*
D03*
X-365354Y-185039D02*
D03*
X-369291Y-192913D02*
D03*
X-365354Y-200787D02*
D03*
X-369291Y-208661D02*
D03*
X-365354Y-216535D02*
D03*
X-369291Y-224409D02*
D03*
X-365354Y-232283D02*
D03*
X-369291Y-240157D02*
D03*
X-365354Y-248031D02*
D03*
X-369291Y-255905D02*
D03*
X-365354Y-263779D02*
D03*
X-369291Y-271653D02*
D03*
X-365354Y-279527D02*
D03*
X-369291Y-287402D02*
D03*
X-148819Y-161417D02*
D03*
Y-177165D02*
D03*
X-144882Y-200787D02*
D03*
Y-216535D02*
D03*
Y-232283D02*
D03*
Y-248031D02*
D03*
Y-263779D02*
D03*
X-148819Y-287402D02*
D03*
X-152756Y-169291D02*
D03*
X-156693Y-177165D02*
D03*
X-152756Y-200787D02*
D03*
X-156693Y-224409D02*
D03*
X-152756Y-232283D02*
D03*
X-156693Y-240157D02*
D03*
X-152756Y-248031D02*
D03*
X-156693Y-255905D02*
D03*
X-152756Y-263779D02*
D03*
X-156693Y-271653D02*
D03*
X-152756Y-279527D02*
D03*
X-156693Y-287402D02*
D03*
X-164567Y-177165D02*
D03*
Y-224409D02*
D03*
X-160630Y-232283D02*
D03*
X-164567Y-240157D02*
D03*
X-160630Y-248031D02*
D03*
X-164567Y-255905D02*
D03*
X-160630Y-263779D02*
D03*
X-164567Y-271653D02*
D03*
X-160630Y-279527D02*
D03*
X-164567Y-287402D02*
D03*
X-168504Y-169291D02*
D03*
X-172441Y-177165D02*
D03*
X-168504Y-200787D02*
D03*
X-172441Y-224409D02*
D03*
X-168504Y-232283D02*
D03*
X-172441Y-240157D02*
D03*
X-168504Y-248031D02*
D03*
X-172441Y-255905D02*
D03*
X-168504Y-263779D02*
D03*
X-172441Y-271653D02*
D03*
X-168504Y-279527D02*
D03*
X-172441Y-287402D02*
D03*
X-176378Y-169291D02*
D03*
X-180315Y-177165D02*
D03*
X-176378Y-200787D02*
D03*
X-180315Y-224409D02*
D03*
X-176378Y-232283D02*
D03*
X-180315Y-240157D02*
D03*
X-176378Y-248031D02*
D03*
X-180315Y-255905D02*
D03*
X-176378Y-263779D02*
D03*
X-180315Y-271653D02*
D03*
X-176378Y-279527D02*
D03*
X-180315Y-287402D02*
D03*
X-184252Y-169291D02*
D03*
X-188189Y-177165D02*
D03*
X-184252Y-200787D02*
D03*
X-188189Y-224409D02*
D03*
X-184252Y-232283D02*
D03*
X-188189Y-240157D02*
D03*
X-184252Y-248031D02*
D03*
X-188189Y-255905D02*
D03*
X-184252Y-263779D02*
D03*
X-188189Y-271653D02*
D03*
X-184252Y-279527D02*
D03*
X-188189Y-287402D02*
D03*
X-192126Y-169291D02*
D03*
X-196063Y-177165D02*
D03*
X-192126Y-200787D02*
D03*
X-196063Y-224409D02*
D03*
X-192126Y-232283D02*
D03*
X-196063Y-240157D02*
D03*
X-192126Y-248031D02*
D03*
X-196063Y-255905D02*
D03*
X-192126Y-263779D02*
D03*
X-196063Y-271653D02*
D03*
X-192126Y-279527D02*
D03*
X-196063Y-287402D02*
D03*
X-203937Y-177165D02*
D03*
X-200000Y-200787D02*
D03*
X-203937Y-224409D02*
D03*
X-200000Y-232283D02*
D03*
X-203937Y-240157D02*
D03*
X-200000Y-248031D02*
D03*
X-203937Y-255905D02*
D03*
X-200000Y-263779D02*
D03*
X-203937Y-271653D02*
D03*
X-200000Y-279527D02*
D03*
X-203937Y-287402D02*
D03*
X-211811Y-177165D02*
D03*
X-207874Y-200787D02*
D03*
X-211811Y-224409D02*
D03*
X-207874Y-232283D02*
D03*
X-211811Y-240157D02*
D03*
X-207874Y-248031D02*
D03*
X-211811Y-255905D02*
D03*
X-207874Y-263779D02*
D03*
X-211811Y-271653D02*
D03*
X-207874Y-279527D02*
D03*
X-211811Y-287402D02*
D03*
X-219685Y-161417D02*
D03*
Y-177165D02*
D03*
Y-192913D02*
D03*
X-215748Y-200787D02*
D03*
X-219685Y-224409D02*
D03*
X-215748Y-232283D02*
D03*
X-219685Y-240157D02*
D03*
X-215748Y-248031D02*
D03*
X-219685Y-255905D02*
D03*
X-215748Y-263779D02*
D03*
X-219685Y-271653D02*
D03*
X-215748Y-279527D02*
D03*
X-219685Y-287402D02*
D03*
X-227559Y-161417D02*
D03*
X-223622Y-169291D02*
D03*
X-227559Y-177165D02*
D03*
Y-192913D02*
D03*
X-223622Y-216535D02*
D03*
X-227559Y-224409D02*
D03*
X-223622Y-232283D02*
D03*
X-227559Y-240157D02*
D03*
X-223622Y-248031D02*
D03*
X-227559Y-255905D02*
D03*
X-223622Y-263779D02*
D03*
X-227559Y-271653D02*
D03*
X-223622Y-279527D02*
D03*
X-227559Y-287402D02*
D03*
X-107100Y-203100D02*
D03*
X-127779Y-211721D02*
D03*
X-222300Y-189400D02*
D03*
X-266300Y-148300D02*
D03*
X-259866D02*
D03*
X-266354Y-112146D02*
D03*
X-261300Y-105100D02*
D03*
X-299000Y-115396D02*
D03*
X-314100Y-102900D02*
D03*
X-243896Y-79696D02*
D03*
X-258700Y-67590D02*
D03*
X-243896Y-151496D02*
D03*
X-258896Y-139204D02*
D03*
X-149800Y-182900D02*
D03*
X-102996Y-186759D02*
D03*
X-94400Y-222148D02*
D03*
X-103200Y-212200D02*
D03*
X-87566Y-197200D02*
D03*
X-76755Y-197227D02*
D03*
X-63516Y-33283D02*
D03*
X-79116Y-33316D02*
D03*
X-94700Y-33300D02*
D03*
X-129873Y-88927D02*
D03*
X-140727D02*
D03*
X-140264Y-128336D02*
D03*
X-110500Y-77600D02*
D03*
X-91000Y-69600D02*
D03*
X-118600Y-77600D02*
D03*
X-111600Y-80900D02*
D03*
X-117000D02*
D03*
X-34300Y-69500D02*
D03*
X-56500Y-73700D02*
D03*
Y-78800D02*
D03*
X-59200Y-76100D02*
D03*
X-71400Y-12100D02*
D03*
X-14000Y-213500D02*
D03*
X-12676Y-182067D02*
D03*
X-41900Y-45400D02*
D03*
X-81400Y-79200D02*
D03*
X-94794Y-69900D02*
D03*
X-83600Y-81094D02*
D03*
X-100684Y-89200D02*
D03*
X-65857Y-93642D02*
D03*
X-70074Y-127318D02*
D03*
X-103700Y-117265D02*
D03*
X-74011Y-127500D02*
D03*
X-263800Y-187400D02*
D03*
X-304000Y-90700D02*
D03*
Y-85400D02*
D03*
X-299100Y-90700D02*
D03*
Y-85500D02*
D03*
X-144100Y-112700D02*
D03*
X-139400Y-118498D02*
D03*
Y-111774D02*
D03*
X-128800Y-145300D02*
D03*
X-96400Y-107537D02*
D03*
X-142200Y-119700D02*
D03*
D101*
X-91481Y-98876D02*
D03*
X-85182Y-98876D02*
D03*
X-85182Y-107537D02*
D03*
X-91481D02*
D03*
M02*
