G04*
G04 #@! TF.GenerationSoftware,Altium Limited,Altium Designer,19.0.4 (130)*
G04*
G04 Layer_Color=16711935*
%FSLAX25Y25*%
%MOIN*%
G70*
G01*
G75*
%ADD12C,0.01000*%
D12*
X0Y-10000D02*
X-48Y-9020D01*
X-192Y-8049D01*
X-431Y-7097D01*
X-761Y-6173D01*
X-1181Y-5286D01*
X-1685Y-4444D01*
X-2270Y-3656D01*
X-2929Y-2929D01*
X-3656Y-2270D01*
X-4444Y-1685D01*
X-5286Y-1181D01*
X-6173Y-761D01*
X-7097Y-431D01*
X-8049Y-192D01*
X-9020Y-48D01*
X-10000Y0D01*
X-363300D02*
X-364280Y-48D01*
X-365251Y-192D01*
X-366203Y-431D01*
X-367127Y-761D01*
X-368014Y-1181D01*
X-368856Y-1685D01*
X-369644Y-2270D01*
X-370371Y-2929D01*
X-371030Y-3656D01*
X-371615Y-4444D01*
X-372119Y-5286D01*
X-372539Y-6173D01*
X-372869Y-7097D01*
X-373108Y-8049D01*
X-373252Y-9020D01*
X-373300Y-10000D01*
X-373400Y-285276D02*
X-373352Y-286256D01*
X-373208Y-287227D01*
X-372969Y-288178D01*
X-372639Y-289102D01*
X-372219Y-289990D01*
X-371715Y-290831D01*
X-371130Y-291619D01*
X-370471Y-292347D01*
X-369744Y-293006D01*
X-368956Y-293590D01*
X-368114Y-294095D01*
X-367227Y-294514D01*
X-366303Y-294845D01*
X-365351Y-295083D01*
X-364380Y-295227D01*
X-363400Y-295276D01*
X-10000D02*
X-9020Y-295227D01*
X-8049Y-295083D01*
X-7097Y-294845D01*
X-6173Y-294514D01*
X-5286Y-294095D01*
X-4444Y-293590D01*
X-3656Y-293006D01*
X-2929Y-292347D01*
X-2270Y-291619D01*
X-1685Y-290831D01*
X-1181Y-289990D01*
X-761Y-289102D01*
X-431Y-288178D01*
X-192Y-287227D01*
X-48Y-286256D01*
X-0Y-285276D01*
X0D02*
Y-10000D01*
X-363300Y0D02*
X-10000D01*
X-373300Y-10000D02*
X-373200Y-31900D01*
Y-216000D02*
Y-31900D01*
X-373400Y-285276D02*
X-373200Y-216000D01*
X-363400Y-295276D02*
X-10000D01*
M02*
