G04*
G04 #@! TF.GenerationSoftware,Altium Limited,Altium Designer,19.0.4 (130)*
G04*
G04 Layer_Color=2752767*
%FSLAX25Y25*%
%MOIN*%
G70*
G01*
G75*
%ADD109C,0.00200*%
%ADD110C,0.00267*%
D109*
X-89383Y-284265D02*
Y-282665D01*
X-87783D01*
Y-284265D01*
X-89383D01*
X-12611Y-20485D02*
Y-18885D01*
X-11011D01*
Y-20485D01*
X-12611D01*
X-359068Y-284265D02*
Y-282665D01*
X-357468D01*
Y-284265D01*
X-359068D01*
Y-12611D02*
Y-11011D01*
X-357468D01*
Y-12611D01*
X-359068D01*
X-4700Y-168757D02*
X-5500Y-167157D01*
X-3900D01*
X-4700Y-168757D01*
Y-178600D02*
X-5500Y-177000D01*
X-3900D01*
X-4700Y-178600D01*
X-48669Y-51100D02*
X-48269Y-50700D01*
X-47869D01*
X-48269Y-50300D01*
X-47869Y-49900D01*
X-48269D01*
X-48669Y-49500D01*
X-49069Y-49900D01*
X-49469D01*
X-49069Y-50300D01*
X-49469Y-50700D01*
X-49069D01*
X-48669Y-51100D01*
X-58669D02*
X-58269Y-50700D01*
X-57869D01*
X-58269Y-50300D01*
X-57869Y-49900D01*
X-58269D01*
X-58669Y-49500D01*
X-59069Y-49900D01*
X-59469D01*
X-59069Y-50300D01*
X-59469Y-50700D01*
X-59069D01*
X-58669Y-51100D01*
X-68669D02*
X-68269Y-50700D01*
X-67869D01*
X-68269Y-50300D01*
X-67869Y-49900D01*
X-68269D01*
X-68669Y-49500D01*
X-69069Y-49900D01*
X-69469D01*
X-69069Y-50300D01*
X-69469Y-50700D01*
X-69069D01*
X-68669Y-51100D01*
X-78669D02*
X-78269Y-50700D01*
X-77869D01*
X-78269Y-50300D01*
X-77869Y-49900D01*
X-78269D01*
X-78669Y-49500D01*
X-79069Y-49900D01*
X-79469D01*
X-79069Y-50300D01*
X-79469Y-50700D01*
X-79069D01*
X-78669Y-51100D01*
X-18603Y-146769D02*
X-18203Y-145969D01*
X-18603Y-145169D01*
X-17803Y-145569D01*
X-17003Y-145169D01*
X-17403Y-145969D01*
X-17003Y-146769D01*
X-17803Y-146369D01*
X-18603Y-146769D01*
X-110335D02*
X-109935Y-145969D01*
X-110335Y-145169D01*
X-109535Y-145569D01*
X-108735Y-145169D01*
X-109135Y-145969D01*
X-108735Y-146769D01*
X-109535Y-146369D01*
X-110335Y-146769D01*
X-14758Y-245269D02*
Y-245669D01*
X-13958D01*
Y-245269D01*
X-13558D01*
Y-244469D01*
X-13958D01*
Y-244069D01*
X-14758D01*
Y-244469D01*
X-15158D01*
Y-245269D01*
X-14758D01*
Y-261017D02*
Y-261417D01*
X-13958D01*
Y-261017D01*
X-13558D01*
Y-260217D01*
X-13958D01*
Y-259817D01*
X-14758D01*
Y-260217D01*
X-15158D01*
Y-261017D01*
X-14758D01*
X-9100Y-227686D02*
X-8700D01*
X-8300Y-227286D01*
X-7900Y-227686D01*
X-7500D01*
Y-227286D01*
X-7900Y-226886D01*
X-7500Y-226486D01*
Y-226086D01*
X-7900D01*
X-8300Y-226486D01*
X-8700Y-226086D01*
X-9100D01*
Y-226486D01*
X-8700Y-226886D01*
X-9100Y-227286D01*
Y-227686D01*
Y-200914D02*
X-8700D01*
X-8300Y-200514D01*
X-7900Y-200914D01*
X-7500D01*
Y-200514D01*
X-7900Y-200114D01*
X-7500Y-199714D01*
Y-199314D01*
X-7900D01*
X-8300Y-199714D01*
X-8700Y-199314D01*
X-9100D01*
Y-199714D01*
X-8700Y-200114D01*
X-9100Y-200514D01*
Y-200914D01*
X-338589Y-119500D02*
X-337789Y-118700D01*
X-336989Y-119500D01*
X-337789Y-120300D01*
X-338589Y-119500D01*
X-362211D02*
X-361411Y-118700D01*
X-360611Y-119500D01*
X-361411Y-120300D01*
X-362211Y-119500D01*
X-206000Y-127600D02*
Y-126000D01*
X-204400D01*
Y-127600D01*
X-206000D01*
X-205600Y-127200D02*
Y-126400D01*
X-204800D01*
Y-127200D01*
X-205600D01*
X-206000Y-135474D02*
Y-133874D01*
X-204400D01*
Y-135474D01*
X-206000D01*
X-205600Y-135074D02*
Y-134274D01*
X-204800D01*
Y-135074D01*
X-205600D01*
X-225337Y-109700D02*
Y-108100D01*
X-223737D01*
Y-109700D01*
X-225337D01*
X-224937Y-109300D02*
Y-108500D01*
X-224137D01*
Y-109300D01*
X-224937D01*
X-217463Y-109700D02*
Y-108100D01*
X-215863D01*
Y-109700D01*
X-217463D01*
X-217063Y-109300D02*
Y-108500D01*
X-216263D01*
Y-109300D01*
X-217063D01*
X-195100Y-109700D02*
Y-108100D01*
X-193500D01*
Y-109700D01*
X-195100D01*
X-194700Y-109300D02*
Y-108500D01*
X-193900D01*
Y-109300D01*
X-194700D01*
X-202974Y-109700D02*
Y-108100D01*
X-201374D01*
Y-109700D01*
X-202974D01*
X-202574Y-109300D02*
Y-108500D01*
X-201774D01*
Y-109300D01*
X-202574D01*
X-205600Y-91500D02*
Y-89900D01*
X-204000D01*
Y-91500D01*
X-205600D01*
X-205200Y-91100D02*
Y-90300D01*
X-204400D01*
Y-91100D01*
X-205200D01*
X-205600Y-83626D02*
Y-82026D01*
X-204000D01*
Y-83626D01*
X-205600D01*
X-205200Y-83226D02*
Y-82426D01*
X-204400D01*
Y-83226D01*
X-205200D01*
X-129600Y-99355D02*
Y-97755D01*
X-128000D01*
Y-99355D01*
X-129600D01*
X-129200Y-98955D02*
Y-98155D01*
X-128400D01*
Y-98955D01*
X-129200D01*
X-129600Y-107229D02*
Y-105629D01*
X-128000D01*
Y-107229D01*
X-129600D01*
X-129200Y-106829D02*
Y-106029D01*
X-128400D01*
Y-106829D01*
X-129200D01*
X-14663Y-91635D02*
Y-92035D01*
X-13863D01*
Y-91635D01*
X-13463D01*
Y-90835D01*
X-13863D01*
Y-90435D01*
X-14663D01*
Y-90835D01*
X-15063D01*
Y-91635D01*
X-14663D01*
Y-107384D02*
Y-107783D01*
X-13863D01*
Y-107384D01*
X-13463D01*
Y-106583D01*
X-13863D01*
Y-106184D01*
X-14663D01*
Y-106583D01*
X-15063D01*
Y-107384D01*
X-14663D01*
X-14200Y-5700D02*
X-13800Y-5300D01*
X-13400D01*
X-13800Y-4900D01*
X-13400Y-4500D01*
X-13800D01*
X-14200Y-4100D01*
X-14600Y-4500D01*
X-15000D01*
X-14600Y-4900D01*
X-15000Y-5300D01*
X-14600D01*
X-14200Y-5700D01*
X-24200D02*
X-23800Y-5300D01*
X-23400D01*
X-23800Y-4900D01*
X-23400Y-4500D01*
X-23800D01*
X-24200Y-4100D01*
X-24600Y-4500D01*
X-25000D01*
X-24600Y-4900D01*
X-25000Y-5300D01*
X-24600D01*
X-24200Y-5700D01*
X-34200D02*
X-33800Y-5300D01*
X-33400D01*
X-33800Y-4900D01*
X-33400Y-4500D01*
X-33800D01*
X-34200Y-4100D01*
X-34600Y-4500D01*
X-35000D01*
X-34600Y-4900D01*
X-35000Y-5300D01*
X-34600D01*
X-34200Y-5700D01*
X-44200D02*
X-43800Y-5300D01*
X-43400D01*
X-43800Y-4900D01*
X-43400Y-4500D01*
X-43800D01*
X-44200Y-4100D01*
X-44600Y-4500D01*
X-45000D01*
X-44600Y-4900D01*
X-45000Y-5300D01*
X-44600D01*
X-44200Y-5700D01*
D110*
X-105287Y-223107D02*
X-105840Y-222346D01*
X-106734Y-222637D01*
Y-223577D01*
X-105840Y-223868D01*
X-105287Y-223107D01*
X-101449D02*
X-102001Y-222346D01*
X-102896Y-222637D01*
Y-223577D01*
X-102001Y-223868D01*
X-101449Y-223107D01*
X-105287Y-219269D02*
X-105840Y-218508D01*
X-106734Y-218798D01*
Y-219739D01*
X-105840Y-220029D01*
X-105287Y-219269D01*
X-105287Y-226946D02*
X-105840Y-226185D01*
X-106734Y-226476D01*
Y-227416D01*
X-105840Y-227707D01*
X-105287Y-226946D01*
X-109126Y-223107D02*
X-109678Y-222346D01*
X-110573Y-222637D01*
Y-223577D01*
X-109678Y-223868D01*
X-109126Y-223107D01*
X-181163Y-209275D02*
X-181716Y-208514D01*
X-182610Y-208805D01*
Y-209745D01*
X-181716Y-210036D01*
X-181163Y-209275D01*
Y-213606D02*
X-181716Y-212845D01*
X-182610Y-213135D01*
Y-214076D01*
X-181716Y-214367D01*
X-181163Y-213606D01*
X-183328Y-211440D02*
X-183881Y-210680D01*
X-184775Y-210970D01*
Y-211911D01*
X-183881Y-212201D01*
X-183328Y-211440D01*
X-178998D02*
X-179550Y-210680D01*
X-180445Y-210970D01*
Y-211911D01*
X-179550Y-212201D01*
X-178998Y-211440D01*
X-179366Y-188972D02*
X-179919Y-188211D01*
X-180813Y-188502D01*
Y-189442D01*
X-179919Y-189733D01*
X-179366Y-188972D01*
X-183697D02*
X-184250Y-188211D01*
X-185144Y-188502D01*
Y-189442D01*
X-184250Y-189733D01*
X-183697Y-188972D01*
X-181532Y-191137D02*
X-182084Y-190376D01*
X-182979Y-190667D01*
Y-191607D01*
X-182084Y-191898D01*
X-181532Y-191137D01*
Y-186806D02*
X-182084Y-186046D01*
X-182979Y-186336D01*
Y-187277D01*
X-182084Y-187567D01*
X-181532Y-186806D01*
X-179981Y-160850D02*
X-180534Y-160089D01*
X-181428Y-160380D01*
Y-161320D01*
X-180534Y-161611D01*
X-179981Y-160850D01*
Y-165181D02*
X-180534Y-164420D01*
X-181428Y-164710D01*
Y-165651D01*
X-180534Y-165941D01*
X-179981Y-165181D01*
X-182147Y-163015D02*
X-182699Y-162254D01*
X-183594Y-162545D01*
Y-163485D01*
X-182699Y-163776D01*
X-182147Y-163015D01*
X-177816D02*
X-178369Y-162254D01*
X-179263Y-162545D01*
Y-163485D01*
X-178369Y-163776D01*
X-177816Y-163015D01*
X-41919Y-275248D02*
X-42472Y-274487D01*
X-43366Y-274778D01*
Y-275718D01*
X-42472Y-276009D01*
X-41919Y-275248D01*
X-46643Y-275248D02*
X-47196Y-274487D01*
X-48090Y-274778D01*
Y-275718D01*
X-47196Y-276009D01*
X-46643Y-275248D01*
X-46643Y-272000D02*
X-47196Y-271239D01*
X-48090Y-271530D01*
Y-272470D01*
X-47196Y-272761D01*
X-46643Y-272000D01*
X-41919D02*
X-42472Y-271239D01*
X-43366Y-271530D01*
Y-272470D01*
X-42472Y-272761D01*
X-41919Y-272000D01*
X-41919Y-268752D02*
X-42472Y-267991D01*
X-43366Y-268282D01*
Y-269222D01*
X-42472Y-269513D01*
X-41919Y-268752D01*
X-46643D02*
X-47196Y-267991D01*
X-48090Y-268282D01*
Y-269222D01*
X-47196Y-269513D01*
X-46643Y-268752D01*
X-101056Y-172250D02*
X-101609Y-171489D01*
X-102503Y-171780D01*
Y-172720D01*
X-101609Y-173011D01*
X-101056Y-172250D01*
X-167100Y-161900D02*
X-167653Y-161139D01*
X-168547Y-161430D01*
Y-162370D01*
X-167653Y-162661D01*
X-167100Y-161900D01*
Y-166800D02*
X-167653Y-166039D01*
X-168547Y-166330D01*
Y-167270D01*
X-167653Y-167561D01*
X-167100Y-166800D01*
X-168400Y-210400D02*
X-168953Y-209639D01*
X-169847Y-209930D01*
Y-210870D01*
X-168953Y-211161D01*
X-168400Y-210400D01*
X-168475Y-215279D02*
X-169028Y-214518D01*
X-169922Y-214809D01*
Y-215749D01*
X-169028Y-216040D01*
X-168475Y-215279D01*
X-168476Y-187724D02*
X-169029Y-186963D01*
X-169923Y-187254D01*
Y-188194D01*
X-169029Y-188485D01*
X-168476Y-187724D01*
Y-192810D02*
X-169029Y-192050D01*
X-169923Y-192340D01*
Y-193281D01*
X-169029Y-193571D01*
X-168476Y-192810D01*
X-2349Y-11811D02*
X-2902Y-11050D01*
X-3796Y-11340D01*
Y-12281D01*
X-2902Y-12572D01*
X-2349Y-11811D01*
Y-27559D02*
X-2902Y-26798D01*
X-3796Y-27089D01*
Y-28029D01*
X-2902Y-28320D01*
X-2349Y-27559D01*
X-6286Y-35433D02*
X-6839Y-34672D01*
X-7734Y-34963D01*
Y-35903D01*
X-6839Y-36194D01*
X-6286Y-35433D01*
X-2349Y-43307D02*
X-2902Y-42546D01*
X-3796Y-42837D01*
Y-43777D01*
X-2902Y-44068D01*
X-2349Y-43307D01*
X-6286Y-51181D02*
X-6839Y-50420D01*
X-7734Y-50711D01*
Y-51651D01*
X-6839Y-51942D01*
X-6286Y-51181D01*
X-2349Y-59055D02*
X-2902Y-58294D01*
X-3796Y-58585D01*
Y-59525D01*
X-2902Y-59816D01*
X-2349Y-59055D01*
X-6286Y-66929D02*
X-6839Y-66168D01*
X-7734Y-66459D01*
Y-67399D01*
X-6839Y-67690D01*
X-6286Y-66929D01*
X-2349Y-74803D02*
X-2902Y-74042D01*
X-3796Y-74333D01*
Y-75273D01*
X-2902Y-75564D01*
X-2349Y-74803D01*
Y-90551D02*
X-2902Y-89790D01*
X-3796Y-90081D01*
Y-91021D01*
X-2902Y-91312D01*
X-2349Y-90551D01*
X-6286Y-98425D02*
X-6839Y-97664D01*
X-7734Y-97955D01*
Y-98895D01*
X-6839Y-99186D01*
X-6286Y-98425D01*
X-2349Y-106299D02*
X-2902Y-105538D01*
X-3796Y-105829D01*
Y-106769D01*
X-2902Y-107060D01*
X-2349Y-106299D01*
Y-122047D02*
X-2902Y-121286D01*
X-3796Y-121577D01*
Y-122517D01*
X-2902Y-122808D01*
X-2349Y-122047D01*
X-6286Y-129921D02*
X-6839Y-129160D01*
X-7734Y-129451D01*
Y-130391D01*
X-6839Y-130682D01*
X-6286Y-129921D01*
X-2349Y-137795D02*
X-2902Y-137034D01*
X-3796Y-137325D01*
Y-138265D01*
X-2902Y-138556D01*
X-2349Y-137795D01*
X-6286Y-145669D02*
X-6839Y-144908D01*
X-7734Y-145199D01*
Y-146139D01*
X-6839Y-146430D01*
X-6286Y-145669D01*
X-2349Y-153543D02*
X-2902Y-152782D01*
X-3796Y-153073D01*
Y-154013D01*
X-2902Y-154304D01*
X-2349Y-153543D01*
X-6286Y-161417D02*
X-6839Y-160656D01*
X-7734Y-160947D01*
Y-161887D01*
X-6839Y-162178D01*
X-6286Y-161417D01*
X-2349Y-200787D02*
X-2902Y-200026D01*
X-3796Y-200317D01*
Y-201257D01*
X-2902Y-201548D01*
X-2349Y-200787D01*
X-6286Y-208661D02*
X-6839Y-207900D01*
X-7734Y-208191D01*
Y-209132D01*
X-6839Y-209422D01*
X-6286Y-208661D01*
X-2349Y-216535D02*
X-2902Y-215774D01*
X-3796Y-216065D01*
Y-217005D01*
X-2902Y-217296D01*
X-2349Y-216535D01*
Y-248031D02*
X-2902Y-247270D01*
X-3796Y-247561D01*
Y-248502D01*
X-2902Y-248792D01*
X-2349Y-248031D01*
X-6286Y-255905D02*
X-6839Y-255145D01*
X-7734Y-255435D01*
Y-256376D01*
X-6839Y-256666D01*
X-6286Y-255905D01*
X-2349Y-263779D02*
X-2902Y-263019D01*
X-3796Y-263309D01*
Y-264250D01*
X-2902Y-264540D01*
X-2349Y-263779D01*
Y-279527D02*
X-2902Y-278767D01*
X-3796Y-279057D01*
Y-279998D01*
X-2902Y-280288D01*
X-2349Y-279527D01*
X-6286Y-287402D02*
X-6839Y-286641D01*
X-7734Y-286931D01*
Y-287872D01*
X-6839Y-288162D01*
X-6286Y-287402D01*
X-10223Y-11811D02*
X-10776Y-11050D01*
X-11671Y-11340D01*
Y-12281D01*
X-10776Y-12572D01*
X-10223Y-11811D01*
Y-27559D02*
X-10776Y-26798D01*
X-11671Y-27089D01*
Y-28029D01*
X-10776Y-28320D01*
X-10223Y-27559D01*
X-14160Y-35433D02*
X-14713Y-34672D01*
X-15608Y-34963D01*
Y-35903D01*
X-14713Y-36194D01*
X-14160Y-35433D01*
X-10223Y-43307D02*
X-10776Y-42546D01*
X-11671Y-42837D01*
Y-43777D01*
X-10776Y-44068D01*
X-10223Y-43307D01*
X-14160Y-51181D02*
X-14713Y-50420D01*
X-15608Y-50711D01*
Y-51651D01*
X-14713Y-51942D01*
X-14160Y-51181D01*
X-10223Y-59055D02*
X-10776Y-58294D01*
X-11671Y-58585D01*
Y-59525D01*
X-10776Y-59816D01*
X-10223Y-59055D01*
X-14160Y-66929D02*
X-14713Y-66168D01*
X-15608Y-66459D01*
Y-67399D01*
X-14713Y-67690D01*
X-14160Y-66929D01*
X-10223Y-74803D02*
X-10776Y-74042D01*
X-11671Y-74333D01*
Y-75273D01*
X-10776Y-75564D01*
X-10223Y-74803D01*
X-14160Y-82677D02*
X-14713Y-81916D01*
X-15608Y-82207D01*
Y-83147D01*
X-14713Y-83438D01*
X-14160Y-82677D01*
X-10223Y-90551D02*
X-10776Y-89790D01*
X-11671Y-90081D01*
Y-91021D01*
X-10776Y-91312D01*
X-10223Y-90551D01*
Y-106299D02*
X-10776Y-105538D01*
X-11671Y-105829D01*
Y-106769D01*
X-10776Y-107060D01*
X-10223Y-106299D01*
X-14160Y-114173D02*
X-14713Y-113412D01*
X-15608Y-113703D01*
Y-114643D01*
X-14713Y-114934D01*
X-14160Y-114173D01*
X-10223Y-122047D02*
X-10776Y-121286D01*
X-11671Y-121577D01*
Y-122517D01*
X-10776Y-122808D01*
X-10223Y-122047D01*
X-14160Y-129921D02*
X-14713Y-129160D01*
X-15608Y-129451D01*
Y-130391D01*
X-14713Y-130682D01*
X-14160Y-129921D01*
X-10223Y-137795D02*
X-10776Y-137034D01*
X-11671Y-137325D01*
Y-138265D01*
X-10776Y-138556D01*
X-10223Y-137795D01*
Y-153543D02*
X-10776Y-152782D01*
X-11671Y-153073D01*
Y-154013D01*
X-10776Y-154304D01*
X-10223Y-153543D01*
X-14160Y-161417D02*
X-14713Y-160656D01*
X-15608Y-160947D01*
Y-161887D01*
X-14713Y-162178D01*
X-14160Y-161417D01*
X-10223Y-232283D02*
X-10776Y-231522D01*
X-11671Y-231813D01*
Y-232753D01*
X-10776Y-233044D01*
X-10223Y-232283D01*
X-14160Y-240157D02*
X-14713Y-239397D01*
X-15608Y-239687D01*
Y-240628D01*
X-14713Y-240918D01*
X-14160Y-240157D01*
X-10223Y-248031D02*
X-10776Y-247270D01*
X-11671Y-247561D01*
Y-248502D01*
X-10776Y-248792D01*
X-10223Y-248031D01*
Y-263779D02*
X-10776Y-263019D01*
X-11671Y-263309D01*
Y-264250D01*
X-10776Y-264540D01*
X-10223Y-263779D01*
X-14160Y-271653D02*
X-14713Y-270893D01*
X-15608Y-271183D01*
Y-272124D01*
X-14713Y-272414D01*
X-14160Y-271653D01*
X-10223Y-279527D02*
X-10776Y-278767D01*
X-11671Y-279057D01*
Y-279998D01*
X-10776Y-280288D01*
X-10223Y-279527D01*
X-14160Y-287402D02*
X-14713Y-286641D01*
X-15608Y-286931D01*
Y-287872D01*
X-14713Y-288162D01*
X-14160Y-287402D01*
X-18097Y-11811D02*
X-18650Y-11050D01*
X-19545Y-11340D01*
Y-12281D01*
X-18650Y-12572D01*
X-18097Y-11811D01*
Y-27559D02*
X-18650Y-26798D01*
X-19545Y-27089D01*
Y-28029D01*
X-18650Y-28320D01*
X-18097Y-27559D01*
Y-43307D02*
X-18650Y-42546D01*
X-19545Y-42837D01*
Y-43777D01*
X-18650Y-44068D01*
X-18097Y-43307D01*
Y-59055D02*
X-18650Y-58294D01*
X-19545Y-58585D01*
Y-59525D01*
X-18650Y-59816D01*
X-18097Y-59055D01*
X-22034Y-66929D02*
X-22587Y-66168D01*
X-23482Y-66459D01*
Y-67399D01*
X-22587Y-67690D01*
X-22034Y-66929D01*
X-18097Y-74803D02*
X-18650Y-74042D01*
X-19545Y-74333D01*
Y-75273D01*
X-18650Y-75564D01*
X-18097Y-74803D01*
X-22034Y-82677D02*
X-22587Y-81916D01*
X-23482Y-82207D01*
Y-83147D01*
X-22587Y-83438D01*
X-22034Y-82677D01*
X-18097Y-90551D02*
X-18650Y-89790D01*
X-19545Y-90081D01*
Y-91021D01*
X-18650Y-91312D01*
X-18097Y-90551D01*
X-22034Y-114173D02*
X-22587Y-113412D01*
X-23482Y-113703D01*
Y-114643D01*
X-22587Y-114934D01*
X-22034Y-114173D01*
X-18097Y-122047D02*
X-18650Y-121286D01*
X-19545Y-121577D01*
Y-122517D01*
X-18650Y-122808D01*
X-18097Y-122047D01*
X-22034Y-129921D02*
X-22587Y-129160D01*
X-23482Y-129451D01*
Y-130391D01*
X-22587Y-130682D01*
X-22034Y-129921D01*
X-18097Y-137795D02*
X-18650Y-137034D01*
X-19545Y-137325D01*
Y-138265D01*
X-18650Y-138556D01*
X-18097Y-137795D01*
Y-153543D02*
X-18650Y-152782D01*
X-19545Y-153073D01*
Y-154013D01*
X-18650Y-154304D01*
X-18097Y-153543D01*
X-22034Y-161417D02*
X-22587Y-160656D01*
X-23482Y-160947D01*
Y-161887D01*
X-22587Y-162178D01*
X-22034Y-161417D01*
X-18097Y-185039D02*
X-18650Y-184278D01*
X-19545Y-184569D01*
Y-185509D01*
X-18650Y-185800D01*
X-18097Y-185039D01*
X-22034Y-192913D02*
X-22587Y-192152D01*
X-23482Y-192443D01*
Y-193383D01*
X-22587Y-193674D01*
X-22034Y-192913D01*
X-18097Y-232283D02*
X-18650Y-231522D01*
X-19545Y-231813D01*
Y-232753D01*
X-18650Y-233044D01*
X-18097Y-232283D01*
X-22034Y-240157D02*
X-22587Y-239397D01*
X-23482Y-239687D01*
Y-240628D01*
X-22587Y-240918D01*
X-22034Y-240157D01*
Y-271653D02*
X-22587Y-270893D01*
X-23482Y-271183D01*
Y-272124D01*
X-22587Y-272414D01*
X-22034Y-271653D01*
X-25971Y-11811D02*
X-26524Y-11050D01*
X-27419Y-11340D01*
Y-12281D01*
X-26524Y-12572D01*
X-25971Y-11811D01*
X-29908Y-19685D02*
X-30461Y-18924D01*
X-31356Y-19215D01*
Y-20155D01*
X-30461Y-20446D01*
X-29908Y-19685D01*
X-25971Y-27559D02*
X-26524Y-26798D01*
X-27419Y-27089D01*
Y-28029D01*
X-26524Y-28320D01*
X-25971Y-27559D01*
X-29908Y-35433D02*
X-30461Y-34672D01*
X-31356Y-34963D01*
Y-35903D01*
X-30461Y-36194D01*
X-29908Y-35433D01*
X-25971Y-43307D02*
X-26524Y-42546D01*
X-27419Y-42837D01*
Y-43777D01*
X-26524Y-44068D01*
X-25971Y-43307D01*
X-29908Y-51181D02*
X-30461Y-50420D01*
X-31356Y-50711D01*
Y-51651D01*
X-30461Y-51942D01*
X-29908Y-51181D01*
Y-66929D02*
X-30461Y-66168D01*
X-31356Y-66459D01*
Y-67399D01*
X-30461Y-67690D01*
X-29908Y-66929D01*
X-25971Y-74803D02*
X-26524Y-74042D01*
X-27419Y-74333D01*
Y-75273D01*
X-26524Y-75564D01*
X-25971Y-74803D01*
X-29908Y-82677D02*
X-30461Y-81916D01*
X-31356Y-82207D01*
Y-83147D01*
X-30461Y-83438D01*
X-29908Y-82677D01*
X-25971Y-90551D02*
X-26524Y-89790D01*
X-27419Y-90081D01*
Y-91021D01*
X-26524Y-91312D01*
X-25971Y-90551D01*
X-29908Y-98425D02*
X-30461Y-97664D01*
X-31356Y-97955D01*
Y-98895D01*
X-30461Y-99186D01*
X-29908Y-98425D01*
Y-114173D02*
X-30461Y-113412D01*
X-31356Y-113703D01*
Y-114643D01*
X-30461Y-114934D01*
X-29908Y-114173D01*
X-25971Y-122047D02*
X-26524Y-121286D01*
X-27419Y-121577D01*
Y-122517D01*
X-26524Y-122808D01*
X-25971Y-122047D01*
X-29908Y-129921D02*
X-30461Y-129160D01*
X-31356Y-129451D01*
Y-130391D01*
X-30461Y-130682D01*
X-29908Y-129921D01*
X-25971Y-137795D02*
X-26524Y-137034D01*
X-27419Y-137325D01*
Y-138265D01*
X-26524Y-138556D01*
X-25971Y-137795D01*
X-29908Y-145669D02*
X-30461Y-144908D01*
X-31356Y-145199D01*
Y-146139D01*
X-30461Y-146430D01*
X-29908Y-145669D01*
X-25971Y-153543D02*
X-26524Y-152782D01*
X-27419Y-153073D01*
Y-154013D01*
X-26524Y-154304D01*
X-25971Y-153543D01*
X-29908Y-161417D02*
X-30461Y-160656D01*
X-31356Y-160947D01*
Y-161887D01*
X-30461Y-162178D01*
X-29908Y-161417D01*
X-25971Y-185039D02*
X-26524Y-184278D01*
X-27419Y-184569D01*
Y-185509D01*
X-26524Y-185800D01*
X-25971Y-185039D01*
X-29908Y-192913D02*
X-30461Y-192152D01*
X-31356Y-192443D01*
Y-193383D01*
X-30461Y-193674D01*
X-29908Y-192913D01*
X-25971Y-216535D02*
X-26524Y-215774D01*
X-27419Y-216065D01*
Y-217005D01*
X-26524Y-217296D01*
X-25971Y-216535D01*
Y-232283D02*
X-26524Y-231522D01*
X-27419Y-231813D01*
Y-232753D01*
X-26524Y-233044D01*
X-25971Y-232283D01*
X-29908Y-240157D02*
X-30461Y-239397D01*
X-31356Y-239687D01*
Y-240628D01*
X-30461Y-240918D01*
X-29908Y-240157D01*
X-25971Y-279527D02*
X-26524Y-278767D01*
X-27419Y-279057D01*
Y-279998D01*
X-26524Y-280288D01*
X-25971Y-279527D01*
X-37782Y-19685D02*
X-38335Y-18924D01*
X-39230Y-19215D01*
Y-20155D01*
X-38335Y-20446D01*
X-37782Y-19685D01*
Y-35433D02*
X-38335Y-34672D01*
X-39230Y-34963D01*
Y-35903D01*
X-38335Y-36194D01*
X-37782Y-35433D01*
Y-51181D02*
X-38335Y-50420D01*
X-39230Y-50711D01*
Y-51651D01*
X-38335Y-51942D01*
X-37782Y-51181D01*
Y-66929D02*
X-38335Y-66168D01*
X-39230Y-66459D01*
Y-67399D01*
X-38335Y-67690D01*
X-37782Y-66929D01*
X-33845Y-74803D02*
X-34398Y-74042D01*
X-35293Y-74333D01*
Y-75273D01*
X-34398Y-75564D01*
X-33845Y-74803D01*
X-37782Y-82677D02*
X-38335Y-81916D01*
X-39230Y-82207D01*
Y-83147D01*
X-38335Y-83438D01*
X-37782Y-82677D01*
X-33845Y-90551D02*
X-34398Y-89790D01*
X-35293Y-90081D01*
Y-91021D01*
X-34398Y-91312D01*
X-33845Y-90551D01*
X-37782Y-114173D02*
X-38335Y-113412D01*
X-39230Y-113703D01*
Y-114643D01*
X-38335Y-114934D01*
X-37782Y-114173D01*
X-33845Y-122047D02*
X-34398Y-121286D01*
X-35293Y-121577D01*
Y-122517D01*
X-34398Y-122808D01*
X-33845Y-122047D01*
X-37782Y-129921D02*
X-38335Y-129160D01*
X-39230Y-129451D01*
Y-130391D01*
X-38335Y-130682D01*
X-37782Y-129921D01*
X-33845Y-137795D02*
X-34398Y-137034D01*
X-35293Y-137325D01*
Y-138265D01*
X-34398Y-138556D01*
X-33845Y-137795D01*
X-37782Y-145669D02*
X-38335Y-144908D01*
X-39230Y-145199D01*
Y-146139D01*
X-38335Y-146430D01*
X-37782Y-145669D01*
X-33845Y-153543D02*
X-34398Y-152782D01*
X-35293Y-153073D01*
Y-154013D01*
X-34398Y-154304D01*
X-33845Y-153543D01*
X-37782Y-161417D02*
X-38335Y-160656D01*
X-39230Y-160947D01*
Y-161887D01*
X-38335Y-162178D01*
X-37782Y-161417D01*
X-33845Y-185039D02*
X-34398Y-184278D01*
X-35293Y-184569D01*
Y-185509D01*
X-34398Y-185800D01*
X-33845Y-185039D01*
X-37782Y-192913D02*
X-38335Y-192152D01*
X-39230Y-192443D01*
Y-193383D01*
X-38335Y-193674D01*
X-37782Y-192913D01*
Y-240157D02*
X-38335Y-239397D01*
X-39230Y-239687D01*
Y-240628D01*
X-38335Y-240918D01*
X-37782Y-240157D01*
Y-271653D02*
X-38335Y-270893D01*
X-39230Y-271183D01*
Y-272124D01*
X-38335Y-272414D01*
X-37782Y-271653D01*
X-41719Y-11811D02*
X-42272Y-11050D01*
X-43167Y-11340D01*
Y-12281D01*
X-42272Y-12572D01*
X-41719Y-11811D01*
X-45656Y-19685D02*
X-46209Y-18924D01*
X-47104Y-19215D01*
Y-20155D01*
X-46209Y-20446D01*
X-45656Y-19685D01*
X-41719Y-27559D02*
X-42272Y-26798D01*
X-43167Y-27089D01*
Y-28029D01*
X-42272Y-28320D01*
X-41719Y-27559D01*
X-45656Y-35433D02*
X-46209Y-34672D01*
X-47104Y-34963D01*
Y-35903D01*
X-46209Y-36194D01*
X-45656Y-35433D01*
X-41719Y-90551D02*
X-42272Y-89790D01*
X-43167Y-90081D01*
Y-91021D01*
X-42272Y-91312D01*
X-41719Y-90551D01*
Y-106299D02*
X-42272Y-105538D01*
X-43167Y-105829D01*
Y-106769D01*
X-42272Y-107060D01*
X-41719Y-106299D01*
X-45656Y-114173D02*
X-46209Y-113412D01*
X-47104Y-113703D01*
Y-114643D01*
X-46209Y-114934D01*
X-45656Y-114173D01*
X-41719Y-122047D02*
X-42272Y-121286D01*
X-43167Y-121577D01*
Y-122517D01*
X-42272Y-122808D01*
X-41719Y-122047D01*
X-45656Y-129921D02*
X-46209Y-129160D01*
X-47104Y-129451D01*
Y-130391D01*
X-46209Y-130682D01*
X-45656Y-129921D01*
X-41719Y-137795D02*
X-42272Y-137034D01*
X-43167Y-137325D01*
Y-138265D01*
X-42272Y-138556D01*
X-41719Y-137795D01*
X-45656Y-145669D02*
X-46209Y-144908D01*
X-47104Y-145199D01*
Y-146139D01*
X-46209Y-146430D01*
X-45656Y-145669D01*
X-41719Y-153543D02*
X-42272Y-152782D01*
X-43167Y-153073D01*
Y-154013D01*
X-42272Y-154304D01*
X-41719Y-153543D01*
X-45656Y-161417D02*
X-46209Y-160656D01*
X-47104Y-160947D01*
Y-161887D01*
X-46209Y-162178D01*
X-45656Y-161417D01*
X-41719Y-185039D02*
X-42272Y-184278D01*
X-43167Y-184569D01*
Y-185509D01*
X-42272Y-185800D01*
X-41719Y-185039D01*
X-45656Y-192913D02*
X-46209Y-192152D01*
X-47104Y-192443D01*
Y-193383D01*
X-46209Y-193674D01*
X-45656Y-192913D01*
X-41719Y-200787D02*
X-42272Y-200026D01*
X-43167Y-200317D01*
Y-201257D01*
X-42272Y-201548D01*
X-41719Y-200787D01*
Y-248031D02*
X-42272Y-247270D01*
X-43167Y-247561D01*
Y-248502D01*
X-42272Y-248792D01*
X-41719Y-248031D01*
Y-263779D02*
X-42272Y-263019D01*
X-43167Y-263309D01*
Y-264250D01*
X-42272Y-264540D01*
X-41719Y-263779D01*
X-49593Y-11811D02*
X-50146Y-11050D01*
X-51041Y-11340D01*
Y-12281D01*
X-50146Y-12572D01*
X-49593Y-11811D01*
X-53530Y-19685D02*
X-54083Y-18924D01*
X-54978Y-19215D01*
Y-20155D01*
X-54083Y-20446D01*
X-53530Y-19685D01*
X-49593Y-27559D02*
X-50146Y-26798D01*
X-51041Y-27089D01*
Y-28029D01*
X-50146Y-28320D01*
X-49593Y-27559D01*
Y-43307D02*
X-50146Y-42546D01*
X-51041Y-42837D01*
Y-43777D01*
X-50146Y-44068D01*
X-49593Y-43307D01*
X-53530Y-66929D02*
X-54083Y-66168D01*
X-54978Y-66459D01*
Y-67399D01*
X-54083Y-67690D01*
X-53530Y-66929D01*
X-49593Y-90551D02*
X-50146Y-89790D01*
X-51041Y-90081D01*
Y-91021D01*
X-50146Y-91312D01*
X-49593Y-90551D01*
Y-106299D02*
X-50146Y-105538D01*
X-51041Y-105829D01*
Y-106769D01*
X-50146Y-107060D01*
X-49593Y-106299D01*
X-53530Y-114173D02*
X-54083Y-113412D01*
X-54978Y-113703D01*
Y-114643D01*
X-54083Y-114934D01*
X-53530Y-114173D01*
X-49593Y-122047D02*
X-50146Y-121286D01*
X-51041Y-121577D01*
Y-122517D01*
X-50146Y-122808D01*
X-49593Y-122047D01*
X-53530Y-129921D02*
X-54083Y-129160D01*
X-54978Y-129451D01*
Y-130391D01*
X-54083Y-130682D01*
X-53530Y-129921D01*
X-49593Y-137795D02*
X-50146Y-137034D01*
X-51041Y-137325D01*
Y-138265D01*
X-50146Y-138556D01*
X-49593Y-137795D01*
X-53530Y-145669D02*
X-54083Y-144908D01*
X-54978Y-145199D01*
Y-146139D01*
X-54083Y-146430D01*
X-53530Y-145669D01*
X-49593Y-153543D02*
X-50146Y-152782D01*
X-51041Y-153073D01*
Y-154013D01*
X-50146Y-154304D01*
X-49593Y-153543D01*
X-53530Y-161417D02*
X-54083Y-160656D01*
X-54978Y-160947D01*
Y-161887D01*
X-54083Y-162178D01*
X-53530Y-161417D01*
X-49593Y-185039D02*
X-50146Y-184278D01*
X-51041Y-184569D01*
Y-185509D01*
X-50146Y-185800D01*
X-49593Y-185039D01*
X-53530Y-192913D02*
X-54083Y-192152D01*
X-54978Y-192443D01*
Y-193383D01*
X-54083Y-193674D01*
X-53530Y-192913D01*
X-49593Y-200787D02*
X-50146Y-200026D01*
X-51041Y-200317D01*
Y-201257D01*
X-50146Y-201548D01*
X-49593Y-200787D01*
X-53530Y-208661D02*
X-54083Y-207900D01*
X-54978Y-208191D01*
Y-209132D01*
X-54083Y-209422D01*
X-53530Y-208661D01*
X-57467Y-11811D02*
X-58020Y-11050D01*
X-58915Y-11340D01*
Y-12281D01*
X-58020Y-12572D01*
X-57467Y-11811D01*
Y-27559D02*
X-58020Y-26798D01*
X-58915Y-27089D01*
Y-28029D01*
X-58020Y-28320D01*
X-57467Y-27559D01*
Y-43307D02*
X-58020Y-42546D01*
X-58915Y-42837D01*
Y-43777D01*
X-58020Y-44068D01*
X-57467Y-43307D01*
X-61404Y-66929D02*
X-61957Y-66168D01*
X-62852Y-66459D01*
Y-67399D01*
X-61957Y-67690D01*
X-61404Y-66929D01*
X-57467Y-90551D02*
X-58020Y-89790D01*
X-58915Y-90081D01*
Y-91021D01*
X-58020Y-91312D01*
X-57467Y-90551D01*
Y-106299D02*
X-58020Y-105538D01*
X-58915Y-105829D01*
Y-106769D01*
X-58020Y-107060D01*
X-57467Y-106299D01*
Y-122047D02*
X-58020Y-121286D01*
X-58915Y-121577D01*
Y-122517D01*
X-58020Y-122808D01*
X-57467Y-122047D01*
X-61404Y-129921D02*
X-61957Y-129160D01*
X-62852Y-129451D01*
Y-130391D01*
X-61957Y-130682D01*
X-61404Y-129921D01*
X-57467Y-137795D02*
X-58020Y-137034D01*
X-58915Y-137325D01*
Y-138265D01*
X-58020Y-138556D01*
X-57467Y-137795D01*
X-61404Y-145669D02*
X-61957Y-144908D01*
X-62852Y-145199D01*
Y-146139D01*
X-61957Y-146430D01*
X-61404Y-145669D01*
X-57467Y-153543D02*
X-58020Y-152782D01*
X-58915Y-153073D01*
Y-154013D01*
X-58020Y-154304D01*
X-57467Y-153543D01*
X-61404Y-161417D02*
X-61957Y-160656D01*
X-62852Y-160947D01*
Y-161887D01*
X-61957Y-162178D01*
X-61404Y-161417D01*
X-57467Y-185039D02*
X-58020Y-184278D01*
X-58915Y-184569D01*
Y-185509D01*
X-58020Y-185800D01*
X-57467Y-185039D01*
X-61404Y-192913D02*
X-61957Y-192152D01*
X-62852Y-192443D01*
Y-193383D01*
X-61957Y-193674D01*
X-61404Y-192913D01*
Y-255905D02*
X-61957Y-255145D01*
X-62852Y-255435D01*
Y-256376D01*
X-61957Y-256666D01*
X-61404Y-255905D01*
Y-271653D02*
X-61957Y-270893D01*
X-62852Y-271183D01*
Y-272124D01*
X-61957Y-272414D01*
X-61404Y-271653D01*
X-65341Y-11811D02*
X-65894Y-11050D01*
X-66789Y-11340D01*
Y-12281D01*
X-65894Y-12572D01*
X-65341Y-11811D01*
Y-27559D02*
X-65894Y-26798D01*
X-66789Y-27089D01*
Y-28029D01*
X-65894Y-28320D01*
X-65341Y-27559D01*
Y-43307D02*
X-65894Y-42546D01*
X-66789Y-42837D01*
Y-43777D01*
X-65894Y-44068D01*
X-65341Y-43307D01*
Y-59055D02*
X-65894Y-58294D01*
X-66789Y-58585D01*
Y-59525D01*
X-65894Y-59816D01*
X-65341Y-59055D01*
X-69278Y-66929D02*
X-69831Y-66168D01*
X-70726Y-66459D01*
Y-67399D01*
X-69831Y-67690D01*
X-69278Y-66929D01*
X-65341Y-90551D02*
X-65894Y-89790D01*
X-66789Y-90081D01*
Y-91021D01*
X-65894Y-91312D01*
X-65341Y-90551D01*
Y-106299D02*
X-65894Y-105538D01*
X-66789Y-105829D01*
Y-106769D01*
X-65894Y-107060D01*
X-65341Y-106299D01*
X-69278Y-145669D02*
X-69831Y-144908D01*
X-70726Y-145199D01*
Y-146139D01*
X-69831Y-146430D01*
X-69278Y-145669D01*
X-65341Y-153543D02*
X-65894Y-152782D01*
X-66789Y-153073D01*
Y-154013D01*
X-65894Y-154304D01*
X-65341Y-153543D01*
X-69278Y-161417D02*
X-69831Y-160656D01*
X-70726Y-160947D01*
Y-161887D01*
X-69831Y-162178D01*
X-69278Y-161417D01*
X-65341Y-185039D02*
X-65894Y-184278D01*
X-66789Y-184569D01*
Y-185509D01*
X-65894Y-185800D01*
X-65341Y-185039D01*
X-69278Y-192913D02*
X-69831Y-192152D01*
X-70726Y-192443D01*
Y-193383D01*
X-69831Y-193674D01*
X-69278Y-192913D01*
Y-255905D02*
X-69831Y-255145D01*
X-70726Y-255435D01*
Y-256376D01*
X-69831Y-256666D01*
X-69278Y-255905D01*
X-65341Y-263779D02*
X-65894Y-263019D01*
X-66789Y-263309D01*
Y-264250D01*
X-65894Y-264540D01*
X-65341Y-263779D01*
Y-279527D02*
X-65894Y-278767D01*
X-66789Y-279057D01*
Y-279998D01*
X-65894Y-280288D01*
X-65341Y-279527D01*
X-73215Y-11811D02*
X-73768Y-11050D01*
X-74663Y-11340D01*
Y-12281D01*
X-73768Y-12572D01*
X-73215Y-11811D01*
Y-27559D02*
X-73768Y-26798D01*
X-74663Y-27089D01*
Y-28029D01*
X-73768Y-28320D01*
X-73215Y-27559D01*
Y-59055D02*
X-73768Y-58294D01*
X-74663Y-58585D01*
Y-59525D01*
X-73768Y-59816D01*
X-73215Y-59055D01*
Y-106299D02*
X-73768Y-105538D01*
X-74663Y-105829D01*
Y-106769D01*
X-73768Y-107060D01*
X-73215Y-106299D01*
X-77152Y-145669D02*
X-77705Y-144908D01*
X-78600Y-145199D01*
Y-146139D01*
X-77705Y-146430D01*
X-77152Y-145669D01*
X-73215Y-153543D02*
X-73768Y-152782D01*
X-74663Y-153073D01*
Y-154013D01*
X-73768Y-154304D01*
X-73215Y-153543D01*
X-77152Y-161417D02*
X-77705Y-160656D01*
X-78600Y-160947D01*
Y-161887D01*
X-77705Y-162178D01*
X-77152Y-161417D01*
Y-224409D02*
X-77705Y-223649D01*
X-78600Y-223939D01*
Y-224880D01*
X-77705Y-225170D01*
X-77152Y-224409D01*
Y-255905D02*
X-77705Y-255145D01*
X-78600Y-255435D01*
Y-256376D01*
X-77705Y-256666D01*
X-77152Y-255905D01*
X-73215Y-263779D02*
X-73768Y-263019D01*
X-74663Y-263309D01*
Y-264250D01*
X-73768Y-264540D01*
X-73215Y-263779D01*
Y-279527D02*
X-73768Y-278767D01*
X-74663Y-279057D01*
Y-279998D01*
X-73768Y-280288D01*
X-73215Y-279527D01*
X-81089Y-11811D02*
X-81642Y-11050D01*
X-82537Y-11340D01*
Y-12281D01*
X-81642Y-12572D01*
X-81089Y-11811D01*
X-85026Y-19685D02*
X-85579Y-18924D01*
X-86474Y-19215D01*
Y-20155D01*
X-85579Y-20446D01*
X-85026Y-19685D01*
X-81089Y-27559D02*
X-81642Y-26798D01*
X-82537Y-27089D01*
Y-28029D01*
X-81642Y-28320D01*
X-81089Y-27559D01*
X-85026Y-35433D02*
X-85579Y-34672D01*
X-86474Y-34963D01*
Y-35903D01*
X-85579Y-36194D01*
X-85026Y-35433D01*
Y-51181D02*
X-85579Y-50420D01*
X-86474Y-50711D01*
Y-51651D01*
X-85579Y-51942D01*
X-85026Y-51181D01*
X-81089Y-59055D02*
X-81642Y-58294D01*
X-82537Y-58585D01*
Y-59525D01*
X-81642Y-59816D01*
X-81089Y-59055D01*
X-85026Y-66929D02*
X-85579Y-66168D01*
X-86474Y-66459D01*
Y-67399D01*
X-85579Y-67690D01*
X-85026Y-66929D01*
Y-145669D02*
X-85579Y-144908D01*
X-86474Y-145199D01*
Y-146139D01*
X-85579Y-146430D01*
X-85026Y-145669D01*
X-81089Y-153543D02*
X-81642Y-152782D01*
X-82537Y-153073D01*
Y-154013D01*
X-81642Y-154304D01*
X-81089Y-153543D01*
X-85026Y-161417D02*
X-85579Y-160656D01*
X-86474Y-160947D01*
Y-161887D01*
X-85579Y-162178D01*
X-85026Y-161417D01*
Y-224409D02*
X-85579Y-223649D01*
X-86474Y-223939D01*
Y-224880D01*
X-85579Y-225170D01*
X-85026Y-224409D01*
X-81089Y-263779D02*
X-81642Y-263019D01*
X-82537Y-263309D01*
Y-264250D01*
X-81642Y-264540D01*
X-81089Y-263779D01*
X-85026Y-271653D02*
X-85579Y-270893D01*
X-86474Y-271183D01*
Y-272124D01*
X-85579Y-272414D01*
X-85026Y-271653D01*
X-88964Y-11811D02*
X-89516Y-11050D01*
X-90411Y-11340D01*
Y-12281D01*
X-89516Y-12572D01*
X-88964Y-11811D01*
Y-27559D02*
X-89516Y-26798D01*
X-90411Y-27089D01*
Y-28029D01*
X-89516Y-28320D01*
X-88964Y-27559D01*
Y-43307D02*
X-89516Y-42546D01*
X-90411Y-42837D01*
Y-43777D01*
X-89516Y-44068D01*
X-88964Y-43307D01*
X-92901Y-145669D02*
X-93453Y-144908D01*
X-94348Y-145199D01*
Y-146139D01*
X-93453Y-146430D01*
X-92901Y-145669D01*
X-88964Y-153543D02*
X-89516Y-152782D01*
X-90411Y-153073D01*
Y-154013D01*
X-89516Y-154304D01*
X-88964Y-153543D01*
X-92901Y-161417D02*
X-93453Y-160656D01*
X-94348Y-160947D01*
Y-161887D01*
X-93453Y-162178D01*
X-92901Y-161417D01*
X-88964Y-185039D02*
X-89516Y-184278D01*
X-90411Y-184569D01*
Y-185509D01*
X-89516Y-185800D01*
X-88964Y-185039D01*
X-92901Y-271653D02*
X-93453Y-270893D01*
X-94348Y-271183D01*
Y-272124D01*
X-93453Y-272414D01*
X-92901Y-271653D01*
Y-287402D02*
X-93453Y-286641D01*
X-94348Y-286931D01*
Y-287872D01*
X-93453Y-288162D01*
X-92901Y-287402D01*
X-96838Y-11811D02*
X-97390Y-11050D01*
X-98285Y-11340D01*
Y-12281D01*
X-97390Y-12572D01*
X-96838Y-11811D01*
X-100775Y-19685D02*
X-101327Y-18924D01*
X-102222Y-19215D01*
Y-20155D01*
X-101327Y-20446D01*
X-100775Y-19685D01*
X-96838Y-27559D02*
X-97390Y-26798D01*
X-98285Y-27089D01*
Y-28029D01*
X-97390Y-28320D01*
X-96838Y-27559D01*
X-100775Y-35433D02*
X-101327Y-34672D01*
X-102222Y-34963D01*
Y-35903D01*
X-101327Y-36194D01*
X-100775Y-35433D01*
X-96838Y-43307D02*
X-97390Y-42546D01*
X-98285Y-42837D01*
Y-43777D01*
X-97390Y-44068D01*
X-96838Y-43307D01*
X-100775Y-51181D02*
X-101327Y-50420D01*
X-102222Y-50711D01*
Y-51651D01*
X-101327Y-51942D01*
X-100775Y-51181D01*
X-96838Y-59055D02*
X-97390Y-58294D01*
X-98285Y-58585D01*
Y-59525D01*
X-97390Y-59816D01*
X-96838Y-59055D01*
X-100775Y-66929D02*
X-101327Y-66168D01*
X-102222Y-66459D01*
Y-67399D01*
X-101327Y-67690D01*
X-100775Y-66929D01*
X-96838Y-153543D02*
X-97390Y-152782D01*
X-98285Y-153073D01*
Y-154013D01*
X-97390Y-154304D01*
X-96838Y-153543D01*
Y-169291D02*
X-97390Y-168530D01*
X-98285Y-168821D01*
Y-169761D01*
X-97390Y-170052D01*
X-96838Y-169291D01*
X-100775Y-177165D02*
X-101327Y-176404D01*
X-102222Y-176695D01*
Y-177635D01*
X-101327Y-177926D01*
X-100775Y-177165D01*
X-96838Y-185039D02*
X-97390Y-184278D01*
X-98285Y-184569D01*
Y-185509D01*
X-97390Y-185800D01*
X-96838Y-185039D01*
Y-263779D02*
X-97390Y-263019D01*
X-98285Y-263309D01*
Y-264250D01*
X-97390Y-264540D01*
X-96838Y-263779D01*
X-100775Y-271653D02*
X-101327Y-270893D01*
X-102222Y-271183D01*
Y-272124D01*
X-101327Y-272414D01*
X-100775Y-271653D01*
Y-287402D02*
X-101327Y-286641D01*
X-102222Y-286931D01*
Y-287872D01*
X-101327Y-288162D01*
X-100775Y-287402D01*
X-104711Y-11811D02*
X-105264Y-11050D01*
X-106159Y-11340D01*
Y-12281D01*
X-105264Y-12572D01*
X-104711Y-11811D01*
X-108649Y-19685D02*
X-109201Y-18924D01*
X-110096Y-19215D01*
Y-20155D01*
X-109201Y-20446D01*
X-108649Y-19685D01*
X-104711Y-27559D02*
X-105264Y-26798D01*
X-106159Y-27089D01*
Y-28029D01*
X-105264Y-28320D01*
X-104711Y-27559D01*
Y-43307D02*
X-105264Y-42546D01*
X-106159Y-42837D01*
Y-43777D01*
X-105264Y-44068D01*
X-104711Y-43307D01*
X-108649Y-51181D02*
X-109201Y-50420D01*
X-110096Y-50711D01*
Y-51651D01*
X-109201Y-51942D01*
X-108649Y-51181D01*
X-104711Y-59055D02*
X-105264Y-58294D01*
X-106159Y-58585D01*
Y-59525D01*
X-105264Y-59816D01*
X-104711Y-59055D01*
X-108649Y-66929D02*
X-109201Y-66168D01*
X-110096Y-66459D01*
Y-67399D01*
X-109201Y-67690D01*
X-108649Y-66929D01*
X-104711Y-74803D02*
X-105264Y-74042D01*
X-106159Y-74333D01*
Y-75273D01*
X-105264Y-75564D01*
X-104711Y-74803D01*
Y-90551D02*
X-105264Y-89790D01*
X-106159Y-90081D01*
Y-91021D01*
X-105264Y-91312D01*
X-104711Y-90551D01*
X-108649Y-129921D02*
X-109201Y-129160D01*
X-110096Y-129451D01*
Y-130391D01*
X-109201Y-130682D01*
X-108649Y-129921D01*
X-104711Y-153543D02*
X-105264Y-152782D01*
X-106159Y-153073D01*
Y-154013D01*
X-105264Y-154304D01*
X-104711Y-153543D01*
X-108649Y-177165D02*
X-109201Y-176404D01*
X-110096Y-176695D01*
Y-177635D01*
X-109201Y-177926D01*
X-108649Y-177165D01*
Y-271653D02*
X-109201Y-270893D01*
X-110096Y-271183D01*
Y-272124D01*
X-109201Y-272414D01*
X-108649Y-271653D01*
Y-287402D02*
X-109201Y-286641D01*
X-110096Y-286931D01*
Y-287872D01*
X-109201Y-288162D01*
X-108649Y-287402D01*
X-112585Y-11811D02*
X-113138Y-11050D01*
X-114033Y-11340D01*
Y-12281D01*
X-113138Y-12572D01*
X-112585Y-11811D01*
X-116523Y-19685D02*
X-117075Y-18924D01*
X-117970Y-19215D01*
Y-20155D01*
X-117075Y-20446D01*
X-116523Y-19685D01*
X-112585Y-27559D02*
X-113138Y-26798D01*
X-114033Y-27089D01*
Y-28029D01*
X-113138Y-28320D01*
X-112585Y-27559D01*
Y-43307D02*
X-113138Y-42546D01*
X-114033Y-42837D01*
Y-43777D01*
X-113138Y-44068D01*
X-112585Y-43307D01*
X-116523Y-66929D02*
X-117075Y-66168D01*
X-117970Y-66459D01*
Y-67399D01*
X-117075Y-67690D01*
X-116523Y-66929D01*
Y-98425D02*
X-117075Y-97664D01*
X-117970Y-97955D01*
Y-98895D01*
X-117075Y-99186D01*
X-116523Y-98425D01*
X-112585Y-122047D02*
X-113138Y-121286D01*
X-114033Y-121577D01*
Y-122517D01*
X-113138Y-122808D01*
X-112585Y-122047D01*
X-116523Y-129921D02*
X-117075Y-129160D01*
X-117970Y-129451D01*
Y-130391D01*
X-117075Y-130682D01*
X-116523Y-129921D01*
Y-145669D02*
X-117075Y-144908D01*
X-117970Y-145199D01*
Y-146139D01*
X-117075Y-146430D01*
X-116523Y-145669D01*
X-112585Y-153543D02*
X-113138Y-152782D01*
X-114033Y-153073D01*
Y-154013D01*
X-113138Y-154304D01*
X-112585Y-153543D01*
X-116523Y-161417D02*
X-117075Y-160656D01*
X-117970Y-160947D01*
Y-161887D01*
X-117075Y-162178D01*
X-116523Y-161417D01*
X-112585Y-169291D02*
X-113138Y-168530D01*
X-114033Y-168821D01*
Y-169761D01*
X-113138Y-170052D01*
X-112585Y-169291D01*
X-116523Y-177165D02*
X-117075Y-176404D01*
X-117970Y-176695D01*
Y-177635D01*
X-117075Y-177926D01*
X-116523Y-177165D01*
Y-192913D02*
X-117075Y-192152D01*
X-117970Y-192443D01*
Y-193383D01*
X-117075Y-193674D01*
X-116523Y-192913D01*
X-112585Y-232283D02*
X-113138Y-231522D01*
X-114033Y-231813D01*
Y-232753D01*
X-113138Y-233044D01*
X-112585Y-232283D01*
X-116523Y-255905D02*
X-117075Y-255145D01*
X-117970Y-255435D01*
Y-256376D01*
X-117075Y-256666D01*
X-116523Y-255905D01*
X-112585Y-263779D02*
X-113138Y-263019D01*
X-114033Y-263309D01*
Y-264250D01*
X-113138Y-264540D01*
X-112585Y-263779D01*
X-116523Y-271653D02*
X-117075Y-270893D01*
X-117970Y-271183D01*
Y-272124D01*
X-117075Y-272414D01*
X-116523Y-271653D01*
Y-287402D02*
X-117075Y-286641D01*
X-117970Y-286931D01*
Y-287872D01*
X-117075Y-288162D01*
X-116523Y-287402D01*
X-120459Y-11811D02*
X-121012Y-11050D01*
X-121907Y-11340D01*
Y-12281D01*
X-121012Y-12572D01*
X-120459Y-11811D01*
X-124397Y-19685D02*
X-124949Y-18924D01*
X-125844Y-19215D01*
Y-20155D01*
X-124949Y-20446D01*
X-124397Y-19685D01*
X-120459Y-27559D02*
X-121012Y-26798D01*
X-121907Y-27089D01*
Y-28029D01*
X-121012Y-28320D01*
X-120459Y-27559D01*
X-124397Y-35433D02*
X-124949Y-34672D01*
X-125844Y-34963D01*
Y-35903D01*
X-124949Y-36194D01*
X-124397Y-35433D01*
X-120459Y-43307D02*
X-121012Y-42546D01*
X-121907Y-42837D01*
Y-43777D01*
X-121012Y-44068D01*
X-120459Y-43307D01*
Y-59055D02*
X-121012Y-58294D01*
X-121907Y-58585D01*
Y-59525D01*
X-121012Y-59816D01*
X-120459Y-59055D01*
X-124397Y-66929D02*
X-124949Y-66168D01*
X-125844Y-66459D01*
Y-67399D01*
X-124949Y-67690D01*
X-124397Y-66929D01*
X-120459Y-74803D02*
X-121012Y-74042D01*
X-121907Y-74333D01*
Y-75273D01*
X-121012Y-75564D01*
X-120459Y-74803D01*
Y-106299D02*
X-121012Y-105538D01*
X-121907Y-105829D01*
Y-106769D01*
X-121012Y-107060D01*
X-120459Y-106299D01*
Y-122047D02*
X-121012Y-121286D01*
X-121907Y-121577D01*
Y-122517D01*
X-121012Y-122808D01*
X-120459Y-122047D01*
X-124397Y-129921D02*
X-124949Y-129160D01*
X-125844Y-129451D01*
Y-130391D01*
X-124949Y-130682D01*
X-124397Y-129921D01*
Y-161417D02*
X-124949Y-160656D01*
X-125844Y-160947D01*
Y-161887D01*
X-124949Y-162178D01*
X-124397Y-161417D01*
X-120459Y-169291D02*
X-121012Y-168530D01*
X-121907Y-168821D01*
Y-169761D01*
X-121012Y-170052D01*
X-120459Y-169291D01*
X-124397Y-177165D02*
X-124949Y-176404D01*
X-125844Y-176695D01*
Y-177635D01*
X-124949Y-177926D01*
X-124397Y-177165D01*
Y-255905D02*
X-124949Y-255145D01*
X-125844Y-255435D01*
Y-256376D01*
X-124949Y-256666D01*
X-124397Y-255905D01*
X-120459Y-263779D02*
X-121012Y-263019D01*
X-121907Y-263309D01*
Y-264250D01*
X-121012Y-264540D01*
X-120459Y-263779D01*
X-124397Y-271653D02*
X-124949Y-270893D01*
X-125844Y-271183D01*
Y-272124D01*
X-124949Y-272414D01*
X-124397Y-271653D01*
Y-287402D02*
X-124949Y-286641D01*
X-125844Y-286931D01*
Y-287872D01*
X-124949Y-288162D01*
X-124397Y-287402D01*
X-128333Y-11811D02*
X-128886Y-11050D01*
X-129781Y-11340D01*
Y-12281D01*
X-128886Y-12572D01*
X-128333Y-11811D01*
X-132271Y-19685D02*
X-132823Y-18924D01*
X-133718Y-19215D01*
Y-20155D01*
X-132823Y-20446D01*
X-132271Y-19685D01*
X-128333Y-27559D02*
X-128886Y-26798D01*
X-129781Y-27089D01*
Y-28029D01*
X-128886Y-28320D01*
X-128333Y-27559D01*
X-132271Y-35433D02*
X-132823Y-34672D01*
X-133718Y-34963D01*
Y-35903D01*
X-132823Y-36194D01*
X-132271Y-35433D01*
X-128333Y-43307D02*
X-128886Y-42546D01*
X-129781Y-42837D01*
Y-43777D01*
X-128886Y-44068D01*
X-128333Y-43307D01*
X-132271Y-51181D02*
X-132823Y-50420D01*
X-133718Y-50711D01*
Y-51651D01*
X-132823Y-51942D01*
X-132271Y-51181D01*
X-128333Y-59055D02*
X-128886Y-58294D01*
X-129781Y-58585D01*
Y-59525D01*
X-128886Y-59816D01*
X-128333Y-59055D01*
X-132271Y-66929D02*
X-132823Y-66168D01*
X-133718Y-66459D01*
Y-67399D01*
X-132823Y-67690D01*
X-132271Y-66929D01*
X-128333Y-74803D02*
X-128886Y-74042D01*
X-129781Y-74333D01*
Y-75273D01*
X-128886Y-75564D01*
X-128333Y-74803D01*
X-132271Y-98425D02*
X-132823Y-97664D01*
X-133718Y-97955D01*
Y-98895D01*
X-132823Y-99186D01*
X-132271Y-98425D01*
Y-145669D02*
X-132823Y-144908D01*
X-133718Y-145199D01*
Y-146139D01*
X-132823Y-146430D01*
X-132271Y-145669D01*
X-128333Y-153543D02*
X-128886Y-152782D01*
X-129781Y-153073D01*
Y-154013D01*
X-128886Y-154304D01*
X-128333Y-153543D01*
X-132271Y-161417D02*
X-132823Y-160656D01*
X-133718Y-160947D01*
Y-161887D01*
X-132823Y-162178D01*
X-132271Y-161417D01*
X-128333Y-169291D02*
X-128886Y-168530D01*
X-129781Y-168821D01*
Y-169761D01*
X-128886Y-170052D01*
X-128333Y-169291D01*
X-132271Y-177165D02*
X-132823Y-176404D01*
X-133718Y-176695D01*
Y-177635D01*
X-132823Y-177926D01*
X-132271Y-177165D01*
Y-255905D02*
X-132823Y-255145D01*
X-133718Y-255435D01*
Y-256376D01*
X-132823Y-256666D01*
X-132271Y-255905D01*
X-128333Y-263779D02*
X-128886Y-263019D01*
X-129781Y-263309D01*
Y-264250D01*
X-128886Y-264540D01*
X-128333Y-263779D01*
X-132271Y-271653D02*
X-132823Y-270893D01*
X-133718Y-271183D01*
Y-272124D01*
X-132823Y-272414D01*
X-132271Y-271653D01*
Y-287402D02*
X-132823Y-286641D01*
X-133718Y-286931D01*
Y-287872D01*
X-132823Y-288162D01*
X-132271Y-287402D01*
X-136208Y-11811D02*
X-136760Y-11050D01*
X-137655Y-11340D01*
Y-12281D01*
X-136760Y-12572D01*
X-136208Y-11811D01*
X-140145Y-19685D02*
X-140697Y-18924D01*
X-141592Y-19215D01*
Y-20155D01*
X-140697Y-20446D01*
X-140145Y-19685D01*
X-136208Y-27559D02*
X-136760Y-26798D01*
X-137655Y-27089D01*
Y-28029D01*
X-136760Y-28320D01*
X-136208Y-27559D01*
Y-43307D02*
X-136760Y-42546D01*
X-137655Y-42837D01*
Y-43777D01*
X-136760Y-44068D01*
X-136208Y-43307D01*
X-140145Y-51181D02*
X-140697Y-50420D01*
X-141592Y-50711D01*
Y-51651D01*
X-140697Y-51942D01*
X-140145Y-51181D01*
X-136208Y-59055D02*
X-136760Y-58294D01*
X-137655Y-58585D01*
Y-59525D01*
X-136760Y-59816D01*
X-136208Y-59055D01*
X-140145Y-66929D02*
X-140697Y-66168D01*
X-141592Y-66459D01*
Y-67399D01*
X-140697Y-67690D01*
X-140145Y-66929D01*
X-136208Y-74803D02*
X-136760Y-74042D01*
X-137655Y-74333D01*
Y-75273D01*
X-136760Y-75564D01*
X-136208Y-74803D01*
X-140145Y-82677D02*
X-140697Y-81916D01*
X-141592Y-82207D01*
Y-83147D01*
X-140697Y-83438D01*
X-140145Y-82677D01*
X-136208Y-137795D02*
X-136760Y-137034D01*
X-137655Y-137325D01*
Y-138265D01*
X-136760Y-138556D01*
X-136208Y-137795D01*
X-140145Y-145669D02*
X-140697Y-144908D01*
X-141592Y-145199D01*
Y-146139D01*
X-140697Y-146430D01*
X-140145Y-145669D01*
X-136208Y-153543D02*
X-136760Y-152782D01*
X-137655Y-153073D01*
Y-154013D01*
X-136760Y-154304D01*
X-136208Y-153543D01*
X-140145Y-161417D02*
X-140697Y-160656D01*
X-141592Y-160947D01*
Y-161887D01*
X-140697Y-162178D01*
X-140145Y-161417D01*
X-136208Y-169291D02*
X-136760Y-168530D01*
X-137655Y-168821D01*
Y-169761D01*
X-136760Y-170052D01*
X-136208Y-169291D01*
X-140145Y-177165D02*
X-140697Y-176404D01*
X-141592Y-176695D01*
Y-177635D01*
X-140697Y-177926D01*
X-140145Y-177165D01*
Y-192913D02*
X-140697Y-192152D01*
X-141592Y-192443D01*
Y-193383D01*
X-140697Y-193674D01*
X-140145Y-192913D01*
Y-208661D02*
X-140697Y-207900D01*
X-141592Y-208191D01*
Y-209132D01*
X-140697Y-209422D01*
X-140145Y-208661D01*
Y-224409D02*
X-140697Y-223649D01*
X-141592Y-223939D01*
Y-224880D01*
X-140697Y-225170D01*
X-140145Y-224409D01*
Y-240157D02*
X-140697Y-239397D01*
X-141592Y-239687D01*
Y-240628D01*
X-140697Y-240918D01*
X-140145Y-240157D01*
X-136208Y-248031D02*
X-136760Y-247270D01*
X-137655Y-247561D01*
Y-248502D01*
X-136760Y-248792D01*
X-136208Y-248031D01*
X-140145Y-255905D02*
X-140697Y-255145D01*
X-141592Y-255435D01*
Y-256376D01*
X-140697Y-256666D01*
X-140145Y-255905D01*
X-136208Y-263779D02*
X-136760Y-263019D01*
X-137655Y-263309D01*
Y-264250D01*
X-136760Y-264540D01*
X-136208Y-263779D01*
X-140145Y-287402D02*
X-140697Y-286641D01*
X-141592Y-286931D01*
Y-287872D01*
X-140697Y-288162D01*
X-140145Y-287402D01*
X-144082Y-11811D02*
X-144634Y-11050D01*
X-145529Y-11340D01*
Y-12281D01*
X-144634Y-12572D01*
X-144082Y-11811D01*
X-148019Y-19685D02*
X-148571Y-18924D01*
X-149466Y-19215D01*
Y-20155D01*
X-148571Y-20446D01*
X-148019Y-19685D01*
X-144082Y-27559D02*
X-144634Y-26798D01*
X-145529Y-27089D01*
Y-28029D01*
X-144634Y-28320D01*
X-144082Y-27559D01*
X-148019Y-35433D02*
X-148571Y-34672D01*
X-149466Y-34963D01*
Y-35903D01*
X-148571Y-36194D01*
X-148019Y-35433D01*
X-144082Y-43307D02*
X-144634Y-42546D01*
X-145529Y-42837D01*
Y-43777D01*
X-144634Y-44068D01*
X-144082Y-43307D01*
X-148019Y-51181D02*
X-148571Y-50420D01*
X-149466Y-50711D01*
Y-51651D01*
X-148571Y-51942D01*
X-148019Y-51181D01*
X-144082Y-59055D02*
X-144634Y-58294D01*
X-145529Y-58585D01*
Y-59525D01*
X-144634Y-59816D01*
X-144082Y-59055D01*
X-148019Y-66929D02*
X-148571Y-66168D01*
X-149466Y-66459D01*
Y-67399D01*
X-148571Y-67690D01*
X-148019Y-66929D01*
X-144082Y-74803D02*
X-144634Y-74042D01*
X-145529Y-74333D01*
Y-75273D01*
X-144634Y-75564D01*
X-144082Y-74803D01*
X-148019Y-82677D02*
X-148571Y-81916D01*
X-149466Y-82207D01*
Y-83147D01*
X-148571Y-83438D01*
X-148019Y-82677D01*
Y-129921D02*
X-148571Y-129160D01*
X-149466Y-129451D01*
Y-130391D01*
X-148571Y-130682D01*
X-148019Y-129921D01*
X-144082Y-137795D02*
X-144634Y-137034D01*
X-145529Y-137325D01*
Y-138265D01*
X-144634Y-138556D01*
X-144082Y-137795D01*
X-148019Y-145669D02*
X-148571Y-144908D01*
X-149466Y-145199D01*
Y-146139D01*
X-148571Y-146430D01*
X-148019Y-145669D01*
X-151956Y-11811D02*
X-152508Y-11050D01*
X-153403Y-11340D01*
Y-12281D01*
X-152508Y-12572D01*
X-151956Y-11811D01*
X-155893Y-19685D02*
X-156445Y-18924D01*
X-157340Y-19215D01*
Y-20155D01*
X-156445Y-20446D01*
X-155893Y-19685D01*
X-151956Y-27559D02*
X-152508Y-26798D01*
X-153403Y-27089D01*
Y-28029D01*
X-152508Y-28320D01*
X-151956Y-27559D01*
X-155893Y-35433D02*
X-156445Y-34672D01*
X-157340Y-34963D01*
Y-35903D01*
X-156445Y-36194D01*
X-155893Y-35433D01*
X-151956Y-43307D02*
X-152508Y-42546D01*
X-153403Y-42837D01*
Y-43777D01*
X-152508Y-44068D01*
X-151956Y-43307D01*
X-155893Y-51181D02*
X-156445Y-50420D01*
X-157340Y-50711D01*
Y-51651D01*
X-156445Y-51942D01*
X-155893Y-51181D01*
X-151956Y-59055D02*
X-152508Y-58294D01*
X-153403Y-58585D01*
Y-59525D01*
X-152508Y-59816D01*
X-151956Y-59055D01*
X-155893Y-66929D02*
X-156445Y-66168D01*
X-157340Y-66459D01*
Y-67399D01*
X-156445Y-67690D01*
X-155893Y-66929D01*
X-151956Y-74803D02*
X-152508Y-74042D01*
X-153403Y-74333D01*
Y-75273D01*
X-152508Y-75564D01*
X-151956Y-74803D01*
X-155893Y-82677D02*
X-156445Y-81916D01*
X-157340Y-82207D01*
Y-83147D01*
X-156445Y-83438D01*
X-155893Y-82677D01*
Y-129921D02*
X-156445Y-129160D01*
X-157340Y-129451D01*
Y-130391D01*
X-156445Y-130682D01*
X-155893Y-129921D01*
X-151956Y-137795D02*
X-152508Y-137034D01*
X-153403Y-137325D01*
Y-138265D01*
X-152508Y-138556D01*
X-151956Y-137795D01*
X-155893Y-145669D02*
X-156445Y-144908D01*
X-157340Y-145199D01*
Y-146139D01*
X-156445Y-146430D01*
X-155893Y-145669D01*
X-159830Y-11811D02*
X-160382Y-11050D01*
X-161277Y-11340D01*
Y-12281D01*
X-160382Y-12572D01*
X-159830Y-11811D01*
X-163767Y-19685D02*
X-164319Y-18924D01*
X-165214Y-19215D01*
Y-20155D01*
X-164319Y-20446D01*
X-163767Y-19685D01*
X-159830Y-27559D02*
X-160382Y-26798D01*
X-161277Y-27089D01*
Y-28029D01*
X-160382Y-28320D01*
X-159830Y-27559D01*
X-163767Y-35433D02*
X-164319Y-34672D01*
X-165214Y-34963D01*
Y-35903D01*
X-164319Y-36194D01*
X-163767Y-35433D01*
X-159830Y-43307D02*
X-160382Y-42546D01*
X-161277Y-42837D01*
Y-43777D01*
X-160382Y-44068D01*
X-159830Y-43307D01*
X-163767Y-51181D02*
X-164319Y-50420D01*
X-165214Y-50711D01*
Y-51651D01*
X-164319Y-51942D01*
X-163767Y-51181D01*
X-159830Y-59055D02*
X-160382Y-58294D01*
X-161277Y-58585D01*
Y-59525D01*
X-160382Y-59816D01*
X-159830Y-59055D01*
X-163767Y-66929D02*
X-164319Y-66168D01*
X-165214Y-66459D01*
Y-67399D01*
X-164319Y-67690D01*
X-163767Y-66929D01*
X-159830Y-74803D02*
X-160382Y-74042D01*
X-161277Y-74333D01*
Y-75273D01*
X-160382Y-75564D01*
X-159830Y-74803D01*
X-163767Y-82677D02*
X-164319Y-81916D01*
X-165214Y-82207D01*
Y-83147D01*
X-164319Y-83438D01*
X-163767Y-82677D01*
X-159830Y-90551D02*
X-160382Y-89790D01*
X-161277Y-90081D01*
Y-91021D01*
X-160382Y-91312D01*
X-159830Y-90551D01*
X-163767Y-98425D02*
X-164319Y-97664D01*
X-165214Y-97955D01*
Y-98895D01*
X-164319Y-99186D01*
X-163767Y-98425D01*
X-159830Y-106299D02*
X-160382Y-105538D01*
X-161277Y-105829D01*
Y-106769D01*
X-160382Y-107060D01*
X-159830Y-106299D01*
X-163767Y-114173D02*
X-164319Y-113412D01*
X-165214Y-113703D01*
Y-114643D01*
X-164319Y-114934D01*
X-163767Y-114173D01*
X-159830Y-122047D02*
X-160382Y-121286D01*
X-161277Y-121577D01*
Y-122517D01*
X-160382Y-122808D01*
X-159830Y-122047D01*
X-163767Y-129921D02*
X-164319Y-129160D01*
X-165214Y-129451D01*
Y-130391D01*
X-164319Y-130682D01*
X-163767Y-129921D01*
X-159830Y-137795D02*
X-160382Y-137034D01*
X-161277Y-137325D01*
Y-138265D01*
X-160382Y-138556D01*
X-159830Y-137795D01*
X-163767Y-145669D02*
X-164319Y-144908D01*
X-165214Y-145199D01*
Y-146139D01*
X-164319Y-146430D01*
X-163767Y-145669D01*
X-171641Y-19685D02*
X-172194Y-18924D01*
X-173088Y-19215D01*
Y-20155D01*
X-172194Y-20446D01*
X-171641Y-19685D01*
Y-35433D02*
X-172194Y-34672D01*
X-173088Y-34963D01*
Y-35903D01*
X-172194Y-36194D01*
X-171641Y-35433D01*
Y-51181D02*
X-172194Y-50420D01*
X-173088Y-50711D01*
Y-51651D01*
X-172194Y-51942D01*
X-171641Y-51181D01*
Y-66929D02*
X-172194Y-66168D01*
X-173088Y-66459D01*
Y-67399D01*
X-172194Y-67690D01*
X-171641Y-66929D01*
Y-82677D02*
X-172194Y-81916D01*
X-173088Y-82207D01*
Y-83147D01*
X-172194Y-83438D01*
X-171641Y-82677D01*
Y-98425D02*
X-172194Y-97664D01*
X-173088Y-97955D01*
Y-98895D01*
X-172194Y-99186D01*
X-171641Y-98425D01*
Y-145669D02*
X-172194Y-144908D01*
X-173088Y-145199D01*
Y-146139D01*
X-172194Y-146430D01*
X-171641Y-145669D01*
X-175578Y-11811D02*
X-176130Y-11050D01*
X-177025Y-11340D01*
Y-12281D01*
X-176130Y-12572D01*
X-175578Y-11811D01*
X-179515Y-19685D02*
X-180068Y-18924D01*
X-180962Y-19215D01*
Y-20155D01*
X-180068Y-20446D01*
X-179515Y-19685D01*
X-175578Y-27559D02*
X-176130Y-26798D01*
X-177025Y-27089D01*
Y-28029D01*
X-176130Y-28320D01*
X-175578Y-27559D01*
X-179515Y-35433D02*
X-180068Y-34672D01*
X-180962Y-34963D01*
Y-35903D01*
X-180068Y-36194D01*
X-179515Y-35433D01*
X-175578Y-43307D02*
X-176130Y-42546D01*
X-177025Y-42837D01*
Y-43777D01*
X-176130Y-44068D01*
X-175578Y-43307D01*
X-179515Y-51181D02*
X-180068Y-50420D01*
X-180962Y-50711D01*
Y-51651D01*
X-180068Y-51942D01*
X-179515Y-51181D01*
X-175578Y-59055D02*
X-176130Y-58294D01*
X-177025Y-58585D01*
Y-59525D01*
X-176130Y-59816D01*
X-175578Y-59055D01*
X-179515Y-66929D02*
X-180068Y-66168D01*
X-180962Y-66459D01*
Y-67399D01*
X-180068Y-67690D01*
X-179515Y-66929D01*
X-175578Y-74803D02*
X-176130Y-74042D01*
X-177025Y-74333D01*
Y-75273D01*
X-176130Y-75564D01*
X-175578Y-74803D01*
X-179515Y-82677D02*
X-180068Y-81916D01*
X-180962Y-82207D01*
Y-83147D01*
X-180068Y-83438D01*
X-179515Y-82677D01*
X-175578Y-90551D02*
X-176130Y-89790D01*
X-177025Y-90081D01*
Y-91021D01*
X-176130Y-91312D01*
X-175578Y-90551D01*
X-179515Y-129921D02*
X-180068Y-129160D01*
X-180962Y-129451D01*
Y-130391D01*
X-180068Y-130682D01*
X-179515Y-129921D01*
X-175578Y-137795D02*
X-176130Y-137034D01*
X-177025Y-137325D01*
Y-138265D01*
X-176130Y-138556D01*
X-175578Y-137795D01*
X-179515Y-145669D02*
X-180068Y-144908D01*
X-180962Y-145199D01*
Y-146139D01*
X-180068Y-146430D01*
X-179515Y-145669D01*
X-183452Y-11811D02*
X-184004Y-11050D01*
X-184899Y-11340D01*
Y-12281D01*
X-184004Y-12572D01*
X-183452Y-11811D01*
X-187389Y-19685D02*
X-187942Y-18924D01*
X-188836Y-19215D01*
Y-20155D01*
X-187942Y-20446D01*
X-187389Y-19685D01*
X-183452Y-27559D02*
X-184004Y-26798D01*
X-184899Y-27089D01*
Y-28029D01*
X-184004Y-28320D01*
X-183452Y-27559D01*
X-187389Y-35433D02*
X-187942Y-34672D01*
X-188836Y-34963D01*
Y-35903D01*
X-187942Y-36194D01*
X-187389Y-35433D01*
X-183452Y-43307D02*
X-184004Y-42546D01*
X-184899Y-42837D01*
Y-43777D01*
X-184004Y-44068D01*
X-183452Y-43307D01*
X-187389Y-51181D02*
X-187942Y-50420D01*
X-188836Y-50711D01*
Y-51651D01*
X-187942Y-51942D01*
X-187389Y-51181D01*
X-183452Y-59055D02*
X-184004Y-58294D01*
X-184899Y-58585D01*
Y-59525D01*
X-184004Y-59816D01*
X-183452Y-59055D01*
X-187389Y-66929D02*
X-187942Y-66168D01*
X-188836Y-66459D01*
Y-67399D01*
X-187942Y-67690D01*
X-187389Y-66929D01*
X-183452Y-74803D02*
X-184004Y-74042D01*
X-184899Y-74333D01*
Y-75273D01*
X-184004Y-75564D01*
X-183452Y-74803D01*
X-187389Y-82677D02*
X-187942Y-81916D01*
X-188836Y-82207D01*
Y-83147D01*
X-187942Y-83438D01*
X-187389Y-82677D01*
Y-129921D02*
X-187942Y-129160D01*
X-188836Y-129451D01*
Y-130391D01*
X-187942Y-130682D01*
X-187389Y-129921D01*
X-183452Y-137795D02*
X-184004Y-137034D01*
X-184899Y-137325D01*
Y-138265D01*
X-184004Y-138556D01*
X-183452Y-137795D01*
X-187389Y-145669D02*
X-187942Y-144908D01*
X-188836Y-145199D01*
Y-146139D01*
X-187942Y-146430D01*
X-187389Y-145669D01*
X-191326Y-11811D02*
X-191878Y-11050D01*
X-192773Y-11340D01*
Y-12281D01*
X-191878Y-12572D01*
X-191326Y-11811D01*
X-195263Y-19685D02*
X-195816Y-18924D01*
X-196710Y-19215D01*
Y-20155D01*
X-195816Y-20446D01*
X-195263Y-19685D01*
X-191326Y-27559D02*
X-191878Y-26798D01*
X-192773Y-27089D01*
Y-28029D01*
X-191878Y-28320D01*
X-191326Y-27559D01*
X-195263Y-35433D02*
X-195816Y-34672D01*
X-196710Y-34963D01*
Y-35903D01*
X-195816Y-36194D01*
X-195263Y-35433D01*
X-191326Y-43307D02*
X-191878Y-42546D01*
X-192773Y-42837D01*
Y-43777D01*
X-191878Y-44068D01*
X-191326Y-43307D01*
X-195263Y-51181D02*
X-195816Y-50420D01*
X-196710Y-50711D01*
Y-51651D01*
X-195816Y-51942D01*
X-195263Y-51181D01*
X-191326Y-59055D02*
X-191878Y-58294D01*
X-192773Y-58585D01*
Y-59525D01*
X-191878Y-59816D01*
X-191326Y-59055D01*
X-195263Y-66929D02*
X-195816Y-66168D01*
X-196710Y-66459D01*
Y-67399D01*
X-195816Y-67690D01*
X-195263Y-66929D01*
X-191326Y-74803D02*
X-191878Y-74042D01*
X-192773Y-74333D01*
Y-75273D01*
X-191878Y-75564D01*
X-191326Y-74803D01*
X-195263Y-82677D02*
X-195816Y-81916D01*
X-196710Y-82207D01*
Y-83147D01*
X-195816Y-83438D01*
X-195263Y-82677D01*
Y-129921D02*
X-195816Y-129160D01*
X-196710Y-129451D01*
Y-130391D01*
X-195816Y-130682D01*
X-195263Y-129921D01*
X-191326Y-137795D02*
X-191878Y-137034D01*
X-192773Y-137325D01*
Y-138265D01*
X-191878Y-138556D01*
X-191326Y-137795D01*
X-195263Y-145669D02*
X-195816Y-144908D01*
X-196710Y-145199D01*
Y-146139D01*
X-195816Y-146430D01*
X-195263Y-145669D01*
X-199200Y-11811D02*
X-199752Y-11050D01*
X-200647Y-11340D01*
Y-12281D01*
X-199752Y-12572D01*
X-199200Y-11811D01*
X-203137Y-19685D02*
X-203690Y-18924D01*
X-204584Y-19215D01*
Y-20155D01*
X-203690Y-20446D01*
X-203137Y-19685D01*
X-199200Y-27559D02*
X-199752Y-26798D01*
X-200647Y-27089D01*
Y-28029D01*
X-199752Y-28320D01*
X-199200Y-27559D01*
X-203137Y-35433D02*
X-203690Y-34672D01*
X-204584Y-34963D01*
Y-35903D01*
X-203690Y-36194D01*
X-203137Y-35433D01*
X-199200Y-43307D02*
X-199752Y-42546D01*
X-200647Y-42837D01*
Y-43777D01*
X-199752Y-44068D01*
X-199200Y-43307D01*
X-203137Y-51181D02*
X-203690Y-50420D01*
X-204584Y-50711D01*
Y-51651D01*
X-203690Y-51942D01*
X-203137Y-51181D01*
X-199200Y-59055D02*
X-199752Y-58294D01*
X-200647Y-58585D01*
Y-59525D01*
X-199752Y-59816D01*
X-199200Y-59055D01*
X-203137Y-66929D02*
X-203690Y-66168D01*
X-204584Y-66459D01*
Y-67399D01*
X-203690Y-67690D01*
X-203137Y-66929D01*
X-199200Y-74803D02*
X-199752Y-74042D01*
X-200647Y-74333D01*
Y-75273D01*
X-199752Y-75564D01*
X-199200Y-74803D01*
X-203137Y-114173D02*
X-203690Y-113412D01*
X-204584Y-113703D01*
Y-114643D01*
X-203690Y-114934D01*
X-203137Y-114173D01*
X-199200Y-137795D02*
X-199752Y-137034D01*
X-200647Y-137325D01*
Y-138265D01*
X-199752Y-138556D01*
X-199200Y-137795D01*
X-203137Y-145669D02*
X-203690Y-144908D01*
X-204584Y-145199D01*
Y-146139D01*
X-203690Y-146430D01*
X-203137Y-145669D01*
X-207074Y-11811D02*
X-207627Y-11050D01*
X-208521Y-11340D01*
Y-12281D01*
X-207627Y-12572D01*
X-207074Y-11811D01*
X-211011Y-19685D02*
X-211563Y-18924D01*
X-212458Y-19215D01*
Y-20155D01*
X-211563Y-20446D01*
X-211011Y-19685D01*
X-207074Y-27559D02*
X-207627Y-26798D01*
X-208521Y-27089D01*
Y-28029D01*
X-207627Y-28320D01*
X-207074Y-27559D01*
X-211011Y-35433D02*
X-211563Y-34672D01*
X-212458Y-34963D01*
Y-35903D01*
X-211563Y-36194D01*
X-211011Y-35433D01*
X-207074Y-43307D02*
X-207627Y-42546D01*
X-208521Y-42837D01*
Y-43777D01*
X-207627Y-44068D01*
X-207074Y-43307D01*
X-211011Y-51181D02*
X-211563Y-50420D01*
X-212458Y-50711D01*
Y-51651D01*
X-211563Y-51942D01*
X-211011Y-51181D01*
X-207074Y-59055D02*
X-207627Y-58294D01*
X-208521Y-58585D01*
Y-59525D01*
X-207627Y-59816D01*
X-207074Y-59055D01*
X-211011Y-66929D02*
X-211563Y-66168D01*
X-212458Y-66459D01*
Y-67399D01*
X-211563Y-67690D01*
X-211011Y-66929D01*
X-207074Y-74803D02*
X-207627Y-74042D01*
X-208521Y-74333D01*
Y-75273D01*
X-207627Y-75564D01*
X-207074Y-74803D01*
X-211011Y-82677D02*
X-211563Y-81916D01*
X-212458Y-82207D01*
Y-83147D01*
X-211563Y-83438D01*
X-211011Y-82677D01*
Y-114173D02*
X-211563Y-113412D01*
X-212458Y-113703D01*
Y-114643D01*
X-211563Y-114934D01*
X-211011Y-114173D01*
X-214948Y-11811D02*
X-215501Y-11050D01*
X-216395Y-11340D01*
Y-12281D01*
X-215501Y-12572D01*
X-214948Y-11811D01*
X-218885Y-19685D02*
X-219438Y-18924D01*
X-220332Y-19215D01*
Y-20155D01*
X-219438Y-20446D01*
X-218885Y-19685D01*
X-214948Y-27559D02*
X-215501Y-26798D01*
X-216395Y-27089D01*
Y-28029D01*
X-215501Y-28320D01*
X-214948Y-27559D01*
X-218885Y-35433D02*
X-219438Y-34672D01*
X-220332Y-34963D01*
Y-35903D01*
X-219438Y-36194D01*
X-218885Y-35433D01*
X-214948Y-43307D02*
X-215501Y-42546D01*
X-216395Y-42837D01*
Y-43777D01*
X-215501Y-44068D01*
X-214948Y-43307D01*
X-218885Y-51181D02*
X-219438Y-50420D01*
X-220332Y-50711D01*
Y-51651D01*
X-219438Y-51942D01*
X-218885Y-51181D01*
X-214948Y-59055D02*
X-215501Y-58294D01*
X-216395Y-58585D01*
Y-59525D01*
X-215501Y-59816D01*
X-214948Y-59055D01*
X-218885Y-66929D02*
X-219438Y-66168D01*
X-220332Y-66459D01*
Y-67399D01*
X-219438Y-67690D01*
X-218885Y-66929D01*
X-214948Y-74803D02*
X-215501Y-74042D01*
X-216395Y-74333D01*
Y-75273D01*
X-215501Y-75564D01*
X-214948Y-74803D01*
X-218885Y-98425D02*
X-219438Y-97664D01*
X-220332Y-97955D01*
Y-98895D01*
X-219438Y-99186D01*
X-218885Y-98425D01*
Y-114173D02*
X-219438Y-113412D01*
X-220332Y-113703D01*
Y-114643D01*
X-219438Y-114934D01*
X-218885Y-114173D01*
X-214948Y-137795D02*
X-215501Y-137034D01*
X-216395Y-137325D01*
Y-138265D01*
X-215501Y-138556D01*
X-214948Y-137795D01*
X-222822Y-11811D02*
X-223375Y-11050D01*
X-224269Y-11340D01*
Y-12281D01*
X-223375Y-12572D01*
X-222822Y-11811D01*
X-226759Y-19685D02*
X-227312Y-18924D01*
X-228206Y-19215D01*
Y-20155D01*
X-227312Y-20446D01*
X-226759Y-19685D01*
X-222822Y-27559D02*
X-223375Y-26798D01*
X-224269Y-27089D01*
Y-28029D01*
X-223375Y-28320D01*
X-222822Y-27559D01*
X-226759Y-35433D02*
X-227312Y-34672D01*
X-228206Y-34963D01*
Y-35903D01*
X-227312Y-36194D01*
X-226759Y-35433D01*
X-222822Y-43307D02*
X-223375Y-42546D01*
X-224269Y-42837D01*
Y-43777D01*
X-223375Y-44068D01*
X-222822Y-43307D01*
X-226759Y-51181D02*
X-227312Y-50420D01*
X-228206Y-50711D01*
Y-51651D01*
X-227312Y-51942D01*
X-226759Y-51181D01*
X-222822Y-59055D02*
X-223375Y-58294D01*
X-224269Y-58585D01*
Y-59525D01*
X-223375Y-59816D01*
X-222822Y-59055D01*
X-226759Y-66929D02*
X-227312Y-66168D01*
X-228206Y-66459D01*
Y-67399D01*
X-227312Y-67690D01*
X-226759Y-66929D01*
Y-82677D02*
X-227312Y-81916D01*
X-228206Y-82207D01*
Y-83147D01*
X-227312Y-83438D01*
X-226759Y-82677D01*
X-222822Y-90551D02*
X-223375Y-89790D01*
X-224269Y-90081D01*
Y-91021D01*
X-223375Y-91312D01*
X-222822Y-90551D01*
X-226759Y-98425D02*
X-227312Y-97664D01*
X-228206Y-97955D01*
Y-98895D01*
X-227312Y-99186D01*
X-226759Y-98425D01*
Y-114173D02*
X-227312Y-113412D01*
X-228206Y-113703D01*
Y-114643D01*
X-227312Y-114934D01*
X-226759Y-114173D01*
X-222822Y-122047D02*
X-223375Y-121286D01*
X-224269Y-121577D01*
Y-122517D01*
X-223375Y-122808D01*
X-222822Y-122047D01*
X-226759Y-129921D02*
X-227312Y-129160D01*
X-228206Y-129451D01*
Y-130391D01*
X-227312Y-130682D01*
X-226759Y-129921D01*
X-222822Y-137795D02*
X-223375Y-137034D01*
X-224269Y-137325D01*
Y-138265D01*
X-223375Y-138556D01*
X-222822Y-137795D01*
X-230696Y-11811D02*
X-231249Y-11050D01*
X-232143Y-11340D01*
Y-12281D01*
X-231249Y-12572D01*
X-230696Y-11811D01*
X-234633Y-19685D02*
X-235186Y-18924D01*
X-236080Y-19215D01*
Y-20155D01*
X-235186Y-20446D01*
X-234633Y-19685D01*
X-230696Y-27559D02*
X-231249Y-26798D01*
X-232143Y-27089D01*
Y-28029D01*
X-231249Y-28320D01*
X-230696Y-27559D01*
X-234633Y-35433D02*
X-235186Y-34672D01*
X-236080Y-34963D01*
Y-35903D01*
X-235186Y-36194D01*
X-234633Y-35433D01*
X-230696Y-43307D02*
X-231249Y-42546D01*
X-232143Y-42837D01*
Y-43777D01*
X-231249Y-44068D01*
X-230696Y-43307D01*
Y-59055D02*
X-231249Y-58294D01*
X-232143Y-58585D01*
Y-59525D01*
X-231249Y-59816D01*
X-230696Y-59055D01*
Y-90551D02*
X-231249Y-89790D01*
X-232143Y-90081D01*
Y-91021D01*
X-231249Y-91312D01*
X-230696Y-90551D01*
X-234633Y-98425D02*
X-235186Y-97664D01*
X-236080Y-97955D01*
Y-98895D01*
X-235186Y-99186D01*
X-234633Y-98425D01*
X-230696Y-106299D02*
X-231249Y-105538D01*
X-232143Y-105829D01*
Y-106769D01*
X-231249Y-107060D01*
X-230696Y-106299D01*
X-234633Y-114173D02*
X-235186Y-113412D01*
X-236080Y-113703D01*
Y-114643D01*
X-235186Y-114934D01*
X-234633Y-114173D01*
X-230696Y-122047D02*
X-231249Y-121286D01*
X-232143Y-121577D01*
Y-122517D01*
X-231249Y-122808D01*
X-230696Y-122047D01*
X-234633Y-129921D02*
X-235186Y-129160D01*
X-236080Y-129451D01*
Y-130391D01*
X-235186Y-130682D01*
X-234633Y-129921D01*
X-230696Y-137795D02*
X-231249Y-137034D01*
X-232143Y-137325D01*
Y-138265D01*
X-231249Y-138556D01*
X-230696Y-137795D01*
Y-153543D02*
X-231249Y-152782D01*
X-232143Y-153073D01*
Y-154013D01*
X-231249Y-154304D01*
X-230696Y-153543D01*
X-234633Y-161417D02*
X-235186Y-160656D01*
X-236080Y-160947D01*
Y-161887D01*
X-235186Y-162178D01*
X-234633Y-161417D01*
X-230696Y-169291D02*
X-231249Y-168530D01*
X-232143Y-168821D01*
Y-169761D01*
X-231249Y-170052D01*
X-230696Y-169291D01*
X-234633Y-177165D02*
X-235186Y-176404D01*
X-236080Y-176695D01*
Y-177635D01*
X-235186Y-177926D01*
X-234633Y-177165D01*
X-230696Y-185039D02*
X-231249Y-184278D01*
X-232143Y-184569D01*
Y-185509D01*
X-231249Y-185800D01*
X-230696Y-185039D01*
X-234633Y-192913D02*
X-235186Y-192152D01*
X-236080Y-192443D01*
Y-193383D01*
X-235186Y-193674D01*
X-234633Y-192913D01*
X-230696Y-200787D02*
X-231249Y-200026D01*
X-232143Y-200317D01*
Y-201257D01*
X-231249Y-201548D01*
X-230696Y-200787D01*
Y-216535D02*
X-231249Y-215774D01*
X-232143Y-216065D01*
Y-217005D01*
X-231249Y-217296D01*
X-230696Y-216535D01*
X-234633Y-224409D02*
X-235186Y-223649D01*
X-236080Y-223939D01*
Y-224880D01*
X-235186Y-225170D01*
X-234633Y-224409D01*
X-230696Y-232283D02*
X-231249Y-231522D01*
X-232143Y-231813D01*
Y-232753D01*
X-231249Y-233044D01*
X-230696Y-232283D01*
X-234633Y-240157D02*
X-235186Y-239397D01*
X-236080Y-239687D01*
Y-240628D01*
X-235186Y-240918D01*
X-234633Y-240157D01*
X-230696Y-248031D02*
X-231249Y-247270D01*
X-232143Y-247561D01*
Y-248502D01*
X-231249Y-248792D01*
X-230696Y-248031D01*
X-234633Y-255905D02*
X-235186Y-255145D01*
X-236080Y-255435D01*
Y-256376D01*
X-235186Y-256666D01*
X-234633Y-255905D01*
X-230696Y-263779D02*
X-231249Y-263019D01*
X-232143Y-263309D01*
Y-264250D01*
X-231249Y-264540D01*
X-230696Y-263779D01*
X-234633Y-271653D02*
X-235186Y-270893D01*
X-236080Y-271183D01*
Y-272124D01*
X-235186Y-272414D01*
X-234633Y-271653D01*
X-230696Y-279527D02*
X-231249Y-278767D01*
X-232143Y-279057D01*
Y-279998D01*
X-231249Y-280288D01*
X-230696Y-279527D01*
X-234633Y-287402D02*
X-235186Y-286641D01*
X-236080Y-286931D01*
Y-287872D01*
X-235186Y-288162D01*
X-234633Y-287402D01*
X-238570Y-11811D02*
X-239123Y-11050D01*
X-240017Y-11340D01*
Y-12281D01*
X-239123Y-12572D01*
X-238570Y-11811D01*
X-242507Y-19685D02*
X-243060Y-18924D01*
X-243954Y-19215D01*
Y-20155D01*
X-243060Y-20446D01*
X-242507Y-19685D01*
X-238570Y-27559D02*
X-239123Y-26798D01*
X-240017Y-27089D01*
Y-28029D01*
X-239123Y-28320D01*
X-238570Y-27559D01*
X-242507Y-35433D02*
X-243060Y-34672D01*
X-243954Y-34963D01*
Y-35903D01*
X-243060Y-36194D01*
X-242507Y-35433D01*
X-238570Y-43307D02*
X-239123Y-42546D01*
X-240017Y-42837D01*
Y-43777D01*
X-239123Y-44068D01*
X-238570Y-43307D01*
Y-59055D02*
X-239123Y-58294D01*
X-240017Y-58585D01*
Y-59525D01*
X-239123Y-59816D01*
X-238570Y-59055D01*
Y-74803D02*
X-239123Y-74042D01*
X-240017Y-74333D01*
Y-75273D01*
X-239123Y-75564D01*
X-238570Y-74803D01*
Y-90551D02*
X-239123Y-89790D01*
X-240017Y-90081D01*
Y-91021D01*
X-239123Y-91312D01*
X-238570Y-90551D01*
Y-106299D02*
X-239123Y-105538D01*
X-240017Y-105829D01*
Y-106769D01*
X-239123Y-107060D01*
X-238570Y-106299D01*
X-242507Y-114173D02*
X-243060Y-113412D01*
X-243954Y-113703D01*
Y-114643D01*
X-243060Y-114934D01*
X-242507Y-114173D01*
Y-129921D02*
X-243060Y-129160D01*
X-243954Y-129451D01*
Y-130391D01*
X-243060Y-130682D01*
X-242507Y-129921D01*
Y-161417D02*
X-243060Y-160656D01*
X-243954Y-160947D01*
Y-161887D01*
X-243060Y-162178D01*
X-242507Y-161417D01*
Y-177165D02*
X-243060Y-176404D01*
X-243954Y-176695D01*
Y-177635D01*
X-243060Y-177926D01*
X-242507Y-177165D01*
X-238570Y-185039D02*
X-239123Y-184278D01*
X-240017Y-184569D01*
Y-185509D01*
X-239123Y-185800D01*
X-238570Y-185039D01*
X-242507Y-192913D02*
X-243060Y-192152D01*
X-243954Y-192443D01*
Y-193383D01*
X-243060Y-193674D01*
X-242507Y-192913D01*
X-238570Y-200787D02*
X-239123Y-200026D01*
X-240017Y-200317D01*
Y-201257D01*
X-239123Y-201548D01*
X-238570Y-200787D01*
Y-216535D02*
X-239123Y-215774D01*
X-240017Y-216065D01*
Y-217005D01*
X-239123Y-217296D01*
X-238570Y-216535D01*
X-242507Y-224409D02*
X-243060Y-223649D01*
X-243954Y-223939D01*
Y-224880D01*
X-243060Y-225170D01*
X-242507Y-224409D01*
X-238570Y-232283D02*
X-239123Y-231522D01*
X-240017Y-231813D01*
Y-232753D01*
X-239123Y-233044D01*
X-238570Y-232283D01*
X-242507Y-240157D02*
X-243060Y-239397D01*
X-243954Y-239687D01*
Y-240628D01*
X-243060Y-240918D01*
X-242507Y-240157D01*
X-238570Y-248031D02*
X-239123Y-247270D01*
X-240017Y-247561D01*
Y-248502D01*
X-239123Y-248792D01*
X-238570Y-248031D01*
X-242507Y-255905D02*
X-243060Y-255145D01*
X-243954Y-255435D01*
Y-256376D01*
X-243060Y-256666D01*
X-242507Y-255905D01*
X-238570Y-263779D02*
X-239123Y-263019D01*
X-240017Y-263309D01*
Y-264250D01*
X-239123Y-264540D01*
X-238570Y-263779D01*
X-242507Y-271653D02*
X-243060Y-270893D01*
X-243954Y-271183D01*
Y-272124D01*
X-243060Y-272414D01*
X-242507Y-271653D01*
X-238570Y-279527D02*
X-239123Y-278767D01*
X-240017Y-279057D01*
Y-279998D01*
X-239123Y-280288D01*
X-238570Y-279527D01*
X-242507Y-287402D02*
X-243060Y-286641D01*
X-243954Y-286931D01*
Y-287872D01*
X-243060Y-288162D01*
X-242507Y-287402D01*
X-246444Y-11811D02*
X-246997Y-11050D01*
X-247891Y-11340D01*
Y-12281D01*
X-246997Y-12572D01*
X-246444Y-11811D01*
X-250381Y-19685D02*
X-250934Y-18924D01*
X-251828Y-19215D01*
Y-20155D01*
X-250934Y-20446D01*
X-250381Y-19685D01*
X-246444Y-27559D02*
X-246997Y-26798D01*
X-247891Y-27089D01*
Y-28029D01*
X-246997Y-28320D01*
X-246444Y-27559D01*
X-250381Y-35433D02*
X-250934Y-34672D01*
X-251828Y-34963D01*
Y-35903D01*
X-250934Y-36194D01*
X-250381Y-35433D01*
Y-66929D02*
X-250934Y-66168D01*
X-251828Y-66459D01*
Y-67399D01*
X-250934Y-67690D01*
X-250381Y-66929D01*
Y-129921D02*
X-250934Y-129160D01*
X-251828Y-129451D01*
Y-130391D01*
X-250934Y-130682D01*
X-250381Y-129921D01*
Y-145669D02*
X-250934Y-144908D01*
X-251828Y-145199D01*
Y-146139D01*
X-250934Y-146430D01*
X-250381Y-145669D01*
X-246444Y-185039D02*
X-246997Y-184278D01*
X-247891Y-184569D01*
Y-185509D01*
X-246997Y-185800D01*
X-246444Y-185039D01*
X-250381Y-192913D02*
X-250934Y-192152D01*
X-251828Y-192443D01*
Y-193383D01*
X-250934Y-193674D01*
X-250381Y-192913D01*
Y-208661D02*
X-250934Y-207900D01*
X-251828Y-208191D01*
Y-209132D01*
X-250934Y-209422D01*
X-250381Y-208661D01*
X-246444Y-216535D02*
X-246997Y-215774D01*
X-247891Y-216065D01*
Y-217005D01*
X-246997Y-217296D01*
X-246444Y-216535D01*
X-250381Y-224409D02*
X-250934Y-223649D01*
X-251828Y-223939D01*
Y-224880D01*
X-250934Y-225170D01*
X-250381Y-224409D01*
X-246444Y-232283D02*
X-246997Y-231522D01*
X-247891Y-231813D01*
Y-232753D01*
X-246997Y-233044D01*
X-246444Y-232283D01*
X-250381Y-240157D02*
X-250934Y-239397D01*
X-251828Y-239687D01*
Y-240628D01*
X-250934Y-240918D01*
X-250381Y-240157D01*
X-246444Y-248031D02*
X-246997Y-247270D01*
X-247891Y-247561D01*
Y-248502D01*
X-246997Y-248792D01*
X-246444Y-248031D01*
X-250381Y-255905D02*
X-250934Y-255145D01*
X-251828Y-255435D01*
Y-256376D01*
X-250934Y-256666D01*
X-250381Y-255905D01*
X-246444Y-263779D02*
X-246997Y-263019D01*
X-247891Y-263309D01*
Y-264250D01*
X-246997Y-264540D01*
X-246444Y-263779D01*
X-250381Y-271653D02*
X-250934Y-270893D01*
X-251828Y-271183D01*
Y-272124D01*
X-250934Y-272414D01*
X-250381Y-271653D01*
X-246444Y-279527D02*
X-246997Y-278767D01*
X-247891Y-279057D01*
Y-279998D01*
X-246997Y-280288D01*
X-246444Y-279527D01*
X-250381Y-287402D02*
X-250934Y-286641D01*
X-251828Y-286931D01*
Y-287872D01*
X-250934Y-288162D01*
X-250381Y-287402D01*
X-254318Y-11811D02*
X-254871Y-11050D01*
X-255765Y-11340D01*
Y-12281D01*
X-254871Y-12572D01*
X-254318Y-11811D01*
X-258255Y-19685D02*
X-258808Y-18924D01*
X-259702Y-19215D01*
Y-20155D01*
X-258808Y-20446D01*
X-258255Y-19685D01*
X-254318Y-27559D02*
X-254871Y-26798D01*
X-255765Y-27089D01*
Y-28029D01*
X-254871Y-28320D01*
X-254318Y-27559D01*
X-258255Y-35433D02*
X-258808Y-34672D01*
X-259702Y-34963D01*
Y-35903D01*
X-258808Y-36194D01*
X-258255Y-35433D01*
Y-51181D02*
X-258808Y-50420D01*
X-259702Y-50711D01*
Y-51651D01*
X-258808Y-51942D01*
X-258255Y-51181D01*
Y-114173D02*
X-258808Y-113412D01*
X-259702Y-113703D01*
Y-114643D01*
X-258808Y-114934D01*
X-258255Y-114173D01*
Y-177165D02*
X-258808Y-176404D01*
X-259702Y-176695D01*
Y-177635D01*
X-258808Y-177926D01*
X-258255Y-177165D01*
X-254318Y-185039D02*
X-254871Y-184278D01*
X-255765Y-184569D01*
Y-185509D01*
X-254871Y-185800D01*
X-254318Y-185039D01*
X-258255Y-208661D02*
X-258808Y-207900D01*
X-259702Y-208191D01*
Y-209132D01*
X-258808Y-209422D01*
X-258255Y-208661D01*
X-254318Y-216535D02*
X-254871Y-215774D01*
X-255765Y-216065D01*
Y-217005D01*
X-254871Y-217296D01*
X-254318Y-216535D01*
X-258255Y-224409D02*
X-258808Y-223649D01*
X-259702Y-223939D01*
Y-224880D01*
X-258808Y-225170D01*
X-258255Y-224409D01*
X-254318Y-232283D02*
X-254871Y-231522D01*
X-255765Y-231813D01*
Y-232753D01*
X-254871Y-233044D01*
X-254318Y-232283D01*
X-258255Y-240157D02*
X-258808Y-239397D01*
X-259702Y-239687D01*
Y-240628D01*
X-258808Y-240918D01*
X-258255Y-240157D01*
X-254318Y-248031D02*
X-254871Y-247270D01*
X-255765Y-247561D01*
Y-248502D01*
X-254871Y-248792D01*
X-254318Y-248031D01*
X-258255Y-255905D02*
X-258808Y-255145D01*
X-259702Y-255435D01*
Y-256376D01*
X-258808Y-256666D01*
X-258255Y-255905D01*
X-254318Y-263779D02*
X-254871Y-263019D01*
X-255765Y-263309D01*
Y-264250D01*
X-254871Y-264540D01*
X-254318Y-263779D01*
X-258255Y-271653D02*
X-258808Y-270893D01*
X-259702Y-271183D01*
Y-272124D01*
X-258808Y-272414D01*
X-258255Y-271653D01*
X-254318Y-279527D02*
X-254871Y-278767D01*
X-255765Y-279057D01*
Y-279998D01*
X-254871Y-280288D01*
X-254318Y-279527D01*
X-258255Y-287402D02*
X-258808Y-286641D01*
X-259702Y-286931D01*
Y-287872D01*
X-258808Y-288162D01*
X-258255Y-287402D01*
X-262192Y-11811D02*
X-262745Y-11050D01*
X-263639Y-11340D01*
Y-12281D01*
X-262745Y-12572D01*
X-262192Y-11811D01*
X-266129Y-19685D02*
X-266682Y-18924D01*
X-267576Y-19215D01*
Y-20155D01*
X-266682Y-20446D01*
X-266129Y-19685D01*
X-262192Y-27559D02*
X-262745Y-26798D01*
X-263639Y-27089D01*
Y-28029D01*
X-262745Y-28320D01*
X-262192Y-27559D01*
X-266129Y-35433D02*
X-266682Y-34672D01*
X-267576Y-34963D01*
Y-35903D01*
X-266682Y-36194D01*
X-266129Y-35433D01*
X-262192Y-43307D02*
X-262745Y-42546D01*
X-263639Y-42837D01*
Y-43777D01*
X-262745Y-44068D01*
X-262192Y-43307D01*
X-266129Y-51181D02*
X-266682Y-50420D01*
X-267576Y-50711D01*
Y-51651D01*
X-266682Y-51942D01*
X-266129Y-51181D01*
X-262192Y-59055D02*
X-262745Y-58294D01*
X-263639Y-58585D01*
Y-59525D01*
X-262745Y-59816D01*
X-262192Y-59055D01*
X-266129Y-98425D02*
X-266682Y-97664D01*
X-267576Y-97955D01*
Y-98895D01*
X-266682Y-99186D01*
X-266129Y-98425D01*
Y-192913D02*
X-266682Y-192152D01*
X-267576Y-192443D01*
Y-193383D01*
X-266682Y-193674D01*
X-266129Y-192913D01*
X-262192Y-200787D02*
X-262745Y-200026D01*
X-263639Y-200317D01*
Y-201257D01*
X-262745Y-201548D01*
X-262192Y-200787D01*
X-266129Y-208661D02*
X-266682Y-207900D01*
X-267576Y-208191D01*
Y-209132D01*
X-266682Y-209422D01*
X-266129Y-208661D01*
X-262192Y-216535D02*
X-262745Y-215774D01*
X-263639Y-216065D01*
Y-217005D01*
X-262745Y-217296D01*
X-262192Y-216535D01*
X-266129Y-224409D02*
X-266682Y-223649D01*
X-267576Y-223939D01*
Y-224880D01*
X-266682Y-225170D01*
X-266129Y-224409D01*
X-262192Y-232283D02*
X-262745Y-231522D01*
X-263639Y-231813D01*
Y-232753D01*
X-262745Y-233044D01*
X-262192Y-232283D01*
X-266129Y-240157D02*
X-266682Y-239397D01*
X-267576Y-239687D01*
Y-240628D01*
X-266682Y-240918D01*
X-266129Y-240157D01*
X-262192Y-248031D02*
X-262745Y-247270D01*
X-263639Y-247561D01*
Y-248502D01*
X-262745Y-248792D01*
X-262192Y-248031D01*
X-266129Y-255905D02*
X-266682Y-255145D01*
X-267576Y-255435D01*
Y-256376D01*
X-266682Y-256666D01*
X-266129Y-255905D01*
X-262192Y-263779D02*
X-262745Y-263019D01*
X-263639Y-263309D01*
Y-264250D01*
X-262745Y-264540D01*
X-262192Y-263779D01*
X-266129Y-271653D02*
X-266682Y-270893D01*
X-267576Y-271183D01*
Y-272124D01*
X-266682Y-272414D01*
X-266129Y-271653D01*
X-262192Y-279527D02*
X-262745Y-278767D01*
X-263639Y-279057D01*
Y-279998D01*
X-262745Y-280288D01*
X-262192Y-279527D01*
X-266129Y-287402D02*
X-266682Y-286641D01*
X-267576Y-286931D01*
Y-287872D01*
X-266682Y-288162D01*
X-266129Y-287402D01*
X-270066Y-11811D02*
X-270619Y-11050D01*
X-271513Y-11340D01*
Y-12281D01*
X-270619Y-12572D01*
X-270066Y-11811D01*
X-274003Y-19685D02*
X-274556Y-18924D01*
X-275450Y-19215D01*
Y-20155D01*
X-274556Y-20446D01*
X-274003Y-19685D01*
X-270066Y-27559D02*
X-270619Y-26798D01*
X-271513Y-27089D01*
Y-28029D01*
X-270619Y-28320D01*
X-270066Y-27559D01*
X-274003Y-35433D02*
X-274556Y-34672D01*
X-275450Y-34963D01*
Y-35903D01*
X-274556Y-36194D01*
X-274003Y-35433D01*
X-270066Y-43307D02*
X-270619Y-42546D01*
X-271513Y-42837D01*
Y-43777D01*
X-270619Y-44068D01*
X-270066Y-43307D01*
X-274003Y-51181D02*
X-274556Y-50420D01*
X-275450Y-50711D01*
Y-51651D01*
X-274556Y-51942D01*
X-274003Y-51181D01*
Y-98425D02*
X-274556Y-97664D01*
X-275450Y-97955D01*
Y-98895D01*
X-274556Y-99186D01*
X-274003Y-98425D01*
X-270066Y-122047D02*
X-270619Y-121286D01*
X-271513Y-121577D01*
Y-122517D01*
X-270619Y-122808D01*
X-270066Y-122047D01*
Y-169291D02*
X-270619Y-168530D01*
X-271513Y-168821D01*
Y-169761D01*
X-270619Y-170052D01*
X-270066Y-169291D01*
X-274003Y-177165D02*
X-274556Y-176404D01*
X-275450Y-176695D01*
Y-177635D01*
X-274556Y-177926D01*
X-274003Y-177165D01*
X-270066Y-185039D02*
X-270619Y-184278D01*
X-271513Y-184569D01*
Y-185509D01*
X-270619Y-185800D01*
X-270066Y-185039D01*
X-274003Y-192913D02*
X-274556Y-192152D01*
X-275450Y-192443D01*
Y-193383D01*
X-274556Y-193674D01*
X-274003Y-192913D01*
X-270066Y-200787D02*
X-270619Y-200026D01*
X-271513Y-200317D01*
Y-201257D01*
X-270619Y-201548D01*
X-270066Y-200787D01*
X-274003Y-208661D02*
X-274556Y-207900D01*
X-275450Y-208191D01*
Y-209132D01*
X-274556Y-209422D01*
X-274003Y-208661D01*
X-270066Y-216535D02*
X-270619Y-215774D01*
X-271513Y-216065D01*
Y-217005D01*
X-270619Y-217296D01*
X-270066Y-216535D01*
X-274003Y-224409D02*
X-274556Y-223649D01*
X-275450Y-223939D01*
Y-224880D01*
X-274556Y-225170D01*
X-274003Y-224409D01*
X-270066Y-232283D02*
X-270619Y-231522D01*
X-271513Y-231813D01*
Y-232753D01*
X-270619Y-233044D01*
X-270066Y-232283D01*
X-274003Y-240157D02*
X-274556Y-239397D01*
X-275450Y-239687D01*
Y-240628D01*
X-274556Y-240918D01*
X-274003Y-240157D01*
X-270066Y-248031D02*
X-270619Y-247270D01*
X-271513Y-247561D01*
Y-248502D01*
X-270619Y-248792D01*
X-270066Y-248031D01*
X-274003Y-255905D02*
X-274556Y-255145D01*
X-275450Y-255435D01*
Y-256376D01*
X-274556Y-256666D01*
X-274003Y-255905D01*
X-270066Y-263779D02*
X-270619Y-263019D01*
X-271513Y-263309D01*
Y-264250D01*
X-270619Y-264540D01*
X-270066Y-263779D01*
X-274003Y-271653D02*
X-274556Y-270893D01*
X-275450Y-271183D01*
Y-272124D01*
X-274556Y-272414D01*
X-274003Y-271653D01*
X-270066Y-279527D02*
X-270619Y-278767D01*
X-271513Y-279057D01*
Y-279998D01*
X-270619Y-280288D01*
X-270066Y-279527D01*
X-274003Y-287402D02*
X-274556Y-286641D01*
X-275450Y-286931D01*
Y-287872D01*
X-274556Y-288162D01*
X-274003Y-287402D01*
X-277940Y-11811D02*
X-278493Y-11050D01*
X-279387Y-11340D01*
Y-12281D01*
X-278493Y-12572D01*
X-277940Y-11811D01*
X-281877Y-19685D02*
X-282430Y-18924D01*
X-283324Y-19215D01*
Y-20155D01*
X-282430Y-20446D01*
X-281877Y-19685D01*
X-277940Y-27559D02*
X-278493Y-26798D01*
X-279387Y-27089D01*
Y-28029D01*
X-278493Y-28320D01*
X-277940Y-27559D01*
X-281877Y-35433D02*
X-282430Y-34672D01*
X-283324Y-34963D01*
Y-35903D01*
X-282430Y-36194D01*
X-281877Y-35433D01*
X-277940Y-43307D02*
X-278493Y-42546D01*
X-279387Y-42837D01*
Y-43777D01*
X-278493Y-44068D01*
X-277940Y-43307D01*
X-281877Y-51181D02*
X-282430Y-50420D01*
X-283324Y-50711D01*
Y-51651D01*
X-282430Y-51942D01*
X-281877Y-51181D01*
X-277940Y-74803D02*
X-278493Y-74042D01*
X-279387Y-74333D01*
Y-75273D01*
X-278493Y-75564D01*
X-277940Y-74803D01*
X-281877Y-98425D02*
X-282430Y-97664D01*
X-283324Y-97955D01*
Y-98895D01*
X-282430Y-99186D01*
X-281877Y-98425D01*
X-277940Y-122047D02*
X-278493Y-121286D01*
X-279387Y-121577D01*
Y-122517D01*
X-278493Y-122808D01*
X-277940Y-122047D01*
X-281877Y-145669D02*
X-282430Y-144908D01*
X-283324Y-145199D01*
Y-146139D01*
X-282430Y-146430D01*
X-281877Y-145669D01*
X-277940Y-169291D02*
X-278493Y-168530D01*
X-279387Y-168821D01*
Y-169761D01*
X-278493Y-170052D01*
X-277940Y-169291D01*
X-281877Y-177165D02*
X-282430Y-176404D01*
X-283324Y-176695D01*
Y-177635D01*
X-282430Y-177926D01*
X-281877Y-177165D01*
X-277940Y-185039D02*
X-278493Y-184278D01*
X-279387Y-184569D01*
Y-185509D01*
X-278493Y-185800D01*
X-277940Y-185039D01*
X-281877Y-192913D02*
X-282430Y-192152D01*
X-283324Y-192443D01*
Y-193383D01*
X-282430Y-193674D01*
X-281877Y-192913D01*
X-277940Y-200787D02*
X-278493Y-200026D01*
X-279387Y-200317D01*
Y-201257D01*
X-278493Y-201548D01*
X-277940Y-200787D01*
X-281877Y-208661D02*
X-282430Y-207900D01*
X-283324Y-208191D01*
Y-209132D01*
X-282430Y-209422D01*
X-281877Y-208661D01*
X-277940Y-216535D02*
X-278493Y-215774D01*
X-279387Y-216065D01*
Y-217005D01*
X-278493Y-217296D01*
X-277940Y-216535D01*
X-281877Y-224409D02*
X-282430Y-223649D01*
X-283324Y-223939D01*
Y-224880D01*
X-282430Y-225170D01*
X-281877Y-224409D01*
X-277940Y-232283D02*
X-278493Y-231522D01*
X-279387Y-231813D01*
Y-232753D01*
X-278493Y-233044D01*
X-277940Y-232283D01*
X-281877Y-240157D02*
X-282430Y-239397D01*
X-283324Y-239687D01*
Y-240628D01*
X-282430Y-240918D01*
X-281877Y-240157D01*
X-277940Y-248031D02*
X-278493Y-247270D01*
X-279387Y-247561D01*
Y-248502D01*
X-278493Y-248792D01*
X-277940Y-248031D01*
X-281877Y-255905D02*
X-282430Y-255145D01*
X-283324Y-255435D01*
Y-256376D01*
X-282430Y-256666D01*
X-281877Y-255905D01*
X-277940Y-263779D02*
X-278493Y-263019D01*
X-279387Y-263309D01*
Y-264250D01*
X-278493Y-264540D01*
X-277940Y-263779D01*
X-281877Y-271653D02*
X-282430Y-270893D01*
X-283324Y-271183D01*
Y-272124D01*
X-282430Y-272414D01*
X-281877Y-271653D01*
X-277940Y-279527D02*
X-278493Y-278767D01*
X-279387Y-279057D01*
Y-279998D01*
X-278493Y-280288D01*
X-277940Y-279527D01*
X-281877Y-287402D02*
X-282430Y-286641D01*
X-283324Y-286931D01*
Y-287872D01*
X-282430Y-288162D01*
X-281877Y-287402D01*
X-285814Y-11811D02*
X-286367Y-11050D01*
X-287261Y-11340D01*
Y-12281D01*
X-286367Y-12572D01*
X-285814Y-11811D01*
X-289751Y-19685D02*
X-290304Y-18924D01*
X-291198Y-19215D01*
Y-20155D01*
X-290304Y-20446D01*
X-289751Y-19685D01*
X-285814Y-27559D02*
X-286367Y-26798D01*
X-287261Y-27089D01*
Y-28029D01*
X-286367Y-28320D01*
X-285814Y-27559D01*
X-289751Y-35433D02*
X-290304Y-34672D01*
X-291198Y-34963D01*
Y-35903D01*
X-290304Y-36194D01*
X-289751Y-35433D01*
X-285814Y-43307D02*
X-286367Y-42546D01*
X-287261Y-42837D01*
Y-43777D01*
X-286367Y-44068D01*
X-285814Y-43307D01*
X-289751Y-51181D02*
X-290304Y-50420D01*
X-291198Y-50711D01*
Y-51651D01*
X-290304Y-51942D01*
X-289751Y-51181D01*
X-285814Y-74803D02*
X-286367Y-74042D01*
X-287261Y-74333D01*
Y-75273D01*
X-286367Y-75564D01*
X-285814Y-74803D01*
X-289751Y-98425D02*
X-290304Y-97664D01*
X-291198Y-97955D01*
Y-98895D01*
X-290304Y-99186D01*
X-289751Y-98425D01*
X-285814Y-122047D02*
X-286367Y-121286D01*
X-287261Y-121577D01*
Y-122517D01*
X-286367Y-122808D01*
X-285814Y-122047D01*
X-289751Y-145669D02*
X-290304Y-144908D01*
X-291198Y-145199D01*
Y-146139D01*
X-290304Y-146430D01*
X-289751Y-145669D01*
X-285814Y-169291D02*
X-286367Y-168530D01*
X-287261Y-168821D01*
Y-169761D01*
X-286367Y-170052D01*
X-285814Y-169291D01*
X-289751Y-177165D02*
X-290304Y-176404D01*
X-291198Y-176695D01*
Y-177635D01*
X-290304Y-177926D01*
X-289751Y-177165D01*
X-285814Y-185039D02*
X-286367Y-184278D01*
X-287261Y-184569D01*
Y-185509D01*
X-286367Y-185800D01*
X-285814Y-185039D01*
X-289751Y-192913D02*
X-290304Y-192152D01*
X-291198Y-192443D01*
Y-193383D01*
X-290304Y-193674D01*
X-289751Y-192913D01*
X-285814Y-200787D02*
X-286367Y-200026D01*
X-287261Y-200317D01*
Y-201257D01*
X-286367Y-201548D01*
X-285814Y-200787D01*
X-289751Y-208661D02*
X-290304Y-207900D01*
X-291198Y-208191D01*
Y-209132D01*
X-290304Y-209422D01*
X-289751Y-208661D01*
X-285814Y-216535D02*
X-286367Y-215774D01*
X-287261Y-216065D01*
Y-217005D01*
X-286367Y-217296D01*
X-285814Y-216535D01*
X-289751Y-224409D02*
X-290304Y-223649D01*
X-291198Y-223939D01*
Y-224880D01*
X-290304Y-225170D01*
X-289751Y-224409D01*
X-285814Y-232283D02*
X-286367Y-231522D01*
X-287261Y-231813D01*
Y-232753D01*
X-286367Y-233044D01*
X-285814Y-232283D01*
X-289751Y-240157D02*
X-290304Y-239397D01*
X-291198Y-239687D01*
Y-240628D01*
X-290304Y-240918D01*
X-289751Y-240157D01*
X-285814Y-248031D02*
X-286367Y-247270D01*
X-287261Y-247561D01*
Y-248502D01*
X-286367Y-248792D01*
X-285814Y-248031D01*
X-289751Y-255905D02*
X-290304Y-255145D01*
X-291198Y-255435D01*
Y-256376D01*
X-290304Y-256666D01*
X-289751Y-255905D01*
X-285814Y-263779D02*
X-286367Y-263019D01*
X-287261Y-263309D01*
Y-264250D01*
X-286367Y-264540D01*
X-285814Y-263779D01*
X-289751Y-271653D02*
X-290304Y-270893D01*
X-291198Y-271183D01*
Y-272124D01*
X-290304Y-272414D01*
X-289751Y-271653D01*
X-285814Y-279527D02*
X-286367Y-278767D01*
X-287261Y-279057D01*
Y-279998D01*
X-286367Y-280288D01*
X-285814Y-279527D01*
X-289751Y-287402D02*
X-290304Y-286641D01*
X-291198Y-286931D01*
Y-287872D01*
X-290304Y-288162D01*
X-289751Y-287402D01*
X-293688Y-11811D02*
X-294241Y-11050D01*
X-295135Y-11340D01*
Y-12281D01*
X-294241Y-12572D01*
X-293688Y-11811D01*
X-297625Y-19685D02*
X-298178Y-18924D01*
X-299072Y-19215D01*
Y-20155D01*
X-298178Y-20446D01*
X-297625Y-19685D01*
X-293688Y-27559D02*
X-294241Y-26798D01*
X-295135Y-27089D01*
Y-28029D01*
X-294241Y-28320D01*
X-293688Y-27559D01*
X-297625Y-35433D02*
X-298178Y-34672D01*
X-299072Y-34963D01*
Y-35903D01*
X-298178Y-36194D01*
X-297625Y-35433D01*
X-293688Y-43307D02*
X-294241Y-42546D01*
X-295135Y-42837D01*
Y-43777D01*
X-294241Y-44068D01*
X-293688Y-43307D01*
X-297625Y-51181D02*
X-298178Y-50420D01*
X-299072Y-50711D01*
Y-51651D01*
X-298178Y-51942D01*
X-297625Y-51181D01*
X-293688Y-74803D02*
X-294241Y-74042D01*
X-295135Y-74333D01*
Y-75273D01*
X-294241Y-75564D01*
X-293688Y-74803D01*
Y-122047D02*
X-294241Y-121286D01*
X-295135Y-121577D01*
Y-122517D01*
X-294241Y-122808D01*
X-293688Y-122047D01*
X-297625Y-129921D02*
X-298178Y-129160D01*
X-299072Y-129451D01*
Y-130391D01*
X-298178Y-130682D01*
X-297625Y-129921D01*
Y-145669D02*
X-298178Y-144908D01*
X-299072Y-145199D01*
Y-146139D01*
X-298178Y-146430D01*
X-297625Y-145669D01*
X-293688Y-169291D02*
X-294241Y-168530D01*
X-295135Y-168821D01*
Y-169761D01*
X-294241Y-170052D01*
X-293688Y-169291D01*
X-297625Y-177165D02*
X-298178Y-176404D01*
X-299072Y-176695D01*
Y-177635D01*
X-298178Y-177926D01*
X-297625Y-177165D01*
X-293688Y-185039D02*
X-294241Y-184278D01*
X-295135Y-184569D01*
Y-185509D01*
X-294241Y-185800D01*
X-293688Y-185039D01*
X-297625Y-192913D02*
X-298178Y-192152D01*
X-299072Y-192443D01*
Y-193383D01*
X-298178Y-193674D01*
X-297625Y-192913D01*
X-293688Y-200787D02*
X-294241Y-200026D01*
X-295135Y-200317D01*
Y-201257D01*
X-294241Y-201548D01*
X-293688Y-200787D01*
X-297625Y-208661D02*
X-298178Y-207900D01*
X-299072Y-208191D01*
Y-209132D01*
X-298178Y-209422D01*
X-297625Y-208661D01*
X-293688Y-216535D02*
X-294241Y-215774D01*
X-295135Y-216065D01*
Y-217005D01*
X-294241Y-217296D01*
X-293688Y-216535D01*
X-297625Y-224409D02*
X-298178Y-223649D01*
X-299072Y-223939D01*
Y-224880D01*
X-298178Y-225170D01*
X-297625Y-224409D01*
X-293688Y-232283D02*
X-294241Y-231522D01*
X-295135Y-231813D01*
Y-232753D01*
X-294241Y-233044D01*
X-293688Y-232283D01*
X-297625Y-240157D02*
X-298178Y-239397D01*
X-299072Y-239687D01*
Y-240628D01*
X-298178Y-240918D01*
X-297625Y-240157D01*
X-293688Y-248031D02*
X-294241Y-247270D01*
X-295135Y-247561D01*
Y-248502D01*
X-294241Y-248792D01*
X-293688Y-248031D01*
X-297625Y-255905D02*
X-298178Y-255145D01*
X-299072Y-255435D01*
Y-256376D01*
X-298178Y-256666D01*
X-297625Y-255905D01*
X-293688Y-263779D02*
X-294241Y-263019D01*
X-295135Y-263309D01*
Y-264250D01*
X-294241Y-264540D01*
X-293688Y-263779D01*
X-297625Y-271653D02*
X-298178Y-270893D01*
X-299072Y-271183D01*
Y-272124D01*
X-298178Y-272414D01*
X-297625Y-271653D01*
X-293688Y-279527D02*
X-294241Y-278767D01*
X-295135Y-279057D01*
Y-279998D01*
X-294241Y-280288D01*
X-293688Y-279527D01*
X-297625Y-287402D02*
X-298178Y-286641D01*
X-299072Y-286931D01*
Y-287872D01*
X-298178Y-288162D01*
X-297625Y-287402D01*
X-301562Y-11811D02*
X-302115Y-11050D01*
X-303009Y-11340D01*
Y-12281D01*
X-302115Y-12572D01*
X-301562Y-11811D01*
X-305499Y-19685D02*
X-306052Y-18924D01*
X-306946Y-19215D01*
Y-20155D01*
X-306052Y-20446D01*
X-305499Y-19685D01*
X-301562Y-27559D02*
X-302115Y-26798D01*
X-303009Y-27089D01*
Y-28029D01*
X-302115Y-28320D01*
X-301562Y-27559D01*
X-305499Y-35433D02*
X-306052Y-34672D01*
X-306946Y-34963D01*
Y-35903D01*
X-306052Y-36194D01*
X-305499Y-35433D01*
X-301562Y-43307D02*
X-302115Y-42546D01*
X-303009Y-42837D01*
Y-43777D01*
X-302115Y-44068D01*
X-301562Y-43307D01*
X-305499Y-51181D02*
X-306052Y-50420D01*
X-306946Y-50711D01*
Y-51651D01*
X-306052Y-51942D01*
X-305499Y-51181D01*
X-301562Y-59055D02*
X-302115Y-58294D01*
X-303009Y-58585D01*
Y-59525D01*
X-302115Y-59816D01*
X-301562Y-59055D01*
X-305499Y-66929D02*
X-306052Y-66168D01*
X-306946Y-66459D01*
Y-67399D01*
X-306052Y-67690D01*
X-305499Y-66929D01*
Y-82677D02*
X-306052Y-81916D01*
X-306946Y-82207D01*
Y-83147D01*
X-306052Y-83438D01*
X-305499Y-82677D01*
Y-114173D02*
X-306052Y-113412D01*
X-306946Y-113703D01*
Y-114643D01*
X-306052Y-114934D01*
X-305499Y-114173D01*
Y-129921D02*
X-306052Y-129160D01*
X-306946Y-129451D01*
Y-130391D01*
X-306052Y-130682D01*
X-305499Y-129921D01*
Y-145669D02*
X-306052Y-144908D01*
X-306946Y-145199D01*
Y-146139D01*
X-306052Y-146430D01*
X-305499Y-145669D01*
X-301562Y-169291D02*
X-302115Y-168530D01*
X-303009Y-168821D01*
Y-169761D01*
X-302115Y-170052D01*
X-301562Y-169291D01*
X-305499Y-177165D02*
X-306052Y-176404D01*
X-306946Y-176695D01*
Y-177635D01*
X-306052Y-177926D01*
X-305499Y-177165D01*
X-301562Y-185039D02*
X-302115Y-184278D01*
X-303009Y-184569D01*
Y-185509D01*
X-302115Y-185800D01*
X-301562Y-185039D01*
X-305499Y-192913D02*
X-306052Y-192152D01*
X-306946Y-192443D01*
Y-193383D01*
X-306052Y-193674D01*
X-305499Y-192913D01*
X-301562Y-200787D02*
X-302115Y-200026D01*
X-303009Y-200317D01*
Y-201257D01*
X-302115Y-201548D01*
X-301562Y-200787D01*
X-305499Y-208661D02*
X-306052Y-207900D01*
X-306946Y-208191D01*
Y-209132D01*
X-306052Y-209422D01*
X-305499Y-208661D01*
X-301562Y-216535D02*
X-302115Y-215774D01*
X-303009Y-216065D01*
Y-217005D01*
X-302115Y-217296D01*
X-301562Y-216535D01*
X-305499Y-224409D02*
X-306052Y-223649D01*
X-306946Y-223939D01*
Y-224880D01*
X-306052Y-225170D01*
X-305499Y-224409D01*
X-301562Y-232283D02*
X-302115Y-231522D01*
X-303009Y-231813D01*
Y-232753D01*
X-302115Y-233044D01*
X-301562Y-232283D01*
X-305499Y-240157D02*
X-306052Y-239397D01*
X-306946Y-239687D01*
Y-240628D01*
X-306052Y-240918D01*
X-305499Y-240157D01*
X-301562Y-248031D02*
X-302115Y-247270D01*
X-303009Y-247561D01*
Y-248502D01*
X-302115Y-248792D01*
X-301562Y-248031D01*
X-305499Y-255905D02*
X-306052Y-255145D01*
X-306946Y-255435D01*
Y-256376D01*
X-306052Y-256666D01*
X-305499Y-255905D01*
X-301562Y-263779D02*
X-302115Y-263019D01*
X-303009Y-263309D01*
Y-264250D01*
X-302115Y-264540D01*
X-301562Y-263779D01*
X-305499Y-271653D02*
X-306052Y-270893D01*
X-306946Y-271183D01*
Y-272124D01*
X-306052Y-272414D01*
X-305499Y-271653D01*
X-301562Y-279527D02*
X-302115Y-278767D01*
X-303009Y-279057D01*
Y-279998D01*
X-302115Y-280288D01*
X-301562Y-279527D01*
X-305499Y-287402D02*
X-306052Y-286641D01*
X-306946Y-286931D01*
Y-287872D01*
X-306052Y-288162D01*
X-305499Y-287402D01*
X-309436Y-11811D02*
X-309989Y-11050D01*
X-310883Y-11340D01*
Y-12281D01*
X-309989Y-12572D01*
X-309436Y-11811D01*
X-313373Y-19685D02*
X-313926Y-18924D01*
X-314820Y-19215D01*
Y-20155D01*
X-313926Y-20446D01*
X-313373Y-19685D01*
X-309436Y-27559D02*
X-309989Y-26798D01*
X-310883Y-27089D01*
Y-28029D01*
X-309989Y-28320D01*
X-309436Y-27559D01*
X-313373Y-35433D02*
X-313926Y-34672D01*
X-314820Y-34963D01*
Y-35903D01*
X-313926Y-36194D01*
X-313373Y-35433D01*
X-309436Y-43307D02*
X-309989Y-42546D01*
X-310883Y-42837D01*
Y-43777D01*
X-309989Y-44068D01*
X-309436Y-43307D01*
X-313373Y-51181D02*
X-313926Y-50420D01*
X-314820Y-50711D01*
Y-51651D01*
X-313926Y-51942D01*
X-313373Y-51181D01*
X-309436Y-59055D02*
X-309989Y-58294D01*
X-310883Y-58585D01*
Y-59525D01*
X-309989Y-59816D01*
X-309436Y-59055D01*
X-313373Y-66929D02*
X-313926Y-66168D01*
X-314820Y-66459D01*
Y-67399D01*
X-313926Y-67690D01*
X-313373Y-66929D01*
X-309436Y-74803D02*
X-309989Y-74042D01*
X-310883Y-74333D01*
Y-75273D01*
X-309989Y-75564D01*
X-309436Y-74803D01*
X-313373Y-82677D02*
X-313926Y-81916D01*
X-314820Y-82207D01*
Y-83147D01*
X-313926Y-83438D01*
X-313373Y-82677D01*
Y-114173D02*
X-313926Y-113412D01*
X-314820Y-113703D01*
Y-114643D01*
X-313926Y-114934D01*
X-313373Y-114173D01*
X-309436Y-153543D02*
X-309989Y-152782D01*
X-310883Y-153073D01*
Y-154013D01*
X-309989Y-154304D01*
X-309436Y-153543D01*
Y-169291D02*
X-309989Y-168530D01*
X-310883Y-168821D01*
Y-169761D01*
X-309989Y-170052D01*
X-309436Y-169291D01*
X-313373Y-177165D02*
X-313926Y-176404D01*
X-314820Y-176695D01*
Y-177635D01*
X-313926Y-177926D01*
X-313373Y-177165D01*
X-309436Y-185039D02*
X-309989Y-184278D01*
X-310883Y-184569D01*
Y-185509D01*
X-309989Y-185800D01*
X-309436Y-185039D01*
X-313373Y-192913D02*
X-313926Y-192152D01*
X-314820Y-192443D01*
Y-193383D01*
X-313926Y-193674D01*
X-313373Y-192913D01*
X-309436Y-200787D02*
X-309989Y-200026D01*
X-310883Y-200317D01*
Y-201257D01*
X-309989Y-201548D01*
X-309436Y-200787D01*
X-313373Y-208661D02*
X-313926Y-207900D01*
X-314820Y-208191D01*
Y-209132D01*
X-313926Y-209422D01*
X-313373Y-208661D01*
X-309436Y-216535D02*
X-309989Y-215774D01*
X-310883Y-216065D01*
Y-217005D01*
X-309989Y-217296D01*
X-309436Y-216535D01*
X-313373Y-224409D02*
X-313926Y-223649D01*
X-314820Y-223939D01*
Y-224880D01*
X-313926Y-225170D01*
X-313373Y-224409D01*
X-309436Y-232283D02*
X-309989Y-231522D01*
X-310883Y-231813D01*
Y-232753D01*
X-309989Y-233044D01*
X-309436Y-232283D01*
X-313373Y-240157D02*
X-313926Y-239397D01*
X-314820Y-239687D01*
Y-240628D01*
X-313926Y-240918D01*
X-313373Y-240157D01*
X-309436Y-248031D02*
X-309989Y-247270D01*
X-310883Y-247561D01*
Y-248502D01*
X-309989Y-248792D01*
X-309436Y-248031D01*
X-313373Y-255905D02*
X-313926Y-255145D01*
X-314820Y-255435D01*
Y-256376D01*
X-313926Y-256666D01*
X-313373Y-255905D01*
X-309436Y-263779D02*
X-309989Y-263019D01*
X-310883Y-263309D01*
Y-264250D01*
X-309989Y-264540D01*
X-309436Y-263779D01*
X-313373Y-271653D02*
X-313926Y-270893D01*
X-314820Y-271183D01*
Y-272124D01*
X-313926Y-272414D01*
X-313373Y-271653D01*
X-309436Y-279527D02*
X-309989Y-278767D01*
X-310883Y-279057D01*
Y-279998D01*
X-309989Y-280288D01*
X-309436Y-279527D01*
X-313373Y-287402D02*
X-313926Y-286641D01*
X-314820Y-286931D01*
Y-287872D01*
X-313926Y-288162D01*
X-313373Y-287402D01*
X-317310Y-11811D02*
X-317863Y-11050D01*
X-318757Y-11340D01*
Y-12281D01*
X-317863Y-12572D01*
X-317310Y-11811D01*
X-321247Y-19685D02*
X-321800Y-18924D01*
X-322694Y-19215D01*
Y-20155D01*
X-321800Y-20446D01*
X-321247Y-19685D01*
X-317310Y-27559D02*
X-317863Y-26798D01*
X-318757Y-27089D01*
Y-28029D01*
X-317863Y-28320D01*
X-317310Y-27559D01*
X-321247Y-35433D02*
X-321800Y-34672D01*
X-322694Y-34963D01*
Y-35903D01*
X-321800Y-36194D01*
X-321247Y-35433D01*
X-317310Y-43307D02*
X-317863Y-42546D01*
X-318757Y-42837D01*
Y-43777D01*
X-317863Y-44068D01*
X-317310Y-43307D01*
X-321247Y-51181D02*
X-321800Y-50420D01*
X-322694Y-50711D01*
Y-51651D01*
X-321800Y-51942D01*
X-321247Y-51181D01*
X-317310Y-59055D02*
X-317863Y-58294D01*
X-318757Y-58585D01*
Y-59525D01*
X-317863Y-59816D01*
X-317310Y-59055D01*
X-321247Y-66929D02*
X-321800Y-66168D01*
X-322694Y-66459D01*
Y-67399D01*
X-321800Y-67690D01*
X-321247Y-66929D01*
X-317310Y-74803D02*
X-317863Y-74042D01*
X-318757Y-74333D01*
Y-75273D01*
X-317863Y-75564D01*
X-317310Y-74803D01*
X-321247Y-82677D02*
X-321800Y-81916D01*
X-322694Y-82207D01*
Y-83147D01*
X-321800Y-83438D01*
X-321247Y-82677D01*
Y-98425D02*
X-321800Y-97664D01*
X-322694Y-97955D01*
Y-98895D01*
X-321800Y-99186D01*
X-321247Y-98425D01*
X-317310Y-106299D02*
X-317863Y-105538D01*
X-318757Y-105829D01*
Y-106769D01*
X-317863Y-107060D01*
X-317310Y-106299D01*
X-321247Y-114173D02*
X-321800Y-113412D01*
X-322694Y-113703D01*
Y-114643D01*
X-321800Y-114934D01*
X-321247Y-114173D01*
X-317310Y-122047D02*
X-317863Y-121286D01*
X-318757Y-121577D01*
Y-122517D01*
X-317863Y-122808D01*
X-317310Y-122047D01*
X-321247Y-129921D02*
X-321800Y-129160D01*
X-322694Y-129451D01*
Y-130391D01*
X-321800Y-130682D01*
X-321247Y-129921D01*
X-317310Y-137795D02*
X-317863Y-137034D01*
X-318757Y-137325D01*
Y-138265D01*
X-317863Y-138556D01*
X-317310Y-137795D01*
X-321247Y-145669D02*
X-321800Y-144908D01*
X-322694Y-145199D01*
Y-146139D01*
X-321800Y-146430D01*
X-321247Y-145669D01*
X-317310Y-153543D02*
X-317863Y-152782D01*
X-318757Y-153073D01*
Y-154013D01*
X-317863Y-154304D01*
X-317310Y-153543D01*
Y-169291D02*
X-317863Y-168530D01*
X-318757Y-168821D01*
Y-169761D01*
X-317863Y-170052D01*
X-317310Y-169291D01*
X-321247Y-177165D02*
X-321800Y-176404D01*
X-322694Y-176695D01*
Y-177635D01*
X-321800Y-177926D01*
X-321247Y-177165D01*
X-317310Y-185039D02*
X-317863Y-184278D01*
X-318757Y-184569D01*
Y-185509D01*
X-317863Y-185800D01*
X-317310Y-185039D01*
X-321247Y-192913D02*
X-321800Y-192152D01*
X-322694Y-192443D01*
Y-193383D01*
X-321800Y-193674D01*
X-321247Y-192913D01*
X-317310Y-200787D02*
X-317863Y-200026D01*
X-318757Y-200317D01*
Y-201257D01*
X-317863Y-201548D01*
X-317310Y-200787D01*
X-321247Y-208661D02*
X-321800Y-207900D01*
X-322694Y-208191D01*
Y-209132D01*
X-321800Y-209422D01*
X-321247Y-208661D01*
X-317310Y-216535D02*
X-317863Y-215774D01*
X-318757Y-216065D01*
Y-217005D01*
X-317863Y-217296D01*
X-317310Y-216535D01*
X-321247Y-224409D02*
X-321800Y-223649D01*
X-322694Y-223939D01*
Y-224880D01*
X-321800Y-225170D01*
X-321247Y-224409D01*
X-317310Y-232283D02*
X-317863Y-231522D01*
X-318757Y-231813D01*
Y-232753D01*
X-317863Y-233044D01*
X-317310Y-232283D01*
X-321247Y-240157D02*
X-321800Y-239397D01*
X-322694Y-239687D01*
Y-240628D01*
X-321800Y-240918D01*
X-321247Y-240157D01*
X-317310Y-248031D02*
X-317863Y-247270D01*
X-318757Y-247561D01*
Y-248502D01*
X-317863Y-248792D01*
X-317310Y-248031D01*
X-321247Y-255905D02*
X-321800Y-255145D01*
X-322694Y-255435D01*
Y-256376D01*
X-321800Y-256666D01*
X-321247Y-255905D01*
X-317310Y-263779D02*
X-317863Y-263019D01*
X-318757Y-263309D01*
Y-264250D01*
X-317863Y-264540D01*
X-317310Y-263779D01*
X-321247Y-271653D02*
X-321800Y-270893D01*
X-322694Y-271183D01*
Y-272124D01*
X-321800Y-272414D01*
X-321247Y-271653D01*
X-317310Y-279527D02*
X-317863Y-278767D01*
X-318757Y-279057D01*
Y-279998D01*
X-317863Y-280288D01*
X-317310Y-279527D01*
X-321247Y-287402D02*
X-321800Y-286641D01*
X-322694Y-286931D01*
Y-287872D01*
X-321800Y-288162D01*
X-321247Y-287402D01*
X-325184Y-11811D02*
X-325737Y-11050D01*
X-326631Y-11340D01*
Y-12281D01*
X-325737Y-12572D01*
X-325184Y-11811D01*
X-329121Y-19685D02*
X-329674Y-18924D01*
X-330568Y-19215D01*
Y-20155D01*
X-329674Y-20446D01*
X-329121Y-19685D01*
X-325184Y-27559D02*
X-325737Y-26798D01*
X-326631Y-27089D01*
Y-28029D01*
X-325737Y-28320D01*
X-325184Y-27559D01*
X-329121Y-35433D02*
X-329674Y-34672D01*
X-330568Y-34963D01*
Y-35903D01*
X-329674Y-36194D01*
X-329121Y-35433D01*
X-325184Y-43307D02*
X-325737Y-42546D01*
X-326631Y-42837D01*
Y-43777D01*
X-325737Y-44068D01*
X-325184Y-43307D01*
X-329121Y-51181D02*
X-329674Y-50420D01*
X-330568Y-50711D01*
Y-51651D01*
X-329674Y-51942D01*
X-329121Y-51181D01*
X-325184Y-59055D02*
X-325737Y-58294D01*
X-326631Y-58585D01*
Y-59525D01*
X-325737Y-59816D01*
X-325184Y-59055D01*
X-329121Y-66929D02*
X-329674Y-66168D01*
X-330568Y-66459D01*
Y-67399D01*
X-329674Y-67690D01*
X-329121Y-66929D01*
X-325184Y-74803D02*
X-325737Y-74042D01*
X-326631Y-74333D01*
Y-75273D01*
X-325737Y-75564D01*
X-325184Y-74803D01*
X-329121Y-82677D02*
X-329674Y-81916D01*
X-330568Y-82207D01*
Y-83147D01*
X-329674Y-83438D01*
X-329121Y-82677D01*
X-325184Y-90551D02*
X-325737Y-89790D01*
X-326631Y-90081D01*
Y-91021D01*
X-325737Y-91312D01*
X-325184Y-90551D01*
X-329121Y-114173D02*
X-329674Y-113412D01*
X-330568Y-113703D01*
Y-114643D01*
X-329674Y-114934D01*
X-329121Y-114173D01*
X-325184Y-122047D02*
X-325737Y-121286D01*
X-326631Y-121577D01*
Y-122517D01*
X-325737Y-122808D01*
X-325184Y-122047D01*
X-329121Y-129921D02*
X-329674Y-129160D01*
X-330568Y-129451D01*
Y-130391D01*
X-329674Y-130682D01*
X-329121Y-129921D01*
X-325184Y-137795D02*
X-325737Y-137034D01*
X-326631Y-137325D01*
Y-138265D01*
X-325737Y-138556D01*
X-325184Y-137795D01*
X-329121Y-145669D02*
X-329674Y-144908D01*
X-330568Y-145199D01*
Y-146139D01*
X-329674Y-146430D01*
X-329121Y-145669D01*
X-325184Y-153543D02*
X-325737Y-152782D01*
X-326631Y-153073D01*
Y-154013D01*
X-325737Y-154304D01*
X-325184Y-153543D01*
Y-169291D02*
X-325737Y-168530D01*
X-326631Y-168821D01*
Y-169761D01*
X-325737Y-170052D01*
X-325184Y-169291D01*
X-329121Y-177165D02*
X-329674Y-176404D01*
X-330568Y-176695D01*
Y-177635D01*
X-329674Y-177926D01*
X-329121Y-177165D01*
X-325184Y-185039D02*
X-325737Y-184278D01*
X-326631Y-184569D01*
Y-185509D01*
X-325737Y-185800D01*
X-325184Y-185039D01*
X-329121Y-192913D02*
X-329674Y-192152D01*
X-330568Y-192443D01*
Y-193383D01*
X-329674Y-193674D01*
X-329121Y-192913D01*
X-325184Y-200787D02*
X-325737Y-200026D01*
X-326631Y-200317D01*
Y-201257D01*
X-325737Y-201548D01*
X-325184Y-200787D01*
X-329121Y-208661D02*
X-329674Y-207900D01*
X-330568Y-208191D01*
Y-209132D01*
X-329674Y-209422D01*
X-329121Y-208661D01*
X-325184Y-216535D02*
X-325737Y-215774D01*
X-326631Y-216065D01*
Y-217005D01*
X-325737Y-217296D01*
X-325184Y-216535D01*
X-329121Y-224409D02*
X-329674Y-223649D01*
X-330568Y-223939D01*
Y-224880D01*
X-329674Y-225170D01*
X-329121Y-224409D01*
X-325184Y-232283D02*
X-325737Y-231522D01*
X-326631Y-231813D01*
Y-232753D01*
X-325737Y-233044D01*
X-325184Y-232283D01*
X-329121Y-240157D02*
X-329674Y-239397D01*
X-330568Y-239687D01*
Y-240628D01*
X-329674Y-240918D01*
X-329121Y-240157D01*
X-325184Y-248031D02*
X-325737Y-247270D01*
X-326631Y-247561D01*
Y-248502D01*
X-325737Y-248792D01*
X-325184Y-248031D01*
X-329121Y-255905D02*
X-329674Y-255145D01*
X-330568Y-255435D01*
Y-256376D01*
X-329674Y-256666D01*
X-329121Y-255905D01*
X-325184Y-263779D02*
X-325737Y-263019D01*
X-326631Y-263309D01*
Y-264250D01*
X-325737Y-264540D01*
X-325184Y-263779D01*
X-329121Y-271653D02*
X-329674Y-270893D01*
X-330568Y-271183D01*
Y-272124D01*
X-329674Y-272414D01*
X-329121Y-271653D01*
X-325184Y-279527D02*
X-325737Y-278767D01*
X-326631Y-279057D01*
Y-279998D01*
X-325737Y-280288D01*
X-325184Y-279527D01*
X-329121Y-287402D02*
X-329674Y-286641D01*
X-330568Y-286931D01*
Y-287872D01*
X-329674Y-288162D01*
X-329121Y-287402D01*
X-333058Y-11811D02*
X-333611Y-11050D01*
X-334505Y-11340D01*
Y-12281D01*
X-333611Y-12572D01*
X-333058Y-11811D01*
X-336995Y-19685D02*
X-337548Y-18924D01*
X-338442Y-19215D01*
Y-20155D01*
X-337548Y-20446D01*
X-336995Y-19685D01*
X-333058Y-27559D02*
X-333611Y-26798D01*
X-334505Y-27089D01*
Y-28029D01*
X-333611Y-28320D01*
X-333058Y-27559D01*
X-336995Y-35433D02*
X-337548Y-34672D01*
X-338442Y-34963D01*
Y-35903D01*
X-337548Y-36194D01*
X-336995Y-35433D01*
X-333058Y-43307D02*
X-333611Y-42546D01*
X-334505Y-42837D01*
Y-43777D01*
X-333611Y-44068D01*
X-333058Y-43307D01*
X-336995Y-51181D02*
X-337548Y-50420D01*
X-338442Y-50711D01*
Y-51651D01*
X-337548Y-51942D01*
X-336995Y-51181D01*
X-333058Y-59055D02*
X-333611Y-58294D01*
X-334505Y-58585D01*
Y-59525D01*
X-333611Y-59816D01*
X-333058Y-59055D01*
X-336995Y-66929D02*
X-337548Y-66168D01*
X-338442Y-66459D01*
Y-67399D01*
X-337548Y-67690D01*
X-336995Y-66929D01*
X-333058Y-74803D02*
X-333611Y-74042D01*
X-334505Y-74333D01*
Y-75273D01*
X-333611Y-75564D01*
X-333058Y-74803D01*
X-336995Y-82677D02*
X-337548Y-81916D01*
X-338442Y-82207D01*
Y-83147D01*
X-337548Y-83438D01*
X-336995Y-82677D01*
X-333058Y-90551D02*
X-333611Y-89790D01*
X-334505Y-90081D01*
Y-91021D01*
X-333611Y-91312D01*
X-333058Y-90551D01*
X-336995Y-98425D02*
X-337548Y-97664D01*
X-338442Y-97955D01*
Y-98895D01*
X-337548Y-99186D01*
X-336995Y-98425D01*
X-333058Y-106299D02*
X-333611Y-105538D01*
X-334505Y-105829D01*
Y-106769D01*
X-333611Y-107060D01*
X-333058Y-106299D01*
X-336995Y-114173D02*
X-337548Y-113412D01*
X-338442Y-113703D01*
Y-114643D01*
X-337548Y-114934D01*
X-336995Y-114173D01*
X-333058Y-122047D02*
X-333611Y-121286D01*
X-334505Y-121577D01*
Y-122517D01*
X-333611Y-122808D01*
X-333058Y-122047D01*
X-336995Y-145669D02*
X-337548Y-144908D01*
X-338442Y-145199D01*
Y-146139D01*
X-337548Y-146430D01*
X-336995Y-145669D01*
Y-161417D02*
X-337548Y-160656D01*
X-338442Y-160947D01*
Y-161887D01*
X-337548Y-162178D01*
X-336995Y-161417D01*
X-333058Y-169291D02*
X-333611Y-168530D01*
X-334505Y-168821D01*
Y-169761D01*
X-333611Y-170052D01*
X-333058Y-169291D01*
X-336995Y-177165D02*
X-337548Y-176404D01*
X-338442Y-176695D01*
Y-177635D01*
X-337548Y-177926D01*
X-336995Y-177165D01*
X-333058Y-185039D02*
X-333611Y-184278D01*
X-334505Y-184569D01*
Y-185509D01*
X-333611Y-185800D01*
X-333058Y-185039D01*
X-336995Y-192913D02*
X-337548Y-192152D01*
X-338442Y-192443D01*
Y-193383D01*
X-337548Y-193674D01*
X-336995Y-192913D01*
X-333058Y-200787D02*
X-333611Y-200026D01*
X-334505Y-200317D01*
Y-201257D01*
X-333611Y-201548D01*
X-333058Y-200787D01*
X-336995Y-208661D02*
X-337548Y-207900D01*
X-338442Y-208191D01*
Y-209132D01*
X-337548Y-209422D01*
X-336995Y-208661D01*
X-333058Y-216535D02*
X-333611Y-215774D01*
X-334505Y-216065D01*
Y-217005D01*
X-333611Y-217296D01*
X-333058Y-216535D01*
X-336995Y-224409D02*
X-337548Y-223649D01*
X-338442Y-223939D01*
Y-224880D01*
X-337548Y-225170D01*
X-336995Y-224409D01*
X-333058Y-232283D02*
X-333611Y-231522D01*
X-334505Y-231813D01*
Y-232753D01*
X-333611Y-233044D01*
X-333058Y-232283D01*
X-336995Y-240157D02*
X-337548Y-239397D01*
X-338442Y-239687D01*
Y-240628D01*
X-337548Y-240918D01*
X-336995Y-240157D01*
X-333058Y-248031D02*
X-333611Y-247270D01*
X-334505Y-247561D01*
Y-248502D01*
X-333611Y-248792D01*
X-333058Y-248031D01*
X-336995Y-255905D02*
X-337548Y-255145D01*
X-338442Y-255435D01*
Y-256376D01*
X-337548Y-256666D01*
X-336995Y-255905D01*
X-333058Y-263779D02*
X-333611Y-263019D01*
X-334505Y-263309D01*
Y-264250D01*
X-333611Y-264540D01*
X-333058Y-263779D01*
X-336995Y-271653D02*
X-337548Y-270893D01*
X-338442Y-271183D01*
Y-272124D01*
X-337548Y-272414D01*
X-336995Y-271653D01*
X-333058Y-279527D02*
X-333611Y-278767D01*
X-334505Y-279057D01*
Y-279998D01*
X-333611Y-280288D01*
X-333058Y-279527D01*
X-336995Y-287402D02*
X-337548Y-286641D01*
X-338442Y-286931D01*
Y-287872D01*
X-337548Y-288162D01*
X-336995Y-287402D01*
X-340932Y-11811D02*
X-341485Y-11050D01*
X-342379Y-11340D01*
Y-12281D01*
X-341485Y-12572D01*
X-340932Y-11811D01*
X-344869Y-19685D02*
X-345422Y-18924D01*
X-346316Y-19215D01*
Y-20155D01*
X-345422Y-20446D01*
X-344869Y-19685D01*
X-340932Y-27559D02*
X-341485Y-26798D01*
X-342379Y-27089D01*
Y-28029D01*
X-341485Y-28320D01*
X-340932Y-27559D01*
X-344869Y-35433D02*
X-345422Y-34672D01*
X-346316Y-34963D01*
Y-35903D01*
X-345422Y-36194D01*
X-344869Y-35433D01*
X-340932Y-43307D02*
X-341485Y-42546D01*
X-342379Y-42837D01*
Y-43777D01*
X-341485Y-44068D01*
X-340932Y-43307D01*
X-344869Y-51181D02*
X-345422Y-50420D01*
X-346316Y-50711D01*
Y-51651D01*
X-345422Y-51942D01*
X-344869Y-51181D01*
X-340932Y-59055D02*
X-341485Y-58294D01*
X-342379Y-58585D01*
Y-59525D01*
X-341485Y-59816D01*
X-340932Y-59055D01*
X-344869Y-66929D02*
X-345422Y-66168D01*
X-346316Y-66459D01*
Y-67399D01*
X-345422Y-67690D01*
X-344869Y-66929D01*
X-340932Y-74803D02*
X-341485Y-74042D01*
X-342379Y-74333D01*
Y-75273D01*
X-341485Y-75564D01*
X-340932Y-74803D01*
X-344869Y-82677D02*
X-345422Y-81916D01*
X-346316Y-82207D01*
Y-83147D01*
X-345422Y-83438D01*
X-344869Y-82677D01*
X-340932Y-90551D02*
X-341485Y-89790D01*
X-342379Y-90081D01*
Y-91021D01*
X-341485Y-91312D01*
X-340932Y-90551D01*
X-344869Y-98425D02*
X-345422Y-97664D01*
X-346316Y-97955D01*
Y-98895D01*
X-345422Y-99186D01*
X-344869Y-98425D01*
X-340932Y-106299D02*
X-341485Y-105538D01*
X-342379Y-105829D01*
Y-106769D01*
X-341485Y-107060D01*
X-340932Y-106299D01*
X-344869Y-114173D02*
X-345422Y-113412D01*
X-346316Y-113703D01*
Y-114643D01*
X-345422Y-114934D01*
X-344869Y-114173D01*
X-340932Y-122047D02*
X-341485Y-121286D01*
X-342379Y-121577D01*
Y-122517D01*
X-341485Y-122808D01*
X-340932Y-122047D01*
X-344869Y-129921D02*
X-345422Y-129160D01*
X-346316Y-129451D01*
Y-130391D01*
X-345422Y-130682D01*
X-344869Y-129921D01*
X-340932Y-137795D02*
X-341485Y-137034D01*
X-342379Y-137325D01*
Y-138265D01*
X-341485Y-138556D01*
X-340932Y-137795D01*
X-344869Y-145669D02*
X-345422Y-144908D01*
X-346316Y-145199D01*
Y-146139D01*
X-345422Y-146430D01*
X-344869Y-145669D01*
X-340932Y-153543D02*
X-341485Y-152782D01*
X-342379Y-153073D01*
Y-154013D01*
X-341485Y-154304D01*
X-340932Y-153543D01*
X-344869Y-161417D02*
X-345422Y-160656D01*
X-346316Y-160947D01*
Y-161887D01*
X-345422Y-162178D01*
X-344869Y-161417D01*
X-340932Y-169291D02*
X-341485Y-168530D01*
X-342379Y-168821D01*
Y-169761D01*
X-341485Y-170052D01*
X-340932Y-169291D01*
X-344869Y-177165D02*
X-345422Y-176404D01*
X-346316Y-176695D01*
Y-177635D01*
X-345422Y-177926D01*
X-344869Y-177165D01*
X-340932Y-185039D02*
X-341485Y-184278D01*
X-342379Y-184569D01*
Y-185509D01*
X-341485Y-185800D01*
X-340932Y-185039D01*
X-344869Y-192913D02*
X-345422Y-192152D01*
X-346316Y-192443D01*
Y-193383D01*
X-345422Y-193674D01*
X-344869Y-192913D01*
X-340932Y-200787D02*
X-341485Y-200026D01*
X-342379Y-200317D01*
Y-201257D01*
X-341485Y-201548D01*
X-340932Y-200787D01*
X-344869Y-208661D02*
X-345422Y-207900D01*
X-346316Y-208191D01*
Y-209132D01*
X-345422Y-209422D01*
X-344869Y-208661D01*
X-340932Y-216535D02*
X-341485Y-215774D01*
X-342379Y-216065D01*
Y-217005D01*
X-341485Y-217296D01*
X-340932Y-216535D01*
X-344869Y-224409D02*
X-345422Y-223649D01*
X-346316Y-223939D01*
Y-224880D01*
X-345422Y-225170D01*
X-344869Y-224409D01*
X-340932Y-232283D02*
X-341485Y-231522D01*
X-342379Y-231813D01*
Y-232753D01*
X-341485Y-233044D01*
X-340932Y-232283D01*
X-344869Y-240157D02*
X-345422Y-239397D01*
X-346316Y-239687D01*
Y-240628D01*
X-345422Y-240918D01*
X-344869Y-240157D01*
X-340932Y-248031D02*
X-341485Y-247270D01*
X-342379Y-247561D01*
Y-248502D01*
X-341485Y-248792D01*
X-340932Y-248031D01*
X-344869Y-255905D02*
X-345422Y-255145D01*
X-346316Y-255435D01*
Y-256376D01*
X-345422Y-256666D01*
X-344869Y-255905D01*
X-340932Y-263779D02*
X-341485Y-263019D01*
X-342379Y-263309D01*
Y-264250D01*
X-341485Y-264540D01*
X-340932Y-263779D01*
X-344869Y-271653D02*
X-345422Y-270893D01*
X-346316Y-271183D01*
Y-272124D01*
X-345422Y-272414D01*
X-344869Y-271653D01*
X-340932Y-279527D02*
X-341485Y-278767D01*
X-342379Y-279057D01*
Y-279998D01*
X-341485Y-280288D01*
X-340932Y-279527D01*
X-344869Y-287402D02*
X-345422Y-286641D01*
X-346316Y-286931D01*
Y-287872D01*
X-345422Y-288162D01*
X-344869Y-287402D01*
X-348806Y-11811D02*
X-349359Y-11050D01*
X-350253Y-11340D01*
Y-12281D01*
X-349359Y-12572D01*
X-348806Y-11811D01*
X-352743Y-19685D02*
X-353296Y-18924D01*
X-354190Y-19215D01*
Y-20155D01*
X-353296Y-20446D01*
X-352743Y-19685D01*
X-348806Y-27559D02*
X-349359Y-26798D01*
X-350253Y-27089D01*
Y-28029D01*
X-349359Y-28320D01*
X-348806Y-27559D01*
X-352743Y-35433D02*
X-353296Y-34672D01*
X-354190Y-34963D01*
Y-35903D01*
X-353296Y-36194D01*
X-352743Y-35433D01*
X-348806Y-43307D02*
X-349359Y-42546D01*
X-350253Y-42837D01*
Y-43777D01*
X-349359Y-44068D01*
X-348806Y-43307D01*
X-352743Y-51181D02*
X-353296Y-50420D01*
X-354190Y-50711D01*
Y-51651D01*
X-353296Y-51942D01*
X-352743Y-51181D01*
X-348806Y-59055D02*
X-349359Y-58294D01*
X-350253Y-58585D01*
Y-59525D01*
X-349359Y-59816D01*
X-348806Y-59055D01*
X-352743Y-66929D02*
X-353296Y-66168D01*
X-354190Y-66459D01*
Y-67399D01*
X-353296Y-67690D01*
X-352743Y-66929D01*
X-348806Y-74803D02*
X-349359Y-74042D01*
X-350253Y-74333D01*
Y-75273D01*
X-349359Y-75564D01*
X-348806Y-74803D01*
X-352743Y-82677D02*
X-353296Y-81916D01*
X-354190Y-82207D01*
Y-83147D01*
X-353296Y-83438D01*
X-352743Y-82677D01*
Y-114173D02*
X-353296Y-113412D01*
X-354190Y-113703D01*
Y-114643D01*
X-353296Y-114934D01*
X-352743Y-114173D01*
X-348806Y-122047D02*
X-349359Y-121286D01*
X-350253Y-121577D01*
Y-122517D01*
X-349359Y-122808D01*
X-348806Y-122047D01*
X-352743Y-129921D02*
X-353296Y-129160D01*
X-354190Y-129451D01*
Y-130391D01*
X-353296Y-130682D01*
X-352743Y-129921D01*
X-348806Y-137795D02*
X-349359Y-137034D01*
X-350253Y-137325D01*
Y-138265D01*
X-349359Y-138556D01*
X-348806Y-137795D01*
X-352743Y-145669D02*
X-353296Y-144908D01*
X-354190Y-145199D01*
Y-146139D01*
X-353296Y-146430D01*
X-352743Y-145669D01*
X-348806Y-153543D02*
X-349359Y-152782D01*
X-350253Y-153073D01*
Y-154013D01*
X-349359Y-154304D01*
X-348806Y-153543D01*
X-352743Y-161417D02*
X-353296Y-160656D01*
X-354190Y-160947D01*
Y-161887D01*
X-353296Y-162178D01*
X-352743Y-161417D01*
X-348806Y-169291D02*
X-349359Y-168530D01*
X-350253Y-168821D01*
Y-169761D01*
X-349359Y-170052D01*
X-348806Y-169291D01*
X-352743Y-177165D02*
X-353296Y-176404D01*
X-354190Y-176695D01*
Y-177635D01*
X-353296Y-177926D01*
X-352743Y-177165D01*
X-348806Y-185039D02*
X-349359Y-184278D01*
X-350253Y-184569D01*
Y-185509D01*
X-349359Y-185800D01*
X-348806Y-185039D01*
X-352743Y-192913D02*
X-353296Y-192152D01*
X-354190Y-192443D01*
Y-193383D01*
X-353296Y-193674D01*
X-352743Y-192913D01*
X-348806Y-200787D02*
X-349359Y-200026D01*
X-350253Y-200317D01*
Y-201257D01*
X-349359Y-201548D01*
X-348806Y-200787D01*
X-352743Y-208661D02*
X-353296Y-207900D01*
X-354190Y-208191D01*
Y-209132D01*
X-353296Y-209422D01*
X-352743Y-208661D01*
X-348806Y-216535D02*
X-349359Y-215774D01*
X-350253Y-216065D01*
Y-217005D01*
X-349359Y-217296D01*
X-348806Y-216535D01*
X-352743Y-224409D02*
X-353296Y-223649D01*
X-354190Y-223939D01*
Y-224880D01*
X-353296Y-225170D01*
X-352743Y-224409D01*
X-348806Y-232283D02*
X-349359Y-231522D01*
X-350253Y-231813D01*
Y-232753D01*
X-349359Y-233044D01*
X-348806Y-232283D01*
X-352743Y-240157D02*
X-353296Y-239397D01*
X-354190Y-239687D01*
Y-240628D01*
X-353296Y-240918D01*
X-352743Y-240157D01*
X-348806Y-248031D02*
X-349359Y-247270D01*
X-350253Y-247561D01*
Y-248502D01*
X-349359Y-248792D01*
X-348806Y-248031D01*
X-352743Y-255905D02*
X-353296Y-255145D01*
X-354190Y-255435D01*
Y-256376D01*
X-353296Y-256666D01*
X-352743Y-255905D01*
X-348806Y-263779D02*
X-349359Y-263019D01*
X-350253Y-263309D01*
Y-264250D01*
X-349359Y-264540D01*
X-348806Y-263779D01*
X-352743Y-271653D02*
X-353296Y-270893D01*
X-354190Y-271183D01*
Y-272124D01*
X-353296Y-272414D01*
X-352743Y-271653D01*
X-348806Y-279527D02*
X-349359Y-278767D01*
X-350253Y-279057D01*
Y-279998D01*
X-349359Y-280288D01*
X-348806Y-279527D01*
X-352743Y-287402D02*
X-353296Y-286641D01*
X-354190Y-286931D01*
Y-287872D01*
X-353296Y-288162D01*
X-352743Y-287402D01*
X-360617Y-19685D02*
X-361170Y-18924D01*
X-362064Y-19215D01*
Y-20155D01*
X-361170Y-20446D01*
X-360617Y-19685D01*
X-356680Y-27559D02*
X-357233Y-26798D01*
X-358127Y-27089D01*
Y-28029D01*
X-357233Y-28320D01*
X-356680Y-27559D01*
X-360617Y-35433D02*
X-361170Y-34672D01*
X-362064Y-34963D01*
Y-35903D01*
X-361170Y-36194D01*
X-360617Y-35433D01*
X-356680Y-43307D02*
X-357233Y-42546D01*
X-358127Y-42837D01*
Y-43777D01*
X-357233Y-44068D01*
X-356680Y-43307D01*
X-360617Y-51181D02*
X-361170Y-50420D01*
X-362064Y-50711D01*
Y-51651D01*
X-361170Y-51942D01*
X-360617Y-51181D01*
X-356680Y-59055D02*
X-357233Y-58294D01*
X-358127Y-58585D01*
Y-59525D01*
X-357233Y-59816D01*
X-356680Y-59055D01*
X-360617Y-66929D02*
X-361170Y-66168D01*
X-362064Y-66459D01*
Y-67399D01*
X-361170Y-67690D01*
X-360617Y-66929D01*
X-356680Y-74803D02*
X-357233Y-74042D01*
X-358127Y-74333D01*
Y-75273D01*
X-357233Y-75564D01*
X-356680Y-74803D01*
X-360617Y-82677D02*
X-361170Y-81916D01*
X-362064Y-82207D01*
Y-83147D01*
X-361170Y-83438D01*
X-360617Y-82677D01*
X-356680Y-90551D02*
X-357233Y-89790D01*
X-358127Y-90081D01*
Y-91021D01*
X-357233Y-91312D01*
X-356680Y-90551D01*
X-360617Y-98425D02*
X-361170Y-97664D01*
X-362064Y-97955D01*
Y-98895D01*
X-361170Y-99186D01*
X-360617Y-98425D01*
X-356680Y-106299D02*
X-357233Y-105538D01*
X-358127Y-105829D01*
Y-106769D01*
X-357233Y-107060D01*
X-356680Y-106299D01*
X-360617Y-114173D02*
X-361170Y-113412D01*
X-362064Y-113703D01*
Y-114643D01*
X-361170Y-114934D01*
X-360617Y-114173D01*
X-356680Y-122047D02*
X-357233Y-121286D01*
X-358127Y-121577D01*
Y-122517D01*
X-357233Y-122808D01*
X-356680Y-122047D01*
Y-137795D02*
X-357233Y-137034D01*
X-358127Y-137325D01*
Y-138265D01*
X-357233Y-138556D01*
X-356680Y-137795D01*
X-360617Y-145669D02*
X-361170Y-144908D01*
X-362064Y-145199D01*
Y-146139D01*
X-361170Y-146430D01*
X-360617Y-145669D01*
X-356680Y-153543D02*
X-357233Y-152782D01*
X-358127Y-153073D01*
Y-154013D01*
X-357233Y-154304D01*
X-356680Y-153543D01*
X-360617Y-161417D02*
X-361170Y-160656D01*
X-362064Y-160947D01*
Y-161887D01*
X-361170Y-162178D01*
X-360617Y-161417D01*
X-356680Y-169291D02*
X-357233Y-168530D01*
X-358127Y-168821D01*
Y-169761D01*
X-357233Y-170052D01*
X-356680Y-169291D01*
X-360617Y-177165D02*
X-361170Y-176404D01*
X-362064Y-176695D01*
Y-177635D01*
X-361170Y-177926D01*
X-360617Y-177165D01*
X-356680Y-185039D02*
X-357233Y-184278D01*
X-358127Y-184569D01*
Y-185509D01*
X-357233Y-185800D01*
X-356680Y-185039D01*
X-360617Y-192913D02*
X-361170Y-192152D01*
X-362064Y-192443D01*
Y-193383D01*
X-361170Y-193674D01*
X-360617Y-192913D01*
X-356680Y-200787D02*
X-357233Y-200026D01*
X-358127Y-200317D01*
Y-201257D01*
X-357233Y-201548D01*
X-356680Y-200787D01*
X-360617Y-208661D02*
X-361170Y-207900D01*
X-362064Y-208191D01*
Y-209132D01*
X-361170Y-209422D01*
X-360617Y-208661D01*
X-356680Y-216535D02*
X-357233Y-215774D01*
X-358127Y-216065D01*
Y-217005D01*
X-357233Y-217296D01*
X-356680Y-216535D01*
X-360617Y-224409D02*
X-361170Y-223649D01*
X-362064Y-223939D01*
Y-224880D01*
X-361170Y-225170D01*
X-360617Y-224409D01*
X-356680Y-232283D02*
X-357233Y-231522D01*
X-358127Y-231813D01*
Y-232753D01*
X-357233Y-233044D01*
X-356680Y-232283D01*
X-360617Y-240157D02*
X-361170Y-239397D01*
X-362064Y-239687D01*
Y-240628D01*
X-361170Y-240918D01*
X-360617Y-240157D01*
X-356680Y-248031D02*
X-357233Y-247270D01*
X-358127Y-247561D01*
Y-248502D01*
X-357233Y-248792D01*
X-356680Y-248031D01*
X-360617Y-255905D02*
X-361170Y-255145D01*
X-362064Y-255435D01*
Y-256376D01*
X-361170Y-256666D01*
X-360617Y-255905D01*
X-356680Y-263779D02*
X-357233Y-263019D01*
X-358127Y-263309D01*
Y-264250D01*
X-357233Y-264540D01*
X-356680Y-263779D01*
X-360617Y-271653D02*
X-361170Y-270893D01*
X-362064Y-271183D01*
Y-272124D01*
X-361170Y-272414D01*
X-360617Y-271653D01*
X-364554Y-11811D02*
X-365107Y-11050D01*
X-366001Y-11340D01*
Y-12281D01*
X-365107Y-12572D01*
X-364554Y-11811D01*
X-368491Y-19685D02*
X-369044Y-18924D01*
X-369938Y-19215D01*
Y-20155D01*
X-369044Y-20446D01*
X-368491Y-19685D01*
X-364554Y-27559D02*
X-365107Y-26798D01*
X-366001Y-27089D01*
Y-28029D01*
X-365107Y-28320D01*
X-364554Y-27559D01*
X-368491Y-35433D02*
X-369044Y-34672D01*
X-369938Y-34963D01*
Y-35903D01*
X-369044Y-36194D01*
X-368491Y-35433D01*
X-364554Y-43307D02*
X-365107Y-42546D01*
X-366001Y-42837D01*
Y-43777D01*
X-365107Y-44068D01*
X-364554Y-43307D01*
X-368491Y-51181D02*
X-369044Y-50420D01*
X-369938Y-50711D01*
Y-51651D01*
X-369044Y-51942D01*
X-368491Y-51181D01*
X-364554Y-59055D02*
X-365107Y-58294D01*
X-366001Y-58585D01*
Y-59525D01*
X-365107Y-59816D01*
X-364554Y-59055D01*
X-368491Y-66929D02*
X-369044Y-66168D01*
X-369938Y-66459D01*
Y-67399D01*
X-369044Y-67690D01*
X-368491Y-66929D01*
X-364554Y-74803D02*
X-365107Y-74042D01*
X-366001Y-74333D01*
Y-75273D01*
X-365107Y-75564D01*
X-364554Y-74803D01*
X-368491Y-82677D02*
X-369044Y-81916D01*
X-369938Y-82207D01*
Y-83147D01*
X-369044Y-83438D01*
X-368491Y-82677D01*
X-364554Y-90551D02*
X-365107Y-89790D01*
X-366001Y-90081D01*
Y-91021D01*
X-365107Y-91312D01*
X-364554Y-90551D01*
X-368491Y-114173D02*
X-369044Y-113412D01*
X-369938Y-113703D01*
Y-114643D01*
X-369044Y-114934D01*
X-368491Y-114173D01*
X-364554Y-122047D02*
X-365107Y-121286D01*
X-366001Y-121577D01*
Y-122517D01*
X-365107Y-122808D01*
X-364554Y-122047D01*
X-368491Y-129921D02*
X-369044Y-129160D01*
X-369938Y-129451D01*
Y-130391D01*
X-369044Y-130682D01*
X-368491Y-129921D01*
Y-145669D02*
X-369044Y-144908D01*
X-369938Y-145199D01*
Y-146139D01*
X-369044Y-146430D01*
X-368491Y-145669D01*
X-364554Y-153543D02*
X-365107Y-152782D01*
X-366001Y-153073D01*
Y-154013D01*
X-365107Y-154304D01*
X-364554Y-153543D01*
X-368491Y-161417D02*
X-369044Y-160656D01*
X-369938Y-160947D01*
Y-161887D01*
X-369044Y-162178D01*
X-368491Y-161417D01*
X-364554Y-169291D02*
X-365107Y-168530D01*
X-366001Y-168821D01*
Y-169761D01*
X-365107Y-170052D01*
X-364554Y-169291D01*
X-368491Y-177165D02*
X-369044Y-176404D01*
X-369938Y-176695D01*
Y-177635D01*
X-369044Y-177926D01*
X-368491Y-177165D01*
X-364554Y-185039D02*
X-365107Y-184278D01*
X-366001Y-184569D01*
Y-185509D01*
X-365107Y-185800D01*
X-364554Y-185039D01*
X-368491Y-192913D02*
X-369044Y-192152D01*
X-369938Y-192443D01*
Y-193383D01*
X-369044Y-193674D01*
X-368491Y-192913D01*
X-364554Y-200787D02*
X-365107Y-200026D01*
X-366001Y-200317D01*
Y-201257D01*
X-365107Y-201548D01*
X-364554Y-200787D01*
X-368491Y-208661D02*
X-369044Y-207900D01*
X-369938Y-208191D01*
Y-209132D01*
X-369044Y-209422D01*
X-368491Y-208661D01*
X-364554Y-216535D02*
X-365107Y-215774D01*
X-366001Y-216065D01*
Y-217005D01*
X-365107Y-217296D01*
X-364554Y-216535D01*
X-368491Y-224409D02*
X-369044Y-223649D01*
X-369938Y-223939D01*
Y-224880D01*
X-369044Y-225170D01*
X-368491Y-224409D01*
X-364554Y-232283D02*
X-365107Y-231522D01*
X-366001Y-231813D01*
Y-232753D01*
X-365107Y-233044D01*
X-364554Y-232283D01*
X-368491Y-240157D02*
X-369044Y-239397D01*
X-369938Y-239687D01*
Y-240628D01*
X-369044Y-240918D01*
X-368491Y-240157D01*
X-364554Y-248031D02*
X-365107Y-247270D01*
X-366001Y-247561D01*
Y-248502D01*
X-365107Y-248792D01*
X-364554Y-248031D01*
X-368491Y-255905D02*
X-369044Y-255145D01*
X-369938Y-255435D01*
Y-256376D01*
X-369044Y-256666D01*
X-368491Y-255905D01*
X-364554Y-263779D02*
X-365107Y-263019D01*
X-366001Y-263309D01*
Y-264250D01*
X-365107Y-264540D01*
X-364554Y-263779D01*
X-368491Y-271653D02*
X-369044Y-270893D01*
X-369938Y-271183D01*
Y-272124D01*
X-369044Y-272414D01*
X-368491Y-271653D01*
X-364554Y-279527D02*
X-365107Y-278767D01*
X-366001Y-279057D01*
Y-279998D01*
X-365107Y-280288D01*
X-364554Y-279527D01*
X-368491Y-287402D02*
X-369044Y-286641D01*
X-369938Y-286931D01*
Y-287872D01*
X-369044Y-288162D01*
X-368491Y-287402D01*
X-148019Y-161417D02*
X-148571Y-160656D01*
X-149466Y-160947D01*
Y-161887D01*
X-148571Y-162178D01*
X-148019Y-161417D01*
Y-177165D02*
X-148571Y-176404D01*
X-149466Y-176695D01*
Y-177635D01*
X-148571Y-177926D01*
X-148019Y-177165D01*
X-144082Y-200787D02*
X-144634Y-200026D01*
X-145529Y-200317D01*
Y-201257D01*
X-144634Y-201548D01*
X-144082Y-200787D01*
Y-216535D02*
X-144634Y-215774D01*
X-145529Y-216065D01*
Y-217005D01*
X-144634Y-217296D01*
X-144082Y-216535D01*
Y-232283D02*
X-144634Y-231522D01*
X-145529Y-231813D01*
Y-232753D01*
X-144634Y-233044D01*
X-144082Y-232283D01*
Y-248031D02*
X-144634Y-247270D01*
X-145529Y-247561D01*
Y-248502D01*
X-144634Y-248792D01*
X-144082Y-248031D01*
Y-263779D02*
X-144634Y-263019D01*
X-145529Y-263309D01*
Y-264250D01*
X-144634Y-264540D01*
X-144082Y-263779D01*
X-148019Y-287402D02*
X-148571Y-286641D01*
X-149466Y-286931D01*
Y-287872D01*
X-148571Y-288162D01*
X-148019Y-287402D01*
X-151956Y-169291D02*
X-152508Y-168530D01*
X-153403Y-168821D01*
Y-169761D01*
X-152508Y-170052D01*
X-151956Y-169291D01*
X-155893Y-177165D02*
X-156445Y-176404D01*
X-157340Y-176695D01*
Y-177635D01*
X-156445Y-177926D01*
X-155893Y-177165D01*
X-151956Y-200787D02*
X-152508Y-200026D01*
X-153403Y-200317D01*
Y-201257D01*
X-152508Y-201548D01*
X-151956Y-200787D01*
X-155893Y-224409D02*
X-156445Y-223649D01*
X-157340Y-223939D01*
Y-224880D01*
X-156445Y-225170D01*
X-155893Y-224409D01*
X-151956Y-232283D02*
X-152508Y-231522D01*
X-153403Y-231813D01*
Y-232753D01*
X-152508Y-233044D01*
X-151956Y-232283D01*
X-155893Y-240157D02*
X-156445Y-239397D01*
X-157340Y-239687D01*
Y-240628D01*
X-156445Y-240918D01*
X-155893Y-240157D01*
X-151956Y-248031D02*
X-152508Y-247270D01*
X-153403Y-247561D01*
Y-248502D01*
X-152508Y-248792D01*
X-151956Y-248031D01*
X-155893Y-255905D02*
X-156445Y-255145D01*
X-157340Y-255435D01*
Y-256376D01*
X-156445Y-256666D01*
X-155893Y-255905D01*
X-151956Y-263779D02*
X-152508Y-263019D01*
X-153403Y-263309D01*
Y-264250D01*
X-152508Y-264540D01*
X-151956Y-263779D01*
X-155893Y-271653D02*
X-156445Y-270893D01*
X-157340Y-271183D01*
Y-272124D01*
X-156445Y-272414D01*
X-155893Y-271653D01*
X-151956Y-279527D02*
X-152508Y-278767D01*
X-153403Y-279057D01*
Y-279998D01*
X-152508Y-280288D01*
X-151956Y-279527D01*
X-155893Y-287402D02*
X-156445Y-286641D01*
X-157340Y-286931D01*
Y-287872D01*
X-156445Y-288162D01*
X-155893Y-287402D01*
X-163767Y-177165D02*
X-164319Y-176404D01*
X-165214Y-176695D01*
Y-177635D01*
X-164319Y-177926D01*
X-163767Y-177165D01*
Y-224409D02*
X-164319Y-223649D01*
X-165214Y-223939D01*
Y-224880D01*
X-164319Y-225170D01*
X-163767Y-224409D01*
X-159830Y-232283D02*
X-160382Y-231522D01*
X-161277Y-231813D01*
Y-232753D01*
X-160382Y-233044D01*
X-159830Y-232283D01*
X-163767Y-240157D02*
X-164319Y-239397D01*
X-165214Y-239687D01*
Y-240628D01*
X-164319Y-240918D01*
X-163767Y-240157D01*
X-159830Y-248031D02*
X-160382Y-247270D01*
X-161277Y-247561D01*
Y-248502D01*
X-160382Y-248792D01*
X-159830Y-248031D01*
X-163767Y-255905D02*
X-164319Y-255145D01*
X-165214Y-255435D01*
Y-256376D01*
X-164319Y-256666D01*
X-163767Y-255905D01*
X-159830Y-263779D02*
X-160382Y-263019D01*
X-161277Y-263309D01*
Y-264250D01*
X-160382Y-264540D01*
X-159830Y-263779D01*
X-163767Y-271653D02*
X-164319Y-270893D01*
X-165214Y-271183D01*
Y-272124D01*
X-164319Y-272414D01*
X-163767Y-271653D01*
X-159830Y-279527D02*
X-160382Y-278767D01*
X-161277Y-279057D01*
Y-279998D01*
X-160382Y-280288D01*
X-159830Y-279527D01*
X-163767Y-287402D02*
X-164319Y-286641D01*
X-165214Y-286931D01*
Y-287872D01*
X-164319Y-288162D01*
X-163767Y-287402D01*
X-167704Y-169291D02*
X-168256Y-168530D01*
X-169151Y-168821D01*
Y-169761D01*
X-168256Y-170052D01*
X-167704Y-169291D01*
X-171641Y-177165D02*
X-172194Y-176404D01*
X-173088Y-176695D01*
Y-177635D01*
X-172194Y-177926D01*
X-171641Y-177165D01*
X-167704Y-200787D02*
X-168256Y-200026D01*
X-169151Y-200317D01*
Y-201257D01*
X-168256Y-201548D01*
X-167704Y-200787D01*
X-171641Y-224409D02*
X-172194Y-223649D01*
X-173088Y-223939D01*
Y-224880D01*
X-172194Y-225170D01*
X-171641Y-224409D01*
X-167704Y-232283D02*
X-168256Y-231522D01*
X-169151Y-231813D01*
Y-232753D01*
X-168256Y-233044D01*
X-167704Y-232283D01*
X-171641Y-240157D02*
X-172194Y-239397D01*
X-173088Y-239687D01*
Y-240628D01*
X-172194Y-240918D01*
X-171641Y-240157D01*
X-167704Y-248031D02*
X-168256Y-247270D01*
X-169151Y-247561D01*
Y-248502D01*
X-168256Y-248792D01*
X-167704Y-248031D01*
X-171641Y-255905D02*
X-172194Y-255145D01*
X-173088Y-255435D01*
Y-256376D01*
X-172194Y-256666D01*
X-171641Y-255905D01*
X-167704Y-263779D02*
X-168256Y-263019D01*
X-169151Y-263309D01*
Y-264250D01*
X-168256Y-264540D01*
X-167704Y-263779D01*
X-171641Y-271653D02*
X-172194Y-270893D01*
X-173088Y-271183D01*
Y-272124D01*
X-172194Y-272414D01*
X-171641Y-271653D01*
X-167704Y-279527D02*
X-168256Y-278767D01*
X-169151Y-279057D01*
Y-279998D01*
X-168256Y-280288D01*
X-167704Y-279527D01*
X-171641Y-287402D02*
X-172194Y-286641D01*
X-173088Y-286931D01*
Y-287872D01*
X-172194Y-288162D01*
X-171641Y-287402D01*
X-175578Y-169291D02*
X-176130Y-168530D01*
X-177025Y-168821D01*
Y-169761D01*
X-176130Y-170052D01*
X-175578Y-169291D01*
X-179515Y-177165D02*
X-180068Y-176404D01*
X-180962Y-176695D01*
Y-177635D01*
X-180068Y-177926D01*
X-179515Y-177165D01*
X-175578Y-200787D02*
X-176130Y-200026D01*
X-177025Y-200317D01*
Y-201257D01*
X-176130Y-201548D01*
X-175578Y-200787D01*
X-179515Y-224409D02*
X-180068Y-223649D01*
X-180962Y-223939D01*
Y-224880D01*
X-180068Y-225170D01*
X-179515Y-224409D01*
X-175578Y-232283D02*
X-176130Y-231522D01*
X-177025Y-231813D01*
Y-232753D01*
X-176130Y-233044D01*
X-175578Y-232283D01*
X-179515Y-240157D02*
X-180068Y-239397D01*
X-180962Y-239687D01*
Y-240628D01*
X-180068Y-240918D01*
X-179515Y-240157D01*
X-175578Y-248031D02*
X-176130Y-247270D01*
X-177025Y-247561D01*
Y-248502D01*
X-176130Y-248792D01*
X-175578Y-248031D01*
X-179515Y-255905D02*
X-180068Y-255145D01*
X-180962Y-255435D01*
Y-256376D01*
X-180068Y-256666D01*
X-179515Y-255905D01*
X-175578Y-263779D02*
X-176130Y-263019D01*
X-177025Y-263309D01*
Y-264250D01*
X-176130Y-264540D01*
X-175578Y-263779D01*
X-179515Y-271653D02*
X-180068Y-270893D01*
X-180962Y-271183D01*
Y-272124D01*
X-180068Y-272414D01*
X-179515Y-271653D01*
X-175578Y-279527D02*
X-176130Y-278767D01*
X-177025Y-279057D01*
Y-279998D01*
X-176130Y-280288D01*
X-175578Y-279527D01*
X-179515Y-287402D02*
X-180068Y-286641D01*
X-180962Y-286931D01*
Y-287872D01*
X-180068Y-288162D01*
X-179515Y-287402D01*
X-183452Y-169291D02*
X-184004Y-168530D01*
X-184899Y-168821D01*
Y-169761D01*
X-184004Y-170052D01*
X-183452Y-169291D01*
X-187389Y-177165D02*
X-187942Y-176404D01*
X-188836Y-176695D01*
Y-177635D01*
X-187942Y-177926D01*
X-187389Y-177165D01*
X-183452Y-200787D02*
X-184004Y-200026D01*
X-184899Y-200317D01*
Y-201257D01*
X-184004Y-201548D01*
X-183452Y-200787D01*
X-187389Y-224409D02*
X-187942Y-223649D01*
X-188836Y-223939D01*
Y-224880D01*
X-187942Y-225170D01*
X-187389Y-224409D01*
X-183452Y-232283D02*
X-184004Y-231522D01*
X-184899Y-231813D01*
Y-232753D01*
X-184004Y-233044D01*
X-183452Y-232283D01*
X-187389Y-240157D02*
X-187942Y-239397D01*
X-188836Y-239687D01*
Y-240628D01*
X-187942Y-240918D01*
X-187389Y-240157D01*
X-183452Y-248031D02*
X-184004Y-247270D01*
X-184899Y-247561D01*
Y-248502D01*
X-184004Y-248792D01*
X-183452Y-248031D01*
X-187389Y-255905D02*
X-187942Y-255145D01*
X-188836Y-255435D01*
Y-256376D01*
X-187942Y-256666D01*
X-187389Y-255905D01*
X-183452Y-263779D02*
X-184004Y-263019D01*
X-184899Y-263309D01*
Y-264250D01*
X-184004Y-264540D01*
X-183452Y-263779D01*
X-187389Y-271653D02*
X-187942Y-270893D01*
X-188836Y-271183D01*
Y-272124D01*
X-187942Y-272414D01*
X-187389Y-271653D01*
X-183452Y-279527D02*
X-184004Y-278767D01*
X-184899Y-279057D01*
Y-279998D01*
X-184004Y-280288D01*
X-183452Y-279527D01*
X-187389Y-287402D02*
X-187942Y-286641D01*
X-188836Y-286931D01*
Y-287872D01*
X-187942Y-288162D01*
X-187389Y-287402D01*
X-191326Y-169291D02*
X-191878Y-168530D01*
X-192773Y-168821D01*
Y-169761D01*
X-191878Y-170052D01*
X-191326Y-169291D01*
X-195263Y-177165D02*
X-195816Y-176404D01*
X-196710Y-176695D01*
Y-177635D01*
X-195816Y-177926D01*
X-195263Y-177165D01*
X-191326Y-200787D02*
X-191878Y-200026D01*
X-192773Y-200317D01*
Y-201257D01*
X-191878Y-201548D01*
X-191326Y-200787D01*
X-195263Y-224409D02*
X-195816Y-223649D01*
X-196710Y-223939D01*
Y-224880D01*
X-195816Y-225170D01*
X-195263Y-224409D01*
X-191326Y-232283D02*
X-191878Y-231522D01*
X-192773Y-231813D01*
Y-232753D01*
X-191878Y-233044D01*
X-191326Y-232283D01*
X-195263Y-240157D02*
X-195816Y-239397D01*
X-196710Y-239687D01*
Y-240628D01*
X-195816Y-240918D01*
X-195263Y-240157D01*
X-191326Y-248031D02*
X-191878Y-247270D01*
X-192773Y-247561D01*
Y-248502D01*
X-191878Y-248792D01*
X-191326Y-248031D01*
X-195263Y-255905D02*
X-195816Y-255145D01*
X-196710Y-255435D01*
Y-256376D01*
X-195816Y-256666D01*
X-195263Y-255905D01*
X-191326Y-263779D02*
X-191878Y-263019D01*
X-192773Y-263309D01*
Y-264250D01*
X-191878Y-264540D01*
X-191326Y-263779D01*
X-195263Y-271653D02*
X-195816Y-270893D01*
X-196710Y-271183D01*
Y-272124D01*
X-195816Y-272414D01*
X-195263Y-271653D01*
X-191326Y-279527D02*
X-191878Y-278767D01*
X-192773Y-279057D01*
Y-279998D01*
X-191878Y-280288D01*
X-191326Y-279527D01*
X-195263Y-287402D02*
X-195816Y-286641D01*
X-196710Y-286931D01*
Y-287872D01*
X-195816Y-288162D01*
X-195263Y-287402D01*
X-203137Y-177165D02*
X-203690Y-176404D01*
X-204584Y-176695D01*
Y-177635D01*
X-203690Y-177926D01*
X-203137Y-177165D01*
X-199200Y-200787D02*
X-199752Y-200026D01*
X-200647Y-200317D01*
Y-201257D01*
X-199752Y-201548D01*
X-199200Y-200787D01*
X-203137Y-224409D02*
X-203690Y-223649D01*
X-204584Y-223939D01*
Y-224880D01*
X-203690Y-225170D01*
X-203137Y-224409D01*
X-199200Y-232283D02*
X-199752Y-231522D01*
X-200647Y-231813D01*
Y-232753D01*
X-199752Y-233044D01*
X-199200Y-232283D01*
X-203137Y-240157D02*
X-203690Y-239397D01*
X-204584Y-239687D01*
Y-240628D01*
X-203690Y-240918D01*
X-203137Y-240157D01*
X-199200Y-248031D02*
X-199752Y-247270D01*
X-200647Y-247561D01*
Y-248502D01*
X-199752Y-248792D01*
X-199200Y-248031D01*
X-203137Y-255905D02*
X-203690Y-255145D01*
X-204584Y-255435D01*
Y-256376D01*
X-203690Y-256666D01*
X-203137Y-255905D01*
X-199200Y-263779D02*
X-199752Y-263019D01*
X-200647Y-263309D01*
Y-264250D01*
X-199752Y-264540D01*
X-199200Y-263779D01*
X-203137Y-271653D02*
X-203690Y-270893D01*
X-204584Y-271183D01*
Y-272124D01*
X-203690Y-272414D01*
X-203137Y-271653D01*
X-199200Y-279527D02*
X-199752Y-278767D01*
X-200647Y-279057D01*
Y-279998D01*
X-199752Y-280288D01*
X-199200Y-279527D01*
X-203137Y-287402D02*
X-203690Y-286641D01*
X-204584Y-286931D01*
Y-287872D01*
X-203690Y-288162D01*
X-203137Y-287402D01*
X-211011Y-177165D02*
X-211563Y-176404D01*
X-212458Y-176695D01*
Y-177635D01*
X-211563Y-177926D01*
X-211011Y-177165D01*
X-207074Y-200787D02*
X-207627Y-200026D01*
X-208521Y-200317D01*
Y-201257D01*
X-207627Y-201548D01*
X-207074Y-200787D01*
X-211011Y-224409D02*
X-211563Y-223649D01*
X-212458Y-223939D01*
Y-224880D01*
X-211563Y-225170D01*
X-211011Y-224409D01*
X-207074Y-232283D02*
X-207627Y-231522D01*
X-208521Y-231813D01*
Y-232753D01*
X-207627Y-233044D01*
X-207074Y-232283D01*
X-211011Y-240157D02*
X-211563Y-239397D01*
X-212458Y-239687D01*
Y-240628D01*
X-211563Y-240918D01*
X-211011Y-240157D01*
X-207074Y-248031D02*
X-207627Y-247270D01*
X-208521Y-247561D01*
Y-248502D01*
X-207627Y-248792D01*
X-207074Y-248031D01*
X-211011Y-255905D02*
X-211563Y-255145D01*
X-212458Y-255435D01*
Y-256376D01*
X-211563Y-256666D01*
X-211011Y-255905D01*
X-207074Y-263779D02*
X-207627Y-263019D01*
X-208521Y-263309D01*
Y-264250D01*
X-207627Y-264540D01*
X-207074Y-263779D01*
X-211011Y-271653D02*
X-211563Y-270893D01*
X-212458Y-271183D01*
Y-272124D01*
X-211563Y-272414D01*
X-211011Y-271653D01*
X-207074Y-279527D02*
X-207627Y-278767D01*
X-208521Y-279057D01*
Y-279998D01*
X-207627Y-280288D01*
X-207074Y-279527D01*
X-211011Y-287402D02*
X-211563Y-286641D01*
X-212458Y-286931D01*
Y-287872D01*
X-211563Y-288162D01*
X-211011Y-287402D01*
X-218885Y-161417D02*
X-219438Y-160656D01*
X-220332Y-160947D01*
Y-161887D01*
X-219438Y-162178D01*
X-218885Y-161417D01*
Y-177165D02*
X-219438Y-176404D01*
X-220332Y-176695D01*
Y-177635D01*
X-219438Y-177926D01*
X-218885Y-177165D01*
Y-192913D02*
X-219438Y-192152D01*
X-220332Y-192443D01*
Y-193383D01*
X-219438Y-193674D01*
X-218885Y-192913D01*
X-214948Y-200787D02*
X-215501Y-200026D01*
X-216395Y-200317D01*
Y-201257D01*
X-215501Y-201548D01*
X-214948Y-200787D01*
X-218885Y-224409D02*
X-219438Y-223649D01*
X-220332Y-223939D01*
Y-224880D01*
X-219438Y-225170D01*
X-218885Y-224409D01*
X-214948Y-232283D02*
X-215501Y-231522D01*
X-216395Y-231813D01*
Y-232753D01*
X-215501Y-233044D01*
X-214948Y-232283D01*
X-218885Y-240157D02*
X-219438Y-239397D01*
X-220332Y-239687D01*
Y-240628D01*
X-219438Y-240918D01*
X-218885Y-240157D01*
X-214948Y-248031D02*
X-215501Y-247270D01*
X-216395Y-247561D01*
Y-248502D01*
X-215501Y-248792D01*
X-214948Y-248031D01*
X-218885Y-255905D02*
X-219438Y-255145D01*
X-220332Y-255435D01*
Y-256376D01*
X-219438Y-256666D01*
X-218885Y-255905D01*
X-214948Y-263779D02*
X-215501Y-263019D01*
X-216395Y-263309D01*
Y-264250D01*
X-215501Y-264540D01*
X-214948Y-263779D01*
X-218885Y-271653D02*
X-219438Y-270893D01*
X-220332Y-271183D01*
Y-272124D01*
X-219438Y-272414D01*
X-218885Y-271653D01*
X-214948Y-279527D02*
X-215501Y-278767D01*
X-216395Y-279057D01*
Y-279998D01*
X-215501Y-280288D01*
X-214948Y-279527D01*
X-218885Y-287402D02*
X-219438Y-286641D01*
X-220332Y-286931D01*
Y-287872D01*
X-219438Y-288162D01*
X-218885Y-287402D01*
X-226759Y-161417D02*
X-227312Y-160656D01*
X-228206Y-160947D01*
Y-161887D01*
X-227312Y-162178D01*
X-226759Y-161417D01*
X-222822Y-169291D02*
X-223375Y-168530D01*
X-224269Y-168821D01*
Y-169761D01*
X-223375Y-170052D01*
X-222822Y-169291D01*
X-226759Y-177165D02*
X-227312Y-176404D01*
X-228206Y-176695D01*
Y-177635D01*
X-227312Y-177926D01*
X-226759Y-177165D01*
Y-192913D02*
X-227312Y-192152D01*
X-228206Y-192443D01*
Y-193383D01*
X-227312Y-193674D01*
X-226759Y-192913D01*
X-222822Y-216535D02*
X-223375Y-215774D01*
X-224269Y-216065D01*
Y-217005D01*
X-223375Y-217296D01*
X-222822Y-216535D01*
X-226759Y-224409D02*
X-227312Y-223649D01*
X-228206Y-223939D01*
Y-224880D01*
X-227312Y-225170D01*
X-226759Y-224409D01*
X-222822Y-232283D02*
X-223375Y-231522D01*
X-224269Y-231813D01*
Y-232753D01*
X-223375Y-233044D01*
X-222822Y-232283D01*
X-226759Y-240157D02*
X-227312Y-239397D01*
X-228206Y-239687D01*
Y-240628D01*
X-227312Y-240918D01*
X-226759Y-240157D01*
X-222822Y-248031D02*
X-223375Y-247270D01*
X-224269Y-247561D01*
Y-248502D01*
X-223375Y-248792D01*
X-222822Y-248031D01*
X-226759Y-255905D02*
X-227312Y-255145D01*
X-228206Y-255435D01*
Y-256376D01*
X-227312Y-256666D01*
X-226759Y-255905D01*
X-222822Y-263779D02*
X-223375Y-263019D01*
X-224269Y-263309D01*
Y-264250D01*
X-223375Y-264540D01*
X-222822Y-263779D01*
X-226759Y-271653D02*
X-227312Y-270893D01*
X-228206Y-271183D01*
Y-272124D01*
X-227312Y-272414D01*
X-226759Y-271653D01*
X-222822Y-279527D02*
X-223375Y-278767D01*
X-224269Y-279057D01*
Y-279998D01*
X-223375Y-280288D01*
X-222822Y-279527D01*
X-226759Y-287402D02*
X-227312Y-286641D01*
X-228206Y-286931D01*
Y-287872D01*
X-227312Y-288162D01*
X-226759Y-287402D01*
X-106300Y-203100D02*
X-106853Y-202339D01*
X-107747Y-202630D01*
Y-203570D01*
X-106853Y-203861D01*
X-106300Y-203100D01*
X-126979Y-211721D02*
X-127532Y-210960D01*
X-128426Y-211250D01*
Y-212191D01*
X-127532Y-212482D01*
X-126979Y-211721D01*
X-221500Y-189400D02*
X-222053Y-188639D01*
X-222947Y-188930D01*
Y-189870D01*
X-222053Y-190161D01*
X-221500Y-189400D01*
X-265500Y-148300D02*
X-266053Y-147539D01*
X-266947Y-147830D01*
Y-148770D01*
X-266053Y-149061D01*
X-265500Y-148300D01*
X-259066D02*
X-259619Y-147539D01*
X-260513Y-147830D01*
Y-148770D01*
X-259619Y-149061D01*
X-259066Y-148300D01*
X-265553Y-112146D02*
X-266106Y-111386D01*
X-267001Y-111676D01*
Y-112617D01*
X-266106Y-112907D01*
X-265553Y-112146D01*
X-260500Y-105100D02*
X-261053Y-104339D01*
X-261947Y-104630D01*
Y-105570D01*
X-261053Y-105861D01*
X-260500Y-105100D01*
X-298200Y-115396D02*
X-298753Y-114635D01*
X-299647Y-114926D01*
Y-115866D01*
X-298753Y-116157D01*
X-298200Y-115396D01*
X-313300Y-102900D02*
X-313853Y-102139D01*
X-314747Y-102430D01*
Y-103370D01*
X-313853Y-103661D01*
X-313300Y-102900D01*
X-243096Y-79696D02*
X-243649Y-78935D01*
X-244543Y-79226D01*
Y-80166D01*
X-243649Y-80457D01*
X-243096Y-79696D01*
X-257900Y-67590D02*
X-258453Y-66829D01*
X-259347Y-67119D01*
Y-68060D01*
X-258453Y-68351D01*
X-257900Y-67590D01*
X-243096Y-151496D02*
X-243649Y-150735D01*
X-244543Y-151026D01*
Y-151966D01*
X-243649Y-152257D01*
X-243096Y-151496D01*
X-258096Y-139204D02*
X-258649Y-138443D01*
X-259543Y-138734D01*
Y-139674D01*
X-258649Y-139965D01*
X-258096Y-139204D01*
X-149000Y-182900D02*
X-149553Y-182139D01*
X-150447Y-182430D01*
Y-183370D01*
X-149553Y-183661D01*
X-149000Y-182900D01*
X-102196Y-186759D02*
X-102749Y-185998D01*
X-103643Y-186289D01*
Y-187229D01*
X-102749Y-187520D01*
X-102196Y-186759D01*
X-93600Y-222148D02*
X-94153Y-221387D01*
X-95047Y-221678D01*
Y-222618D01*
X-94153Y-222909D01*
X-93600Y-222148D01*
X-102400Y-212200D02*
X-102953Y-211439D01*
X-103847Y-211730D01*
Y-212670D01*
X-102953Y-212961D01*
X-102400Y-212200D01*
X-86766Y-197200D02*
X-87319Y-196439D01*
X-88213Y-196730D01*
Y-197670D01*
X-87319Y-197961D01*
X-86766Y-197200D01*
X-75955Y-197227D02*
X-76508Y-196466D01*
X-77402Y-196757D01*
Y-197697D01*
X-76508Y-197988D01*
X-75955Y-197227D01*
X-62717Y-33283D02*
X-63269Y-32523D01*
X-64164Y-32813D01*
Y-33754D01*
X-63269Y-34044D01*
X-62717Y-33283D01*
X-78316Y-33316D02*
X-78869Y-32556D01*
X-79764Y-32846D01*
Y-33787D01*
X-78869Y-34077D01*
X-78316Y-33316D01*
X-93900Y-33300D02*
X-94453Y-32539D01*
X-95347Y-32830D01*
Y-33770D01*
X-94453Y-34061D01*
X-93900Y-33300D01*
X-129073Y-88927D02*
X-129626Y-88166D01*
X-130520Y-88457D01*
Y-89397D01*
X-129626Y-89688D01*
X-129073Y-88927D01*
X-139927D02*
X-140480Y-88166D01*
X-141374Y-88457D01*
Y-89397D01*
X-140480Y-89688D01*
X-139927Y-88927D01*
X-139464Y-128336D02*
X-140017Y-127575D01*
X-140911Y-127866D01*
Y-128806D01*
X-140017Y-129097D01*
X-139464Y-128336D01*
X-109700Y-77600D02*
X-110253Y-76839D01*
X-111147Y-77130D01*
Y-78070D01*
X-110253Y-78361D01*
X-109700Y-77600D01*
X-90200Y-69600D02*
X-90753Y-68839D01*
X-91647Y-69130D01*
Y-70070D01*
X-90753Y-70361D01*
X-90200Y-69600D01*
X-117800Y-77600D02*
X-118353Y-76839D01*
X-119247Y-77130D01*
Y-78070D01*
X-118353Y-78361D01*
X-117800Y-77600D01*
X-110800Y-80900D02*
X-111353Y-80139D01*
X-112247Y-80430D01*
Y-81370D01*
X-111353Y-81661D01*
X-110800Y-80900D01*
X-116200D02*
X-116753Y-80139D01*
X-117647Y-80430D01*
Y-81370D01*
X-116753Y-81661D01*
X-116200Y-80900D01*
X-33500Y-69500D02*
X-34053Y-68739D01*
X-34947Y-69030D01*
Y-69970D01*
X-34053Y-70261D01*
X-33500Y-69500D01*
X-55700Y-73700D02*
X-56253Y-72939D01*
X-57147Y-73230D01*
Y-74170D01*
X-56253Y-74461D01*
X-55700Y-73700D01*
Y-78800D02*
X-56253Y-78039D01*
X-57147Y-78330D01*
Y-79270D01*
X-56253Y-79561D01*
X-55700Y-78800D01*
X-58400Y-76100D02*
X-58953Y-75339D01*
X-59847Y-75630D01*
Y-76570D01*
X-58953Y-76861D01*
X-58400Y-76100D01*
X-70600Y-12100D02*
X-71153Y-11339D01*
X-72047Y-11630D01*
Y-12570D01*
X-71153Y-12861D01*
X-70600Y-12100D01*
X-13200Y-213500D02*
X-13753Y-212739D01*
X-14647Y-213030D01*
Y-213970D01*
X-13753Y-214261D01*
X-13200Y-213500D01*
X-11876Y-182067D02*
X-12428Y-181306D01*
X-13323Y-181596D01*
Y-182537D01*
X-12428Y-182827D01*
X-11876Y-182067D01*
X-41100Y-45400D02*
X-41653Y-44639D01*
X-42547Y-44930D01*
Y-45870D01*
X-41653Y-46161D01*
X-41100Y-45400D01*
X-80600Y-79200D02*
X-81153Y-78439D01*
X-82047Y-78730D01*
Y-79670D01*
X-81153Y-79961D01*
X-80600Y-79200D01*
X-93994Y-69900D02*
X-94547Y-69139D01*
X-95442Y-69430D01*
Y-70370D01*
X-94547Y-70661D01*
X-93994Y-69900D01*
X-82800Y-81094D02*
X-83353Y-80334D01*
X-84247Y-80624D01*
Y-81565D01*
X-83353Y-81855D01*
X-82800Y-81094D01*
X-99884Y-89200D02*
X-100437Y-88439D01*
X-101331Y-88730D01*
Y-89670D01*
X-100437Y-89961D01*
X-99884Y-89200D01*
X-65057Y-93642D02*
X-65610Y-92882D01*
X-66505Y-93172D01*
Y-94113D01*
X-65610Y-94403D01*
X-65057Y-93642D01*
X-69274Y-127318D02*
X-69827Y-126557D01*
X-70721Y-126848D01*
Y-127788D01*
X-69827Y-128079D01*
X-69274Y-127318D01*
X-102900Y-117265D02*
X-103453Y-116504D01*
X-104347Y-116794D01*
Y-117735D01*
X-103453Y-118025D01*
X-102900Y-117265D01*
X-73211Y-127500D02*
X-73764Y-126739D01*
X-74658Y-127030D01*
Y-127970D01*
X-73764Y-128261D01*
X-73211Y-127500D01*
X-263000Y-187400D02*
X-263553Y-186639D01*
X-264447Y-186930D01*
Y-187870D01*
X-263553Y-188161D01*
X-263000Y-187400D01*
X-303200Y-90700D02*
X-303753Y-89939D01*
X-304647Y-90230D01*
Y-91170D01*
X-303753Y-91461D01*
X-303200Y-90700D01*
Y-85400D02*
X-303753Y-84639D01*
X-304647Y-84930D01*
Y-85870D01*
X-303753Y-86161D01*
X-303200Y-85400D01*
X-298300Y-90700D02*
X-298853Y-89939D01*
X-299747Y-90230D01*
Y-91170D01*
X-298853Y-91461D01*
X-298300Y-90700D01*
Y-85500D02*
X-298853Y-84739D01*
X-299747Y-85030D01*
Y-85970D01*
X-298853Y-86261D01*
X-298300Y-85500D01*
X-143300Y-112700D02*
X-143853Y-111939D01*
X-144747Y-112230D01*
Y-113170D01*
X-143853Y-113461D01*
X-143300Y-112700D01*
X-138600Y-118498D02*
X-139153Y-117737D01*
X-140047Y-118027D01*
Y-118968D01*
X-139153Y-119258D01*
X-138600Y-118498D01*
Y-111774D02*
X-139153Y-111013D01*
X-140047Y-111304D01*
Y-112244D01*
X-139153Y-112535D01*
X-138600Y-111774D01*
X-128000Y-145300D02*
X-128553Y-144539D01*
X-129447Y-144830D01*
Y-145770D01*
X-128553Y-146061D01*
X-128000Y-145300D01*
X-95600Y-107537D02*
X-96153Y-106776D01*
X-97047Y-107067D01*
Y-108007D01*
X-96153Y-108298D01*
X-95600Y-107537D01*
X-141400Y-119700D02*
X-141953Y-118939D01*
X-142847Y-119230D01*
Y-120170D01*
X-141953Y-120461D01*
X-141400Y-119700D01*
M02*
