G04*
G04 #@! TF.GenerationSoftware,Altium Limited,Altium Designer,19.0.4 (130)*
G04*
G04 Layer_Color=8388736*
%FSLAX25Y25*%
%MOIN*%
G70*
G01*
G75*
%ADD45R,0.06706X0.17729*%
%ADD46R,0.06587X0.05367*%
%ADD47R,0.05367X0.06587*%
%ADD48R,0.04737X0.03162*%
%ADD49R,0.17729X0.06706*%
%ADD50R,0.02762X0.02959*%
%ADD51R,0.07414X0.07493*%
%ADD52R,0.10143X0.10143*%
G04:AMPARAMS|DCode=53|XSize=12.84mil|YSize=30.56mil|CornerRadius=3.96mil|HoleSize=0mil|Usage=FLASHONLY|Rotation=180.000|XOffset=0mil|YOffset=0mil|HoleType=Round|Shape=RoundedRectangle|*
%AMROUNDEDRECTD53*
21,1,0.01284,0.02264,0,0,180.0*
21,1,0.00492,0.03056,0,0,180.0*
1,1,0.00792,-0.00246,0.01132*
1,1,0.00792,0.00246,0.01132*
1,1,0.00792,0.00246,-0.01132*
1,1,0.00792,-0.00246,-0.01132*
%
%ADD53ROUNDEDRECTD53*%
G04:AMPARAMS|DCode=54|XSize=12.84mil|YSize=30.56mil|CornerRadius=3.96mil|HoleSize=0mil|Usage=FLASHONLY|Rotation=270.000|XOffset=0mil|YOffset=0mil|HoleType=Round|Shape=RoundedRectangle|*
%AMROUNDEDRECTD54*
21,1,0.01284,0.02264,0,0,270.0*
21,1,0.00492,0.03056,0,0,270.0*
1,1,0.00792,-0.01132,-0.00246*
1,1,0.00792,-0.01132,0.00246*
1,1,0.00792,0.01132,0.00246*
1,1,0.00792,0.01132,-0.00246*
%
%ADD54ROUNDEDRECTD54*%
G04:AMPARAMS|DCode=55|XSize=19.72mil|YSize=49.24mil|CornerRadius=5.43mil|HoleSize=0mil|Usage=FLASHONLY|Rotation=90.000|XOffset=0mil|YOffset=0mil|HoleType=Round|Shape=RoundedRectangle|*
%AMROUNDEDRECTD55*
21,1,0.01972,0.03839,0,0,90.0*
21,1,0.00886,0.04924,0,0,90.0*
1,1,0.01086,0.01919,0.00443*
1,1,0.01086,0.01919,-0.00443*
1,1,0.01086,-0.01919,-0.00443*
1,1,0.01086,-0.01919,0.00443*
%
%ADD55ROUNDEDRECTD55*%
%ADD56R,0.06981X0.08241*%
%ADD57R,0.02959X0.02762*%
%ADD58R,0.07493X0.07414*%
%ADD59R,0.04461X0.04658*%
%ADD60O,0.07296X0.03950*%
%ADD61R,0.10328X0.13831*%
%ADD62R,0.06115X0.02375*%
%ADD63R,0.06115X0.06706*%
%ADD64R,0.10446X0.05524*%
%ADD65R,0.05131X0.03162*%
%ADD66R,0.07887X0.05249*%
%ADD67R,0.06706X0.12611*%
%ADD68O,0.03162X0.06902*%
G04:AMPARAMS|DCode=69|XSize=20.72mil|YSize=67.96mil|CornerRadius=5.93mil|HoleSize=0mil|Usage=FLASHONLY|Rotation=270.000|XOffset=0mil|YOffset=0mil|HoleType=Round|Shape=RoundedRectangle|*
%AMROUNDEDRECTD69*
21,1,0.02072,0.05610,0,0,270.0*
21,1,0.00886,0.06796,0,0,270.0*
1,1,0.01186,-0.02805,-0.00443*
1,1,0.01186,-0.02805,0.00443*
1,1,0.01186,0.02805,0.00443*
1,1,0.01186,0.02805,-0.00443*
%
%ADD69ROUNDEDRECTD69*%
%ADD70R,0.03950X0.05131*%
%ADD71R,0.05131X0.03950*%
G04:AMPARAMS|DCode=72|XSize=13.81mil|YSize=49.24mil|CornerRadius=3.95mil|HoleSize=0mil|Usage=FLASHONLY|Rotation=0.000|XOffset=0mil|YOffset=0mil|HoleType=Round|Shape=RoundedRectangle|*
%AMROUNDEDRECTD72*
21,1,0.01381,0.04134,0,0,0.0*
21,1,0.00591,0.04924,0,0,0.0*
1,1,0.00791,0.00295,-0.02067*
1,1,0.00791,-0.00295,-0.02067*
1,1,0.00791,-0.00295,0.02067*
1,1,0.00791,0.00295,0.02067*
%
%ADD72ROUNDEDRECTD72*%
G04:AMPARAMS|DCode=73|XSize=13.81mil|YSize=49.24mil|CornerRadius=3.95mil|HoleSize=0mil|Usage=FLASHONLY|Rotation=90.000|XOffset=0mil|YOffset=0mil|HoleType=Round|Shape=RoundedRectangle|*
%AMROUNDEDRECTD73*
21,1,0.01381,0.04134,0,0,90.0*
21,1,0.00591,0.04924,0,0,90.0*
1,1,0.00791,0.02067,0.00295*
1,1,0.00791,0.02067,-0.00295*
1,1,0.00791,-0.02067,-0.00295*
1,1,0.00791,-0.02067,0.00295*
%
%ADD73ROUNDEDRECTD73*%
%ADD74R,0.05524X0.03162*%
%ADD75C,0.08674*%
%ADD76C,0.01981*%
%ADD77C,0.06706*%
%ADD78R,0.06706X0.06706*%
%ADD79C,0.07887*%
%ADD80R,0.07887X0.07887*%
%ADD81C,0.02362*%
%ADD82C,0.04343*%
%ADD83C,0.05721*%
%ADD84R,0.05721X0.05721*%
%ADD85R,0.05721X0.05721*%
D45*
X-66487Y-241569D02*
D03*
X-77117Y-241569D02*
D03*
D46*
X-73787Y-212499D02*
D03*
X-73787Y-219507D02*
D03*
X-81887Y-211907D02*
D03*
X-81887Y-204899D02*
D03*
X-126337Y-251130D02*
D03*
Y-244122D02*
D03*
X-118187Y-251130D02*
D03*
Y-244122D02*
D03*
X-102187Y-256903D02*
D03*
Y-263911D02*
D03*
X-163463Y-212840D02*
D03*
Y-219848D02*
D03*
X-155263Y-212840D02*
D03*
Y-205833D02*
D03*
X-205863Y-207040D02*
D03*
Y-214048D02*
D03*
X-214063Y-214040D02*
D03*
Y-207032D02*
D03*
X-205081Y-159299D02*
D03*
Y-166307D02*
D03*
X-205132Y-191776D02*
D03*
Y-184768D02*
D03*
X-213281Y-184768D02*
D03*
Y-191776D02*
D03*
X-213281Y-159303D02*
D03*
Y-166311D02*
D03*
X-155231Y-183168D02*
D03*
Y-190176D02*
D03*
X-153981Y-157495D02*
D03*
Y-164503D02*
D03*
X-162181Y-164403D02*
D03*
Y-171411D02*
D03*
X-163531Y-190272D02*
D03*
Y-197280D02*
D03*
X-90269Y-176093D02*
D03*
Y-169085D02*
D03*
X-58773Y-176093D02*
D03*
Y-169085D02*
D03*
X-293298Y-137865D02*
D03*
Y-130857D02*
D03*
Y-160098D02*
D03*
Y-153090D02*
D03*
X-271081Y-156035D02*
D03*
Y-163043D02*
D03*
Y-148976D02*
D03*
Y-141968D02*
D03*
Y-134935D02*
D03*
Y-127928D02*
D03*
X-293298Y-88373D02*
D03*
Y-81365D02*
D03*
Y-66289D02*
D03*
Y-59281D02*
D03*
X-271081Y-84302D02*
D03*
Y-91310D02*
D03*
Y-77332D02*
D03*
Y-70324D02*
D03*
Y-63302D02*
D03*
Y-56295D02*
D03*
X-33812Y-249692D02*
D03*
Y-256700D02*
D03*
X-25631Y-249684D02*
D03*
Y-256692D02*
D03*
D47*
X-88491Y-219407D02*
D03*
X-81483D02*
D03*
X-102996Y-192308D02*
D03*
X-110004D02*
D03*
X-127809Y-235798D02*
D03*
X-134817D02*
D03*
X-103683Y-249307D02*
D03*
X-110691D02*
D03*
X-134787Y-216807D02*
D03*
X-127779D02*
D03*
X-66683Y-227107D02*
D03*
X-73691D02*
D03*
X-321308Y-160200D02*
D03*
X-314300D02*
D03*
X-285706Y-160685D02*
D03*
X-278698D02*
D03*
Y-152535D02*
D03*
X-285706D02*
D03*
X-278698Y-138435D02*
D03*
X-285706D02*
D03*
X-278698Y-130286D02*
D03*
X-285706D02*
D03*
X-285706Y-88946D02*
D03*
X-278698D02*
D03*
Y-80797D02*
D03*
X-285706D02*
D03*
X-316508Y-88300D02*
D03*
X-309500D02*
D03*
X-278698Y-66860D02*
D03*
X-285706D02*
D03*
X-278698Y-58710D02*
D03*
X-285706D02*
D03*
X-254900Y-177235D02*
D03*
X-247892D02*
D03*
X-254900Y-169094D02*
D03*
X-247892D02*
D03*
X-254900Y-121850D02*
D03*
X-247892D02*
D03*
X-254900Y-113700D02*
D03*
X-247892D02*
D03*
X-254900Y-105600D02*
D03*
X-247892D02*
D03*
X-254900Y-97450D02*
D03*
X-247892D02*
D03*
X-254900Y-50206D02*
D03*
X-247892D02*
D03*
X-254900Y-42057D02*
D03*
X-247892D02*
D03*
X-49329Y-255200D02*
D03*
X-56337D02*
D03*
D48*
X-64138Y-200967D02*
D03*
X-73587Y-204707D02*
D03*
Y-197227D02*
D03*
X-22124Y-172600D02*
D03*
X-12676Y-168860D02*
D03*
Y-176340D02*
D03*
D49*
X-129830Y-203869D02*
D03*
Y-193239D02*
D03*
D50*
X-126483Y-223139D02*
D03*
X-129830Y-223139D02*
D03*
X-129857Y-229357D02*
D03*
X-126510Y-229357D02*
D03*
X-108341Y-255707D02*
D03*
X-111687D02*
D03*
X-111787Y-242907D02*
D03*
X-108441D02*
D03*
X-65109Y-274500D02*
D03*
X-68455D02*
D03*
X-65109Y-269500D02*
D03*
X-68455D02*
D03*
X-22087Y-274500D02*
D03*
X-25434D02*
D03*
X-177847Y-134935D02*
D03*
X-174500D02*
D03*
X-123795Y-51500D02*
D03*
X-127142D02*
D03*
X-123795Y-47000D02*
D03*
X-127142D02*
D03*
X-92023Y-75100D02*
D03*
X-95369D02*
D03*
X-48316Y-98149D02*
D03*
X-51663D02*
D03*
X-48317Y-102700D02*
D03*
X-51663D02*
D03*
D51*
X-90687Y-254681D02*
D03*
Y-238933D02*
D03*
D52*
X-106087Y-223107D02*
D03*
D53*
X-101166Y-230883D02*
D03*
X-103134D02*
D03*
X-105103D02*
D03*
X-107071D02*
D03*
X-109040D02*
D03*
X-111008D02*
D03*
Y-215332D02*
D03*
X-109040D02*
D03*
X-107071Y-215332D02*
D03*
X-105103D02*
D03*
X-103134Y-215332D02*
D03*
X-101166D02*
D03*
D54*
X-113863Y-228028D02*
D03*
X-113863Y-226060D02*
D03*
Y-224091D02*
D03*
Y-222123D02*
D03*
X-113863Y-220154D02*
D03*
Y-218186D02*
D03*
X-98312Y-218186D02*
D03*
Y-220154D02*
D03*
Y-222123D02*
D03*
Y-224091D02*
D03*
X-98312Y-226060D02*
D03*
X-98312Y-228028D02*
D03*
D55*
X-190821Y-207602D02*
D03*
Y-210161D02*
D03*
Y-212720D02*
D03*
Y-215279D02*
D03*
X-173105Y-207602D02*
D03*
Y-210161D02*
D03*
X-173105Y-212720D02*
D03*
X-173105Y-215279D02*
D03*
X-173473Y-192810D02*
D03*
Y-190251D02*
D03*
Y-187692D02*
D03*
Y-185133D02*
D03*
X-191190Y-192810D02*
D03*
Y-190251D02*
D03*
Y-187692D02*
D03*
Y-185133D02*
D03*
X-189639Y-159177D02*
D03*
Y-161736D02*
D03*
Y-164295D02*
D03*
Y-166854D02*
D03*
X-171923Y-159177D02*
D03*
Y-161736D02*
D03*
X-171923Y-164295D02*
D03*
X-171923Y-166854D02*
D03*
D56*
X-181963Y-211440D02*
D03*
X-182332Y-188972D02*
D03*
X-180781Y-163015D02*
D03*
D57*
X-198732Y-194518D02*
D03*
Y-191172D02*
D03*
X-197693Y-168527D02*
D03*
Y-165181D02*
D03*
X-199363Y-216791D02*
D03*
Y-213444D02*
D03*
X-199363Y-209114D02*
D03*
Y-205767D02*
D03*
X-198732Y-186841D02*
D03*
Y-183495D02*
D03*
X-197693Y-160850D02*
D03*
Y-157503D02*
D03*
X-191260Y-123000D02*
D03*
X-191260Y-126347D02*
D03*
X-191310Y-94743D02*
D03*
Y-91396D02*
D03*
X-143800Y-105061D02*
D03*
X-143800Y-101715D02*
D03*
X-143800Y-88927D02*
D03*
Y-92273D02*
D03*
D58*
X-115061Y-203869D02*
D03*
X-99313D02*
D03*
D59*
X-80313Y-275200D02*
D03*
X-74250D02*
D03*
X-80313Y-268900D02*
D03*
X-74250D02*
D03*
D60*
X-34156Y-279500D02*
D03*
Y-274500D02*
D03*
Y-269500D02*
D03*
Y-264500D02*
D03*
X-56006Y-279500D02*
D03*
Y-274500D02*
D03*
X-56006Y-269500D02*
D03*
X-56006Y-264500D02*
D03*
D61*
X-45081Y-272000D02*
D03*
D62*
X-16032Y-247625D02*
D03*
Y-250184D02*
D03*
Y-257861D02*
D03*
Y-255302D02*
D03*
Y-252743D02*
D03*
X-15936Y-93991D02*
D03*
Y-96550D02*
D03*
Y-104228D02*
D03*
Y-99110D02*
D03*
Y-101669D02*
D03*
D63*
X-5500Y-236700D02*
D03*
Y-268787D02*
D03*
X-5405Y-83066D02*
D03*
Y-115153D02*
D03*
D64*
X-20406Y-203658D02*
D03*
Y-223342D02*
D03*
Y-213500D02*
D03*
D65*
X-79639Y-176329D02*
D03*
Y-168849D02*
D03*
X-69403D02*
D03*
X-69403Y-172589D02*
D03*
X-69403Y-176329D02*
D03*
D66*
X-49998Y-166734D02*
D03*
Y-178466D02*
D03*
X-40549Y-166734D02*
D03*
Y-178466D02*
D03*
X-31100Y-166734D02*
D03*
Y-178466D02*
D03*
D67*
X-366923Y-105720D02*
D03*
X-352750D02*
D03*
X-335427Y-133280D02*
D03*
X-328734Y-105720D02*
D03*
X-362986Y-133280D02*
D03*
D68*
X-314000Y-119830D02*
D03*
X-309000D02*
D03*
X-304000D02*
D03*
X-299000D02*
D03*
X-314000Y-98570D02*
D03*
X-309000D02*
D03*
X-304000D02*
D03*
X-299000D02*
D03*
X-258896Y-156102D02*
D03*
X-253896D02*
D03*
X-248896D02*
D03*
X-243896D02*
D03*
X-258896Y-134842D02*
D03*
X-253896D02*
D03*
X-248896D02*
D03*
X-243896D02*
D03*
X-258896Y-84458D02*
D03*
X-253896D02*
D03*
X-248896D02*
D03*
X-243896D02*
D03*
X-258896Y-63198D02*
D03*
X-253896D02*
D03*
X-248896D02*
D03*
X-243896D02*
D03*
D69*
X-181967Y-92266D02*
D03*
X-181967Y-94825D02*
D03*
X-181967Y-97384D02*
D03*
Y-99943D02*
D03*
Y-102502D02*
D03*
Y-105061D02*
D03*
Y-107621D02*
D03*
Y-110180D02*
D03*
Y-112739D02*
D03*
Y-115298D02*
D03*
Y-117857D02*
D03*
Y-120416D02*
D03*
Y-122975D02*
D03*
Y-125534D02*
D03*
X-152833Y-92266D02*
D03*
X-152833Y-94825D02*
D03*
X-152833Y-97384D02*
D03*
Y-99943D02*
D03*
Y-102502D02*
D03*
Y-105061D02*
D03*
Y-107621D02*
D03*
Y-110180D02*
D03*
Y-112739D02*
D03*
Y-115298D02*
D03*
Y-117857D02*
D03*
Y-120416D02*
D03*
Y-122975D02*
D03*
Y-125534D02*
D03*
D70*
X-94700Y-7936D02*
D03*
Y-37464D02*
D03*
X-79116Y-7936D02*
D03*
Y-37464D02*
D03*
X-63516Y-7936D02*
D03*
Y-37464D02*
D03*
D71*
X-110736Y-35300D02*
D03*
X-140264D02*
D03*
D72*
X-97633Y-131044D02*
D03*
X-95665D02*
D03*
X-93696D02*
D03*
Y-85769D02*
D03*
X-95665D02*
D03*
X-97633D02*
D03*
X-89759Y-131044D02*
D03*
X-87791D02*
D03*
X-85822D02*
D03*
Y-85769D02*
D03*
X-87791D02*
D03*
X-89759D02*
D03*
X-81885Y-131044D02*
D03*
X-79917D02*
D03*
X-77948D02*
D03*
Y-85769D02*
D03*
X-79917D02*
D03*
X-81885D02*
D03*
X-74011Y-131044D02*
D03*
X-72043D02*
D03*
X-70074D02*
D03*
Y-85769D02*
D03*
X-72043D02*
D03*
X-74011D02*
D03*
X-99602Y-131044D02*
D03*
X-91728D02*
D03*
X-83854D02*
D03*
Y-85769D02*
D03*
X-91728D02*
D03*
X-99602D02*
D03*
X-75980Y-131044D02*
D03*
Y-85769D02*
D03*
D73*
X-107476Y-119233D02*
D03*
Y-121202D02*
D03*
Y-123170D02*
D03*
Y-111359D02*
D03*
Y-113328D02*
D03*
Y-115296D02*
D03*
Y-103485D02*
D03*
Y-105454D02*
D03*
Y-107422D02*
D03*
Y-95611D02*
D03*
Y-97579D02*
D03*
Y-99548D02*
D03*
X-62200Y-123170D02*
D03*
Y-121202D02*
D03*
Y-119233D02*
D03*
Y-115296D02*
D03*
Y-113328D02*
D03*
Y-111359D02*
D03*
Y-107422D02*
D03*
Y-105454D02*
D03*
Y-103485D02*
D03*
Y-99548D02*
D03*
Y-97579D02*
D03*
Y-95611D02*
D03*
X-107476Y-93642D02*
D03*
Y-101516D02*
D03*
Y-109391D02*
D03*
Y-117265D02*
D03*
X-62200D02*
D03*
Y-109391D02*
D03*
Y-93642D02*
D03*
Y-101516D02*
D03*
D74*
X-37885Y-104129D02*
D03*
Y-100389D02*
D03*
Y-96649D02*
D03*
X-26861D02*
D03*
Y-100389D02*
D03*
Y-104129D02*
D03*
D75*
X-88583Y-283465D02*
D03*
X-11811Y-19685D02*
D03*
X-358268Y-283465D02*
D03*
Y-11811D02*
D03*
X-17803Y-145969D02*
D03*
X-109535D02*
D03*
D76*
X-106087Y-223107D02*
D03*
X-102249D02*
D03*
X-106087Y-219269D02*
D03*
X-106087Y-226946D02*
D03*
X-109926Y-223107D02*
D03*
X-181963Y-209275D02*
D03*
Y-213606D02*
D03*
X-184128Y-211440D02*
D03*
X-179798D02*
D03*
X-180166Y-188972D02*
D03*
X-184497D02*
D03*
X-182332Y-191137D02*
D03*
Y-186806D02*
D03*
X-180781Y-160850D02*
D03*
Y-165181D02*
D03*
X-182947Y-163015D02*
D03*
X-178616D02*
D03*
X-42719Y-275248D02*
D03*
X-47443Y-275248D02*
D03*
X-47443Y-272000D02*
D03*
X-42719D02*
D03*
X-42719Y-268752D02*
D03*
X-47443D02*
D03*
D77*
X-4700Y-167957D02*
D03*
X-337789Y-119500D02*
D03*
X-361411D02*
D03*
D78*
X-4700Y-177800D02*
D03*
D79*
X-48669Y-50300D02*
D03*
X-58669D02*
D03*
X-68669D02*
D03*
X-14200Y-4900D02*
D03*
X-24200D02*
D03*
X-34200D02*
D03*
D80*
X-78669Y-50300D02*
D03*
X-44200Y-4900D02*
D03*
D81*
X-14358Y-244869D02*
D03*
Y-260617D02*
D03*
X-14263Y-91235D02*
D03*
Y-106983D02*
D03*
D82*
X-8300Y-226886D02*
D03*
Y-200114D02*
D03*
D83*
X-205200Y-126800D02*
D03*
X-224537Y-108900D02*
D03*
X-194300D02*
D03*
X-204800Y-90700D02*
D03*
X-128800Y-98555D02*
D03*
D84*
X-205200Y-134674D02*
D03*
X-204800Y-82826D02*
D03*
X-128800Y-106429D02*
D03*
D85*
X-216663Y-108900D02*
D03*
X-202174D02*
D03*
M02*
