G04*
G04 #@! TF.GenerationSoftware,Altium Limited,Altium Designer,19.0.4 (130)*
G04*
G04 Layer_Color=8388736*
%FSLAX25Y25*%
%MOIN*%
G70*
G01*
G75*
%ADD105C,0.00394*%
D105*
X-99788Y-227438D02*
X-100052Y-226454D01*
X-100772Y-225733D01*
X-101756Y-225469D01*
X-102741Y-225733D01*
X-103461Y-226454D01*
X-103725Y-227438D01*
X-103461Y-228422D01*
X-102741Y-229143D01*
X-101756Y-229406D01*
X-100772Y-229143D01*
X-100052Y-228422D01*
X-99788Y-227438D01*
X-182357Y-209078D02*
X-182620Y-208094D01*
X-183341Y-207373D01*
X-184325Y-207110D01*
X-185310Y-207373D01*
X-186030Y-208094D01*
X-186294Y-209078D01*
X-186030Y-210062D01*
X-185310Y-210783D01*
X-184325Y-211047D01*
X-183341Y-210783D01*
X-182620Y-210062D01*
X-182357Y-209078D01*
X-182725Y-186610D02*
X-182989Y-185625D01*
X-183709Y-184905D01*
X-184694Y-184641D01*
X-185678Y-184905D01*
X-186398Y-185625D01*
X-186662Y-186610D01*
X-186398Y-187594D01*
X-185678Y-188314D01*
X-184694Y-188578D01*
X-183709Y-188314D01*
X-182989Y-187594D01*
X-182725Y-186610D01*
X-181175Y-160653D02*
X-181439Y-159669D01*
X-182159Y-158948D01*
X-183143Y-158684D01*
X-184128Y-158948D01*
X-184848Y-159669D01*
X-185112Y-160653D01*
X-184848Y-161637D01*
X-184128Y-162358D01*
X-183143Y-162621D01*
X-182159Y-162358D01*
X-181439Y-161637D01*
X-181175Y-160653D01*
X-38782Y-278496D02*
X-39046Y-277512D01*
X-39766Y-276791D01*
X-40750Y-276528D01*
X-41735Y-276791D01*
X-42455Y-277512D01*
X-42719Y-278496D01*
X-42455Y-279480D01*
X-41735Y-280201D01*
X-40750Y-280465D01*
X-39766Y-280201D01*
X-39046Y-279480D01*
X-38782Y-278496D01*
X-157951Y-126026D02*
X-158215Y-125042D01*
X-158935Y-124321D01*
X-159920Y-124057D01*
X-160904Y-124321D01*
X-161624Y-125042D01*
X-161888Y-126026D01*
X-161624Y-127010D01*
X-160904Y-127731D01*
X-159920Y-127995D01*
X-158935Y-127731D01*
X-158215Y-127010D01*
X-157951Y-126026D01*
X-99011Y-92265D02*
X-99275Y-91280D01*
X-99995Y-90560D01*
X-100979Y-90296D01*
X-101964Y-90560D01*
X-102684Y-91280D01*
X-102948Y-92265D01*
X-102684Y-93249D01*
X-101964Y-93969D01*
X-100979Y-94233D01*
X-99995Y-93969D01*
X-99275Y-93249D01*
X-99011Y-92265D01*
X-113961Y-215233D02*
X-98213D01*
X-113961Y-230981D02*
X-98213D01*
X-113961D02*
X-113961Y-215233D01*
X-98213Y-230981D02*
Y-215233D01*
X-187868Y-217346D02*
Y-205535D01*
X-176058Y-217346D02*
Y-205535D01*
X-187868Y-205535D02*
X-176058Y-205535D01*
X-187868Y-217346D02*
X-176058Y-217346D01*
X-188237Y-194877D02*
X-176426D01*
X-188237Y-183066D02*
X-176426D01*
Y-194877D02*
Y-183066D01*
X-188237Y-194877D02*
Y-183066D01*
X-186687Y-168921D02*
Y-157110D01*
X-174876Y-168921D02*
Y-157110D01*
X-186687Y-157110D02*
X-174876Y-157110D01*
X-186687Y-168921D02*
X-174876Y-168921D01*
X-37207Y-282039D02*
Y-261961D01*
X-52955Y-282039D02*
Y-261961D01*
Y-282039D02*
X-37207D01*
X-52955Y-261961D02*
X-37207D01*
X-178424Y-88231D02*
X-156376Y-88231D01*
X-178424Y-129569D02*
X-156376Y-129569D01*
X-178424Y-129569D02*
Y-88231D01*
X-156376Y-129569D02*
Y-88231D01*
X-104523Y-128091D02*
Y-88721D01*
X-65153Y-128091D02*
Y-88721D01*
X-104523D02*
X-65153D01*
X-104523Y-128091D02*
X-65153D01*
X-35818Y-94385D02*
X-28928D01*
X-35818Y-106393D02*
X-28928D01*
X-35818D02*
Y-94385D01*
X-28928Y-106393D02*
Y-94385D01*
M02*
